<?xml version="1.0" standalone="no"?>
<!DOCTYPE svg PUBLIC "-//W3C//DTD SVG 1.1//EN" "http://www.w3.org/Graphics/SVG/1.1/DTD/svg11.dtd" >
<svg xmlns="http://www.w3.org/2000/svg" xmlns:xlink="http://www.w3.org/1999/xlink" version="1.1">
<metadata>
Created by FontForge 20150102 at Sat Mar  7 20:18:00 2015
 By uniteet7
</metadata>
<defs>
<font id="Angelline" horiz-adv-x="650" >
  <font-face 
    font-family="Angelline"
    font-weight="400"
    font-stretch="normal"
    units-per-em="1000"
    panose-1="0 0 0 0 0 0 0 0 0 0"
    ascent="750"
    descent="-250"
    x-height="490.5"
    cap-height="1017"
    bbox="-2466.38 -709.098 3708.4 1324.47"
    underline-thickness="50"
    underline-position="-50"
    unicode-range="U+0020-FB01"
  />
<missing-glyph horiz-adv-x="242" 
 />
    <glyph glyph-name="a_g" unicode="ag" horiz-adv-x="1257" 
d="M1001 -66q46 22 82.5 42.5t67 43.5t57.5 49.5t54 61.5q2 2 6 -2.5t9 -11.5q-35 -41 -64.5 -70t-61.5 -52.5t-69 -43.5t-86 -43q-18 -87 -37 -171.5t-45.5 -152t-64.5 -111.5t-93 -51q-46 -6 -77 6t-48.5 35.5t-22.5 55t-0.5 66t18.5 68t35 60.5q23 30 54 56.5t66.5 50
t74 44t77.5 38.5q16 79 27 153t28 154q-8 -11 -23.5 -32.5t-37 -47t-47.5 -51.5t-54.5 -45.5t-57.5 -30t-56 -5.5q-26 5 -47.5 20.5t-35.5 40t-19 56t3 68.5q1 2 1 4t1 4q-26 -45 -54.5 -92t-56 -89.5t-54 -76.5t-48.5 -51q-17 -14 -32.5 -8t-25.5 20q-17 23 -15.5 65.5
t11.5 90t22.5 91t18.5 69.5q-8 -11 -24 -32.5t-37.5 -47t-47.5 -51.5t-54.5 -45.5t-57.5 -30t-56 -5.5q-26 5 -47.5 20.5t-35.5 40t-18.5 56t2.5 68.5t24.5 75t41 74t52 67.5t59.5 54.5q41 31 82.5 37.5t72 -8.5t45.5 -51.5t2 -92.5q-2 -8 -5 -9t-6 0.5t-5 4.5t-2 4
q2 40 -9.5 63t-33.5 31q-31 11 -64.5 -5.5t-65 -50t-58 -79t-43.5 -92t-21 -89t9 -69.5q16 -33 43 -34t59 18t65.5 52t63 68.5t50.5 66.5t28 47q2 5 13 2t22.5 -10t20 -16t5.5 -16q-31 -103 -49 -179q-8 -32 -13 -61.5t-6 -49.5t4 -27.5t18 3.5q14 12 33 37t41 58.5t46 72
t48 78t46.5 76.5t41.5 68q16 30 35 55q6 8 8 11l1 1q39 50 85 85q41 31 82.5 37.5t72.5 -8.5t45.5 -51.5t1.5 -92.5q-2 -8 -4.5 -9t-5.5 0.5t-5 4.5t-2 4q2 40 -10 63t-33 31q-31 11 -64.5 -5.5t-65 -50t-58.5 -79t-43.5 -92t-21 -89t8.5 -69.5q16 -33 43 -34t59 18t66 52
t63 68.5t50 66.5t28 47q2 5 12.5 2t21.5 -9.5t20 -16t8 -16.5q0 -3 -5 -26t-13 -61t-18 -90.5t-21 -113.5zM677 -306q-17 -23 -30 -56.5t-16.5 -68.5t6.5 -65.5t40 -46.5q30 -15 57 -6t51 36t44.5 69.5t38 94t32.5 109t27 114.5q-36 -18 -72 -37.5t-68.5 -42t-60.5 -47.5
t-49 -53z" />
    <glyph glyph-name="a_t" unicode="at" horiz-adv-x="939" 
d="M814 808q4 18 15 19t22.5 -6t19.5 -16.5t7 -13.5q-2 -5 -4.5 -15t-8 -30.5t-14.5 -54.5t-23 -88q32 -3 55 -5t39.5 -2t29.5 2t25 7q9 4 10.5 2t-1 -6.5t-8.5 -9.5t-13 -7q-14 -5 -26.5 -6.5t-28 -1.5t-37 2t-51.5 4q-9 -33 -19 -72.5t-21 -81.5t-21.5 -83t-19.5 -75
t-15 -58.5t-8 -33.5q-4 -17 -9.5 -46t-8 -59.5t0 -56.5t14.5 -37q14 -12 35.5 -8t48 20.5t55.5 43.5t57 60q8 9 15.5 17.5t15.5 19.5q2 2 6 -3t9 -12q-8 -9 -15 -17.5t-15 -17.5q-28 -30 -59 -57t-61 -46t-58.5 -27t-52.5 0q-30 10 -42 38t-13.5 62t4 69t10.5 60q2 9 8.5 36
t16 64.5t21 82.5t23.5 90q-22 -50 -49 -108t-56 -116.5t-59.5 -115t-59 -103.5t-54 -81t-44.5 -49q-17 -14 -32.5 -7.5t-25.5 20.5q-11 15 -14 39.5t0 54t10 61.5t15 62t15 55.5t11 42.5q-8 -11 -24 -32.5t-37.5 -47t-47.5 -51.5t-54.5 -45.5t-57.5 -30t-56 -5.5
q-26 5 -47.5 20.5t-35.5 40t-18.5 56t2.5 68.5t24.5 75t41 74t52 68t59.5 55q41 31 82.5 37.5t72 -9t45.5 -52t2 -92.5q-2 -8 -5 -9t-6 1t-5 5t-2 4q2 39 -9.5 62t-33.5 31q-31 11 -64.5 -5.5t-65 -50t-58 -78.5t-43.5 -91.5t-21 -89t9 -69.5q16 -33 43 -34.5t59 17.5
t65.5 52.5t63 68.5t50.5 66.5t28 47.5q2 5 13 2t22.5 -10.5t20 -16.5t5.5 -16q-32 -104 -50 -180q-8 -32 -13.5 -61.5t-6 -50t4.5 -28.5t19 3q15 11 43 54t63.5 104t73.5 134t72.5 144.5t62 135.5t40.5 108q-27 2 -43.5 4.5t-28 4t-21.5 2.5t-23 0q-12 0 -12.5 2t4 4.5
t10.5 5t8 2.5q13 2 22.5 2.5t20.5 0t26.5 -2.5t41.5 -4q14 54 23 88t14 56t8 34t5 21z" />
    <glyph glyph-name="a_y" unicode="ay" horiz-adv-x="1222" 
d="M323 432q-31 11 -64.5 -5.5t-65 -50t-58.5 -79t-43.5 -92t-21 -89t8.5 -69.5q16 -33 43 -34t59 18t66 52t63 68.5t50 66.5t28 47q2 5 13 2t23 -10t20.5 -16t5.5 -16q-31 -103 -49 -179q-8 -32 -13.5 -61.5t-6.5 -49.5t4 -27.5t18 3.5q17 15 46 57t63.5 98t71.5 119.5
t70.5 121t60.5 102.5t42 64q6 13 19.5 13.5t26 -7t19.5 -21t-1 -27.5q-16 -28 -32.5 -65.5t-30.5 -78.5t-24.5 -82t-15 -76.5t-1.5 -62t16 -37.5q19 -17 41 -14.5t44.5 18t44.5 43t43 61t39 70t33 72.5q8 21 15 40.5t12 37.5q4 12 10.5 14t14.5 -1t15.5 -9.5t13.5 -13.5
q9 -12 9 -17q-5 -15 -13.5 -42t-17.5 -57.5t-17 -59t-13 -46.5q-2 -5 -2.5 -9t-1.5 -6l-1 -10q-10 -42 -18.5 -79.5t-13.5 -63.5q-2 -7 -2.5 -12.5t-2.5 -10.5l24 12q11 5 20.5 10t19.5 10q63 34 108.5 71.5t89.5 93.5q3 3 9 -5l6 -9q-28 -34 -53 -59.5t-50 -45.5
t-52.5 -37.5t-60.5 -34.5q-15 -8 -31 -16t-34 -16q-18 -87 -37 -171.5t-45.5 -152t-64.5 -111.5t-93 -51q-46 -6 -77 6t-48.5 35.5t-22.5 55t-0.5 66t18.5 68t35 60.5q23 30 54 56.5t66.5 50t74 44t77.5 38.5q11 54 22 106t22 103l1 7q3 16 6.5 36.5t8.5 36.5
q-34 -67 -66 -108.5t-62.5 -62.5t-59.5 -24t-56 7q-36 13 -49 49.5t-10 87.5t19 110.5t39 118.5q-23 -38 -49.5 -85t-55 -96.5t-57 -98t-55.5 -90t-51 -73t-43 -45.5q-17 -14 -32.5 -8t-26.5 20q-17 23 -15.5 65.5t11.5 90t22.5 91t18.5 69.5q-8 -11 -24 -32.5t-37.5 -47
t-47.5 -51.5t-54 -45.5t-57 -30t-56 -5.5t-48.5 20.5t-35 40t-18.5 56t3 68.5q7 37 24 75t40.5 74t52 67.5t59.5 54.5q41 31 82.5 37.5t72 -8.5t45.5 -51.5t2 -92.5q-2 -8 -5 -9t-6 0.5t-5 4.5t-2 4q3 40 -9 63t-33 31zM892 -126q-36 -18 -72 -37.5t-68.5 -42t-60.5 -47.5
t-49 -53q-17 -23 -30 -56.5t-16.5 -68.5t6.5 -65.5t40 -46.5q30 -15 57 -6t51 36t44.5 69.5t38 94t32.5 109t27 114.5z" />
    <glyph glyph-name="b_r" unicode="br" horiz-adv-x="1074" 
d="M69 172q-3 -14 -7 -32.5t-6.5 -38t-4 -38t0.5 -32.5q39 144 96 242.5t115 150t109.5 55t80.5 -41.5q17 -27 17 -72.5t-12 -97.5t-32.5 -105t-44.5 -96q61 14 121.5 55t111.5 95t87 116t48 118q-14 12 -28 27.5t-25 35.5t-17.5 45.5t-6.5 58.5q0 30 7 52t18 35.5t24 17.5
t25 -2q14 -8 21.5 -26.5t10.5 -43.5t2.5 -53.5t-2.5 -55t-5.5 -49.5t-5.5 -37q5 -6 27.5 -21.5t46 -36t41.5 -43t14 -42.5q-6 -35 -20 -83t-27.5 -96.5t-22 -90.5t-3.5 -64q6 -26 30 -25t56 17t66.5 42t61.5 51q11 10 20.5 19.5t16.5 17.5q2 2 9.5 -0.5t10.5 -7.5
q-15 -17 -42 -41.5t-60 -48.5t-68 -44t-66.5 -27t-56.5 2.5t-36 43.5q-5 13 -2.5 36.5t9 53t15.5 63t18.5 66.5t18 63t12.5 53q5 24 0.5 41t-15.5 30.5t-26.5 26t-31.5 27.5q-17 -69 -59 -135.5t-97.5 -120t-118 -89.5t-119.5 -46q-22 -35 -48.5 -64.5t-55.5 -49.5
q-36 -24 -75.5 -31t-66 1.5t-32 30.5t27.5 55q7 7 22.5 14.5t35 14.5t42.5 13.5t46 11.5q64 108 95.5 185.5t37.5 127t-9 71.5t-43.5 17.5t-66 -34.5t-76 -83.5t-74.5 -130.5t-61 -176q-2 -11 -8 -15.5t-12.5 -5t-13.5 1t-10 3.5q-18 7 -22 44.5t1.5 94.5t19 129t31.5 149
t38.5 154.5t40.5 145t37 120t28 80.5q13 33 29 64t37 55t47 38.5t58 13.5q25 -1 46 -21t31 -54.5t6 -81.5t-29 -104q-41 -93 -85 -183t-89 -173.5t-91 -159.5t-89 -142zM765 616q-1 48 -9.5 70t-18.5 19.5t-17.5 -29t-6.5 -75.5q2 -45 12.5 -76t27.5 -53q12 67 12 144z
M199 6q-59 -20 -77.5 -42.5t-9 -33t40 -1t69.5 55.5q7 8 13.5 16.5t13.5 18.5q-14 -4 -26.5 -7t-23.5 -7zM75 218q37 56 81.5 133.5t89.5 162t86 170t70 157.5q18 45 24 78.5t2.5 57t-14 36.5t-25.5 17q-25 7 -50 -19t-50 -74.5t-49 -114.5t-46 -138t-41 -145.5t-34.5 -137
t-26.5 -112t-17 -71.5z" />
    <glyph glyph-name="b_s" unicode="bs" horiz-adv-x="995" 
d="M68 172q-3 -14 -6.5 -32.5t-6 -38t-4 -38.5t0.5 -33q39 145 96 243.5t115 149.5t109.5 54.5t80.5 -41.5q17 -27 17 -71.5t-11.5 -96t-32 -104t-44.5 -95.5q120 28 198 94t126 164q-9 45 -14.5 90t-4 88t11.5 83t32 75q18 27 46.5 40.5t51.5 6t31.5 -38.5t-14.5 -91
q-17 -44 -41.5 -97t-47.5 -100q17 -76 37.5 -145t29.5 -120q34 15 66 34.5t58.5 40t46 40.5t29.5 36q3 4 6.5 4t6.5 -2.5t5 -5.5l2 -3q-17 -22 -36.5 -42.5t-45 -40.5t-59 -40t-77.5 -40q2 -24 3 -50.5t-2 -52t-11.5 -49.5t-25.5 -44q-34 -40 -74.5 -50.5t-74 0.5t-53 38.5
t-11.5 62.5t50 73.5t133 70.5q-4 25 -9.5 48t-11.5 46.5t-13 49t-14 56.5q-22 -42 -53.5 -81.5t-73.5 -73t-96 -59t-120 -38.5q-22 -35 -48.5 -64.5t-55.5 -49.5q-32 -22 -68 -29.5t-63 -2.5t-39 21.5t4 42.5q12 19 31.5 31.5t43 21.5t47.5 14.5t44 10.5q64 107 95.5 185
t37.5 127.5t-9 71t-43.5 17.5t-66 -34t-76 -83.5t-74.5 -130.5t-61 -176q-2 -11 -8 -15.5t-12.5 -5.5t-13.5 1t-10 4q-18 7 -22 44.5t1.5 94.5t19 129t31.5 149t38.5 154t40.5 144.5t37 120.5t28 81q13 32 29 63.5t37 55.5t47 38t58 13q25 -1 46 -20.5t31 -54t5.5 -82
t-28.5 -103.5q-41 -93 -85 -183t-89.5 -173.5t-91 -159.5t-89.5 -142zM751 407q23 42 41.5 89.5t35.5 87.5q21 50 18 76.5t-17 33.5t-33.5 -2.5t-31.5 -31.5q-31 -56 -29 -120.5t16 -132.5zM765 79q-87 -32 -125.5 -66.5t-43.5 -64.5t15 -51t49 -24.5t59 14.5t46 66
q3 10 4 25.5t1 33t-1.5 35.5t-3.5 32zM199 6q-39 -13 -60 -28t-27 -28t0.5 -20.5t22.5 -5.5t38.5 16t48.5 44q7 8 13.5 17t13.5 18q-14 -3 -26.5 -6t-23.5 -7zM75 218q37 56 81.5 133.5t89.5 162t86 169.5t70 157q18 45 24 79t2.5 57t-14.5 36.5t-25 17.5q-25 7 -50 -19
t-50 -74.5t-49 -114.5t-46 -138t-41 -145.5t-34.5 -137t-26.5 -112t-17 -71.5z" />
    <glyph glyph-name="b_z" unicode="b&#x7a;" horiz-adv-x="1058" 
d="M69 171q-3 -14 -7 -32t-6.5 -37.5t-4 -38.5t0.5 -33q39 145 96 243.5t115 149.5t109.5 54.5t80.5 -41.5q17 -27 17 -72t-12 -97t-32.5 -105t-44.5 -96q68 20 124 52t100 78.5t76 109t52 143.5q-14 13 -28 28.5t-25 35.5t-17.5 45.5t-6.5 58.5q0 30 7 52t18 35.5
t23.5 17.5t24.5 -3q21 -11 28.5 -46t7.5 -77t-5 -81.5t-9 -59.5q5 -6 27 -20t46 -31.5t41.5 -38t14.5 -40.5q-6 -34 -21.5 -71t-39.5 -73.5t-55 -70t-69 -60.5q38 -21 58 -51t36 -68q3 -7 5.5 -13.5t4.5 -13.5q44 29 89 57.5t87 60.5q24 19 46.5 40.5t35.5 36.5q2 3 10 0.5
t11 -7.5q-11 -14 -36.5 -37t-50.5 -42q-46 -32 -93 -62.5t-94 -61.5q16 -57 16.5 -121t-14.5 -124.5t-46.5 -113.5t-78.5 -88q-21 -16 -42.5 -19.5t-41 3t-35.5 22t-27 36.5q-20 41 -16.5 96.5t36.5 110.5q15 24 36.5 47.5t48.5 46.5t57.5 46t62.5 46q-13 51 -31.5 80
t-38 44.5t-36.5 20.5t-26 8.5t-7.5 9t19.5 20.5q26 22 56 53t56 67.5t45.5 77.5t24.5 84q-2 16 -8.5 28t-17 23t-23.5 21.5t-26 22.5q-33 -152 -130.5 -254t-247.5 -137q-22 -35 -48.5 -64.5t-55.5 -49.5q-36 -25 -75.5 -32t-66 1.5t-32 30.5t27.5 55q7 7 22.5 15t35 15
t42.5 13.5t46 11.5q64 107 95.5 185t37.5 127.5t-9 71t-43.5 17.5t-66 -34t-76 -83.5t-74.5 -130.5t-61 -176q-2 -11 -8 -15.5t-12.5 -5.5t-13.5 1t-10 4q-18 7 -22 44.5t1.5 94.5t19 129t31.5 149t38.5 154t40.5 144.5t37 120t28 80.5q13 33 29 64t37 55.5t47 38.5t58 13
q25 -1 46 -20.5t31 -54t6 -82t-29 -103.5q-41 -93 -85 -183t-89 -174t-91 -160t-89 -142zM764 -139q-63 -43 -114 -88t-78 -92q-26 -45 -31 -88.5t5 -75.5t31 -47t48 -3q48 21 80 65t49 99t19 115.5t-9 114.5zM736 472q6 34 9.5 70t3.5 74q-1 47 -9.5 69t-18.5 19.5
t-17.5 -28.5t-6.5 -75q1 -45 11.5 -76t27.5 -53zM199 6q-39 -13 -60 -28t-27 -28t0.5 -20.5t22.5 -5.5t38.5 16t48.5 44q7 8 13.5 17t13.5 18q-14 -3 -26.5 -6t-23.5 -7zM75 218q37 56 81.5 133.5t89.5 162t86 169.5t70 157q18 45 24 79t2.5 57t-14 36t-25.5 18
q-25 7 -50 -19t-50 -74.5t-49 -114.5t-46 -138.5t-41 -145.5t-34.5 -136.5t-26.5 -112t-17 -71.5z" />
    <glyph glyph-name="d_a" unicode="da" horiz-adv-x="1332" 
d="M384 336q-2 -8 -5 -9t-6 0.5t-5 4.5t-2 4q2 40 -9.5 63t-33.5 31q-31 11 -64.5 -5.5t-65 -50t-58 -78.5t-43.5 -91.5t-21 -89t9 -69.5q15 -32 41 -34t57 15.5t63.5 48.5t61.5 65t51 66t32 50q11 45 27 108.5t34.5 135.5t38 147.5t37.5 144.5q6 24 15.5 55.5t22 64.5
t29.5 65t38.5 57t48 39.5t59.5 13.5q26 -1 47 -21t31 -54.5t5.5 -81.5t-28.5 -104q-41 -93 -82.5 -168.5t-82.5 -137.5t-81.5 -114.5t-79.5 -99.5q-3 -13 -11 -44.5t-17.5 -73.5t-18 -89.5t-13.5 -92t-4.5 -80.5t10.5 -55q9 -16 28 -4.5t44.5 41.5t55.5 74.5t61.5 93.5
t61 99t54.5 91q26 54 64.5 103.5t82.5 82.5q41 31 82.5 37.5t72 -9t45.5 -52t2 -92.5q-2 -8 -5 -9t-6 1t-5 5t-2 4q3 39 -9 62t-33 31q-31 11 -64.5 -5.5t-65 -50t-58.5 -78.5t-43.5 -91.5t-21 -89t8.5 -69.5q16 -33 43 -34.5t59 17.5t66 52.5t63 68.5t50 66.5t28 47.5
q2 5 13 2t22.5 -10.5t20 -16.5t6.5 -16q-29 -89 -37 -144t0 -82.5t29.5 -30.5t50.5 12t63 45.5t68 69.5q8 9 16.5 19t16.5 21q2 2 5 -4.5t8 -13.5q-29 -35 -63.5 -70t-70 -61t-68.5 -39t-60 -3q-26 9 -39 30t-17 47t-1 55t9 55t12 47t8 31q-8 -11 -24 -32.5t-37.5 -47
t-47.5 -51.5t-54 -45.5t-57 -30t-56 -5.5t-48.5 20.5t-35 40t-18.5 56t3 68.5v3q-38 -64 -79 -132t-81.5 -121.5t-77 -83t-63.5 -16.5q-19 9 -28.5 33.5t-13 57t-2 70t6 73.5t9.5 66.5t9 48.5l3 12q-17 -23 -46.5 -59.5t-66 -69.5t-76.5 -54t-77 -14q-26 5 -47.5 20.5
t-35.5 40t-18.5 56t2.5 68.5t24.5 75t41 74t52 67.5t59.5 54.5q41 31 82.5 37.5t72 -8.5t45.5 -51.5t2 -92.5zM586 783q-20 -74 -35.5 -134.5t-28.5 -111.5t-24 -95t-21 -85q38 49 77.5 103.5t78 114.5t73.5 125.5t64 137.5q18 45 24 80t3 59.5t-14 37t-26 12.5
q-24 0 -44 -13t-37.5 -34.5t-32 -48.5t-25.5 -54t-19 -52t-13 -42z" />
    <glyph glyph-name="d_i" unicode="di" horiz-adv-x="1035" 
d="M384 339q-2 -8 -5 -9t-6 0.5t-5 4.5t-2 4q2 40 -9.5 63t-33.5 31q-31 11 -64.5 -5.5t-65 -50t-58 -78.5t-43.5 -91.5t-21 -89t9 -69.5q15 -32 41 -34t57 15.5t63.5 48.5t61.5 65.5t51 66t32 50.5q11 45 27 108t34.5 135t38 147.5t37.5 144.5q6 24 15.5 55.5t22 64.5
t29.5 65t38.5 57t48 39.5t59.5 13.5q26 -1 47 -21t31 -54.5t5.5 -81.5t-28.5 -104q-41 -93 -82.5 -168t-82.5 -137.5t-81.5 -115t-79.5 -99.5l-11 -44t-17.5 -74t-18 -89.5t-13.5 -92t-4.5 -80.5t10.5 -55q8 -16 27 -3t45 45t57.5 79t64 99.5t64 107t59 101.5t48 81.5
t30.5 48.5q6 12 16.5 10.5t21 -8t17.5 -15.5t6 -13q-5 -14 -14.5 -45t-20 -69.5t-19.5 -81t-13.5 -80.5t-2 -67t16.5 -40q11 -10 26 -13t35.5 4.5t45.5 26.5t55 54q18 20 32.5 39t32.5 42q2 3 14 -14q-14 -18 -29.5 -39t-33.5 -41q-21 -24 -44.5 -44.5t-48.5 -33.5
t-51.5 -16t-53.5 8q-25 10 -37.5 33.5t-15.5 55t1 69t12 76t18 75.5t18 69q-26 -41 -59.5 -100.5t-70.5 -123.5t-75.5 -126t-75 -108.5t-68.5 -70.5t-55 -13q-19 9 -28.5 33.5t-13 57t-2 70t6 73.5t9.5 66.5t9 48.5l3 12q-17 -23 -46.5 -59.5t-66 -69.5t-76.5 -54t-77 -14
q-26 5 -47.5 20.5t-35.5 40t-18.5 56t2.5 68.5t24.5 75t41 74t52 67.5t59.5 54.5q41 31 82.5 37.5t72 -8.5t45.5 -51.5t2 -92.5zM928 654q11 -13 9 -32.5t-10 -40.5t-19.5 -39.5t-18.5 -29.5q-10 -15 -19.5 -19.5t-17 -1.5t-12 12t-4.5 21q0 22 7 53t20 55.5t30 33.5t35 -12
zM586 786q-20 -74 -35.5 -134.5t-28.5 -111.5t-24 -95t-21 -85q38 49 77.5 103.5t78 114.5t73.5 125.5t64 137.5q18 45 24 80.5t3 60t-14 37t-26 12.5q-35 0 -63.5 -28.5t-50 -68t-36 -81t-21.5 -67.5z" />
    <glyph glyph-name="d_u" unicode="du" horiz-adv-x="1302" 
d="M1073 357q4 16 15 15t21.5 -9t18.5 -19t7 -14q-6 -17 -15.5 -49t-19.5 -66t-18.5 -63.5t-10.5 -41.5q-12 -56 -9.5 -88.5t15.5 -45.5t35 -9t48.5 21t56.5 44.5t59 61.5q8 10 15.5 18.5t15.5 19.5q2 2 6 -3t9 -12q-29 -35 -63.5 -70t-69.5 -61t-68 -39t-60 -3
q-25 9 -38 27.5t-17.5 42.5t-2.5 51t7 53q3 16 6.5 36.5t8.5 36.5q-34 -67 -66 -108.5t-62.5 -62.5t-59.5 -24t-56 7q-34 12 -47.5 45.5t-12 80t15 102.5t33.5 112q-27 -45 -60 -103.5t-68.5 -118.5t-71.5 -116.5t-69.5 -97.5t-63 -62t-51.5 -10q-19 9 -28.5 33t-13 56.5
t-2 70.5t6 73.5t9.5 66t9 48.5l3 12q-11 -15 -28.5 -37t-38.5 -45.5t-45.5 -46t-50 -39.5t-52 -25.5t-51.5 -3.5q-26 5 -47.5 21t-35.5 40.5t-18.5 56t2.5 68.5t24.5 75t41 74t52 67.5t59.5 54.5q41 31 82.5 37.5t72 -8.5t45.5 -52t2 -93q-2 -7 -5 -8t-6 0.5t-5 4.5t-2 4
q2 39 -9.5 62t-33.5 31q-31 11 -64.5 -5.5t-65 -50t-58 -78.5t-43.5 -91.5t-21 -89t9 -69.5q15 -32 41 -34t57 15.5t63.5 49t61.5 65.5t51 66t32 50q11 45 27 108.5t34.5 135.5t38 147.5t37.5 144.5q6 24 15.5 55.5t22 64.5t29.5 65t38.5 57t48 39.5t59.5 13.5q26 -1 47 -21
t31 -54.5t5.5 -81.5t-28.5 -104q-41 -93 -82.5 -168.5t-82.5 -138t-81.5 -114.5t-79.5 -100l-11 -44t-17.5 -73.5t-18 -89t-13.5 -92t-4.5 -80.5t10.5 -55q8 -15 26.5 -3t43.5 42.5t55.5 76t62.5 97t63 105t58.5 100.5t49 84t33.5 55q8 11 11.5 19t9.5 21t20 13.5t26.5 -7
t19 -21t-1.5 -27.5q-16 -28 -32.5 -65.5t-30.5 -78.5t-24.5 -82t-15 -76.5t-1.5 -61.5t16 -37q23 -20 49.5 -13.5t53.5 30.5t53 62.5t48.5 81.5t40 86.5t28.5 79.5zM586 786q-20 -74 -35.5 -134.5t-28.5 -111.5t-24 -95t-21 -85q77 100 155.5 218.5t137.5 263.5q18 45 24 80
t3 59.5t-14 37t-26 12.5q-35 0 -63.5 -28.5t-50 -67.5t-36 -80.5t-21.5 -68.5z" />
    <glyph glyph-name="d_o" unicode="do" horiz-adv-x="1268" 
d="M1068 195q3 11 7.5 32.5t7.5 47t3.5 52t-3.5 47.5q-5 24 -16.5 33.5t-24 6t-23 -18.5t-14.5 -39q-3 -21 -1.5 -44.5t9 -46t21.5 -41t34 -29.5zM384 339q-2 -8 -5 -9t-6 0.5t-5 4.5t-2 4q2 40 -9.5 63t-33.5 31q-31 11 -64.5 -5.5t-65 -50t-58 -78.5t-43.5 -91.5t-21 -89
t9 -69.5q15 -32 41 -34t57 15.5t63.5 48.5t61.5 65t51 66t32 50q11 45 27 108.5t34.5 135.5t38 147.5t37.5 144.5q6 24 15.5 55.5t22 64.5t29.5 65t38.5 57t48 39.5t59.5 13.5q26 -1 47 -21t31 -54.5t5.5 -81.5t-28.5 -104q-41 -93 -82.5 -168.5t-82.5 -137.5t-81.5 -114.5
t-79.5 -99.5l-11 -44t-17.5 -74t-18 -89.5t-13.5 -92t-4.5 -80.5t10.5 -55q8 -15 24.5 -6t39.5 34.5t50 63.5t56 82.5t57.5 91.5t53.5 89t45.5 75.5t32.5 52.5q6 10 11 18t10 18q26 48 58 81t64 43q30 9 54.5 0.5t40.5 -21.5t21 -25t-5 -10q-16 2 -34.5 5t-32.5 -4
q-25 -12 -50 -42.5t-46 -71.5t-35.5 -88t-19.5 -91.5t2 -82.5t30 -60q12 -13 28 -17.5t33 -5.5q30 -1 55.5 12t46 37t36 56t26.5 68q-27 16 -44.5 37.5t-27 46.5t-11 51.5t3.5 51.5q6 27 21.5 45.5t34 24t35.5 -5t25 -40.5q6 -23 6.5 -51t-2 -56t-7.5 -53t-9 -40
q37 -8 93 15.5t116 86.5q1 1 4.5 -6.5t6.5 -12.5q-35 -33 -65 -54.5t-57.5 -32.5t-53 -13.5t-49.5 0.5q-12 -37 -29 -70.5t-40 -59t-51.5 -41.5t-61.5 -19q-50 -4 -96 24q-32 19 -49.5 50t-23.5 68.5t-2 79.5t16 83q-26 -41 -56 -94t-62.5 -106.5t-66 -103.5t-65 -86.5
t-60 -54.5t-50.5 -7q-19 9 -28.5 33.5t-13 57t-2 70t6 73.5t9.5 66.5t9 48.5l3 12q-17 -23 -46.5 -59.5t-66 -69.5t-76.5 -54t-77 -14q-26 5 -47.5 20.5t-35.5 40t-18.5 56t2.5 68.5t24.5 75t41 74t52 67.5t59.5 54.5q41 31 82.5 37.5t72 -8.5t45.5 -51.5t2 -92.5zM586 786
q-20 -74 -35.5 -134.5t-28.5 -111.5t-24 -95t-21 -85q38 49 77.5 103.5t78 114.5t73.5 125.5t64 137.5q18 45 24 80t3 59.5t-14 37t-26 12.5q-24 0 -44 -13t-37.5 -34.5t-32 -48.5t-25.5 -54t-19 -52t-13 -42z" />
    <glyph glyph-name="f_u" unicode="fu" horiz-adv-x="978" 
d="M749 357q5 17 15.5 16t21.5 -9.5t18.5 -19.5t6.5 -14q-6 -17 -15.5 -49t-19.5 -66t-18 -63.5t-11 -41.5q-18 -83 -4.5 -115t45.5 -27t76 40.5t88 86.5q8 9 15.5 18t15.5 19q2 2 6 -2.5t9 -12.5q-29 -35 -63.5 -70t-69.5 -61t-68 -38.5t-60 -3.5q-25 9 -38 27.5
t-17.5 42.5t-2.5 51t7 53q3 16 6.5 37t8.5 37q-33 -67 -65 -108.5t-62.5 -62.5t-59.5 -24.5t-56 6.5q-36 13 -49 48.5t-10.5 85t17.5 108t37 116.5q-25 -43 -53 -91t-57.5 -94.5t-60.5 -87.5t-63 -70t-65 -42t-66 -4q31 -44 51 -99.5t27 -113.5t2 -114.5t-24 -102.5
t-52 -77.5t-81 -39.5q-30 -5 -49 14t-29 55.5t-11.5 87t2 109t12 122t19.5 125.5q16 91 37.5 182.5t45 183t48 182t47.5 179.5q6 24 15.5 55.5t22 64.5t29.5 65t38.5 57t48 39.5t59.5 13.5q26 -1 47 -21t31 -54.5t5.5 -81.5t-28.5 -104q-41 -93 -82.5 -168.5t-82.5 -137.5
t-81.5 -114.5t-79.5 -99.5q-14 -61 -28 -119.5t-25 -120.5q-11 -61 -19 -123.5t-12 -120t-2.5 -108t10.5 -87.5q10 -42 33.5 -46t48 21t44.5 75t24.5 116.5t-13 145.5t-67.5 161q-5 7 0 13t11 4q37 -14 75.5 5.5t76.5 59.5t73.5 94t67 109t58 103.5t45.5 78.5q13 21 27 38
q7 10 20.5 9t25 -8.5t17.5 -20.5t-2 -26q-16 -28 -32 -65.5t-30 -78.5t-24.5 -82t-15 -76.5t-1.5 -62t16 -37.5q23 -20 49 -13.5t53 30.5t53 62.5t48.5 81.5t40 86.5t28.5 79.5zM380 710q18 45 24 80t3 59.5t-14 37t-26 12.5q-35 0 -63.5 -28.5t-50 -67.5t-36 -80.5
t-21.5 -68.5q-20 -74 -35.5 -134.5t-28.5 -111.5t-24 -95l-21 -84q38 49 77.5 103.5t78 114.5t73.5 125.5t64 137.5z" />
    <glyph glyph-name="g_j" unicode="gj" horiz-adv-x="1059" 
d="M395 -61q11 61 21 113.5t18.5 90.5t13.5 60.5t5 25.5q1 7 -8 16.5t-20 16t-21.5 9.5t-12.5 -1q-7 -16 -28 -47.5t-50.5 -66.5t-63 -68.5t-65.5 -52.5t-59 -17.5t-43 34.5q-13 27 -8.5 69.5t21 89t43 91.5t58 78.5t65.5 50t65 5.5q21 -8 32.5 -31t9.5 -63q0 -1 2 -4
t5 -4.5t6 -0.5t5 9q13 56 -2 92.5t-45.5 51.5t-72 8.5t-82.5 -37.5q-31 -23 -59.5 -54.5t-52 -67.5t-40.5 -74t-24 -75q-8 -37 -3 -68.5t18.5 -56t35 -40t47.5 -20.5q27 -5 56 5.5t57.5 30t54.5 45.5t47.5 51.5t37.5 47t24 32.5q-18 -80 -28.5 -154t-27.5 -152
q-38 -19 -76.5 -39.5t-74 -44t-66.5 -50t-54 -56.5q-21 -27 -35 -60.5t-18.5 -68t0.5 -66t22.5 -55t48.5 -35.5t77 -6q55 7 92.5 51.5t64 112t46 151.5t37.5 171q91 39 160 99.5t121.5 128t92.5 133t73 113.5q-26 -121 -51.5 -237.5t-51.5 -241.5q-39 -19 -77.5 -39.5
t-74 -44t-66.5 -50t-54 -56.5q-21 -27 -34.5 -60.5t-18.5 -68t0.5 -66t23 -55t48.5 -35.5t77 -6q55 7 92.5 51.5t64 112t46 151.5t37.5 171q49 24 86 44t68.5 43t61 52t64.5 70q-5 7 -8.5 12t-5.5 3q-27 -35 -54.5 -62t-58 -49.5t-67 -43t-82.5 -42.5q4 23 13.5 65t20.5 92
t23 103t22.5 97.5t18.5 75.5t10 38q1 4 -6 12.5t-17.5 15.5t-21 8.5t-16.5 -9.5q-19 -24 -44 -64t-57.5 -88.5t-70.5 -101t-82.5 -100t-95 -85.5t-105.5 -59zM972 656q11 -13 9 -32.5t-10 -40.5t-19.5 -40t-18.5 -30q-10 -14 -19.5 -18.5t-17 -1.5t-12 12t-4.5 21q0 22 7 53
t20 55.5t30 33.5t35 -12zM480 -301q42 57 109 100t140 79q-12 -57 -27 -114.5t-32.5 -109t-38 -94t-44 -69.5t-50.5 -36.5t-57 6.5q-31 16 -41 46.5t-6.5 65.5t17 69t30.5 57zM72 -301q21 28 49 53t60.5 47t68 41.5t71.5 37.5q-12 -57 -27 -114.5t-32.5 -109t-38 -94
t-44 -69.5t-50.5 -36.5t-57 6.5q-31 16 -41 46.5t-6.5 65.5t17 69t30.5 57z" />
    <glyph glyph-name="fi" unicode="fi" horiz-adv-x="701" 
d="M454 354q-25 -44 -52.5 -92.5t-57 -95t-61 -88t-63.5 -70.5t-65.5 -42.5t-66.5 -4.5q31 -44 51 -99.5t27 -113.5t1.5 -114.5t-24.5 -102.5t-52 -77.5t-81 -39.5q-30 -5 -48.5 14t-28.5 55.5t-11.5 87t2 109.5t12 122.5t19.5 125.5q32 183 82 365t96 361q6 24 15 55.5
t22 64.5t30 65t38.5 57t48 39.5t59.5 13.5q25 -1 46 -21t31 -54.5t6 -81.5t-28 -104q-41 -93 -82.5 -168t-82.5 -137.5t-81.5 -115t-79.5 -99.5q-14 -61 -28 -119.5t-25 -120.5q-11 -61 -19 -123t-12 -120t-2.5 -108.5t10.5 -87.5q10 -42 33 -46t47.5 21t45 75.5t25 117
t-13 145t-68.5 160.5q-5 7 0 13t11 4q37 -14 75 5t75 57.5t72.5 91.5t67 107t57.5 103t46 80q6 10 17 8.5t21 -8t17 -15.5t6 -12q-5 -14 -14.5 -45t-20 -69.5t-19.5 -81t-13.5 -80.5t-2 -67t15.5 -40q11 -10 26.5 -13t36 4t45.5 26t55 54q18 20 32.5 39t32.5 42q2 2 5.5 -2
t8.5 -11q-14 -18 -29.5 -39.5t-33.5 -41.5q-21 -23 -44.5 -43.5t-48.5 -33.5t-51.5 -16t-53.5 8q-24 10 -36.5 32.5t-16 53t0 66.5t11 73.5t17 74t18.5 68.5zM379 699q19 45 25 80.5t2.5 60t-14 37t-25.5 12.5q-35 0 -63.5 -28.5t-50.5 -68t-36 -81t-21 -67.5
q-20 -74 -35.5 -134.5t-28.5 -111.5t-24 -95t-21 -85q38 49 77.5 103.5t77.5 114.5t73 125.5t64 137.5zM594 641q11 -12 9 -31.5t-10 -40.5t-19.5 -40t-18.5 -30q-10 -14 -19.5 -18.5t-17 -1.5t-12 12t-4.5 21q0 22 7 53t20 55t30 33.5t35 -12.5z" />
    <glyph glyph-name="h_a" unicode="ha" horiz-adv-x="1241" 
d="M913 438q-31 11 -64.5 -5.5t-65 -50t-58 -78.5t-43 -91.5t-21 -89t8.5 -69.5q16 -33 43 -34.5t59 17.5t65.5 52.5t63 68.5t50.5 66.5t28 47.5q2 4 12.5 1t22.5 -10t20.5 -16t5.5 -16q-30 -89 -37.5 -144t0.5 -82.5t30 -30.5t51 12t63 45.5t68 69.5q8 9 16.5 19t16.5 20
q2 2 5 -4t8 -13q-30 -35 -64.5 -70t-69.5 -61t-68 -39t-60 -3q-27 9 -40 30t-16.5 47t-0.5 55t8.5 55t12 47t8.5 31q-8 -11 -24 -32.5t-37.5 -47t-47.5 -51.5t-54.5 -45.5t-57.5 -30t-56 -5.5q-26 5 -47.5 20.5t-35 40t-18.5 56t3 68.5l3 15q-28 -48 -58.5 -101t-60.5 -102
t-58 -88.5t-51 -60.5q-20 -18 -41.5 -21t-37.5 20q-15 23 -18.5 61t1.5 85t15.5 99.5t23 104.5t24.5 99.5t19.5 84.5t9 60t-8.5 26q-20 6 -44 -18.5t-48.5 -66.5t-50 -95.5t-48 -105t-42.5 -95.5t-34 -66q-9 -14 -22.5 -19.5t-26.5 -4t-23.5 8t-13.5 17.5q-7 29 -3.5 78.5
t14 112.5t27 134.5t35 144t38 142t37.5 128t32.5 101.5t22.5 63q13 32 30 62.5t38 54t47 37t58 12.5q25 -1 44 -19.5t28 -51.5t6 -80t-22 -105q-36 -115 -82.5 -213.5t-95.5 -181t-96.5 -147.5t-86.5 -113q-11 -46 -15.5 -85t0.5 -59q4 -12 13 -0.5t22.5 39t31 67t37.5 83.5
t41.5 88.5t43.5 81.5t43.5 63t41.5 33q27 10 47.5 5.5t34.5 -18t19.5 -34t2.5 -42.5q-5 -29 -18 -77t-27.5 -103t-29 -112t-23 -106t-7.5 -84t16 -45q11 -9 32 14t48.5 65t59.5 97t63.5 110t61 103.5t52.5 79.5l1 1q23 32 49 60.5t55 49.5q41 31 82.5 37.5t72 -8.5
t45.5 -51.5t2 -92.5q-2 -8 -5 -9t-6 0.5t-5 4.5t-2 4q2 40 -9.5 63t-33.5 31zM87 234q39 49 82.5 112t87 139.5t84 166.5t73.5 193q30 94 23.5 141.5t-36.5 47.5q-21 0 -40 -11t-35.5 -29.5t-30.5 -42.5t-25 -49q-18 -41 -36.5 -94t-35.5 -112.5t-33.5 -122.5t-30.5 -123.5
t-26 -116t-21 -99.5z" />
    <glyph glyph-name="h_i" unicode="hi" horiz-adv-x="921" 
d="M5 26q-7 29 -3.5 78.5t14 112.5t27 134.5t35 144t38 142t37.5 128t32.5 101.5t22.5 63q13 32 30 62.5t38 53.5t47 36.5t58 12.5q25 -1 44 -19t28 -51t6 -80t-22 -106q-36 -115 -82.5 -213.5t-95.5 -181t-96.5 -147.5t-86.5 -113q-11 -46 -15.5 -85t0.5 -59q4 -12 13 -0.5
t22.5 39t31 67t37.5 83.5t41.5 88.5t43.5 81.5t43.5 63.5t41.5 33.5q27 9 47.5 4.5t34.5 -18t19.5 -33.5t2.5 -42q-5 -29 -18 -77t-27.5 -103t-29 -112t-23 -106t-7.5 -84t16 -45q8 -6 23 9t35 45.5t43.5 72.5t49 90t52 98t51 95.5t47 84t40.5 62.5q5 13 16 12t21.5 -8
t18 -16t6.5 -13q-5 -14 -14.5 -45t-20 -69.5t-19.5 -81t-13.5 -80t-2 -66.5t15.5 -41q11 -10 26.5 -13t35.5 4.5t45 26.5t56 54q17 20 32 39t32 42q2 2 6 -2t9 -11q-14 -19 -29.5 -40t-33.5 -41q-21 -23 -44.5 -43.5t-48.5 -33.5t-51.5 -16.5t-53.5 7.5q-25 10 -37.5 33
t-16 54t0.5 68t12 75t17.5 75t18.5 69q-21 -34 -46 -82t-52.5 -100.5t-55.5 -106t-55 -100.5t-51.5 -83t-43.5 -53q-20 -17 -41.5 -20.5t-37.5 19.5q-15 23 -18.5 61t1.5 85t15.5 100t23 104.5t24.5 99t19.5 84.5t9 60t-8.5 26q-20 6 -44 -18.5t-48.5 -66.5t-50 -95.5
t-48 -105t-42.5 -95.5t-34 -66q-9 -14 -22.5 -19t-26.5 -3.5t-23.5 8t-13.5 17.5zM814 658q10 -13 8.5 -32.5t-10 -40.5t-19.5 -39.5t-18 -29.5q-10 -14 -19.5 -18.5t-17 -1.5t-12 11.5t-4.5 20.5q0 22 7 53t20 55.5t30 33.5t35 -12zM87 234q39 49 82.5 112.5t87 140
t84 166.5t73.5 192q30 94 23.5 142t-36.5 48q-21 0 -40 -11.5t-35.5 -30t-30.5 -42.5t-25 -49q-18 -41 -36.5 -94t-35.5 -112.5t-33.5 -122.5t-30.5 -123.5t-26 -116t-21 -99.5z" />
    <glyph glyph-name="h_u" unicode="hu" horiz-adv-x="1189" 
d="M959 363q5 17 15.5 16t21.5 -9.5t18.5 -19.5t6.5 -14q-5 -17 -15 -49t-20 -66t-18 -63.5t-11 -41.5q-12 -55 -9 -87.5t16 -45.5t34.5 -9t48.5 21t56.5 44.5t58.5 61.5l16 18t16 19q2 2 6 -2.5t9 -12.5q-29 -35 -63.5 -70t-69.5 -61t-68 -38.5t-60 -3.5q-25 9 -38 27.5
t-17.5 42.5t-2.5 51t7 53q3 16 6.5 37t8.5 37q-34 -67 -66 -108.5t-62.5 -62.5t-59.5 -24.5t-56 6.5q-34 12 -47.5 45.5t-12 79.5t14.5 101t33 111q-22 -42 -47.5 -90.5t-51.5 -98.5t-52 -98.5t-50.5 -89.5t-46 -72t-37.5 -46q-20 -17 -41.5 -20.5t-37.5 19.5
q-15 23 -18.5 61t1.5 85t15.5 100t23 104.5t24.5 99t19.5 84.5t9 60t-8.5 26q-20 6 -44 -18.5t-48.5 -66.5t-50 -95.5t-48 -105t-42.5 -95.5t-34 -66q-9 -14 -22.5 -19t-26.5 -3.5t-23.5 8t-13.5 17.5q-7 29 -3.5 78.5t14 112.5t27 134.5t35 144t38 142t37.5 128t32.5 101.5
t22.5 63q13 32 30 62.5t38 53.5t47 36.5t58 12.5q25 -1 44 -19t28 -51t6 -80t-22 -106q-36 -115 -82.5 -213.5t-95.5 -181t-96.5 -147.5t-86.5 -113q-11 -46 -15.5 -85t0.5 -59q4 -12 13 -0.5t22.5 39t31 67t37.5 83.5t41.5 88.5t43.5 81.5t43.5 63.5t41.5 33.5
q27 9 47.5 4.5t34.5 -18t19.5 -33.5t2.5 -42q-5 -29 -18 -77t-27.5 -103t-29 -112t-23 -106t-7.5 -84t16 -45q8 -6 23.5 10.5t36.5 49t46.5 78t52.5 96.5t54.5 104t54 101.5t49.5 89t41 65.5q2 4 2 5q6 13 20 14t26.5 -6.5t19.5 -21t-1 -27.5q-16 -28 -32.5 -65.5
t-30.5 -78.5t-24.5 -82t-15 -76.5t-1.5 -62t16 -37.5q23 -20 49.5 -13.5t53.5 31t52.5 62.5t48 81t40.5 86.5t28 79.5zM87 234q39 49 82.5 112.5t87 140t84 166.5t73.5 192q30 94 23.5 142t-36.5 48q-21 0 -40 -11.5t-35.5 -30t-30.5 -42.5t-25 -49q-18 -41 -36.5 -94
t-35.5 -112.5t-33.5 -122.5t-30.5 -123.5t-26 -116t-21 -99.5z" />
    <glyph glyph-name="h_o" unicode="ho" horiz-adv-x="1166" 
d="M967 200q3 11 7.5 32.5t7 47t3 51.5t-3.5 47q-5 24 -16 33.5t-23.5 6.5t-23.5 -18t-15 -39q-3 -21 -1 -44.5t9.5 -46t21.5 -41t34 -29.5zM5 26q-7 29 -3.5 78.5t14 112.5t27 134.5t35 144t38 142t37.5 128t32.5 101.5t22.5 63q13 32 30 62.5t38 54t47 37t58 12.5
q25 -1 44 -19.5t28 -51.5t6 -80t-22 -106q-36 -114 -82.5 -213t-95.5 -181t-96.5 -147.5t-86.5 -112.5q-11 -47 -15.5 -86t0.5 -58q5 -16 19.5 8.5t36 72t48.5 108.5t55.5 117t58 97.5t56.5 51.5q27 9 47.5 4.5t34.5 -18t19.5 -33.5t2.5 -42q-5 -29 -18 -77t-27.5 -103
t-29 -112t-23 -106t-7.5 -84t16 -45q10 -9 31 13.5t48 63t58 94t62.5 107.5t60.5 103.5t53 81.5q13 33 30 63t36.5 54t40 40t41.5 22q30 9 54.5 1t40.5 -21t21 -25t-5 -10q-15 2 -34 4.5t-33 -3.5q-25 -12 -50 -42.5t-46 -71.5t-35.5 -88t-19.5 -91.5t2 -82.5t30 -61
q13 -12 28.5 -17t32.5 -5q31 -1 56.5 12t45.5 36.5t36 55.5t27 68q-27 16 -44.5 38t-27 47t-11 51t3.5 51q6 27 21.5 46t33.5 24t35 -5t25 -41q6 -22 6.5 -50t-1.5 -56t-7 -53t-9 -40q36 -9 92 14.5t116 86.5q1 2 5 -5.5t6 -12.5q-34 -34 -64.5 -55t-58 -32.5t-52.5 -14
t-49 0.5q-12 -37 -29.5 -70t-40 -58.5t-51 -42t-61.5 -19.5q-26 -2 -50.5 4.5t-45.5 19.5q-30 19 -47.5 47.5t-24.5 63.5t-4.5 74.5t12.5 78.5q-19 -31 -41 -69.5t-46 -80t-48.5 -83t-48 -78t-45.5 -65.5t-40 -45q-20 -18 -41.5 -21t-37.5 20q-15 23 -18.5 61t1.5 85
t15.5 99.5t23 104t24.5 99.5t19.5 85t9 60t-8.5 26q-20 6 -44 -19t-48.5 -67t-50 -95.5t-48 -105t-42.5 -95.5t-34 -66q-9 -14 -22.5 -19t-26.5 -3.5t-23.5 8t-13.5 17.5zM87 234q39 49 82.5 112.5t87 140t84 166.5t73.5 193q30 94 23.5 141.5t-36.5 47.5q-21 0 -40 -11.5
t-35.5 -30t-30.5 -42.5t-25 -49q-18 -41 -36.5 -94t-35.5 -112.5t-33.5 -122.5t-30.5 -123.5t-26 -116t-21 -99.5z" />
    <glyph glyph-name="i_i" unicode="ii" horiz-adv-x="591" 
d="M68 425q-4 -18 -13 -56t-19.5 -87.5t-19.5 -104.5t-13.5 -105.5t-1 -92t18.5 -62.5q13 -19 28.5 -22.5t30.5 2.5t28.5 19t22.5 27q24 37 53 92t58 115t56 118t48 101q-9 -32 -18.5 -69t-17 -74.5t-11.5 -74t-0.5 -67t16 -53.5t37.5 -33q27 -11 53 -8t51 16t48.5 33.5
t44.5 44.5q18 20 33.5 41t29.5 39q-5 7 -8.5 11.5t-5.5 2.5q-18 -24 -32.5 -43t-31.5 -39q-31 -35 -56 -54t-45 -26t-35.5 -4t-26.5 13q-13 11 -15.5 40t2 67t13.5 80.5t19.5 81t20 69.5t14.5 45q1 4 -6.5 13t-18 16t-21.5 7.5t-17 -12.5q-12 -20 -29.5 -56t-38.5 -81.5
t-44.5 -95.5t-47 -97t-45 -87t-39.5 -65q-10 -14 -21 -24.5t-20.5 -12.5t-17 7t-10.5 34q-3 24 1 63.5t12 86t19 95t21 91t19 74.5t13 44q1 4 -7.5 13.5t-20 16.5t-22.5 6t-15 -19zM484 654q11 -13 9 -32.5t-10 -40.5t-19 -40t-19 -30q-10 -14 -19 -18.5t-16.5 -1.5
t-12.5 12t-5 21q0 22 7.5 53t20.5 55t29.5 33.5t34.5 -11.5zM194 654q10 -13 8.5 -32.5t-10 -40.5t-19.5 -40t-19 -30q-10 -14 -19 -18.5t-16.5 -1.5t-12 12t-4.5 21q0 22 7 53t20 55t30 33.5t35 -11.5z" />
    <glyph glyph-name="i_t" unicode="it" horiz-adv-x="581" 
d="M456 809q4 18 15 19t22.5 -5.5t20 -16.5t7.5 -14q-2 -5 -5 -14.5t-8.5 -30t-14.5 -54.5t-23 -88q32 -3 55 -5t39.5 -2t29.5 2t25 7q9 3 10.5 1t-1 -6t-8.5 -9t-13 -7q-14 -5 -26 -6.5t-28 -1.5t-37 1.5t-51 4.5q-9 -33 -19.5 -73t-21.5 -81.5t-21.5 -82.5t-19.5 -75
t-15 -58.5t-8 -33.5q-4 -17 -9.5 -46.5t-8 -59.5t0 -56t14.5 -37q14 -12 35.5 -8t48 20.5t55.5 43t57 59.5q8 10 16 18.5t16 19.5q2 2 5.5 -3t8.5 -12q-8 -9 -15 -18t-15 -17q-28 -30 -59 -57.5t-61 -46.5t-58.5 -27t-52.5 1q-30 10 -42 38t-13.5 62t4 69t10.5 59
q2 10 10 41.5t19 74.5t24 93t25 98q-15 -31 -34 -70.5t-40 -82t-43.5 -86t-44.5 -83.5t-43.5 -74.5t-40.5 -58.5q-11 -14 -24 -25t-26.5 -14.5t-28 2.5t-27.5 25q-23 32 -23 85t11 111.5t26.5 114t23.5 92.5q4 18 15 19t22.5 -6t20 -16.5t7.5 -13.5q-4 -12 -12 -37
t-17 -56.5t-17.5 -67.5t-14.5 -71.5t-8.5 -66.5t1.5 -53q7 -39 21 -39.5t34 25.5q20 25 45.5 68t53 94.5t56 106.5t53 105.5t44.5 91t31 62.5l5 19q-27 3 -43.5 5.5t-28 4t-21 2.5t-22.5 0q-12 -1 -13 1t3.5 5t10.5 5.5t8 2.5q13 2 22.5 2.5t20.5 -0.5t26.5 -3t41.5 -4
q14 54 23 88.5t14.5 56.5t8 33.5t4.5 20.5zM186 654q11 -13 9 -32.5t-10 -40.5t-19 -40t-19 -30q-10 -14 -19 -18.5t-16.5 -1.5t-12.5 12t-5 21q0 22 7.5 53t20.5 55t29.5 33.5t34.5 -11.5z" />
    <glyph glyph-name="l_l" unicode="ll" horiz-adv-x="685" 
d="M777 838q-37 -116 -83.5 -215t-95.5 -181.5t-97 -148t-87 -112.5q-3 -13 -6.5 -35t-5 -47t-0.5 -50t8 -44q8 -23 23.5 -29.5t35.5 -2.5t43.5 17.5t47 31.5t46 38.5t41.5 39.5q17 17 26 30.5t17 21.5q2 2 6 -3t9 -12q-8 -11 -18.5 -23.5t-23.5 -26.5q-23 -24 -51.5 -49
t-58.5 -46t-60 -34.5t-56 -14.5q-33 -2 -53 13t-30 39.5t-12.5 55t-0.5 60.5l-35 -42.5t-45 -53.5t-50 -55.5t-51 -49.5t-46.5 -36t-36.5 -15q-35 -2 -54 21t-26.5 60.5t-5.5 83.5t8 91.5t14 85t14 62.5q11 45 27.5 108.5t35 135.5t38 147.5t37.5 145.5q6 24 15 55.5
t22 64.5t29.5 65t38.5 56.5t48.5 39t59.5 13.5q25 -1 44 -19t28 -51t6 -80t-22 -106q-37 -116 -83.5 -215t-96 -181.5t-97 -148t-86.5 -112.5q-3 -13 -8.5 -48t-9.5 -77t-2.5 -83.5t12.5 -65.5q8 -19 29 -13t48 27.5t56.5 52t56.5 62t47.5 57.5t29.5 37q5 6 8.5 11t6.5 9
q2 10 3.5 19t3.5 17q2 12 10 45t20.5 80.5t27.5 107t31.5 124t33.5 130.5t33 127q6 24 15 55.5t22 64.5t30 65t38.5 56.5t48 39t59.5 13.5q25 -1 44 -19t28 -51t6 -80t-22 -106zM571 789q-20 -74 -41 -155.5t-41 -157t-36.5 -140t-26.5 -105.5q39 49 82.5 112.5t87.5 140.5
t84.5 167t73.5 193q30 94 23.5 142t-35.5 48q-23 0 -44 -13t-38.5 -34.5t-31.5 -48.5t-25.5 -54t-19.5 -52t-12 -43zM228 789q-20 -74 -41 -155.5t-41 -157t-36.5 -140t-26.5 -105.5q38 49 82 112.5t87.5 140.5t84.5 167t74 193q30 94 23.5 142t-36.5 48q-23 0 -43.5 -13
t-38 -34.5t-31.5 -48.5t-25.5 -54t-19.5 -52t-12 -43z" />
    <glyph glyph-name="m_a" unicode="ma" horiz-adv-x="1509" 
d="M1182 436q-31 11 -64.5 -5.5t-65 -50t-58.5 -78.5t-43.5 -91.5t-21 -89t8.5 -69.5q16 -33 43 -34.5t59 17.5t66 52.5t63 68.5t50 66.5t28 47.5q2 5 13 2t22.5 -10.5t20 -16.5t6.5 -16q-30 -89 -37.5 -144t0.5 -82.5t29.5 -30.5t50.5 12.5t63 45.5t68 69q8 9 16.5 19
t16.5 21q2 2 5 -4.5t8 -13.5q-29 -35 -63.5 -70t-69.5 -61t-68.5 -39t-60.5 -3q-26 9 -39 30t-17 47t-1 55t9 55t12 47t8 31q-8 -11 -23.5 -32.5t-37 -46.5t-47.5 -51t-54.5 -46t-57.5 -30.5t-56 -5.5q-45 8 -74 46.5t-29 95.5q-21 -50 -45.5 -102t-50 -97t-50.5 -79
t-47 -47q-12 -8 -25 -8.5t-25 4t-22 13.5t-16 21q-16 34 -15.5 85.5t10 109t23.5 115t25 104.5t14 78t-9 35q-20 6 -42 -12t-44 -49.5t-44 -73t-42 -82.5t-38 -78t-32 -59q-11 -17 -25.5 -21t-28.5 2t-24.5 19t-13.5 29q-5 23 -2 57t10.5 72.5t18 79t20.5 76.5
q14 55 20.5 92t-7.5 41q-21 6 -45 -18.5t-49.5 -66.5t-51 -95.5t-48.5 -105t-43 -95.5t-34 -66q-11 -17 -25 -21t-27.5 2t-23.5 19t-13 29q-6 31 1.5 80.5t20 103t27.5 104t24 82.5q5 16 15.5 15.5t21.5 -9t18.5 -19.5t6.5 -14q-2 -6 -9.5 -30.5t-17 -58.5t-20 -74
t-17.5 -77t-10 -68t2 -47q3 -12 12.5 -0.5t23 39t30.5 67t37 83.5t41.5 88.5t43.5 81.5t43.5 63.5t41.5 33.5q27 9 47.5 4.5t34.5 -18t19.5 -33.5t2.5 -42q-5 -30 -16 -71t-23.5 -86.5t-24 -91.5t-17.5 -85q0 -21 3 -33q5 -16 17.5 2t31.5 55t42.5 85.5t49.5 94t53.5 80.5
t54.5 45q26 9 47 4.5t34.5 -18t19.5 -33.5t2 -42q-5 -33 -15.5 -80t-22 -99t-23 -105t-18.5 -98q-6 -42 -1 -64.5t15 -30.5q11 -8 28 7t37.5 45.5t43.5 73.5t45.5 91t44 97t38.5 92q1 2 2 4.5t3 5.5q24 60 66 115.5t90 92.5q41 31 82.5 37.5t72.5 -8.5t45.5 -52t1.5 -93
q-2 -8 -4.5 -9t-5.5 1t-5 5t-2 4q2 39 -10 62t-33 31z" />
    <glyph glyph-name="m_i" unicode="mi" horiz-adv-x="1172" 
d="M940 427q-2 -11 -5 -23.5t-7 -26.5v1q-1 -1 -1 -3q-1 -3 -1.5 -6.5t-2.5 -7.5q-8 -27 -28 -79t-46.5 -114t-56.5 -125.5t-58.5 -113t-53 -77.5t-38.5 -17q-10 8 -15 30t1 64q7 45 18.5 98t23 105t22 99t15.5 80q4 22 -2 42.5t-19.5 34t-34.5 18t-47 -5.5
q-27 -10 -54.5 -44.5t-53.5 -80.5t-49.5 -94.5t-42.5 -85.5t-31.5 -55t-17.5 -2q-3 13 -3 33q6 39 17.5 85.5t24 92t23.5 86.5t16 70q3 22 -2.5 42t-19.5 33.5t-34.5 18t-47.5 -4.5q-20 -7 -41.5 -33t-43.5 -63t-43.5 -81.5t-41.5 -88.5t-37 -84t-30.5 -67.5t-23 -39
t-12.5 0.5q-5 16 -2 47t10 68t17.5 77t20 74t17 58.5t9.5 30.5q1 3 -6.5 14t-18.5 19.5t-21.5 9.5t-15.5 -16q-9 -32 -24 -82.5t-27.5 -104t-20 -103t-1.5 -80.5q3 -16 13 -29t23.5 -18.5t27.5 -2t25 20.5q14 22 34 66t43 95.5t48.5 105t51 95.5t49.5 67t45 19
q14 -5 7.5 -42t-20.5 -92q-10 -36 -20.5 -76.5t-18 -79t-10.5 -72.5t2 -57q3 -16 13.5 -29t24.5 -18.5t28.5 -2t25.5 20.5q14 22 32 59t38 78t42 82.5t44 73.5t44 49.5t42 11.5q12 -4 9 -35t-14 -78t-25 -104.5t-23.5 -115t-10 -109t15.5 -85.5q6 -12 16 -21t22 -13.5
t25 -3.5t25 8q26 16 56 59.5t59.5 100.5t56.5 119t48 114q-6 -36 -8.5 -69.5t1.5 -61.5t16.5 -48.5t35.5 -30.5q27 -11 53 -8t51 16t48.5 33.5t44.5 43.5q18 20 33.5 41.5t29.5 39.5q-5 7 -8.5 11t-5.5 2q-18 -23 -32.5 -42t-31.5 -39q-31 -35 -56 -54t-45 -26t-35.5 -4
t-26.5 13q-13 11 -15.5 40t2 67t13.5 80.5t19.5 81t20 69.5t14.5 45q1 4 -7.5 13.5t-20 16.5t-22.5 5.5t-15 -19.5zM1066 656q10 -13 8.5 -32.5t-10 -40t-19.5 -39.5t-19 -30q-10 -14 -19 -18.5t-16.5 -1.5t-12.5 12t-5 21q0 22 7.5 53t20.5 55t30 33t35 -12z" />
    <glyph glyph-name="m_o" unicode="mo" horiz-adv-x="1412" 
d="M1212 199q3 11 7.5 32.5t7.5 47t3.5 51.5t-3.5 47q-5 24 -16.5 33.5t-24 6.5t-23 -18t-14.5 -39q-3 -21 -1.5 -44.5t9 -46t21.5 -41t34 -29.5zM604 401q26 9 47 4.5t34.5 -18t19.5 -33.5t2 -42q-5 -33 -15.5 -80t-22 -99t-23 -105t-18.5 -98q-6 -42 -1 -64t15 -30
q11 -8 28 7t37.5 45.5t43.5 73.5t45.5 90.5t44 96.5t38.5 93l1 1q9 48 27 94t42 84.5t52 65t56 34.5q30 9 54.5 1t40.5 -21.5t21 -25.5t-5 -10q-15 3 -34 5.5t-33 -3.5q-26 -12 -50.5 -43t-45.5 -72t-35.5 -88t-19.5 -91.5t2 -82.5t30 -60q12 -13 28 -17.5t33 -5.5
q30 -1 55.5 12.5t46 37t36 55.5t26.5 68q-27 16 -44.5 38t-27 47t-11 51t3.5 51q6 27 21.5 45.5t34 24t35.5 -5t25 -40.5q6 -22 6.5 -50.5t-2 -56.5t-7.5 -52.5t-9 -39.5q37 -9 93 14.5t116 86.5q1 1 4.5 -6.5t6.5 -11.5q-35 -34 -65 -55t-57.5 -32.5t-53 -14t-49.5 0.5
q-12 -37 -29 -70t-40 -58.5t-51.5 -42t-61.5 -19.5q-26 -2 -50 4.5t-45 19.5q-42 26 -60 70.5t-17 97.5q-21 -51 -47 -108t-53 -107.5t-54.5 -88.5t-51.5 -53q-12 -8 -25 -8.5t-25 4t-22 13.5t-16 21q-16 34 -15.5 85.5t10 109t23.5 115t25 104.5t14 78t-9 35q-20 6 -42 -12
t-44 -49.5t-44 -73t-42 -82.5t-38 -78t-32 -59q-11 -17 -25.5 -21t-28.5 2t-24.5 19t-13.5 29q-5 23 -2 57t10.5 72.5t18 79t20.5 76.5q14 55 20.5 92t-7.5 41q-21 6 -45 -18.5t-49.5 -66.5t-51 -95.5t-48.5 -105t-43 -95.5t-34 -66q-11 -17 -25 -21t-27.5 2t-23.5 19
t-13 29q-6 31 1.5 80.5t20 103t27.5 104t24 82.5q5 17 15.5 16t21.5 -9.5t18.5 -19.5t6.5 -14q-2 -6 -9.5 -30.5t-17 -58.5t-20 -74t-17.5 -77t-10 -68t2 -47q3 -12 12.5 -0.5t23 39t30.5 67t37 83.5t41.5 88.5t43.5 81.5t43.5 63.5t41.5 33.5q27 9 47.5 4.5t34.5 -18
t19.5 -33.5t2.5 -42q-5 -30 -16 -71t-23.5 -86.5t-24 -91.5t-17.5 -85q0 -21 3 -33q5 -16 17.5 2t31.5 55t42.5 85.5t49.5 94.5t53.5 80.5t54.5 44.5z" />
    <glyph glyph-name="m_u" unicode="mu" horiz-adv-x="1449" 
d="M1220 362q4 16 15 15.5t21.5 -9t18.5 -19.5t7 -14q-6 -17 -15.5 -49t-19.5 -66t-18.5 -63.5t-10.5 -41.5q-12 -56 -9.5 -88t15.5 -45.5t35 -9t48.5 21t56.5 44.5t59 62q8 9 15.5 18t15.5 19q2 2 6 -2.5t9 -12.5q-29 -35 -63.5 -70t-69.5 -61t-68 -39t-60 -3
q-25 9 -38 27.5t-17.5 42.5t-2.5 51t7 53q3 16 6.5 36.5t8.5 36.5q-34 -67 -66 -108.5t-62.5 -62.5t-59.5 -24t-56 7q-20 7 -33 22.5t-19 37t-7 48.5t3 58q-21 -51 -46.5 -107.5t-53 -107t-54.5 -88.5t-51 -52q-12 -8 -25 -8.5t-25 4t-22 13.5t-16 21q-16 34 -15.5 85.5
t10 109t23.5 115t25 104.5t14 78t-9 35q-20 6 -42 -12t-44 -49.5t-44 -73t-42 -82.5t-38 -78t-32 -59q-11 -17 -25.5 -21t-28.5 2t-24.5 19t-13.5 29q-5 23 -2 57t10.5 72.5t18 79t20.5 76.5q14 55 20.5 92t-7.5 41q-21 6 -45 -18.5t-49.5 -66.5t-51 -95.5t-48.5 -105
t-43 -95.5t-34 -66q-11 -17 -25 -21t-27.5 2t-23.5 19t-13 29q-6 31 1.5 80.5t20 103t27.5 104t24 82.5q5 16 15.5 15.5t21.5 -9t18.5 -19.5t6.5 -14q-2 -6 -9.5 -30.5t-17 -58.5t-20 -74t-17.5 -77t-10 -68t2 -47q3 -12 12.5 -0.5t23 39t30.5 67t37 83.5t41.5 88.5
t43.5 81.5t43.5 63.5t41.5 33.5q27 9 47.5 4.5t34.5 -18t19.5 -33.5t2.5 -42q-5 -30 -16 -71t-23.5 -86.5t-24 -91.5t-17.5 -85q0 -21 3 -33q5 -16 17.5 2t31.5 55t42.5 85.5t49.5 94t53.5 80.5t54.5 45q26 9 47 4.5t34.5 -18t19.5 -33.5t2 -42q-5 -33 -15.5 -80t-22 -99
t-23 -105t-18.5 -98q-6 -42 -1 -64.5t15 -30.5q12 -9 31.5 10t42.5 55.5t48.5 86.5t50 103.5t46 105.5t37.5 94q12 41 29 85q0 2 1 3l-1 -2q11 27 22 52.5t22 49.5q6 13 20 13.5t26.5 -7t19 -21t-1.5 -27.5q-16 -28 -32.5 -65t-30.5 -78t-24.5 -82t-15 -76.5t-1.5 -62
t16 -37.5q23 -20 49.5 -13.5t53.5 30.5t53 62.5t48.5 81.5t40 86.5t28.5 79.5z" />
    <glyph glyph-name="n_a" unicode="na" horiz-adv-x="1205" 
d="M878 438q-31 11 -64.5 -5.5t-65 -50t-58.5 -78.5t-43.5 -91.5t-21 -89t8.5 -69.5q16 -33 43 -34.5t59 17.5t66 52.5t63 68.5t50 66.5t28 47.5q2 5 13 2t22.5 -10.5t20 -16.5t6.5 -16q-29 -89 -37 -144t0 -82.5t29.5 -30.5t51 12.5t63.5 45.5t67 69q8 9 16.5 19t16.5 21
q2 2 5 -4.5t8 -13.5q-29 -35 -63.5 -70t-69.5 -61t-68.5 -39t-60.5 -3q-26 9 -39 30t-17 47t-1 55t9 55t12 47t8 31q-8 -11 -23.5 -32.5t-37 -46.5t-47.5 -51t-54.5 -46t-57.5 -30.5t-56 -5.5q-24 5 -44.5 19t-34.5 35.5t-20.5 49.5t-2.5 61q-20 -39 -41.5 -81t-43 -80.5
t-43.5 -72.5t-43 -57.5t-40 -34.5t-35 -4q-28 11 -38.5 43.5t-9.5 78t11 100t23.5 110.5t27.5 108.5t24 94t12 68t-8 29.5q-21 6 -45 -18.5t-49.5 -66.5t-51 -95.5t-48.5 -105t-43 -95.5t-34 -66q-11 -17 -25 -21t-27.5 2t-23.5 19t-13 29q-6 31 1.5 80.5t20 103t27.5 104
t24 82.5q5 16 15.5 15.5t21.5 -9t18.5 -19.5t6.5 -14q-2 -6 -9.5 -30.5t-17 -58.5t-20 -74t-17.5 -77t-10 -68t2 -47q3 -12 12.5 -0.5t23 39t30.5 67t37 83.5t41.5 88.5t43.5 81.5t43.5 63.5t41.5 33.5q27 9 47.5 4.5t34.5 -18t19.5 -33.5t2.5 -42q-5 -28 -17 -75
t-27 -102.5t-30 -113t-25 -108t-11.5 -88.5t10.5 -52q8 -10 24 4t36.5 44t45 71.5t49 88t48.5 93t44 85.5q25 60 66.5 115t90.5 91q41 31 82 37.5t72 -8.5t45.5 -52t1.5 -93q-2 -8 -4.5 -9t-5.5 1t-5 5t-2 4q2 39 -10 62t-33 31z" />
    <glyph glyph-name="n_i" unicode="ni" horiz-adv-x="888" 
d="M642 373q-9 -32 -18.5 -68.5t-17 -74.5t-11.5 -74t-0.5 -66.5t16 -53.5t37.5 -33q27 -11 53 -8t51 16t48.5 33.5t44.5 43.5q18 20 33.5 41.5t29.5 39.5q-5 7 -8.5 11.5t-5.5 2.5q-18 -24 -32.5 -43t-31.5 -39q-31 -35 -56 -54t-45 -26t-35.5 -4t-26.5 13q-13 11 -15.5 40
t2 67t13.5 80.5t19.5 81t20 69.5t14.5 45q1 3 -6 11.5t-16.5 15.5t-20.5 9t-17 -7h-1q-8 -10 -24.5 -42.5t-38.5 -78t-48 -99t-52.5 -107.5t-52.5 -102.5t-48 -84t-38.5 -52.5t-24.5 -7q-12 14 -10.5 52t11.5 88.5t25 108t30 112.5t27 102t17 75q3 22 -2.5 42t-19.5 33.5
t-34.5 18t-47.5 -4.5q-27 -10 -56 -51.5t-58 -97.5t-56 -117t-48 -108.5t-36 -72t-19 -8.5q-5 16 -2 47t10 68t17.5 76.5t20 73.5t17 58.5t9.5 31.5q1 3 -6.5 14t-18.5 19t-21.5 9t-15.5 -15q-9 -33 -24 -83t-27.5 -104t-20 -103.5t-1.5 -80.5q3 -16 13 -29t23.5 -18.5
t27.5 -2t25 20.5q14 22 34 66t43 95.5t48.5 105t51 96t49.5 67t45 18.5q10 -3 8 -29.5t-12 -68t-24 -94t-27.5 -108.5t-23.5 -110.5t-11 -100.5t9.5 -78.5t38.5 -43.5q21 -8 48 17t57 71.5t61 107t61 122.5t56.5 119.5t47.5 97.5zM781 658q11 -12 9 -31.5t-10 -40.5t-19 -40
t-19 -30q-10 -14 -19 -18.5t-16.5 -1.5t-12.5 12t-5 21q0 22 7.5 53t20.5 55t29.5 33.5t34.5 -12.5z" />
    <glyph glyph-name="n_o" unicode="no" horiz-adv-x="1135" 
d="M935 199q3 11 7.5 32.5t7.5 47t3.5 52t-3.5 47.5q-5 24 -16.5 33.5t-24 6t-23 -18.5t-14.5 -39q-3 -21 -1.5 -44.5t9 -46t21.5 -41t34 -29.5zM66 422q4 16 15 15.5t21.5 -9t18.5 -19.5t7 -14q-2 -7 -9.5 -31.5t-17 -58.5t-20 -73.5t-17.5 -76.5t-10 -68t2 -47
q3 -12 12.5 -0.5t23 39t30.5 67t37 83.5t41.5 88.5t43.5 81.5t43.5 63t41.5 33q27 10 47.5 5.5t34.5 -18t19.5 -34t2.5 -42.5q-5 -28 -17.5 -75t-27.5 -102t-30 -112.5t-24.5 -108t-11.5 -88.5t10 -52q8 -10 23.5 3.5t36 42.5t44.5 69.5t48.5 86t48 91.5t44 85t36 67.5
t23.5 39.5q13 31 29.5 59.5t35.5 50.5t38.5 37.5t39.5 21.5q30 9 55 0.5t41 -21.5t20.5 -25t-5.5 -10q-15 2 -33.5 5t-32.5 -4q-26 -12 -50.5 -42.5t-45.5 -71.5t-35.5 -88t-19.5 -91.5t2 -82.5t30 -60q12 -13 28 -17.5t33 -5.5q30 -1 55.5 12t46 36.5t36 55.5t26.5 68
q-27 16 -44.5 38t-27 47t-11 51.5t3.5 51.5q6 27 21.5 45.5t34 24t35.5 -5t25 -40.5q6 -23 6.5 -51t-2 -56t-7.5 -53t-9 -40q37 -8 92.5 15.5t115.5 86.5q2 1 5.5 -6.5t6.5 -12.5q-35 -34 -65 -55t-57.5 -32t-53 -13.5t-49.5 0.5q-12 -37 -29.5 -70.5t-40 -59t-51 -41.5
t-61.5 -19q-50 -4 -96 24q-29 18 -46.5 46.5t-24.5 62.5t-5 72t11 77q-20 -38 -44 -87t-50.5 -99.5t-53.5 -98t-53.5 -82t-50.5 -52.5t-44 -10q-28 11 -38.5 43.5t-9.5 78t11 100t23.5 110.5t27.5 108.5t24 94t12 68t-8 29.5q-20 6 -44.5 -18.5t-50 -66.5t-51 -95.5
t-49 -105t-43.5 -95.5t-34 -66q-11 -17 -24.5 -21t-27 2t-23.5 19t-13 29q-6 31 1.5 80.5t20 103t27.5 104t24 82.5z" />
    <glyph glyph-name="n_u" unicode="nu" horiz-adv-x="1155" 
d="M926 363q5 16 15.5 15.5t21.5 -9t18.5 -19.5t6.5 -14q-6 -17 -15.5 -49t-19.5 -66t-18.5 -63.5t-10.5 -41.5q-12 -56 -9.5 -88t15.5 -45.5t35 -9t48.5 21t56.5 44.5t59 62q8 9 15.5 18t15.5 19q2 2 6 -2.5t9 -12.5q-29 -35 -63.5 -70t-69.5 -61t-68 -39t-60 -3
q-25 9 -38 27.5t-17.5 42.5t-2.5 51t7 53q3 16 6.5 36.5t8.5 36.5q-33 -67 -65 -108.5t-62.5 -62.5t-59.5 -24t-57 7q-30 11 -44 39.5t-15 68.5t8 88t25 99q-22 -46 -47.5 -100.5t-52.5 -109t-54 -104t-52.5 -86t-49 -55.5t-41.5 -11q-28 11 -38.5 43.5t-9.5 78t11 100
t23.5 110.5t27.5 108.5t24 94t12 68t-8 29.5q-21 6 -45 -18.5t-49.5 -66.5t-51 -95.5t-48.5 -105t-43 -95.5t-34 -66q-11 -17 -25 -21t-27.5 2t-23.5 19t-13 29q-6 31 1.5 80.5t20 103t27.5 104t24 82.5q5 16 15.5 15.5t21.5 -9t18.5 -19.5t6.5 -14q-2 -6 -9.5 -30.5
t-17 -58.5t-20 -74t-17.5 -77t-10 -68t2 -47q3 -12 12.5 -0.5t23 39t30.5 67t37 83.5t41.5 88.5t43.5 81.5t43.5 63.5t41.5 33.5q27 9 47.5 4.5t34.5 -18t19.5 -33.5t2.5 -42q-5 -28 -17 -75t-27 -102.5t-30 -113t-25 -108t-11.5 -88.5t10.5 -52q8 -10 24.5 7t38 52
t47.5 83.5t52.5 102t52.5 107t48 99t38.5 78t24.5 43.5q9 21 18 39q6 13 20 13.5t26.5 -7t19 -21t-1.5 -27.5q-16 -28 -32.5 -65t-30.5 -78t-24 -82t-14.5 -76.5t-1.5 -62t16 -37.5q23 -20 49 -13.5t53 30.5t53 62.5t48.5 81.5t40 86.5t28.5 79.5z" />
    <glyph glyph-name="o_b" unicode="ob" horiz-adv-x="1112" 
d="M340 194q3 11 7.5 32.5t7.5 47t3.5 51.5t-3.5 47q-5 24 -16.5 33.5t-24 6.5t-23 -18t-14.5 -39q-3 -21 -1.5 -44.5t9 -46t21.5 -41t34 -29.5zM638 309q-6 -25 -15.5 -62.5t-17.5 -77.5t-13 -77.5t-3 -62.5q40 145 96.5 243.5t114.5 150t109.5 55t80.5 -41.5
q17 -27 17 -72.5t-12 -97.5t-32.5 -105t-44.5 -96q26 6 52.5 17.5t53 26t51.5 31t47 32.5q1 1 10 -15q-48 -34 -107 -66t-119 -46q-22 -35 -48 -64.5t-55 -49.5q-36 -24 -76 -31t-66.5 1.5t-32 30.5t27.5 55q7 7 22.5 14.5t35 14.5t42.5 13.5t46 11.5q64 108 95.5 185.5
t38 127t-9 71.5t-43.5 17.5t-65.5 -34.5t-76 -83.5t-74.5 -130.5t-61 -176q-2 -11 -8 -15.5t-13 -5t-14 1t-10 3.5q-12 5 -18 26t-6 53t5 74.5t14 91.5q-60 -53 -108 -68.5t-93 -9.5q-12 -37 -29 -70t-40 -58.5t-51.5 -42t-61.5 -19.5q-26 -2 -50 4.5t-46 19.5
q-42 27 -59.5 72.5t-16.5 99.5t17.5 110t42.5 104.5t58.5 82.5t65.5 44q30 9 54.5 1t40.5 -21t21 -25t-5 -10q-16 2 -34.5 4.5t-32.5 -3.5q-26 -12 -50.5 -42.5t-45.5 -71.5t-35.5 -88t-19.5 -91.5t2 -82.5t30 -61q12 -12 28 -17t33 -5q30 -1 55.5 12t46 36.5t36 55.5
t26.5 68q-27 16 -44.5 38t-27 47t-11 51t3.5 51q6 27 21.5 46t34 24t35.5 -5t25 -41q6 -22 6.5 -50t-2 -56t-7.5 -53t-9 -40q35 -8 89 13.5t113 80.5q11 59 25.5 122.5t31 127t33.5 123.5t32.5 111t29 91t22.5 63q13 33 29 64t37 55t46.5 38.5t57.5 13.5q33 -2 57.5 -33.5
t26.5 -86.5q2 -48 -15.5 -104.5t-48 -116.5t-69.5 -121.5t-78.5 -119t-77 -108.5t-63.5 -91zM736 5q-59 -20 -77.5 -42.5t-9 -33t40 -1t69.5 55.5q7 8 14 16.5t14 18.5q-14 -4 -27 -7t-24 -7zM645 355q21 32 55 80.5t72 105t75.5 118t66 120.5t43.5 111t8 90q-4 21 -14 33
t-24 16q-25 7 -49 -13t-47 -59t-44 -92.5t-39.5 -112.5t-34.5 -120t-29.5 -115t-23 -96.5t-15.5 -65.5z" />
    <glyph glyph-name="o_f" unicode="of" horiz-adv-x="900" 
d="M340 198q3 11 7.5 32.5t7.5 47t3.5 52t-3.5 47.5q-5 24 -16.5 33.5t-24 6t-23 -18.5t-14.5 -39q-3 -21 -1.5 -44.5t9 -46t21.5 -41t34 -29.5zM882 964q26 -1 46 -20.5t31 -53.5q22 -64 0 -134.5t-70.5 -144.5t-114 -149t-130.5 -148q-1 -2 -6.5 -25t-12.5 -50t-12.5 -50
t-6.5 -25q-13 -56 -25.5 -110t-22.5 -111q-11 -60 -19 -122.5t-12 -120.5t-2.5 -108.5t10.5 -87.5q10 -42 33 -46t47.5 21.5t45 75.5t25 116.5t-13 145t-68.5 160.5q-4 8 0 11.5t10 3.5q12 0 39.5 1t63.5 10.5t77.5 31.5t81.5 65l12 14t12 15q2 2 6 -5t7 -12
q-41 -52 -85.5 -80t-85 -40.5t-72 -14.5t-46.5 -1q31 -43 51 -98.5t27 -113.5t1.5 -114.5t-24.5 -103t-52 -78t-80 -39.5q-30 -5 -49 14t-29 55.5t-11.5 87.5t2 109.5t12 122t19.5 125.5q14 78 31 156t37 156q-61 -55 -110 -71.5t-94 -9.5q-12 -37 -29 -70.5t-40 -59
t-51.5 -41.5t-61.5 -19q-50 -4 -96 24q-42 26 -59.5 71.5t-16.5 99.5t17.5 110.5t42.5 104.5t58.5 82.5t65.5 44.5q30 9 54.5 0.5t40.5 -21.5t21 -25t-5 -10q-16 2 -34.5 5t-32.5 -4q-26 -12 -50.5 -42.5t-45.5 -71.5t-35.5 -88t-19.5 -91.5t2 -82.5t30 -60q12 -13 28 -17.5
t33 -5.5q30 -1 55.5 12t46 36.5t36 55.5t26.5 68q-27 16 -44.5 38t-27 47t-11 51.5t3.5 51.5q6 27 21.5 45.5t34 24t35.5 -5t25 -40.5q6 -23 6.5 -51t-2 -56t-7.5 -53t-9 -40q37 -8 93 15.5t116 86.5q25 95 50.5 189t49.5 188q6 24 15 55.5t22 64.5t30 65t38.5 56.5t48 39
t59.5 13.5zM939 871q-11 33 -36 33q-24 0 -44.5 -13t-38 -34.5t-31.5 -48.5t-25.5 -54t-19.5 -52t-12 -43q-13 -49 -22 -83t-15 -57.5t-10.5 -40.5t-8.5 -33t-8.5 -35t-11.5 -46q17 20 48 53.5t66.5 75.5t71.5 90.5t61.5 98.5t37 98.5t-1.5 90.5z" />
    <glyph glyph-name="o_h" unicode="oh" horiz-adv-x="1121" 
d="M340 198q3 11 7.5 32.5t7.5 47t3.5 51.5t-3.5 47q-5 24 -16.5 33.5t-24 6.5t-23 -18t-14.5 -39q-3 -21 -1.5 -44.5t9 -46t21.5 -41t34 -29.5zM541 24q-8 33 -2.5 93.5t19.5 136.5q-30 -27 -57.5 -44.5t-52 -26.5t-48 -11t-45.5 1q-12 -37 -29 -70t-40 -58.5t-51.5 -42
t-61.5 -19.5q-26 -2 -50 4.5t-46 19.5q-42 26 -59.5 72t-16.5 99.5t17.5 110t42.5 105t58.5 82.5t65.5 44q30 9 54.5 1t40.5 -21.5t21 -25.5t-5 -10q-16 3 -34.5 5.5t-32.5 -3.5q-26 -12 -50.5 -42.5t-45.5 -71.5t-35.5 -88t-19.5 -91.5t2 -82.5t30 -61q12 -12 28 -17t33 -5
q30 -1 55.5 12t46 36.5t36 55.5t26.5 68q-27 16 -44.5 38t-27 47t-11 51t3.5 51q6 27 21.5 46t34 24t35.5 -5t25 -41q6 -22 6.5 -50t-2 -56t-7.5 -53t-9 -40q36 -9 91 14t114 84q13 61 29 127.5t33 131.5t35 125.5t33.5 111t28 88t20.5 55.5q13 32 29.5 62.5t37.5 54t47 37
t58 12.5q35 -2 57 -34.5t22 -91.5q1 -93 -34 -183t-88.5 -174.5t-117 -162.5t-119.5 -147q-5 -23 -13 -63t-15 -81.5t-10.5 -75t-0.5 -43.5q3 -12 12.5 -0.5t23 39t30.5 67.5t37 84t41.5 88.5t43.5 81.5t44 63t42 33q26 9 47 4.5t34.5 -18t19.5 -33.5t2 -42
q-5 -29 -16 -70.5t-23.5 -87t-24 -92t-17 -85.5t-3.5 -68t18 -39q14 -9 33 -3.5t41 20t44.5 35t42.5 41t35 37.5t22 26q2 2 6 -3t9 -12q-29 -35 -63.5 -68.5t-69.5 -58.5t-68 -36.5t-60 -1.5q-28 10 -40 37.5t-13 65.5t6 84t18 92t23 90t20 78.5t9 57t-9 25.5q-20 6 -44 -19
t-49 -67t-50 -95.5t-48 -105t-42.5 -95.5t-33.5 -66q-9 -14 -22.5 -19t-27 -3.5t-24 8t-12.5 17.5zM647 347q50 64 106.5 136t105 150t81 162t34.5 171q0 67 -37 67q-22 0 -41 -11.5t-35.5 -30t-30.5 -42.5t-25 -49q-27 -61 -50.5 -130.5t-43 -141.5t-35.5 -143.5
t-29 -137.5z" />
    <glyph glyph-name="o_k" unicode="ok" horiz-adv-x="1122" 
d="M340 198q3 11 7.5 32.5t7.5 47t3.5 52t-3.5 47.5q-5 24 -16.5 33.5t-24 6t-23 -18.5t-14.5 -39q-3 -21 -1.5 -44.5t9 -46t21.5 -41t34 -29.5zM636 298q-5 -23 -12.5 -62.5t-14.5 -80t-10.5 -73.5t-0.5 -43q3 -12 12.5 -0.5t23 39t30.5 67t37 83.5t41.5 88.5t43.5 81.5
t44 63t42 33q28 10 50.5 6t35.5 -19t15.5 -37.5t-9.5 -47.5q-23 -50 -55.5 -76t-65 -42t-59.5 -30t-39 -39q-9 -18 -3.5 -49t21 -65t40.5 -65t56 -49.5t67 -19t74 27.5q30 23 64 59t66 73q2 2 4.5 -3.5t7.5 -12.5q-29 -35 -62 -71.5t-68 -63.5q-41 -31 -83.5 -39t-81 3
t-70 37.5t-50 63t-21 80t16.5 89.5q7 15 16 29.5t23 25.5q15 11 34 26.5t38.5 36.5t38 47.5t30.5 61.5q2 19 -1.5 28.5t-11.5 11t-18.5 -4t-21.5 -16.5q-20 -19 -40.5 -53.5t-41.5 -75.5t-41 -86t-38 -86t-33.5 -74.5t-27.5 -52.5q-9 -14 -22.5 -19.5t-27 -4t-24 8
t-12.5 17.5q-8 34 -2 94.5t20 136.5q-31 -27 -58.5 -44.5t-52.5 -26.5t-48.5 -11t-45.5 1q-12 -37 -29 -70.5t-40 -59t-51.5 -41.5t-61.5 -19q-50 -4 -96 24q-42 26 -59.5 71.5t-16.5 99.5t17.5 110.5t42.5 104.5t58.5 82.5t65.5 44.5q30 9 54.5 0.5t40.5 -21.5t21 -25
t-5 -10q-16 2 -34.5 5t-32.5 -4q-26 -12 -50.5 -42.5t-45.5 -71.5t-35.5 -88t-19.5 -91.5t2 -82.5t30 -60q12 -13 28 -17.5t33 -5.5q30 -1 55.5 12t46 37t36 56t26.5 68q-27 16 -44.5 37.5t-27 46.5t-11 51.5t3.5 51.5q6 27 21.5 45.5t34 24t35.5 -5t25 -40.5q6 -23 6.5 -51
t-2 -56t-7.5 -53t-9 -40q36 -8 91.5 15t115.5 85q12 61 28 127t33.5 131t35 125.5t33 111t28 87.5t20.5 55q13 32 29.5 62.5t37.5 54t47 37t58 12.5q29 -2 48.5 -23t27.5 -61q11 -61 -1 -125t-40 -128.5t-67.5 -128t-83 -122.5t-87 -112t-78.5 -96zM648 348q35 42 76 92
t80.5 105t74.5 113t59 116t34.5 114t0.5 106q-8 39 -35 39q-22 0 -41 -11t-35.5 -29.5t-30.5 -42.5t-25 -49q-27 -61 -50.5 -130.5t-43 -141.5t-35.5 -143.5t-29 -137.5z" />
    <glyph glyph-name="o_l" unicode="ol" horiz-adv-x="874" 
d="M961 985q-5 40 -24.5 49t-56.5 -15q-25 -16 -45.5 -46t-36 -63.5t-26 -66t-16.5 -54.5q-20 -74 -36.5 -136.5t-30.5 -116t-25.5 -99t-21.5 -85.5q25 32 60.5 76t73.5 95.5t74.5 109t63.5 117t40.5 119.5t6.5 116zM340 199q3 11 7.5 32.5t7.5 47t3.5 51.5t-3.5 47
q-5 24 -16.5 33.5t-24 6.5t-23 -18t-14.5 -39q-3 -21 -1.5 -44.5t9 -46t21.5 -41t34 -29.5zM335 180q-27 16 -44.5 38t-27 46.5t-11 51t3.5 51.5q6 27 21.5 45.5t34 24t35.5 -5t25 -40.5q6 -22 6.5 -50.5t-2 -56.5t-7.5 -52.5t-9 -39.5q35 -9 89 13t111 80q12 47 28 108.5
t33.5 129.5t36 139t35.5 137q6 24 15 56t22 65t29.5 65t38.5 56.5t48.5 39t59.5 13.5q50 -2 70 -63q19 -57 10 -122t-36.5 -132t-68 -134t-85.5 -128.5t-89 -115.5t-77 -95q0 -2 -5.5 -24t-12 -48.5t-12 -49t-6.5 -26.5q-3 -16 -5 -35.5t-3 -40t1 -40t7 -35.5q12 -34 40 -34
t63 19t71 50t64 60q17 17 26 30.5t17 21.5q2 2 5.5 -3t8.5 -12q-8 -11 -18 -23.5t-23 -26.5q-23 -24 -51.5 -49t-58.5 -46t-60 -34.5t-56 -14.5q-45 -2 -66 24.5t-27.5 65t-2.5 81t10 72.5q2 8 6 23.5t9 38.5q-58 -50 -105.5 -65t-90.5 -9q-12 -37 -29 -70t-40 -58.5
t-51.5 -42t-61.5 -19.5q-26 -2 -50 4.5t-46 19.5q-42 26 -59.5 71.5t-16.5 99.5t17.5 110.5t42.5 104.5t58.5 82.5t65.5 44.5q30 9 54.5 1t40.5 -21.5t21 -25.5t-5 -10q-16 3 -34.5 5.5t-32.5 -3.5q-26 -12 -50.5 -43t-45.5 -72t-35.5 -88t-19.5 -91.5t2 -82.5t30 -60
q12 -13 28 -17.5t33 -5.5q30 -1 55.5 12.5t46 37t36 55.5t26.5 68z" />
    <glyph glyph-name="o_r" unicode="or" horiz-adv-x="1025" 
d="M340 193q3 11 7.5 32.5t7.5 47t3.5 51.5t-3.5 47q-5 24 -16.5 33.5t-24 6.5t-23 -18t-14.5 -39q-3 -21 -1.5 -44.5t9 -46t21.5 -41t34 -29.5zM716 -25q-4 13 -2 36.5t8.5 53t16 63t18.5 66.5t17.5 63t12.5 53q5 24 0.5 41t-15.5 30.5t-26 26t-31 27.5q-11 -52 -42.5 -107
t-79 -96t-108 -61t-130.5 -3q-12 -37 -29 -70t-40 -58.5t-51.5 -42t-61.5 -19.5q-26 -2 -50 4.5t-46 19.5q-42 26 -59.5 72t-16.5 99.5t17.5 110t42.5 105t58.5 82.5t65.5 44q30 9 54.5 1t40.5 -21t21 -25t-5 -10q-16 2 -34.5 4.5t-32.5 -3.5q-26 -12 -50.5 -42.5
t-45.5 -71.5t-35.5 -88t-19.5 -91.5t2 -82.5t30 -61q12 -12 28 -16.5t33 -5.5q30 -1 55.5 12t46 36.5t36 55.5t26.5 68q-27 16 -44.5 38t-27 47t-11 51t3.5 51q6 27 21.5 46t34 24t35.5 -5t25 -41q6 -22 6.5 -50t-2 -56t-7.5 -53t-9 -40q53 -18 110 -0.5t105.5 56.5t83 93.5
t41.5 111.5q-14 13 -27.5 28.5t-24.5 35.5t-18 45.5t-7 58.5q0 30 7 52t18 35.5t24 17.5t25 -2q14 -8 22 -26.5t11 -43.5t2.5 -53.5t-2.5 -55t-5.5 -49.5t-5.5 -37q5 -6 27 -22t45.5 -36t41.5 -42.5t14 -42.5q-6 -35 -20 -83t-27.5 -96.5t-21.5 -90.5t-3 -64q6 -26 29.5 -25
t55.5 17t67 42t62 51l19.5 19.5t16.5 17.5q2 2 9.5 -0.5t10.5 -7.5q-15 -17 -42 -41.5t-60 -48.5t-68 -44t-66.5 -27t-56 2.5t-36.5 43.5zM716 614q-1 48 -9.5 69.5t-18.5 19t-17.5 -28.5t-6.5 -75q2 -45 12.5 -76t27.5 -53q6 34 9.5 70t2.5 74z" />
    <glyph glyph-name="o_s" unicode="os" horiz-adv-x="905" 
d="M340 193q3 11 7.5 32.5t7.5 47t3.5 52t-3.5 47.5q-5 24 -16.5 33.5t-24 6t-23 -18.5t-14.5 -39q-3 -21 -1.5 -44.5t9 -46t21.5 -41t34 -29.5zM757 578q-17 -43 -41.5 -96t-48.5 -101q18 -75 38.5 -144.5t29.5 -119.5q34 14 65.5 33.5t58 40.5t46.5 41t29 36q3 4 6.5 4
t6.5 -2.5t5.5 -5.5l2.5 -3q-17 -22 -37 -42.5t-45.5 -40.5t-58.5 -40t-77 -40q2 -24 2.5 -50.5t-2.5 -52.5t-11.5 -50t-24.5 -44q-34 -40 -74.5 -50t-74 1t-53.5 38.5t-12 62.5t50.5 73t132.5 70q-4 25 -9.5 48t-11.5 46.5t-12.5 49.5t-13.5 57q-1 -1 -10.5 -14t-26.5 -30.5
t-41 -37t-53.5 -33.5t-64 -19t-72.5 6q-12 -37 -29 -70.5t-40 -59t-51.5 -41.5t-61.5 -19q-50 -4 -96 24q-42 26 -59.5 71.5t-16.5 99.5t17.5 110.5t42.5 104.5t58.5 82.5t65.5 44.5q30 9 54.5 0.5t40.5 -21.5t21 -25t-5 -10q-16 2 -34.5 5t-32.5 -4q-26 -12 -50.5 -42.5
t-45.5 -71.5t-35.5 -88t-19.5 -91.5t2 -82.5t30 -60q12 -13 28 -17.5t33 -5.5q30 -1 55.5 12t46 37t36 56t26.5 68q-27 16 -44.5 37.5t-27 46.5t-11 51.5t3.5 51.5q6 27 21.5 45.5t34 24t35.5 -5t25 -40.5q6 -23 6.5 -51t-2 -56t-7.5 -53t-9 -40q35 -11 67.5 -5t61 21
t52.5 35.5t41 39.5t26.5 32.5l9.5 13.5q-9 45 -15 90t-4.5 88.5t11.5 84.5t32 76q17 27 46 40t52 5.5t31.5 -38.5t-14.5 -91zM662 406q23 42 41 89.5t35 87.5q21 49 18.5 75.5t-17 34t-34 -2t-31.5 -31.5q-15 -28 -21.5 -58t-6.5 -62.5t4.5 -65.5t11.5 -67zM675 78
q-65 -24 -102.5 -50t-53 -50.5t-13.5 -46t15.5 -36t35 -21.5t44 -1.5t43 24.5t31.5 55q3 10 4 25.5t1 33t-1.5 35.5t-3.5 32z" />
    <glyph glyph-name="o_t" unicode="ot" horiz-adv-x="820" 
d="M340 194q3 11 7.5 32.5t7.5 47t3.5 51.5t-3.5 47q-5 24 -16.5 33.5t-24 6t-23.5 -18.5t-15 -39q-3 -21 -1 -44.5t9.5 -45.5t21.5 -41t34 -29zM696 808q4 18 15 19t22.5 -6t19.5 -16.5t7 -13.5q-2 -5 -4.5 -15t-8 -30.5t-14.5 -54.5t-23 -88q32 -3 55 -5t39.5 -2t29.5 2
t25 7q9 4 10.5 2t-1.5 -6.5t-9 -9t-12 -6.5q-14 -5 -26.5 -6.5t-28.5 -1.5t-37 1.5t-51 3.5q-8 -32 -18.5 -72t-21.5 -82t-21.5 -82.5t-19.5 -75t-15 -59t-8 -33.5q-4 -17 -10 -46t-8.5 -59t0 -56.5t15.5 -37.5q14 -12 35.5 -8t48 20.5t55 43.5t57.5 60q8 9 15.5 17.5
t15.5 19.5q2 2 6 -2.5t9 -12.5q-8 -9 -15.5 -17.5t-15.5 -17.5q-28 -30 -58.5 -57t-61 -46t-59 -27t-51.5 0q-30 11 -42 39t-13.5 62t4 69t10.5 59q2 10 9.5 42t19 75.5t24.5 94.5t26 99q-16 -35 -34.5 -74t-39.5 -76.5t-43 -71t-46 -58t-48.5 -36.5t-49.5 -7
q-12 -37 -29.5 -70.5t-40 -59t-51 -41.5t-61.5 -19q-52 -5 -96 24q-42 26 -59.5 71.5t-17 99.5t17.5 110.5t42.5 104.5t58 82.5t65.5 44.5q30 9 54.5 1t40.5 -21.5t21 -25.5t-5 -10q-15 2 -34 5t-33 -4q-25 -12 -50 -42.5t-46 -71.5t-35.5 -88t-19.5 -91.5t2 -82.5t30 -60
q13 -13 28.5 -17.5t32.5 -5.5q31 -1 56.5 12.5t46 37t36 55.5t26.5 68q-27 16 -44.5 37.5t-27 46.5t-11 51.5t3.5 51.5q6 27 21.5 45.5t33.5 24t35 -5t25 -40.5q6 -22 6.5 -50.5t-1.5 -56.5t-7 -53t-9 -40q22 -9 48.5 10t53.5 54t53.5 81t50 92t42 86.5t29.5 64.5l4 14
q-18 1 -55.5 5.5t-84.5 9.5t-100 8.5t-101.5 3t-89.5 -6.5t-64 -20q-10 -6 -11 -4t2.5 7.5t8 11.5t6.5 7q24 13 65 19t90 6t101.5 -3t99.5 -8t83.5 -9.5t54.5 -5.5q14 54 23 88t14 56t8 34t5 21z" />
    <glyph glyph-name="o_z" unicode="o&#x7a;" horiz-adv-x="1012" 
d="M340 199q3 11 7.5 32.5t7.5 47t3.5 51.5t-3.5 47q-5 24 -16.5 33.5t-24 6.5t-23 -18t-14.5 -39q-3 -21 -1.5 -44.5t9 -46t21.5 -41t34 -29.5zM705 459q5 -6 27 -20t45.5 -31.5t41.5 -38t14 -40.5q-6 -34 -21.5 -71t-39 -73.5t-54.5 -70t-69 -60.5q38 -21 58 -51t36 -68
q3 -7 5.5 -13.5t4.5 -13.5q44 29 89 57.5t86 60.5q24 19 47 40.5t36 36.5q2 3 9.5 0.5t11.5 -7.5q-11 -14 -37 -37t-50 -42q-46 -32 -93 -62.5t-94 -61.5q16 -57 16.5 -121t-14.5 -124.5t-46.5 -113.5t-78.5 -88q-21 -16 -42.5 -19.5t-41 3t-36 22t-26.5 36.5
q-21 41 -17.5 96.5t37.5 110.5q29 47 84.5 94t120.5 92q-13 51 -31.5 80t-38 44.5t-36.5 20.5t-26.5 8.5t-7.5 9t20 20.5q26 22 56 53t56 67.5t45 77.5t24 84q-1 16 -7.5 28t-17 23t-23.5 21.5t-26 22.5q-6 -31 -22.5 -65t-41 -66t-56 -59.5t-68 -47t-76.5 -28t-82 -1.5
q-12 -37 -29 -70t-40 -58.5t-51.5 -42t-61.5 -19.5q-50 -4 -96 24q-42 26 -59.5 71.5t-16.5 99.5t17.5 110.5t42.5 104.5t58.5 82.5t65.5 44.5q30 9 54.5 1t40.5 -21.5t21 -25.5t-5 -10q-16 3 -34.5 5.5t-32.5 -3.5q-26 -12 -50.5 -43t-45.5 -72t-35.5 -88t-19.5 -91.5
t2 -82.5t30 -60q12 -13 28 -17.5t33 -5.5q30 -1 55.5 12.5t46 37t36 55.5t26.5 68q-27 16 -44.5 38t-27 46.5t-11 51t3.5 51.5q6 27 21.5 45.5t34 24t35.5 -5t25 -40.5q6 -22 6.5 -50.5t-2 -56.5t-7.5 -53t-9 -40q42 -7 82 3.5t74.5 31.5t64 50.5t51.5 60.5t36 61.5t19 54.5
q-14 13 -28 28.5t-25 35.5t-17.5 45.5t-6.5 58.5q0 30 7 52t17.5 35.5t23.5 17.5t25 -3q21 -11 28.5 -46t7.5 -77t-5 -81.5t-9 -59.5zM718 -135q-63 -43 -114.5 -87.5t-77.5 -92.5q-26 -45 -31 -88.5t5 -75.5t31 -47t48 -3q48 21 79.5 65t48.5 99t19.5 115.5t-8.5 114.5z
M690 476q6 34 9.5 70t2.5 74q0 47 -9 69t-18.5 19.5t-17.5 -28.5t-6 -75q1 -45 11.5 -76t27.5 -53z" />
    <glyph glyph-name="p_r" unicode="pr" horiz-adv-x="1040" 
d="M-243 -511q23 -5 42.5 7t36 34.5t29.5 51.5t23 58.5t16.5 56.5t10.5 45q16 75 26 126t18 90.5t14.5 73.5t14.5 75q-7 -10 -24.5 -41.5t-40.5 -75.5t-49 -97.5t-50 -108t-44 -106t-31 -92.5t-10 -67t18 -30zM730 -23q-5 13 -2.5 36.5t9 53t16 63t18.5 66t17.5 62.5
t12.5 53q5 25 0.5 42t-15.5 30.5t-26 26t-31 27.5q-18 -86 -55 -146t-88.5 -100t-116 -64t-138.5 -39q-25 -37 -54.5 -67t-62 -48.5t-67.5 -24t-71 7.5q-28 11 -25.5 35.5t28.5 46.5q25 22 63.5 33.5t86.5 19.5q24 34 45.5 73t38 77.5t26.5 75t11 66t-9 49t-34 25.5
q-22 5 -50 -7.5t-58.5 -40t-61.5 -68.5t-58 -93q-11 -70 -25 -145t-28 -144.5t-27 -128t-20 -95.5q-5 -24 -12.5 -57.5t-19 -69t-26.5 -69.5t-35.5 -60t-46.5 -40.5t-58 -9.5q-23 4 -37 24.5t-20 40.5q-9 30 4.5 87t40.5 125.5t61.5 142t68 137.5t60.5 110.5t38 61.5
q1 8 4.5 32.5t7 56.5t7 68.5t5 70t0.5 60.5t-6 40q-2 4 10 7t26.5 3.5t27.5 -3.5t14 -14q5 -30 2.5 -74t-8.5 -97q45 69 95 113t96 61.5t82 8t53 -47.5q13 -29 13.5 -69t-9 -84t-28 -90t-43.5 -88q66 13 126 38t108.5 65t83 97.5t50.5 136.5q-14 13 -27.5 28.5t-24.5 35.5
t-18 45t-7 58q0 30 7 52t18 35.5t24 17.5t25 -2q14 -8 22 -26.5t11 -43.5t2.5 -53.5t-2.5 -55t-5.5 -49.5t-5.5 -37q5 -6 27 -21.5t46 -36t41.5 -43t14.5 -42.5q-6 -35 -20.5 -83t-28 -96t-21.5 -90.5t-3 -64.5q6 -26 29.5 -25t55.5 17t67 42t62 52q21 20 36 36
q2 2 9.5 -0.5t11.5 -6.5q-16 -17 -43 -41.5t-59.5 -49t-68 -44t-67 -26.5t-56 2.5t-36.5 43.5zM730 615q0 48 -9 70t-18.5 19.5t-17.5 -29t-7 -75.5q2 -45 12.5 -75.5t27.5 -53.5q6 35 9.5 70.5t2.5 73.5zM160 54q-40 -11 -61 -25.5t-28 -27t-0.5 -20t22.5 -6.5t39 14t50 43
q8 8 14.5 16.5t14.5 17.5q-14 -3 -27 -5.5t-24 -6.5z" />
    <glyph glyph-name="p_s" unicode="ps" horiz-adv-x="945" 
d="M-242 -511q23 -5 42.5 7t35.5 34t29.5 51t23.5 59t16.5 57t10.5 45q15 75 25.5 126t18 90.5t14 73.5t14.5 75q-7 -11 -24.5 -42t-40.5 -75.5t-49 -98t-50 -108t-44 -106t-30.5 -92.5t-9.5 -67t18 -29zM796 579q-17 -44 -41.5 -96.5t-47.5 -100.5q17 -76 37.5 -145
t29.5 -119q34 14 66 33.5t58.5 40.5t46 41t29.5 36q3 4 6.5 4t6.5 -2.5t5 -5.5l2 -3q-17 -22 -36.5 -42.5t-45 -40.5t-59 -40t-77.5 -40q2 -24 3 -50.5t-2 -52.5t-11.5 -50t-25.5 -44q-25 -30 -54.5 -43t-58 -12.5t-52 12.5t-37 32t-14 45.5t18.5 53.5t59 55.5t108 51.5
q-4 25 -9.5 48t-12 46.5t-13 49.5t-13.5 57q-24 -43 -59 -77t-78 -60.5t-92.5 -44.5t-100.5 -28q-25 -37 -54.5 -67.5t-62.5 -49t-67.5 -23.5t-70.5 8q-29 10 -26 34.5t29 47.5q25 22 63.5 33.5t86.5 19.5q24 34 45 73t37.5 77.5t26.5 75t11 66t-9 49t-34 25.5
q-22 5 -50 -7.5t-58.5 -40.5t-61.5 -69t-58 -93q-10 -70 -24 -144.5t-28.5 -144t-27.5 -128t-20 -95.5q-5 -24 -12.5 -57.5t-18.5 -69t-26.5 -70t-35.5 -60t-46 -40t-58 -9.5q-23 3 -37 23.5t-21 40.5q-9 30 4.5 87t40.5 126t62 142.5t68.5 137t60.5 110t38 61.5q1 9 4.5 33
t7 56.5t6.5 69t4.5 70t1 60.5t-5.5 40q-2 4 9.5 7t26.5 3t27.5 -4t14.5 -14q4 -30 2 -73.5t-9 -96.5q45 69 95.5 113t96.5 61.5t82 8t53 -47.5q13 -29 13.5 -69t-9 -84t-28 -90t-43.5 -88q66 16 115.5 39t86.5 50.5t63 59t44 66.5q-9 45 -14.5 89.5t-4 87.5t11.5 83t32 75
q18 27 46.5 40.5t51.5 6t31.5 -38.5t-14.5 -91zM701 406q23 43 41.5 90t35.5 88q21 49 18 75.5t-17 33.5t-33.5 -2.5t-31.5 -31.5q-15 -27 -22 -57.5t-7 -62.5t4.5 -65.5t11.5 -67.5zM715 79q-87 -32 -125.5 -67t-43.5 -65t15 -50.5t49 -24t59 14.5t46 66q3 10 4 25.5t1 33
t-1.5 35.5t-3.5 32zM160 54q-59 -18 -78 -40t-10 -33t39.5 -2.5t71.5 53.5q15 17 28 34q-29 -6 -51 -12z" />
    <glyph glyph-name="p_z" unicode="p&#x7a;" horiz-adv-x="1046" 
d="M-242 -511q23 -5 42.5 7t36 34.5t29.5 51.5t23 58.5t16.5 56.5t10.5 45q16 75 26 126t17.5 90.5t14 73.5t14.5 75q-7 -11 -24.5 -42t-40.5 -75.5t-48.5 -98t-49.5 -108t-44 -106t-31 -92.5t-10 -67t18 -29zM739 454q5 -6 27 -19.5t46 -31.5t41.5 -38.5t14.5 -39.5
q-6 -35 -21.5 -72t-39.5 -73.5t-55 -70t-69 -60.5q38 -20 58 -50t36 -69q3 -7 5.5 -13.5t4.5 -13.5q44 29 89 58t87 61q24 19 46.5 40.5t35.5 36.5q2 2 10 -0.5t11 -6.5q-11 -14 -36.5 -37t-50.5 -43q-46 -32 -93 -62t-94 -62q16 -57 16.5 -120.5t-14.5 -124t-46.5 -113.5
t-78.5 -88q-21 -16 -42.5 -19.5t-41 3t-35.5 22t-27 36.5q-20 40 -16.5 96t36.5 110q29 48 84 95t121 92q-13 51 -31.5 80t-38 44t-36.5 20.5t-26 9t-7.5 9t19.5 20.5q26 22 56 52.5t56 67.5t45.5 78t24.5 83q-2 16 -8.5 28.5t-17 23t-23.5 21t-26 22.5q-18 -83 -55.5 -142
t-90 -100t-118 -66t-139.5 -40q-25 -37 -54.5 -67t-62.5 -49t-67.5 -24t-70.5 8q-28 10 -25.5 34.5t28.5 47.5q25 22 63.5 33.5t86.5 19.5q24 34 45.5 73t38 77.5t26.5 75t10.5 66t-9.5 49t-34 25.5q-22 5 -50 -7.5t-58.5 -40.5t-61.5 -69t-58 -93q-10 -70 -24 -144.5
t-28.5 -144t-27 -128t-20.5 -95.5q-5 -24 -12.5 -57.5t-18.5 -69t-26.5 -70t-35.5 -60t-46 -40t-58 -9.5q-23 3 -37 23.5t-21 40.5q-9 30 4.5 87t40.5 126t62 142.5t68.5 137t60.5 110t38 61.5q1 9 4.5 33t7 56.5t7 69t5 70t0.5 60.5t-6 40q-2 4 10 7t26.5 3t27.5 -4t14 -14
q4 -30 2 -73.5t-9 -96.5q45 69 95.5 113t96.5 61.5t82 8t53 -47.5q13 -29 13.5 -69t-9 -84t-28 -90t-43.5 -88q60 12 119 35t110 63t89 98t56 141q-14 13 -28 28.5t-25 35.5t-17.5 45t-6.5 58q0 30 7 52t18 35.5t23.5 17.5t24.5 -2q14 -8 22 -26.5t11 -43.5t2.5 -53.5
t-2.5 -55t-5.5 -49.5t-5.5 -37zM752 -139q-63 -44 -114 -88.5t-78 -92.5q-26 -45 -31 -88.5t5 -75t31 -46.5t48 -3q48 21 80 65t49 99t19 115.5t-9 114.5zM724 471q6 35 9.5 70.5t3.5 73.5q-1 48 -9.5 70t-18.5 19.5t-17.5 -29t-6.5 -75.5q1 -45 11.5 -75.5t27.5 -53.5z
M161 54q-60 -18 -79 -40t-10 -33t39.5 -2.5t71.5 53.5q15 17 28 34q-30 -6 -50 -12z" />
    <glyph glyph-name="s_s" unicode="ss" horiz-adv-x="757" 
d="M226 579q-17 -44 -41.5 -96.5t-48.5 -100.5q18 -76 38.5 -145t29.5 -119q70 30 120.5 66.5t82 68t46.5 53l15 21.5q-9 45 -14.5 89.5t-4 87.5t12 83t32.5 75q17 27 46 40.5t52 6t31.5 -38.5t-14.5 -91q-17 -44 -41.5 -96.5t-48.5 -100.5q18 -76 38.5 -145t29.5 -119
q34 14 65.5 33.5t58 40.5t46.5 41t29 36q3 4 6.5 4t6.5 -2.5t5 -5.5l2 -3q-17 -22 -36.5 -42.5t-45 -40.5t-58.5 -40t-77 -40q2 -24 2.5 -50.5t-2.5 -52.5t-11.5 -50t-24.5 -44q-26 -30 -55.5 -43t-57.5 -12.5t-51.5 12.5t-37 32t-14 45.5t18 53.5t58.5 55.5t108 51.5
q-4 25 -9.5 48t-11.5 46.5t-12.5 49.5t-13.5 57q-3 -5 -21.5 -27.5t-52.5 -52.5t-83 -62.5t-112 -56.5q2 -24 3 -50.5t-2 -52.5t-11.5 -50t-25.5 -44q-25 -30 -54.5 -43t-58 -12.5t-52 12.5t-37 32t-14 45.5t18 53.5t58.5 55.5t108 51.5q-4 25 -9.5 48t-11.5 46.5
t-12.5 49.5t-13.5 57q-13 -23 -24 -46t-24 -46q-20 -37 -43 -68t-46 -56q-4 3 -10 9q-3 2 -5 4q41 46 84 116q17 29 31 58t31 58q-9 45 -15 89.5t-4.5 87.5t12 83t32.5 75q17 27 46 40.5t52 6t31.5 -38.5t-14.5 -91zM514 406q23 43 41 90t35 88q21 49 18.5 75.5t-17 33.5
t-34 -2.5t-31.5 -31.5q-15 -27 -21.5 -57.5t-7 -62.5t4.5 -65.5t12 -67.5zM527 79q-65 -24 -102.5 -50t-53 -50.5t-13.5 -46t15.5 -36t35 -21.5t44 -1.5t43 24.5t31.5 55q3 10 4 25.5t1 33t-1.5 35.5t-3.5 32zM131 406q23 43 41 90t35 88q21 49 18.5 75.5t-17 33.5t-34 -2.5
t-31.5 -31.5q-15 -27 -21.5 -57.5t-6.5 -62.5t4.5 -65.5t11.5 -67.5zM145 79q-87 -32 -125.5 -67t-43.5 -65t15 -50.5t49 -24t59 14.5t45 66q3 10 4.5 25.5t1.5 33t-1.5 35.5t-3.5 32z" />
    <glyph glyph-name="s_r" unicode="sr" horiz-adv-x="879" 
d="M227 579q-17 -44 -41.5 -96.5t-48.5 -100.5q9 -38 20 -76t21 -75.5t18.5 -74t12.5 -70.5q91 22 148.5 54t94 76.5t59 102t43.5 129.5q-14 13 -28 28.5t-25 35.5t-17.5 45.5t-6.5 58.5q0 30 7 52t18 35.5t23.5 17.5t24.5 -2q14 -8 22 -26.5t11 -43.5t2.5 -53.5t-2.5 -55
t-5.5 -49.5t-5.5 -37q5 -6 27 -22t46 -36t41.5 -42.5t14.5 -42.5q-6 -35 -20.5 -83t-28 -96.5t-21.5 -90.5t-3 -64q6 -26 30 -25t56 17t66.5 42t61.5 51q11 10 20.5 19.5t15.5 17.5q2 2 10 -0.5t11 -7.5q-16 -17 -43 -41.5t-59.5 -48.5t-68 -44t-67 -27t-56 2.5t-36.5 43.5
q-4 13 -1.5 36.5t9 53t15.5 63t18.5 66.5t17.5 63t13 53q4 24 -0.5 41t-15 30.5t-26 26t-31.5 27.5q-23 -79 -46.5 -137t-61 -101.5t-96.5 -74.5t-153 -56q3 -32 0 -62.5t-14 -58.5q-16 -40 -43 -61t-57 -27.5t-59.5 0t-51 22t-30 37.5t2.5 47q6 14 23.5 28t42 27.5
t55.5 25.5t66 23q-8 51 -23.5 109t-29.5 121q-13 -23 -24 -46t-24 -46q-20 -37 -43 -68t-46 -56q-5 5 -10.5 9t-4.5 4q20 23 41.5 52t41.5 64q17 29 31.5 57.5t31.5 57.5q-9 45 -15 90t-4.5 88t12 83t32.5 75q17 27 46 40.5t52 6t31.5 -38.5t-14.5 -91zM569 615
q0 48 -8.5 69.5t-18.5 19t-17.5 -28.5t-6.5 -75q1 -45 11.5 -76t27.5 -53q6 34 9.5 70t2.5 74zM132 406q23 43 41 90t35 88q21 49 18.5 75.5t-17 33.5t-34 -2.5t-31.5 -31.5q-15 -27 -21.5 -57.5t-6.5 -62.5t4.5 -65.5t11.5 -67.5zM148 50q-59 -18 -94.5 -35.5t-54 -33.5
t-23.5 -30t-3.5 -24.5t6.5 -17t6 -8.5q13 -17 35 -25t46 -3t45.5 24t33.5 56q7 20 7 44t-4 53z" />
    <glyph glyph-name="s_z" unicode="s&#x7a;" horiz-adv-x="908" 
d="M226 579q-17 -44 -41.5 -96.5t-47.5 -100.5q9 -38 19.5 -76t21 -75.5t19 -74t12.5 -70.5q69 18 129 38t109.5 58t87 101t61.5 166q-14 13 -28 28.5t-25 35.5t-17.5 45t-6.5 58q0 30 7 52t18 35.5t23.5 17.5t24.5 -2q14 -8 22 -26.5t11 -43.5t2.5 -53.5t-2.5 -55t-5 -49.5
t-6 -37q5 -6 27 -19.5t46 -31.5t41.5 -38.5t14.5 -39.5q-6 -35 -21.5 -72t-39.5 -73.5t-55 -70t-69 -60.5q38 -20 58 -50t36 -69q3 -7 5.5 -13.5t4.5 -13.5q44 29 89 58t87 61q24 19 44 38t33 35q2 2 6 -3t7 -10q-11 -14 -30.5 -32t-43.5 -38q-46 -32 -93 -62t-94 -62
q16 -57 16.5 -120.5t-14.5 -124t-46.5 -113.5t-78.5 -88q-21 -16 -42.5 -19.5t-41 3t-35.5 22t-27 36.5q-20 40 -16.5 96t36.5 110q29 48 84 95t121 92q-13 51 -31.5 80t-38 44t-36.5 20.5t-26 9t-7.5 9t19.5 20.5q26 22 56 52.5t56 67.5t45.5 78t24.5 83q-2 16 -8.5 28.5
t-17 23t-23.5 21t-26 22.5q-23 -99 -57.5 -162t-83 -102t-112.5 -62t-146 -42q2 -33 -1 -63.5t-14 -57.5q-16 -40 -42.5 -61t-57 -27.5t-59.5 -0.5t-50.5 21.5t-30 37.5t2.5 47q6 14 23 28t42 27.5t56 25.5t65 23q-8 51 -23.5 109t-29.5 121q-13 -23 -23.5 -46t-23.5 -46
q-43 -76 -89 -123q-6 5 -11 8.5t-5 4.5q21 23 42.5 51.5t41.5 63.5q17 29 31 58t31 58q-9 45 -14.5 89.5t-4 87.5t12 83t32.5 75q11 18 28.5 30.5t35.5 16.5t33.5 -0.5t24.5 -20t8 -42.5t-16 -67zM627 -139q-63 -44 -114 -88.5t-78 -92.5q-26 -45 -31 -88.5t5 -75t31 -46.5
t48 -3q48 21 80 65t49 99t19 115.5t-9 114.5zM599 471q6 35 9.5 70.5t3.5 73.5q-1 48 -9.5 70t-18.5 19.5t-17.5 -29t-6.5 -75.5q1 -45 11.5 -75.5t27.5 -53.5zM131 407q23 42 41.5 89.5t35.5 87.5q21 49 18 75.5t-17 34t-33.5 -2t-31.5 -31.5q-31 -56 -29 -120.5t16 -132.5
zM148 50q-60 -18 -95.5 -35.5t-54 -33.5t-23.5 -30t-3 -24.5t7 -17t6 -8.5q13 -17 35 -25t46 -3t45.5 24t33.5 56q6 20 6.5 44t-3.5 53z" />
    <glyph glyph-name="t_t" unicode="tt" horiz-adv-x="580" 
d="M173 809q4 18 15 19t22.5 -5.5t20 -16.5t7.5 -14q-2 -5 -5 -15.5t-8.5 -31.5t-15 -55.5t-23.5 -88.5q66 -11 120.5 -19t102.5 -14q2 6 3 11l2 10l6 21q14 54 22.5 88.5t14 56t8 33.5t4.5 21q4 18 15.5 19t23 -5.5t19.5 -16.5t7 -14q-2 -5 -5 -15t-8 -30t-14 -54t-23 -88
l-6 -21l-6 -22q37 -3 68 -4.5t57 -0.5q6 0 13.5 -3t12.5 -6.5t6 -6.5t-6 -3q-42 -1 -80.5 1t-74.5 6q-13 -50 -28.5 -109t-29 -111.5t-24 -92.5t-13.5 -52q-4 -17 -9.5 -46.5t-8 -59.5t0 -56.5t15.5 -37.5q13 -12 35 -7.5t48 21t55 43t58 59.5q8 10 15.5 18.5t15.5 18.5
q2 2 6 -2.5t9 -11.5q-8 -9 -15.5 -18t-15.5 -18q-28 -30 -58.5 -57t-61 -46t-59 -27t-51.5 1q-26 9 -38 32t-15.5 51.5t-1 60t7.5 57.5q-15 -26 -33.5 -59.5t-40 -67.5t-44.5 -66.5t-46 -58t-46 -40t-44 -13.5q-30 2 -45.5 22t-21 51t-3 69t8.5 74t13 67t11 49q2 9 8 33.5
t14.5 58.5t19.5 75t21.5 83.5t21 83t19.5 73.5q-27 3 -43.5 5.5t-28 4t-21 2.5t-22.5 0q-12 -1 -13 1t3.5 5t10.5 5.5t8 2.5q13 2 22.5 2.5t20.5 -0.5t26.5 -3t41.5 -4q14 54 23 88.5t14.5 56t8 33.5t4.5 21zM319 218q7 27 17 67t22 85.5t24 92.5t23 88q-64 8 -119.5 17.5
t-103.5 15.5q-7 -25 -22 -78.5t-33 -121.5t-37 -142.5t-33.5 -141.5t-21.5 -119t-2 -74q8 -32 23.5 -36.5t36 9.5t44 43t47.5 65t46.5 74t41 71t31 56.5t16.5 28.5z" />
    <glyph glyph-name="y_j" unicode="yj" horiz-adv-x="972" 
d="M241 -122q-73 -37 -140 -80t-109 -100q-17 -23 -30.5 -57t-17 -69t6.5 -65.5t40 -45.5q30 -16 57 -7t51 36.5t44.5 70t38 94t32.5 109t27 114.5zM647 -94q26 126 51.5 243.5t51.5 238.5q-48 -61 -93 -128t-96 -130.5t-111.5 -120.5t-138.5 -98q-18 -87 -37.5 -171
t-46 -151.5t-64 -112t-92.5 -51.5q-46 -6 -77 6t-48.5 35.5t-23 55t-0.5 66t18.5 68.5t34.5 61q47 60 120.5 105.5t151.5 83.5q10 46 19 89.5t19 88.5q5 26 10 55.5t12 54.5q-33 -67 -65 -108.5t-62.5 -62.5t-59.5 -24t-56 7q-30 10 -43.5 37t-16 65t5.5 84t22.5 95t34 97.5
t39.5 91.5q6 13 20 13.5t26.5 -7t19 -21t-1.5 -27.5q-16 -28 -32 -65t-30 -78t-24.5 -82t-15 -76.5t-1.5 -62t16 -37.5q19 -17 40.5 -15t44 18t45 43t43.5 60.5t39 70.5t33 73q8 20 15 40t12 37q3 12 10 14.5t14.5 -0.5t15 -10t13.5 -14q11 -12 9 -17q-32 -98 -57 -196
t-45 -199q70 33 131 92t115 129t103.5 142.5t96.5 132.5q6 12 16.5 11t21 -7.5t18 -15.5t6.5 -13q-2 -7 -9.5 -38t-18.5 -75.5t-23 -97.5t-23 -103t-20.5 -92t-13.5 -65q46 22 82.5 42.5t67 43.5t58 49.5t54.5 61.5q2 2 6 -2.5t9 -12.5q-35 -41 -64.5 -70t-61.5 -52t-69 -43
t-86 -44q-18 -87 -37.5 -171t-46 -151.5t-64 -112t-92.5 -51.5q-46 -6 -77 6t-48.5 35.5t-22.5 55t-0.5 66t18.5 68.5t35 61q23 30 54 56t66.5 49.5t74 44t76.5 39.5zM884 655q11 -13 9 -32.5t-10 -40.5t-19.5 -39.5t-18.5 -29.5q-10 -14 -19.5 -18.5t-17 -1.5t-12 11.5
t-4.5 20.5q0 22 7 53t20 55.5t30 33.5t35 -12zM392 -302q-17 -23 -30.5 -57t-17 -69t6.5 -65.5t41 -45.5q30 -16 57 -7t50.5 36.5t44 70t38 94t32.5 109t27 114.5q-36 -18 -71.5 -38t-68 -42t-60.5 -47t-49 -53z" />
    <glyph glyph-name=".notdef" horiz-adv-x="242" 
 />
    <glyph glyph-name=".null" horiz-adv-x="0" 
 />
    <glyph glyph-name="nonmarkingreturn" horiz-adv-x="242" 
 />
    <glyph glyph-name="space" unicode=" " horiz-adv-x="461" 
 />
    <glyph glyph-name="space" unicode="&#xa0;" horiz-adv-x="461" 
 />
    <glyph glyph-name="c" unicode="c" horiz-adv-x="490" 
d="M314 432q-31 11 -64 -7t-63 -54.5t-55 -84.5t-41.5 -97.5t-22 -94.5t4.5 -74q13 -38 42.5 -54t69 -13.5t85 20.5t89.5 48q44 29 75 60.5t61 73.5q2 2 6 -3.5t9 -12.5q-29 -38 -60.5 -70.5t-71.5 -60.5q-52 -36 -105 -55t-100.5 -21t-87 14t-63.5 50q-23 32 -28.5 73
t2 84.5t25.5 88t42.5 84.5t52.5 73t56 54q41 30 81 37.5t71 -6.5q33 -15 39.5 -40.5t-2.5 -52t-29 -50t-40 -33.5q-7 -4 -10.5 -3.5t-4.5 3t-0.5 5t1.5 2.5q24 15 36.5 33.5t16 36t-1.5 30.5t-15 17z" />
    <glyph glyph-name="a" unicode="a" 
d="M323 432q-31 11 -64.5 -5.5t-65 -50t-58 -79t-43.5 -92t-21 -89t9 -69.5q16 -33 43 -34t59 18t65.5 52t63 68.5t50.5 66.5t28 47q2 5 12.5 2t22.5 -10t20.5 -16t5.5 -16q-29 -89 -37 -144t0 -82.5t30 -31t51 12t63 45.5t68 69q8 10 16.5 20t16.5 20q2 2 4.5 -4t7.5 -14
q-29 -35 -63.5 -70t-69.5 -61t-68.5 -38.5t-60.5 -2.5q-26 9 -39 29.5t-16.5 46.5t-0.5 55t8.5 55.5t12 47.5t8.5 31q-8 -11 -24 -32.5t-37.5 -47t-47.5 -51.5t-54.5 -45.5t-57.5 -30t-56 -5.5q-26 5 -47.5 20.5t-35.5 40t-18.5 56t2.5 68.5t24.5 75t41 74t52 67.5
t59.5 54.5q41 31 82.5 37.5t72 -8.5t45.5 -51.5t2 -92.5q-2 -8 -5 -9t-6 0.5t-5 4.5t-2 4q2 40 -9.5 63t-33.5 31z" />
    <glyph glyph-name="z" unicode="z" horiz-adv-x="443" 
d="M137 454q5 -6 27 -20t45.5 -31.5t41.5 -38t14 -39.5q-6 -35 -21.5 -72t-39 -73.5t-54.5 -70t-69 -60.5q38 -20 57.5 -50t36.5 -69q3 -7 5.5 -13.5t4.5 -13.5q44 29 89 58t86 61q24 19 47 40t36 37q2 2 9.5 -0.5t10.5 -7.5q-11 -14 -36.5 -36.5t-49.5 -42.5
q-46 -32 -93 -62t-95 -62q16 -57 16.5 -120.5t-14.5 -124t-46 -113.5t-78 -88q-21 -16 -42.5 -19.5t-41 3t-36 21.5t-27.5 36q-20 41 -16.5 97t37.5 110q29 48 84 94.5t121 92.5q-13 51 -32 80t-38 44t-36.5 20.5t-26.5 9t-7.5 9t19.5 20.5q26 22 56 52.5t56.5 67.5t45.5 78
t24 83q-2 16 -8.5 28.5t-16.5 23t-23 21t-26 22.5q-12 -54 -30.5 -105t-41.5 -97t-49.5 -84.5t-54.5 -67.5l-2 2q-5 4 -9.5 7.5t-3.5 3.5q3 4 5.5 7t5.5 7q24 28 48.5 65t47 80.5t40.5 92t29 101.5q-14 13 -27.5 28.5t-24.5 35.5t-18 45.5t-7 58.5q0 30 7 52t18 35.5
t24 17.5t25 -2q14 -8 22 -26.5t11 -43.5t2.5 -53.5t-2.5 -55t-5 -49.5t-6 -37zM150 -139q-63 -44 -114.5 -88.5t-77.5 -92.5q-26 -45 -31 -88.5t4.5 -75.5t31 -47t48.5 -3q48 21 79.5 65t48.5 99t19.5 115.5t-8.5 115.5zM122 471q6 34 9.5 70t2.5 74q0 48 -9 70t-18.5 19.5
t-17.5 -29t-7 -75.5q2 -45 12.5 -76t27.5 -53z" />
    <glyph glyph-name="h" unicode="h" horiz-adv-x="586" 
d="M5 25q-7 29 -3.5 78.5t14 112.5t27 134.5t35 144t38 142t37.5 128t32.5 101.5t22.5 63q13 32 30 62.5t38 54t47 37t58 12.5q25 -1 44 -19.5t28 -51.5t6 -80t-22 -105q-36 -115 -82.5 -213.5t-95.5 -181t-96.5 -147.5t-86.5 -113q-11 -46 -15.5 -85.5t0.5 -58.5
q5 -16 19.5 8.5t36 72t48.5 108.5t55.5 117t58 97.5t56.5 51.5t47.5 5.5t34.5 -18t19.5 -34t2.5 -42.5q-5 -29 -16 -70.5t-23.5 -87t-24 -92t-17.5 -85.5t-3.5 -68t17.5 -39q14 -9 33.5 -3.5t41.5 20t44.5 35t42 41t35 37.5t22.5 26q2 2 6 -2.5t9 -12.5q-29 -35 -63.5 -68.5
t-69.5 -58t-68 -36t-60 -2.5q-28 10 -40.5 37.5t-13.5 66t6.5 84t18.5 92t23 90t19.5 78.5t8.5 57t-9 25q-20 6 -44 -18.5t-48.5 -66.5t-50 -95.5t-48 -105t-42.5 -95.5t-34 -66q-9 -14 -22.5 -19.5t-26.5 -4t-23.5 8t-13.5 17.5zM87 233q39 49 82.5 112.5t87 140t84 166.5
t73.5 193q30 94 23.5 141.5t-36.5 47.5q-21 0 -40 -11.5t-35.5 -30t-30.5 -42.5t-25 -49q-18 -41 -36.5 -94t-35.5 -112.5t-33.5 -122.5t-30.5 -123.5t-26 -116t-21 -99.5z" />
    <glyph glyph-name="v" unicode="v" horiz-adv-x="415" 
d="M72 26q18 -3 45 27.5t58 80t63.5 111.5t62.5 122.5t55 113t41 82.5q4 8 12 3t4 -11q-12 -22 -34.5 -69t-50.5 -105t-59.5 -121t-62.5 -117t-59.5 -91.5t-50.5 -45.5q-27 -9 -47.5 -5t-34.5 17.5t-19.5 34t-2.5 42.5q4 27 10.5 64t13 76.5t12.5 79t10.5 73.5t6 58.5
t-1.5 34.5q-3 13 9.5 19t29 4.5t30.5 -9.5t14 -21q-1 -34 -8 -80t-16.5 -95t-19.5 -97.5t-15.5 -86.5t-5.5 -62.5t11 -26.5z" />
    <glyph glyph-name="w" unicode="w" horiz-adv-x="726" 
d="M72 32q20 -6 44.5 18.5t50 66.5t51 95.5t49 105t43.5 95t34 66.5q10 15 26 20.5t31 4t26 -9.5t11 -20q-1 -34 -9.5 -84t-20 -105.5t-23.5 -111.5t-20.5 -102.5t-10.5 -78t7 -37.5q13 -9 32 8t42 51t49 81.5t52.5 101t52.5 109t48.5 105.5t41 89.5t30.5 62.5q4 8 12 3.5
t4 -11.5q-13 -22 -37 -74t-54.5 -118t-65 -138.5t-68 -134t-63.5 -104t-52 -50.5q-27 -10 -47.5 -5.5t-34.5 18t-19.5 34t-2.5 42.5q4 24 11 61.5t15.5 80t17 87.5t16 85.5t12 73t4.5 49.5q-11 -13 -28 -49.5t-38 -84t-45.5 -101t-50 -99.5t-51 -80t-48.5 -42
q-27 -9 -47.5 -5t-34.5 17.5t-19.5 34t-2.5 42.5q4 27 10.5 64t13 76.5t12.5 79t10.5 73.5t6 58.5t-1.5 34.5q-3 13 9.5 19t29 4.5t30.5 -9.5t14 -21q-1 -34 -8 -79t-16.5 -93t-19 -95.5t-15 -85t-5.5 -62t10 -27.5z" />
    <glyph glyph-name="s" unicode="s" horiz-adv-x="376" 
d="M227 579q-17 -44 -41.5 -96.5t-48.5 -100.5q18 -76 38.5 -145t29.5 -119q34 14 65.5 33.5t58 40.5t46.5 41t29 36q3 4 7 4t7 -2.5t5 -5.5l2 -3q-17 -22 -37 -42.5t-45.5 -40.5t-58.5 -40t-77 -40q2 -25 2.5 -51.5t-2.5 -52t-11.5 -49.5t-24.5 -44q-25 -30 -54.5 -43
t-58 -12.5t-52 12.5t-37 32t-14 45.5t18 53.5t58.5 55.5t108 51.5q-4 25 -9.5 48t-11.5 46.5t-12.5 49.5t-13.5 57q-13 -23 -24 -46t-24 -46q-20 -37 -43 -68t-46 -56q-5 5 -10.5 9t-4.5 4q20 23 41.5 52t41.5 64q17 29 31.5 58t31.5 58q-9 45 -15 89.5t-4.5 87.5t12 83
t32.5 75q17 27 46 40.5t52 6t31.5 -38.5t-14.5 -91zM132 406q23 43 41 90t35 88q21 49 18.5 75.5t-17 33.5t-34 -2.5t-31.5 -31.5q-15 -27 -21.5 -57.5t-6.5 -62.5t4.5 -65.5t11.5 -67.5zM145 79q-65 -24 -102.5 -50t-53 -50.5t-13.5 -46t15.5 -36t35 -21.5t44 -1.5t43 24.5
t31.5 55q3 10 4.5 25.5t1 33t-2 35.5t-3.5 32z" />
    <glyph glyph-name="n" unicode="n" horiz-adv-x="580" 
d="M66 422q5 17 15.5 16t21.5 -9.5t18.5 -19.5t6.5 -14q-2 -6 -9.5 -30.5t-17 -58.5t-20 -74t-17.5 -77t-10 -68t2 -47q3 -12 12.5 -0.5t23 39t30.5 67t37 83.5t41.5 88.5t43.5 81.5t43.5 63.5t41.5 33.5q27 9 47.5 4.5t34.5 -18t19.5 -33.5t2.5 -42q-5 -28 -15 -67.5
t-22 -83t-23.5 -88.5t-18.5 -83.5t-6.5 -69t12.5 -44.5t30 -12t39.5 14t43.5 31t41.5 38t34 35.5t20.5 23.5q5 6 9.5 11t9.5 11q2 2 4.5 -4t7.5 -13q-29 -35 -63.5 -68.5t-69.5 -58.5t-68 -36.5t-60 -1.5q-28 10 -40 37.5t-13 65.5t6 83.5t18 92t23 90.5t20 78.5t9 56.5
t-9 25q-21 6 -45 -18.5t-49.5 -66.5t-51 -95.5t-48.5 -105t-43 -95.5t-34 -66q-11 -17 -25 -21t-27.5 2t-23.5 19t-13 29q-6 31 1.5 80.5t20 103t27.5 104t24 82.5z" />
    <glyph glyph-name="g" unicode="g" horiz-adv-x="652" 
d="M395 -61q46 22 82.5 42.5t67 43t58 49.5t54.5 62q2 2 6 -3t9 -12q-35 -41 -64.5 -70t-61.5 -52t-69 -43t-86 -44q-18 -87 -37.5 -171t-46 -151.5t-64 -112t-92.5 -51.5q-46 -6 -77 6t-48.5 35.5t-22.5 55t-0.5 66t18.5 68t35 60.5q47 61 120.5 106.5t150.5 82.5
q17 79 27.5 153t28.5 154q-8 -11 -24 -32.5t-37.5 -47t-47.5 -51.5t-54.5 -45.5t-57.5 -30t-56 -5.5q-26 5 -47.5 20.5t-35 40t-18.5 56t3 68.5q7 37 24 75t40.5 74t52 67.5t59.5 54.5q41 31 82.5 37.5t72 -8.5t45.5 -51.5t2 -92.5q-2 -8 -5 -9t-6 0.5t-5 4.5t-2 4
q2 40 -9.5 63t-32.5 31q-31 11 -65 -5.5t-65.5 -50t-58 -78.5t-43 -91.5t-21 -89t8.5 -69.5q16 -33 43 -34.5t59 17.5t65.5 52.5t63 68.5t50.5 66.5t28 47.5q2 4 12.5 1t21.5 -9.5t20 -16t8 -16.5q0 -3 -5 -25.5t-13.5 -61t-18.5 -90.5t-21 -113zM72 -301q-17 -23 -30.5 -57
t-17 -69t6.5 -65.5t41 -46.5q30 -16 57 -6.5t50.5 36.5t44 69.5t38 94t32.5 109t27 114.5q-36 -18 -71.5 -37.5t-68 -41.5t-60.5 -47t-49 -53z" />
    <glyph glyph-name="y" unicode="y" horiz-adv-x="572" 
d="M241 -122q-36 -18 -71.5 -37.5t-68 -42t-60.5 -47.5t-49 -53q-17 -23 -30.5 -57t-17 -69t6.5 -65.5t41 -45.5q30 -16 57 -6.5t50.5 36.5t44 69.5t38 94t32.5 109t27 114.5zM106 477q6 13 20 13.5t26.5 -7t19 -21t-1.5 -27.5q-16 -28 -32 -65.5t-30 -78.5t-24.5 -82
t-15 -76.5t-1.5 -62t16 -37.5q29 -25 62.5 -9.5t67 55.5t63.5 95t52 109q16 40 27 77q3 12 10 14.5t14.5 -0.5t15 -10t13.5 -14q11 -12 9 -17q-5 -15 -13 -42t-17 -57t-17.5 -58.5t-12.5 -46.5q-2 -5 -2.5 -9t-1.5 -6l-2 -10q-10 -42 -18 -80t-13 -64q-2 -6 -3 -11.5
t-2 -10.5l12 6t11 5q11 5 21 10.5t20 10.5q31 17 57.5 34.5t50.5 37t45.5 42.5t44.5 51q1 2 8 -5q4 -6 7 -9q-29 -34 -53.5 -59.5t-50 -45.5t-52.5 -37.5t-60 -34.5q-15 -8 -31 -16t-34 -16q-18 -87 -37.5 -171.5t-46 -152t-64 -111.5t-92.5 -51q-46 -6 -77 5.5t-48.5 35
t-22.5 55t-0.5 66t18.5 68.5t35 61q23 30 54 56.5t66.5 49.5t74 43.5t76.5 39.5q11 54 22.5 106t22.5 103l1 7q3 15 6.5 36t7.5 37q-33 -67 -65 -108.5t-62.5 -62.5t-59.5 -24.5t-56 6.5q-30 11 -43.5 38t-15.5 65t6 84t22.5 94.5t33.5 97.5t39 92z" />
    <glyph glyph-name="x" unicode="x" horiz-adv-x="533" 
d="M400 539q6 7 12.5 0.5t1.5 -11.5q-12 -14 -34 -42t-50 -65.5t-61 -81.5t-67 -89q12 -51 28 -101t35.5 -87.5t41.5 -58t48 -11.5q27 10 62 38t70 66q14 15 26 31t25 32q2 2 6 -2.5t9 -11.5q-13 -15 -25 -31t-26 -31q-32 -37 -70.5 -68.5t-85.5 -46.5q-38 -13 -68.5 0.5
t-55 43.5t-44.5 73.5t-35 90.5q-27 -33 -52.5 -63t-48.5 -53.5t-43 -40t-35 -22.5q-7 -3 -10 -1t-3.5 5.5t1.5 7.5t6 6q14 6 33.5 22t43 40t49.5 54t53 64q-20 64 -32.5 123t-22.5 93q-6 23 -15 38t-9 18q-3 16 10.5 25t32.5 9t36.5 -10t21.5 -32q2 -11 5.5 -30t8 -43.5
t10.5 -54t14 -60.5q32 41 62.5 82t57 77t48 64t35.5 45z" />
    <glyph glyph-name="u" unicode="u" horiz-adv-x="580" 
d="M351 362q5 17 15.5 16t21.5 -9.5t18.5 -19.5t6.5 -14q-6 -17 -15.5 -49t-19.5 -66t-18 -63.5t-11 -41.5q-18 -83 -4.5 -115t45.5 -27t76 40.5t88 86.5q16 17 31 37q2 2 6 -2.5t9 -12.5q-29 -35 -63.5 -70t-69.5 -61t-68 -38.5t-60 -3.5q-25 9 -38 27.5t-17.5 42.5
t-2.5 51t7 53q3 16 6.5 37t8.5 37q-33 -67 -65 -108.5t-62.5 -62.5t-59.5 -24.5t-56 6.5q-30 11 -43.5 38t-16 65t5.5 84t22.5 94.5t34 97t39.5 91.5q6 13 20 14t26.5 -6.5t19 -21t-1.5 -27.5q-16 -28 -32 -65.5t-30 -78.5t-24.5 -82t-15 -76.5t-1.5 -62t16 -37.5
q23 -20 49 -13.5t53 30.5t53 62.5t48.5 81.5t40 86.5t28.5 79.5z" />
    <glyph glyph-name="j" unicode="j" horiz-adv-x="272" 
d="M-53 -94q-38 -19 -76.5 -39.5t-74 -43.5t-66.5 -49.5t-54 -56.5q-21 -27 -35 -61t-18.5 -68.5t0.5 -66t22.5 -55t48.5 -35t77 -5.5q55 7 92.5 51t64 111.5t46 152t37.5 171.5q49 23 86 43t69 43t61.5 52t64.5 70q-5 8 -9 12.5t-6 2.5q-27 -35 -54.5 -61.5t-58 -49.5
t-67 -43.5t-82.5 -42.5q4 23 13.5 65t20.5 92t23 103t22.5 97.5t18.5 75.5t10 38q1 4 -7 14t-19.5 16.5t-22.5 5.5t-15 -19q-28 -131 -56 -257.5t-56 -262.5zM184 655q11 -13 9 -32.5t-10 -40.5t-19.5 -39.5t-18.5 -29.5q-10 -14 -19.5 -18.5t-17 -1.5t-12 11.5t-4.5 20.5
q0 22 7 53t20 55.5t30 33.5t35 -12zM-308 -302q21 28 49 53t60.5 47t68 42t71.5 38q-12 -57 -27 -114.5t-32.5 -109t-38 -94t-44 -69.5t-50.5 -36.5t-57 6.5q-31 15 -41 45.5t-6.5 65.5t17 69t30.5 57z" />
    <glyph glyph-name="l" unicode="l" horiz-adv-x="336" 
d="M392 1034q-23 0 -43.5 -13t-38 -34.5t-31.5 -48.5t-25.5 -54t-19.5 -52t-12 -43q-20 -74 -41 -155.5t-41 -157t-36.5 -140t-26.5 -105.5q38 49 82 112.5t87.5 140t84.5 167t74 193.5q30 94 23.5 142t-36.5 48zM88 -57q-45 -2 -66 24.5t-27.5 65t-2 81t10.5 72.5
q2 12 10 45t20.5 80.5t27.5 107t31.5 123.5t33.5 130t33 127q6 24 15 56t22 65t29.5 65t38.5 56.5t48.5 39t59.5 13.5q25 -1 44 -19t28 -51t6 -80t-22 -106q-37 -116 -83.5 -215t-96 -181.5t-97 -148t-86.5 -112.5q-3 -13 -6.5 -35t-5 -47t-0.5 -50t8 -44q8 -23 23.5 -29.5
t35.5 -2.5t43.5 17.5t47 31.5t46 38.5t41.5 39.5q17 17 26 30.5t17 21.5q2 2 6 -3t9 -12q-8 -11 -18.5 -23.5t-23.5 -26.5q-23 -24 -51.5 -49t-58.5 -46t-60 -34.5t-56 -14.5z" />
    <glyph glyph-name="d" unicode="d" horiz-adv-x="696" 
d="M384 339q-2 -8 -5 -9t-6 0.5t-5 4.5t-2 4q2 40 -9.5 63t-33.5 31q-31 11 -64.5 -5.5t-65 -50t-58 -78.5t-43.5 -91.5t-21 -89t9 -69.5q15 -32 41 -34t57 15.5t63.5 48.5t61.5 65t51 66t32 50q11 45 27 108.5t34.5 135.5t38 147.5t37.5 144.5q6 24 15.5 55.5t22 64.5
t29.5 65t38.5 57t48 39.5t59.5 13.5q26 -1 47 -21t31 -54.5t5.5 -81.5t-28.5 -104q-41 -93 -82.5 -168t-82.5 -137.5t-81.5 -115t-79.5 -99.5q-3 -13 -10.5 -40.5t-15 -61.5t-13.5 -71t-7.5 -70t4.5 -58.5t22 -35.5q19 -12 46.5 -3t57.5 29.5t59 47t52 50.5q14 14 22.5 25.5
t15.5 19.5q2 2 6 -3t9 -12q-8 -11 -17 -21.5t-20 -21.5q-26 -27 -56.5 -52.5t-60.5 -45.5t-57.5 -32.5t-48.5 -13.5q-30 -1 -49 11t-30 32.5t-15 46.5t-3.5 53.5t4 53.5t7.5 46l3 12q-17 -23 -46.5 -59.5t-66 -69.5t-76.5 -54t-77 -14q-26 5 -47.5 20.5t-35.5 40t-18.5 56
t2.5 68.5t24.5 75t41 74t52 67.5t59.5 54.5q41 31 82.5 37.5t72 -8.5t45.5 -51.5t2 -92.5zM586 786q-20 -74 -35.5 -134.5t-28.5 -111.5t-24 -95t-21 -85q38 49 77.5 103.5t78 114.5t73.5 125.5t64 137.5q18 45 24 80.5t3 60t-14 37t-26 12.5q-35 0 -63.5 -28.5t-50 -68
t-36 -81t-21.5 -67.5z" />
    <glyph glyph-name="i" unicode="i" horiz-adv-x="295" 
d="M63 425q-6 -28 -17 -67t-21.5 -82.5t-18 -87.5t-6.5 -82.5t13.5 -67t41.5 -40.5q27 -11 53 -8t51 16t48.5 33.5t44.5 43.5q18 20 33.5 41.5t29.5 39.5q-5 7 -8.5 11.5t-5.5 2.5q-18 -24 -32.5 -43t-31.5 -39q-31 -35 -56 -54t-45.5 -26t-35.5 -4t-26 13q-13 11 -15.5 40
t1.5 67t13.5 80.5t19.5 81t19.5 69.5t14.5 45q1 4 -7 13.5t-19.5 16.5t-22.5 6t-15 -19zM188 653q11 -12 9 -31.5t-10 -40.5t-19.5 -40t-18.5 -30q-10 -14 -19.5 -18.5t-17 -1.5t-12 12t-4.5 21q0 22 7.5 53t20 55t29.5 33.5t35 -12.5z" />
    <glyph glyph-name="t" unicode="t" horiz-adv-x="288" 
d="M163 809q4 18 15.5 19t23 -5.5t19.5 -16.5t7 -14q-2 -5 -5 -15t-8 -30t-14 -54t-23 -88q32 -3 54.5 -5t39.5 -2t29.5 1.5t25.5 6.5q9 4 10.5 2t-1.5 -6t-9 -9t-13 -7q-14 -5 -26 -6.5t-28 -1.5t-37 1.5t-51 3.5q-9 -32 -19.5 -72t-21.5 -82t-21.5 -82.5t-19.5 -75
t-15 -59t-8 -33.5q-4 -17 -9.5 -46t-8 -59t0 -56.5t15.5 -37.5q13 -12 35 -7.5t48 21t55 43t58 59.5q8 10 15.5 18.5t15.5 18.5q2 2 6 -2.5t9 -11.5q-8 -9 -15.5 -18t-15.5 -18q-28 -30 -58.5 -57t-61 -46t-59 -27t-51.5 0q-30 11 -42 39t-13.5 62t3.5 69t10 59q2 9 8 33.5
t15 58.5t19.5 75t21.5 83.5t21 83t19 73.5q-27 3 -43.5 5t-28 4t-21 2.5t-22.5 0.5q-12 -1 -12.5 1t3.5 4.5t10 5t8 2.5q13 3 22.5 3.5t20.5 -0.5t26.5 -3t42.5 -4q14 54 22.5 88.5t14 56t8 33.5t4.5 21z" />
    <glyph glyph-name="f" unicode="f" horiz-adv-x="361" 
d="M346 960q26 -1 47 -21t31 -54.5t5.5 -81.5t-28.5 -104q-41 -93 -82.5 -168.5t-82.5 -138t-81.5 -114.5t-79.5 -100q-14 -60 -28 -118.5t-25 -120.5q-11 -61 -19 -123.5t-12 -120t-2.5 -108t10.5 -87.5q10 -42 33 -46t47.5 21t45 75t25 116.5t-13 145.5t-68.5 161
q-4 7 0 10.5t10 3.5q12 0 39.5 1t63.5 10.5t77.5 31.5t81.5 65l12 14t12 15q2 2 6 -5t7 -12q-41 -52 -85.5 -80t-85 -40.5t-72 -14t-46.5 -0.5q31 -44 51 -99.5t27 -113.5t2 -114.5t-24 -102.5t-52 -77.5t-81 -39.5q-30 -5 -49 14t-29 55.5t-11.5 87t2 109t12 122
t19.5 125.5q16 91 37.5 182.5t45 183t48 182t47.5 179.5q6 24 15.5 55.5t22 64.5t29.5 65t38.5 57t48 39.5t59.5 13.5zM380 710q18 45 24 80t3 59.5t-14 37t-26 12.5q-35 0 -63.5 -28.5t-50 -67.5t-36 -80.5t-21.5 -68.5q-20 -74 -35.5 -134.5t-28.5 -111.5t-24 -95l-21 -84
q38 49 77.5 103.5t78 114.5t73.5 125.5t64 137.5z" />
    <glyph glyph-name="k" unicode="k" horiz-adv-x="586" 
d="M76 184q-11 -46 -15.5 -85t0.5 -59q4 -12 13 -0.5t22.5 39t31 67t37.5 83.5t41.5 88.5t43.5 81.5t43.5 63.5t41.5 33.5q28 10 50.5 5.5t35.5 -19.5t15.5 -37.5t-8.5 -47.5q-23 -50 -55.5 -76t-65.5 -42t-60 -29.5t-39 -38.5q-8 -18 -3 -49t20.5 -65t40.5 -65t56 -49.5
t67 -19t74 27.5q31 23 64.5 58.5t65.5 72.5q2 2 5 -3.5t8 -12.5q-29 -34 -62 -71t-68 -63q-41 -32 -83.5 -39.5t-81 3.5t-70 37t-50 62.5t-21.5 80t17 89.5q7 16 15.5 30t22.5 25q15 12 34 27t39 36t38.5 47.5t30.5 61.5q2 19 -1.5 29t-11.5 11.5t-18.5 -4.5t-21.5 -17
q-20 -19 -41 -53t-41.5 -75.5t-41 -86.5t-38.5 -86t-33.5 -74.5t-27.5 -52.5q-9 -14 -22.5 -19t-26.5 -3.5t-23.5 8t-13.5 17.5q-7 29 -3.5 78.5t14 112.5t27 134.5t35 144t38 142t37.5 128t32.5 101.5t22.5 63q13 32 30 62.5t38 53.5t47 36.5t58 12.5q25 -1 44 -19t28 -51
t6 -80t-22 -106q-36 -115 -82.5 -213.5t-95.5 -181t-96.5 -147.5t-86.5 -113zM87 234q39 49 82.5 112.5t87 140t84 166.5t73.5 192q30 94 23.5 142t-36.5 48q-21 0 -40 -11.5t-35.5 -30t-30.5 -42.5t-25 -49q-18 -41 -36.5 -94t-35.5 -112.5t-33.5 -122.5t-30.5 -123.5
t-26 -116t-21 -99.5z" />
    <glyph glyph-name="o" unicode="o" horiz-adv-x="540" 
d="M340 194q3 11 7.5 32.5t7.5 47t3.5 51.5t-3.5 47q-5 24 -16.5 33.5t-24 6.5t-23 -18t-14.5 -39q-3 -21 -1.5 -44.5t9 -46t21.5 -41t34 -29.5zM335 175q-27 16 -44.5 38t-27 46.5t-11 51t3.5 51.5q6 27 21.5 45.5t34 24t35.5 -5t25 -40.5q6 -22 6.5 -50.5t-2 -56.5
t-7.5 -52.5t-9 -39.5q37 -9 93 14.5t116 86.5q1 1 4.5 -6.5t6.5 -11.5q-35 -34 -65 -55t-57.5 -32.5t-53 -14t-49.5 0.5q-12 -37 -29 -70t-40 -58.5t-51.5 -42t-61.5 -19.5q-26 -2 -50 4.5t-46 19.5q-42 26 -59.5 71.5t-16.5 99.5t17.5 110.5t42.5 104.5t58.5 82.5
t65.5 44.5q30 9 54.5 1t40.5 -21.5t21 -25.5t-5 -10q-16 3 -34.5 5.5t-32.5 -3.5q-26 -12 -50.5 -43t-45.5 -72t-35.5 -88t-19.5 -91.5t2 -82.5t30 -60q12 -13 28 -17.5t33 -5.5q30 -1 55.5 12.5t46 37t36 55.5t26.5 68z" />
    <glyph glyph-name="b" unicode="b" horiz-adv-x="575" 
d="M69 171q-3 -14 -7 -32.5t-6.5 -38t-4 -38t0.5 -32.5q39 144 96 242.5t115 150t109.5 55t80.5 -41.5q17 -27 17 -71.5t-11.5 -96t-32 -104t-44.5 -95.5q26 6 53 17.5t53 26.5t50.5 31.5t46.5 32.5q2 1 3.5 -5.5t6.5 -13.5q-48 -34 -107 -66.5t-119 -46.5
q-22 -35 -48.5 -64t-55.5 -49q-32 -23 -68 -30.5t-63 -2.5t-38.5 21.5t4.5 42.5q11 19 31 32t43 22t47 14.5t44 10.5q64 107 95.5 185t37.5 127.5t-9 71t-43.5 17.5t-66 -34t-76 -84t-74.5 -131t-61 -176q-2 -11 -8 -15.5t-12.5 -5t-13.5 1.5t-10 4q-18 7 -22 44.5t1.5 94.5
t19 129t31.5 149t38.5 154t40.5 144.5t37 120t28 80.5q13 33 29 64t37 55t47 38.5t58 13.5q25 -1 46 -21t31 -54.5t6 -81.5t-29 -104q-41 -93 -85 -183t-89 -173.5t-91 -159.5t-89 -142zM199 6q-39 -13 -60 -28t-27 -28t0.5 -20.5t22.5 -5.5t38.5 16t48.5 44q7 8 13.5 16.5
t13.5 18.5q-14 -3 -26.5 -6.5t-23.5 -6.5zM75 217q37 57 81.5 134t89.5 162t86 170t70 157q18 45 24 78.5t2.5 57t-14 36.5t-25.5 17q-25 7 -50 -19t-50 -74.5t-49 -114.5t-46 -138t-41 -145.5t-34.5 -137t-26.5 -112t-17 -71.5z" />
    <glyph glyph-name="p" unicode="p" horiz-adv-x="541" 
d="M-242 -512q23 -5 42.5 7.5t36 34.5t29.5 51t23 59t16.5 57t10.5 45q15 75 25.5 126t18 90t14 73t14.5 75q-7 -10 -24.5 -41.5t-40.5 -75.5t-49 -97.5t-50 -108t-44 -106t-30.5 -92.5t-9.5 -67t18 -30zM414 443q13 -29 13.5 -69t-9 -84t-28 -90t-43.5 -88
q53 11 104.5 27.5t96.5 47.5q2 1 5.5 -5t7.5 -13q-48 -32 -108.5 -50.5t-120.5 -30.5q-25 -37 -54.5 -67.5t-62.5 -49t-67.5 -23.5t-70.5 8q-28 10 -25.5 34.5t28.5 47.5q25 21 63.5 33t86.5 20q24 34 45.5 73t38 77.5t26.5 75t10.5 65.5t-9.5 49t-34 25q-22 5 -50 -7.5
t-58.5 -40t-61.5 -68.5t-58 -93q-10 -70 -24 -144.5t-28.5 -144t-27.5 -128t-20 -95.5q-5 -24 -12.5 -57.5t-18.5 -69t-26.5 -70t-35.5 -60t-46 -40t-58 -9.5q-23 3 -37 23.5t-21 40.5q-9 30 4.5 87t40.5 126t62 142.5t68.5 137t60.5 110t38 61.5q1 9 4.5 33t7 56t7 69
t5 70.5t0.5 60t-6 39.5q-2 4 10 7.5t26.5 3.5t27.5 -4t14 -14q4 -30 2 -73.5t-9 -96.5q45 69 95.5 113t96.5 61.5t82 8t53 -47.5zM161 54q-60 -18 -79 -40t-10 -33t39.5 -2.5t71.5 53.5l14 16t14 18q-30 -6 -50 -12z" />
    <glyph glyph-name="e" unicode="e" horiz-adv-x="466" 
d="M343 487q30 -20 38.5 -50.5t-2 -67t-37.5 -76.5t-68 -78.5t-93.5 -73.5t-113.5 -61q-2 -34 6 -57q13 -40 39.5 -58.5t60.5 -19.5t72.5 12t76 34.5t71 49t57.5 55.5q3 5 8 10l8 8q4 5 7.5 4.5t6.5 -2.5q4 -3 6 -6q-4 -6 -10 -13.5t-11 -12.5q-31 -32 -68.5 -60.5
t-78.5 -50t-82.5 -34t-80.5 -11t-73.5 17.5t-59.5 52q-23 32 -28.5 73t2 84.5t25.5 88t42.5 84.5t52.5 73t56 54q20 15 44 25.5t47.5 15t44.5 2.5t35 -11zM70 102q87 39 145 84.5t92.5 90t46 83.5t5 64.5t-29 34t-56.5 -7.5q-33 -16 -67 -56t-62 -90t-48 -104t-26 -99z" />
    <glyph glyph-name="M" unicode="M" horiz-adv-x="1153" 
d="M909 942q27 32 59 51t63 25t59 -0.5t48 -24.5q24 -22 30.5 -71t-1.5 -118q-4 -31 -13 -76t-21.5 -99.5t-27 -116.5t-30 -126t-30.5 -128t-28 -123q-5 -23 -11.5 -56.5t-4.5 -64.5t17 -51t53 -16q3 1 5.5 1t5.5 1q9 2 14 -3.5t0 -7.5q-20 -6 -41.5 -7t-43.5 4
q-49 12 -64.5 52.5t-4.5 103.5q9 51 24 116t32 136t34.5 143t32.5 138t25.5 122t13.5 93q6 63 -9 100t-41 48.5t-59.5 -1.5t-65.5 -50q-41 -48 -73.5 -109.5t-59.5 -130.5t-49 -143.5t-41.5 -147.5t-37.5 -141.5t-36 -126.5q-8 -25 -15.5 -46.5t-14.5 -38.5
q-11 -27 -23.5 -38t-24 -11.5t-19 6.5t-8.5 17q-2 14 -0.5 30.5t4.5 34.5q9 51 24 116t32 136t34.5 143t32 138t25.5 122t14 93q6 63 -9 100t-41 48.5t-59.5 -1.5t-65.5 -50q-41 -48 -73.5 -109.5t-59.5 -130.5t-49 -143.5t-41.5 -147.5t-37.5 -141.5t-36 -126.5
q-11 -35 -22 -63.5t-19 -47.5q-9 -20 -24.5 -25t-30.5 8q-14 11 -13.5 51.5t10 100.5t26.5 134t37 152q18 75 37 149t37 141q5 20 12.5 53.5t12.5 68.5t4.5 67.5t-12 52.5t-36 21.5t-67.5 -25.5q-25 -16 -45.5 -40t-37 -51.5t-29 -57t-21.5 -56.5q-12 -41 -18.5 -85.5
t-3.5 -87.5q1 -18 10 -38t24.5 -34.5t36.5 -20t48 5.5q12 5 13.5 -1t-5 -16t-19.5 -20t-28.5 -12.5t-32.5 6t-32 35.5q-13 23 -21 45t-10 48q-4 45 3 91t20 89q9 28 22 59t30.5 60t39 53.5t47.5 40.5q14 9 30 16t33 10q15 2 29.5 1t28.5 -7q23 -10 37 -29t20 -43t6 -51.5
t-3.5 -55t-9 -53t-10.5 -45.5q-20 -73 -41.5 -154.5t-41.5 -162.5q-20 -74 -38.5 -143.5t-31.5 -123t-19 -86.5t-3 -35q8 -5 20.5 24t28.5 81q19 61 38 132t38.5 145t42 149t49 144.5t59 131t72.5 109.5q27 32 59 51t63 25t59 -0.5t48 -24.5q24 -22 30.5 -71t-1.5 -118
q-4 -31 -13 -76t-21.5 -99.5t-27 -116.5t-30 -126t-30.5 -128t-28 -123q-2 -10 -4.5 -21.5t-4.5 -24.5q3 10 6 20.5t7 21.5q19 61 38 132t38.5 145t42 149t49 144.5t59 131t72.5 109.5z" />
    <glyph glyph-name="W" unicode="W" horiz-adv-x="1134" 
d="M1293 989q-20 -35 -42.5 -85t-47 -108.5t-50.5 -122.5t-52.5 -127.5t-53 -123t-52.5 -109.5q-18 -35 -44 -80t-55 -88.5t-60.5 -80t-59.5 -53.5q-15 -8 -31.5 -12t-32.5 -1.5t-30.5 12.5t-25.5 30q-13 26 -15.5 75t3 112t17 135.5t25.5 147t30 146.5t29.5 133.5t23.5 108
t13 69.5v2v8t-1 9t-3.5 5.5t-7.5 -2.5q-2 -2 -3 -4q-3 -5 -6.5 -13t-8.5 -23q-4 -9 -5 -18q-36 -128 -67 -249t-65.5 -230t-78 -202.5t-103.5 -165.5q-28 -33 -61.5 -55.5t-66.5 -27.5t-64 10t-54 56q-15 25 -17.5 69t2.5 99.5t16.5 119t26 128.5t30.5 128t29 117
q6 24 14 51.5t14 56t8 56t-4 51t-22.5 41.5t-48.5 27q-23 7 -47 5.5t-47 -9.5q-51 -17 -83 -60q-19 -25 -29 -53.5t-12 -59.5q-1 -17 3 -40.5t15.5 -43t31 -31.5t48.5 -7q11 2 4 -10t-23.5 -22t-37 -9.5t-36.5 27.5q-8 13 -12.5 30.5t-6.5 36t-2.5 37t0.5 33.5q2 34 13 65
t31 57q35 46 91 66q25 8 51.5 9.5t52.5 -6.5q54 -16 81.5 -43.5t35.5 -67.5t0 -93t-24 -120q-13 -54 -28 -115t-29 -123t-25.5 -121.5t-17.5 -110.5t-6 -89.5t9 -58.5q14 -30 34 -43.5t43.5 -12t49 17.5t50.5 45q61 71 105 166t78.5 204.5t64.5 227.5t64 236q2 9 6 21t10 25
q6 15 13 25q9 14 23 16.5t27 -3t21 -17.5t5 -28q-11 -59 -28 -139.5t-36 -170.5t-37 -182t-29 -173t-13.5 -144.5t9.5 -95.5q13 -36 34 -40t46 13t51.5 50.5t52.5 73t49 81t39 73.5q35 70 73 157.5t75 180.5t72 184t65 168q3 7 11.5 10t16.5 1.5t12.5 -7t-0.5 -15.5z" />
    <glyph glyph-name="H" unicode="H" horiz-adv-x="862" 
d="M406 749q23 86 24 141.5t-12 85.5t-37.5 37t-52.5 -5t-57 -41t-51 -69.5t-34.5 -91.5t-8.5 -107q1 -18 10 -38t24.5 -34t36.5 -20t48 5q12 5 13.5 -1t-5 -16t-19.5 -20t-28.5 -12.5t-32.5 6t-32 35.5q-13 23 -21 45.5t-10 48.5q-3 38 4.5 81.5t24 85.5t41.5 78t56 59
t68 29t78 -11q35 -15 48.5 -49t14 -75t-7.5 -82.5t-16 -71.5q-14 -51 -29.5 -111t-32.5 -125q48 5 95 5t95 -3q23 -2 47 -4.5t48 -5.5q20 83 41.5 164.5t40 150.5t32 119.5t18.5 72.5q4 19 15 20t22.5 -6t19.5 -18t7 -15q-3 -11 -16 -57.5t-31.5 -115.5t-40.5 -153.5
t-44 -170.5l48 -9q26 -5 38 -16t16 -23.5t1 -25t-8 -21.5t-10 -13t-6 1q-5 29 -29 48.5t-57 31.5q-11 -44 -24.5 -92.5t-25.5 -97.5t-22 -97.5t-14 -93.5q-2 -24 -1 -47t8 -40.5t21 -27t38 -7.5q5 0 11 2q9 2 14 -3.5t0 -7.5q-43 -14 -85 -4q-49 12 -64 53t-4 103
q17 92 40.5 189t46.5 188q-24 5 -48 8t-45 5q-48 3 -96 3t-96 -6q-11 -44 -24.5 -98.5t-29.5 -110t-35.5 -107.5t-44.5 -91.5t-56.5 -62t-69.5 -19.5q-23 2 -44.5 9t-39.5 21q-35 28 -49 70t-12 85q3 55 28.5 104t65.5 87q51 49 115 77.5t133 42.5q16 66 31.5 129.5
t31.5 123.5zM339 478q-64 -13 -124.5 -40t-108.5 -73q-38 -36 -62 -82.5t-27 -98.5q-2 -39 10 -78.5t45 -62.5q29 -20 55.5 -15t50 27.5t43.5 59t37 79t30.5 87t24 84t17 70t9.5 43.5z" />
    <glyph glyph-name="O" unicode="O" horiz-adv-x="755" 
d="M198 455q49 4 90 27.5t74.5 60.5t58 83.5t40 96.5t20.5 99t0 92q-2 16 -7 33t-15 30t-24 18.5t-34 -1.5q-28 -9 -53.5 -42t-47 -81.5t-38.5 -106t-30.5 -114.5t-22 -108.5t-11.5 -86.5zM195 436q-1 -30 -2.5 -68t0.5 -78.5t8 -81t20 -76.5t37 -65t59 -45q22 -6 44 -6
q54 7 97.5 44.5t78 95.5t59.5 132.5t41 154t23 160t5.5 151.5t-11.5 127.5t-28 88.5q-9 15 -23 24.5t-30.5 14t-34 5.5t-33.5 -1q-8 0 -8 8q-2 8 7 8q42 5 78 -6.5t65 -42.5q35 -38 55.5 -100t27.5 -138t0 -161t-26.5 -168t-51.5 -158t-75 -132t-97.5 -90.5t-118.5 -32.5
q-26 0 -48 7q-38 10 -67.5 33.5t-51.5 55.5q-24 36 -37.5 77.5t-19 86t-5 89.5t4.5 87q-22 0 -43 3t-43 7q-29 6 -40 19.5t-11 27t8 23.5t17 9q1 -5 3.5 -10t5.5 -10q9 -11 22.5 -21t28.5 -17t29 -11t24 -4q4 37 13 89t23.5 109.5t35 116t47 108t59.5 85.5t73 50
q13 4 25.5 5t25.5 -4q29 -11 41.5 -39t15.5 -56q6 -45 0 -97t-22 -104t-42.5 -101t-62 -87.5t-79.5 -63t-96 -27.5z" />
    <glyph glyph-name="L" unicode="L" horiz-adv-x="712" 
d="M321 26q-17 9 -26 13.5t-26 12.5q-29 14 -61.5 25t-64.5 16q-25 3 -49 -1.5t-44 -21.5q-16 -13 -25 -30.5t-9 -37.5q0 -30 18 -53q31 -33 73 -37t83.5 11t77 43t53.5 60zM330 39q19 30 27 81t11 114.5t4.5 136t7.5 147t19 147t40 135.5t70 113t108 80q36 22 79.5 28
t81.5 -15q26 -14 42.5 -37t23.5 -52q14 -56 5.5 -96.5t-27.5 -66t-43 -34.5t-41 -2q-7 3 -13 12.5t-8.5 19t0.5 15t15 0.5q15 -6 36.5 -1t38.5 23t25 49.5t-4 76.5q-6 26 -20 46.5t-37 32.5q-35 19 -74.5 13t-71.5 -26q-48 -27 -78.5 -73t-47.5 -97q-20 -61 -28.5 -130.5
t-12.5 -141t-7.5 -143.5t-12.5 -138.5t-27.5 -125.5t-52.5 -105l3.5 -2.5t8 -5t8.5 -5t6 -3.5q53 -32 110.5 -62.5t118 -52t123.5 -30t128 2.5q40 7 64.5 29.5t35.5 66.5q5 9 16 2.5t20 -21t11.5 -34t-10 -37.5t-44.5 -31t-92 -15q-71 -2 -135 11t-123.5 36.5t-116.5 54.5
t-115 66q-6 5 -12.5 8.5t-13.5 7.5q-23 -34 -53.5 -60.5t-68.5 -42.5q-32 -13 -68 -16.5t-70 5.5q-20 5 -37.5 15.5t-30.5 26.5q-21 27 -21 63q0 23 10.5 44.5t28.5 36.5q23 18 50.5 24t55.5 2q33 -5 66.5 -16.5t63.5 -25.5q18 -8 28 -14t27 -14z" />
    <glyph glyph-name="Z" unicode="Z" horiz-adv-x="1013" 
d="M748 858h9t8 1q22 2 43 4t42 6q17 3 33.5 6.5t32.5 8.5q20 7 40.5 18t34.5 28q8 10 11.5 22t-1.5 24q-6 16 -21 25q-17 10 -40 10q-27 0 -52 -6.5t-48 -20.5q-33 -22 -54 -55.5t-38 -70.5zM341 84q66 47 110.5 103t75 117.5t51 128t38 135t36 137.5t45.5 136
q-38 -2 -66 0t-65 7q-32 4 -66 10.5t-67.5 16.5t-66 24.5t-60.5 33.5t-37 35.5t-5.5 29t14.5 21.5t22.5 13.5t20 3.5t5.5 -7q-14 -31 -7 -55t27.5 -41.5t50 -29.5t61 -20t61 -12.5t49.5 -6.5q19 -2 35 -4t31.5 -2.5t31.5 -1t36 0.5q9 20 23.5 40t31.5 38.5t36.5 34
t37.5 27.5q25 17 52.5 24t56.5 7q27 0 49 -13q19 -13 27 -34q6 -16 2 -31.5t-14 -29.5q-15 -19 -37.5 -31t-45.5 -20q-17 -5 -34 -9t-34 -7q-22 -4 -43.5 -6t-43.5 -4q-7 -1 -11.5 -1t-11.5 -1q-20 -51 -33 -113.5t-27 -131.5t-33.5 -141.5t-52.5 -142t-83.5 -134.5
t-127.5 -118q7 -4 10 -5t5 -2t4.5 -2t10.5 -5q56 -26 111 -44t118 -22q31 -2 76 3.5t86 21t70.5 42t31.5 66.5q1 11 6.5 9.5t12 -10.5t12.5 -23.5t7 -29t-5 -27.5t-22 -19q-66 -26 -135 -40t-141 -9q-64 4 -121 22t-114 46q-8 4 -12.5 5.5t-7.5 3t-7.5 3.5t-12.5 7
q-23 -16 -62 -32.5t-84 -27.5t-89 -12t-75 14q-15 7 -27 17.5t-20 24.5q-16 26 -11 55q3 27 20 45.5t42 27.5q37 13 78 5t76 -23q32 -14 62.5 -29.5t61.5 -31.5zM211 130q-32 14 -70.5 22t-72.5 -4q-20 -8 -34 -23t-17 -37q-3 -24 9 -45q13 -23 39 -36q21 -9 44.5 -10.5
t47 2.5t46 12t42.5 17q22 10 42 21.5t39 24.5q-29 14 -57.5 28.5t-57.5 27.5z" />
    <glyph glyph-name="D" unicode="D" horiz-adv-x="919" 
d="M298 -79q84 -10 156 14t131 72.5t105 117.5t79 148t52.5 163.5t26 166t-1 154t-29 127.5t-57 87.5t-84.5 32.5q-60 1 -107 -28.5t-71 -83.5q-18 -41 -40.5 -112t-46 -155.5t-48 -175.5t-47.5 -173.5t-44 -149.5t-37 -102q-9 -20 -24 -24.5t-31 7.5q-13 11 -13 51t9.5 99
t26 132t36.5 149.5t41 152t39.5 139.5t32 111.5t18.5 67.5q4 18 15 19t22.5 -6t19.5 -16.5t7 -13.5q-3 -11 -15.5 -53t-30.5 -104.5t-39.5 -139t-43 -154.5t-41 -152t-34 -132.5t-21.5 -94.5t-3 -38q7 -4 19 23t28 76.5t34.5 115.5t38 140t40.5 150.5t41 146.5t39 128.5
t35 95.5q12 28 33 50.5t46.5 38.5t55.5 24t60 8q66 -2 113 -36.5t76.5 -92t41.5 -133.5t7 -160t-26 -172t-58 -170t-89 -152.5t-119 -120t-149 -73.5t-177 -12q-78 9 -144 42.5t-109 99.5q-18 28 -29 65.5t-12.5 76.5t6.5 76.5t28 66.5q18 26 36.5 31.5t32.5 1.5t21.5 -12
t1.5 -9q-22 -4 -40 -21t-30.5 -41.5t-20 -54t-8 -60t6 -59.5t21.5 -52q41 -63 104.5 -92t136.5 -37z" />
    <glyph glyph-name="R" unicode="R" horiz-adv-x="670" 
d="M142 613q20 71 40 141t40 141q13 45 5.5 69.5t-27 31.5t-46.5 -1.5t-53 -29.5q-25 -19 -41.5 -44.5t-26.5 -54.5q-5 -17 -7 -40.5t4 -45.5t22 -38.5t46 -18.5q7 -1 4.5 -6t-11 -10.5t-20.5 -9.5t-25 -3t-24 10t-17 29q-5 15 -5 32.5t2 36.5t6.5 36.5t9.5 32.5
q11 32 29 59t44 48q34 27 74.5 35.5t73 -0.5t49.5 -37t4 -74q-23 -76 -44.5 -152.5t-43.5 -153.5q-17 -62 -35 -128t-35 -129t-31.5 -119t-24.5 -98.5t-14.5 -68t-1.5 -27.5q7 -4 19.5 23.5t28 76.5t34 115.5t38.5 140t40.5 150.5t40.5 146.5t39 128t35 95.5q17 38 50.5 68
t70.5 45q65 16 114.5 4.5t83 -42.5t52 -77t22.5 -98.5t-6 -108.5t-33.5 -106.5t-60.5 -91t-86.5 -63.5t-111 -24t-134.5 28q22 -93 64.5 -194.5t103 -191.5t137.5 -158t168 -94q46 -14 98.5 -13.5t97.5 18t77.5 54t40.5 95.5q1 6 13 -3t21 -25.5t8 -37.5t-25 -40
q-47 -36 -97.5 -55t-103.5 -24t-107 3t-107 25q-70 22 -132 71t-113 112t-89 133.5t-60.5 136t-26.5 118.5t13 82q-2 4 2 8q5 3 9 1q79 -29 141.5 -21t108 42t75 87t42 112.5t9.5 119.5t-21 108q-25 63 -69.5 88t-111.5 7q-34 -14 -64 -42.5t-45 -63.5q-19 -42 -41 -112.5
t-46 -155t-48.5 -175.5t-47.5 -173.5t-43.5 -149.5t-36.5 -102q-9 -20 -24.5 -24.5t-31.5 7.5q-11 9 -12.5 40t4.5 77.5t18 104.5t27.5 122.5t33 130.5t35.5 129z" />
    <glyph glyph-name="K" unicode="K" horiz-adv-x="595" 
d="M255 423q0 -41 16.5 -94t46.5 -110.5t71 -116t90 -110.5t103.5 -94t111.5 -66t114 -27t110 23q36 17 60.5 49.5t30.5 83.5q1 6 13 -2.5t21 -25t8 -38t-25 -40.5q-47 -36 -99 -53q-87 -26 -174 -10t-166.5 59t-148 105.5t-118 132t-76 137.5t-21.5 122q1 13 4 31t8 36
t12.5 34.5t18.5 26.5q19 18 58.5 55t87.5 84t97.5 100t88 104t59.5 96t12 75q-3 9 -15 9t-28.5 -7.5t-36 -21.5t-38.5 -32q-58 -57 -104 -115.5t-83 -117.5t-66 -117.5t-52 -115.5q-26 -65 -46.5 -126.5t-38 -118.5t-34 -108.5t-35.5 -94.5q-9 -20 -24.5 -25t-31.5 8
q-11 9 -12.5 39.5t4.5 76t17.5 103t27 121t33 129.5t34.5 129q20 72 41 143.5t41 143.5q13 45 5.5 69.5t-27 32t-46.5 -1t-53 -29.5q-25 -20 -41.5 -45.5t-26.5 -54.5q-5 -17 -7 -40.5t4 -45.5t22 -38.5t46 -18.5q7 0 4.5 -5.5t-11 -11t-20.5 -9.5t-25 -3t-24 10t-17 29
q-5 15 -5 32.5t2 36.5t6.5 36.5t9.5 32.5q11 32 29 59.5t44 47.5q34 27 74.5 36t73 -0.5t49.5 -37.5t4 -74q-23 -75 -44 -150t-42 -151q-17 -62 -35.5 -128.5t-35.5 -129.5t-31.5 -120t-25 -100t-15 -69t-1.5 -28q6 -3 16 16q8 14 13.5 31.5t7.5 20.5q17 51 32.5 101.5
t32 100.5t34 100t39.5 100q55 127 128 242t175 215q11 11 29 25.5t38 25.5t40 14t37 -9q29 -16 33 -45t-9.5 -65.5t-41.5 -79t-64.5 -86t-78.5 -85t-82.5 -77t-76.5 -62.5t-61 -41q-20 -11 -34 -16.5t-14 -25.5z" />
    <glyph glyph-name="Q" unicode="Q" horiz-adv-x="618" 
d="M432 1018q-54 16 -104.5 -16t-94.5 -96.5t-79.5 -152.5t-58.5 -184t-31.5 -191.5t0.5 -175t38.5 -134.5t82.5 -70q21 -6 44 -6q32 0 62 9q2 0 6 2q-21 36 -33.5 87t-17.5 112t-1.5 127.5t14 132.5t28 128.5t42.5 115t56 91.5t69 58q12 6 25 8.5t27 -0.5q41 -8 65.5 -45.5
t34 -93.5t5.5 -126.5t-20 -144.5t-42 -147.5t-61 -135.5t-77.5 -108.5t-89.5 -67.5q53 -81 148 -130q30 -16 67.5 -28t78 -18t80.5 -6.5t75.5 7.5t63 24.5t42.5 43.5q4 7 11 4t13 -11.5t10 -21t2 -25.5t-12 -24t-31 -17q-44 -13 -97 -14t-107 7t-107 25t-97 40
q-100 52 -156 138l-9 -3q-33 -9 -67 -9q-27 0 -49 7q-54 15 -91 56.5t-58 101t-27.5 133.5t0 153t25 159.5t47.5 153.5t67.5 134t84.5 102t98.5 57.5t110.5 -0.5q51 -14 84 -51t51 -85q3 -8 -4 -11q-8 -2 -11 5q-17 44 -47.5 78.5t-77.5 48.5zM503 848q-21 3 -42 -7
q-48 -24 -85.5 -83t-63 -136t-39 -165.5t-14 -173t12.5 -157t40 -118.5q36 22 69.5 68.5t62.5 108t52.5 133t40 143.5t24 139.5t4.5 121t-18 87.5t-44 39z" />
    <glyph glyph-name="U" unicode="U" horiz-adv-x="801" 
d="M825 971q3 -36 -8.5 -104.5t-32 -154t-46.5 -180.5t-51 -184q-7 -30 -18 -72.5t-19.5 -86.5t-11 -82t7.5 -60t37 -20.5t77 37.5q5 3 10.5 3t8.5 -2.5t1.5 -7.5t-10.5 -11q-29 -20 -58 -34.5t-55 -12.5q-48 4 -65 39.5t-15.5 86.5t15 111t28.5 113q17 60 34.5 124
t34.5 126.5t32.5 120.5t27.5 107t20.5 86t11.5 57q0 2 0.5 7.5t-0.5 10t-3.5 6.5t-7.5 -2q-4 -4 -10 -16.5t-14 -41.5q-36 -128 -67 -249t-65.5 -230t-77.5 -202.5t-103 -165.5q-29 -33 -62 -55.5t-66 -27.5t-64 10t-54 56q-15 25 -17.5 69t2.5 99.5t16.5 119t26 128.5
t30 128t28.5 117q6 24 14 51.5t14.5 56t8.5 56t-4 51t-23 41.5t-48 27q-23 7 -47 5.5t-47 -9.5q-51 -17 -83 -60q-19 -25 -29 -53.5t-12 -59.5q-1 -17 3 -40.5t15 -43t30.5 -31.5t49.5 -7q11 2 4 -10t-23.5 -22t-37 -9.5t-36.5 27.5q-8 13 -12.5 30.5t-7 36t-2.5 37t1 33.5
q2 33 13 64.5t31 57.5q35 46 90 66q26 8 52.5 9.5t52.5 -6.5q54 -16 81.5 -43.5t35.5 -68t-0.5 -93.5t-24.5 -120q-13 -53 -27.5 -114t-28.5 -123t-25.5 -121.5t-17.5 -110.5t-6 -89.5t9 -58.5q14 -30 34 -43.5t43 -12t48.5 17.5t50.5 45q61 71 105 166t79 204.5t65 227.5
t64 236q3 13 10.5 33.5t18.5 37.5q9 14 21 17t22.5 -1.5t18 -16t9.5 -27.5z" />
    <glyph glyph-name="X" unicode="X" horiz-adv-x="802" 
d="M571 117q10 -20 27 -39.5t37.5 -32t43 -16.5t44.5 7q17 8 19.5 0.5t-8.5 -15.5q-27 -19 -57.5 -20.5t-59.5 10.5t-54 34.5t-43 52.5q-17 28 -32.5 65t-29.5 79.5t-26 89t-23 94.5q-18 -30 -35.5 -57.5t-34.5 -53.5q-23 -35 -55 -80.5t-68 -90t-72.5 -81.5t-67.5 -53
q-15 -8 -30.5 -3.5t-25 12.5t-8.5 15t20 6q16 -1 39 12t48.5 35t53 51t53.5 59.5t48.5 60.5t38.5 54q21 32 43.5 69t45.5 76q-14 60 -25 116.5t-21 105.5q-4 23 -9 55.5t-13 67t-19.5 69t-29 62.5t-42.5 46.5t-60 21.5q-26 2 -49 -3.5t-42 -17.5q-33 -20 -49 -50t-19 -62.5
t7 -62t29.5 -49t47 -24t61.5 13.5q9 5 6 -10t-17 -31t-37.5 -22.5t-54.5 16.5q-38 27 -53 69t-11.5 85.5t24.5 81.5t54 59q43 26 101 23q60 -5 101 -36t68.5 -79t44.5 -109.5t31 -126.5q6 -29 12 -60t13 -64q33 58 66 118.5t65 120t62 115.5t56 106q4 7 13 10t17 1.5t12 -7
t-3 -15.5q-27 -38 -59.5 -92.5t-69 -118.5t-75 -133.5t-77.5 -136.5q12 -56 25 -113t27.5 -108.5t29.5 -96t31 -75.5z" />
    <glyph glyph-name="B" unicode="B" horiz-adv-x="808" 
d="M701 1015q43 -11 71.5 -36.5t44.5 -59.5t19 -74t-5 -79q-17 -74 -51.5 -137.5t-81.5 -109.5t-104.5 -70.5t-119.5 -20.5q97 -33 151 -86t70.5 -113t-2.5 -121.5t-67.5 -111t-123.5 -81.5t-171 -33q-49 -1 -94.5 10.5t-84.5 34t-70.5 56.5t-52.5 79q-14 29 -21 63.5
t-7 69.5t8.5 67.5t26.5 58.5t36.5 32t32.5 2t21.5 -12t1.5 -9q-30 -6 -52.5 -34.5t-34.5 -66.5t-12 -81.5t14 -79.5q17 -44 48 -78t70 -56.5t84 -33t90 -8.5q79 4 142 38.5t102.5 86t54 112.5t-2 118.5t-66.5 104.5t-140 69q-8 2 -7 9t8 7q60 1 111 23t92 59t71.5 84
t49.5 97t26 99t1 90t-26 69t-54 37q-31 8 -60.5 2.5t-55.5 -20.5t-46.5 -38t-32.5 -51q-19 -42 -41 -112.5t-45.5 -155t-48 -175.5t-47.5 -173.5t-44 -149.5t-37 -102q-9 -20 -24.5 -24.5t-30.5 7.5q-12 9 -12.5 44t7 87.5t22 118.5t32 138t37.5 145.5t39 141.5t36 126
t28 99q2 9 14 14t25.5 6.5t23 -1.5t7.5 -12q-10 -33 -26 -88.5t-35 -124t-40.5 -144.5t-41.5 -150.5t-38 -143t-30.5 -121t-18.5 -84.5t-3 -34q7 -4 19 23t28 76.5t34.5 115.5t38 140t40.5 150.5t41 146.5t39 128.5t35 95.5q13 30 36 55t52.5 41t62 21.5t65.5 -2.5z" />
    <glyph glyph-name="A" unicode="A" horiz-adv-x="867" 
d="M702 8q6 -2 4 -5t-9 -4.5t-16 0t-17 7.5q-11 9 -11.5 42.5t7 83.5t21 114t31.5 134q-41 3 -81 11t-75 16q-15 3 -30.5 6.5t-30.5 7.5q-20 -45 -39.5 -88t-39.5 -86q-12 -25 -24.5 -49t-26.5 -48q-12 -22 -24.5 -43.5t-26.5 -41.5q-17 -25 -39 -46t-50 -33q-46 -21 -95 -9
q-45 12 -74 40.5t-43 67.5t-12 84.5t18.5 90t48.5 84.5t78 68.5t106.5 41.5t134.5 3q21 -2 42.5 -6t42.5 -9q3 -1 6.5 -1.5t6.5 -1.5l14 31q22 50 43 98.5t44 97.5q10 22 25.5 56t36 72t45 76.5t51.5 70t56 51.5t60 22q7 0 23 -1t31.5 -6.5t25 -17t4.5 -31.5
q-3 -12 -19 -63.5t-38.5 -128t-49.5 -170t-53 -188.5q24 5 44.5 16t36.5 28q2 1 8 -5t6.5 -16t-7.5 -21t-35 -19q-30 -10 -61 -11q-17 -62 -32.5 -119t-27 -103t-19 -78.5t-8.5 -46.5q-1 -8 2 -15.5t11 -9.5zM876 963q-31 8 -60 -5.5t-56.5 -40t-52 -62t-45 -72t-36.5 -69.5
t-26 -55q-22 -48 -43.5 -97t-42.5 -98l-13 -28q15 -4 29.5 -7t29.5 -6q33 -8 74.5 -14.5t83.5 -6.5q21 81 43 160t42 148.5t37 126t27 92.5q6 23 9 34zM468 426q-20 5 -41 9t-42 6q-73 11 -132 -13.5t-102 -69.5t-67.5 -102t-28 -110.5t15 -96t63.5 -56.5q43 -10 84 7
q26 12 46.5 31.5t35.5 42.5q14 20 26.5 41t24.5 43q14 23 26 47.5t24 48.5q20 42 39.5 84.5t38.5 85.5z" />
    <glyph glyph-name="N" unicode="N" horiz-adv-x="749" 
d="M727 992q24 -22 30.5 -71.5t-1.5 -117.5q-4 -31 -13 -76.5t-21.5 -100t-27 -116.5t-30 -126t-30.5 -128t-28 -123q-3 -15 -7.5 -35.5t-7 -42.5t-1.5 -42.5t8 -36.5t22 -24.5t40 -5.5q3 0 5.5 0.5t5.5 1.5q9 2 14 -3.5t0 -7.5q-43 -14 -85 -4q-49 12 -64.5 53t-4.5 103
q9 51 24 116t32 136t34.5 143t32 138t25.5 122t14 93q6 63 -9 100t-41 48.5t-59.5 -1.5t-65.5 -50q-41 -48 -73.5 -109t-59.5 -130.5t-49 -144t-41.5 -147t-37.5 -141.5t-36 -127q-11 -35 -22 -63t-19 -48q-9 -20 -24.5 -24.5t-30.5 7.5q-14 11 -13.5 52t10 101t26.5 134
t37 152q18 75 37 148.5t37 141.5q5 20 12.5 53.5t12.5 68.5t4.5 67.5t-12 52t-36 21t-67.5 -25.5q-25 -16 -45.5 -39.5t-37 -51t-29 -57t-21.5 -56.5q-12 -42 -18.5 -86.5t-3.5 -87.5q1 -18 10 -38t24.5 -34t36.5 -20t48 5q12 5 13.5 -1t-5 -16t-19.5 -20t-28.5 -12.5
t-32.5 6t-32 35.5q-13 23 -21 45.5t-10 48.5q-4 45 3 91t20 88q9 28 22 59t30.5 60t39 53.5t47.5 41.5q30 19 63 25q32 6 58 -5q35 -15 48.5 -49t14.5 -75t-7 -82.5t-16 -71.5q-20 -72 -41.5 -154t-41.5 -163q-20 -74 -38.5 -143.5t-31.5 -123t-19 -86.5t-3 -35
q8 -5 20.5 24t28.5 81q19 61 38 132t38.5 145.5t42 149.5t49 144.5t59 131t72.5 109.5q27 32 58.5 50.5t63 24.5t59.5 0t48 -24z" />
    <glyph glyph-name="J" unicode="J" horiz-adv-x="802" 
d="M762 736q5 20 13 53.5t13 68.5t4 67.5t-12 52t-35.5 21t-67.5 -25.5q-25 -15 -45.5 -39t-37.5 -51.5t-29.5 -57t-20.5 -56.5q-12 -42 -18.5 -86.5t-3.5 -87.5q1 -18 10 -38t24.5 -34t36.5 -20t48 5q12 5 13.5 -1t-5 -16t-19.5 -19.5t-28.5 -12.5t-32.5 5.5t-32 35.5
q-13 23 -21 45.5t-10 48.5q-4 45 3 91t20 89q9 28 22 59t30.5 59.5t39 53t47.5 41.5q14 9 30 16t33 10q14 2 29 1t29 -7q23 -10 37 -29t20 -43t6 -51.5t-3.5 -55t-9.5 -53t-11 -45.5q-54 -205 -107.5 -406.5t-109.5 -405.5q-24 -88 -61 -180t-90 -167q-30 -43 -64.5 -73
t-71.5 -48q-56 -26 -111 -22t-101 30q-41 23 -66.5 57t-36 71t-7.5 72.5t18 61.5q17 30 37.5 45.5t39.5 20t35 1t26 -10t11 -14t-9 -10.5q-60 -16 -88.5 -51.5t-31.5 -76.5t17 -81.5t57.5 -66.5t89.5 -31.5t113 23.5q46 22 83 71.5t66.5 114t52.5 138t42 143.5
q23 85 46 173.5t45 177.5q28 114 54.5 225.5t55.5 224.5z" />
    <glyph glyph-name="G" unicode="G" horiz-adv-x="796" 
d="M297 29q51 -16 101.5 -4t95.5 42t82.5 73t61.5 90q12 50 24 98t23 95q4 18 15 19t22.5 -5.5t19.5 -16.5t7 -14q-21 -63 -40 -135t-38.5 -146.5t-40.5 -150t-46 -147.5t-55.5 -137t-68.5 -119q-30 -43 -64.5 -73t-72.5 -48q-55 -26 -110 -21.5t-101 30.5
q-41 23 -66.5 56.5t-36 70.5t-7.5 72.5t18 61.5q17 30 37.5 45.5t39.5 20t35 1t25.5 -10t11 -14t-9.5 -10.5q-60 -16 -88.5 -51t-31 -76.5t17.5 -81.5t57.5 -66.5t89.5 -31.5t113 24q41 19 76.5 65t65 106.5t54 131.5t44 141t35 133.5t27.5 110.5q-30 -38 -67.5 -70
t-79.5 -53t-86.5 -28.5t-87.5 4.5q-77 21 -121.5 71t-62.5 119t-12 151t31 166t66.5 165t94.5 148t114.5 114t127.5 63q57 14 112.5 4t96.5 -40t61.5 -78t8.5 -110q-6 -28 -23.5 -41t-35.5 -15.5t-31.5 2.5t-11.5 14q16 8 29.5 20t23 28.5t14 37.5t1.5 48q-5 42 -30 68.5
t-58.5 38.5t-69 11.5t-62.5 -11.5q-51 -22 -102 -70.5t-97 -114t-85 -143t-65 -157.5t-37.5 -156.5t-3.5 -140.5t38.5 -109.5t87.5 -63.5z" />
    <glyph glyph-name="E" unicode="E" horiz-adv-x="708" 
d="M709 797q-7 -21 -20 -29.5t-26 -7.5t-21.5 8t-6.5 17q42 31 54 63.5t0 61t-44.5 48.5t-79.5 26q-51 6 -103.5 -12.5t-96 -53.5t-72.5 -84t-32 -103.5t25.5 -112t99.5 -109.5q2 -2 2.5 -7t-0.5 -10.5t-3.5 -9.5t-5.5 -4q-68 9 -122.5 -11t-94 -58.5t-63 -90t-30 -106
t5 -106.5t41.5 -91t79.5 -59.5t120.5 -12.5q43 3 83 17.5t76 37.5q21 14 43 35t38.5 47t24 55.5t0.5 60.5q-3 11 4 15t16.5 2t18 -9t9.5 -17q3 -33 -10 -62.5t-34.5 -55t-48.5 -47t-52 -37.5q-77 -50 -167 -59q-83 -7 -144 15.5t-100 63.5t-57 96t-14.5 112.5t27.5 112.5
t68.5 97t109 65.5t148.5 17.5q-8 6 -14.5 12.5l-14.5 14.5q-70 70 -93 137.5t-13 126.5t47.5 107.5t87.5 80.5t107 44.5t107 0.5q30 -8 62 -27t54.5 -48.5t31 -69t-7.5 -88.5z" />
    <glyph glyph-name="C" unicode="C" horiz-adv-x="673" 
d="M453 1026q33 9 69 8t68.5 -12.5t59 -33.5t42.5 -56q13 -27 12.5 -56t-7.5 -46q-9 -21 -22.5 -29t-26 -7.5t-20.5 7.5t-6 17q31 26 41.5 56t1.5 58q-9 26 -30 43.5t-48 26.5t-56 9t-53 -8q-55 -18 -110 -70.5t-104.5 -126.5t-89.5 -162.5t-66.5 -179.5t-35.5 -177.5
t4.5 -156t52 -115t108.5 -55.5q33 -5 70 -2t72 13.5t66.5 28t54.5 43.5q16 18 27.5 39t17 41t5.5 37t-7 29q-6 10 0.5 13.5t17 2t20.5 -8t11 -16.5q1 -11 -1 -27t-9.5 -35t-22.5 -41.5t-42 -46.5q-126 -114 -299 -84q-84 15 -133 65.5t-69 123.5t-14 163t32.5 183t70 183.5
t98.5 165t119 127t131 69.5z" />
    <glyph glyph-name="S" unicode="S" horiz-adv-x="520" 
d="M373 265q-15 40 -36.5 69.5t-46.5 55t-52 49.5t-54 54q-60 67 -85.5 136t-22.5 133t32 118.5t77.5 92.5t113 55t139.5 6q42 -6 82 -24t69 -50q42 -47 48 -104q4 -42 -6.5 -65t-27.5 -32.5t-37 -9t-35 5.5t-22 11t3 7q23 2 43 21.5t31.5 47t10.5 57t-20 50.5
q-27 30 -64 47.5t-77 21.5q-60 6 -112 -13.5t-90 -56.5t-61.5 -89t-27.5 -111t13.5 -121.5t60.5 -121.5q23 -31 46 -55t45.5 -48.5t43.5 -52.5t40 -67q45 -90 42.5 -163t-35.5 -124.5t-86.5 -79.5t-110.5 -27t-108 32.5t-79 98.5q-17 39 -17 80.5t11.5 77t33.5 60.5t50 30
q19 4 38 -6.5t29.5 -24t9 -24t-22.5 -7.5q-43 7 -71.5 -7.5t-43 -41.5t-15.5 -62t13 -69q24 -61 65 -85.5t87 -19.5t90 35t74 77t39.5 107.5t-14.5 125.5z" />
    <glyph glyph-name="I" unicode="I" horiz-adv-x="310" 
d="M276 739q5 21 13 54t13 68.5t4 68t-12 52t-35.5 21t-67.5 -25.5q-25 -16 -45.5 -40t-37.5 -51.5t-29.5 -57t-20.5 -56.5q-13 -41 -19.5 -85.5t-2.5 -87.5q1 -18 10 -38t24 -34.5t36.5 -20t47.5 5.5q12 5 13.5 -1t-5 -16t-19 -20t-28 -12.5t-32.5 6t-32 35.5
q-13 23 -21 45t-10 48q-4 45 2.5 91t20.5 89q9 28 22 59t30.5 60t39 53.5t47.5 40.5q14 9 30 16t33 10q14 2 29 1t29 -7q23 -10 37 -29t20 -43t6 -51.5t-3.5 -55t-9.5 -53t-11 -45.5q-17 -65 -38.5 -147t-42.5 -165.5t-40.5 -160.5t-32.5 -133q-5 -20 -14.5 -44.5t-25.5 -45
t-37.5 -31.5t-49.5 -3q-14 4 -24 13t-17 21q-8 14 -12.5 30t-6.5 33q-2 26 3 51.5t15 49.5q14 34 31 43.5t31 7t21 -12t1 -13.5q-18 -3 -34 -15t-28 -29.5t-18.5 -38.5t-4.5 -42q1 -14 4.5 -28.5t11.5 -27.5q5 -9 12.5 -16.5t18.5 -10.5q19 -5 34 17t25.5 53t17 61.5
t8.5 41.5q11 57 25.5 125.5t31 141t34.5 144.5t35 137z" />
    <glyph glyph-name="F" unicode="F" horiz-adv-x="703" 
d="M350 10q-8 2 -11 9.5t-2 15.5q1 16 9 52.5t20.5 87t29 112t34.5 126.5q29 -2 52.5 -4t32.5 -2q20 -1 47 -1.5t53.5 1.5t49 7.5t34.5 17.5q2 2 3.5 12.5t-0.5 20t-7.5 12.5t-16.5 -10q-12 -14 -30.5 -22.5t-40.5 -13t-46 -6t-45 -0.5q-10 1 -32 3t-49 5q22 82 45 162.5
t42 146.5t32 111t17 56q1 4 -7.5 14t-20 16.5t-22.5 5.5t-15 -19q-5 -21 -19 -70l-33 -115.5t-41 -145t-43 -157.5q-36 3 -64 4t-34 -4q-2 -2 -2 -4t2 -3.5t10 -2.5q16 -2 37.5 -4.5t45.5 -4.5q-19 -75 -34 -144.5t-23.5 -125.5t-8 -93.5t12.5 -47.5q7 -6 16.5 -7.5t16 0
t9 4.5t-3.5 5zM284 668q8 11 12 3t2 -23t-12.5 -31t-31.5 -20q-22 -4 -47.5 -1.5t-50 10t-46.5 18.5t-37 23q-33 27 -51.5 63.5t-20.5 79.5q-1 43 17 85t53 74q51 45 120 56t148.5 1.5t166 -31t171 -40t164 -27t145.5 8.5q29 7 45 28.5t22.5 47t5 50.5t-7.5 41q-2 6 5.5 5.5
t17.5 -7t19.5 -19t12 -30t-5.5 -40.5t-34 -50q-15 -16 -35 -26t-41 -15q-49 -13 -106.5 -11t-119 12t-126.5 25.5t-128.5 30t-124.5 25t-116.5 11t-103 -12.5t-83.5 -45q-31 -28 -50 -69q-8 -18 -12 -38t-3 -40q2 -39 19 -72t47 -58q21 -17 50 -25t58 -7t54.5 11t38.5 29z
" />
    <glyph glyph-name="P" unicode="P" horiz-adv-x="670" 
d="M278 448q-2 5 3 8q3 3 8 1q79 -29 141.5 -21t108 42t75 87t42 112.5t9.5 119.5t-21 108q-25 63 -69 87.5t-112 6.5q-34 -14 -64 -42.5t-45 -62.5q-19 -42 -41 -112.5t-45.5 -155t-48 -175.5t-47.5 -173.5t-44 -149.5t-37 -102q-9 -20 -24.5 -25t-30.5 8q-11 9 -12.5 41
t5 80.5t19 108.5t28.5 126.5t34 134.5t36 131l38 132l38 132q13 45 5.5 69.5t-27 31.5t-46.5 -1.5t-53 -29.5q-25 -20 -41.5 -45.5t-26.5 -54.5q-5 -17 -7 -40.5t4 -45.5t22 -38.5t46 -18.5q11 -1 1 -10.5t-28 -15t-37.5 0t-28.5 35.5q-5 15 -5 33t2 36.5t6.5 36t9.5 32.5
q11 32 29 59.5t44 47.5q34 27 74.5 36t73 0t49.5 -37t4 -75q-21 -72 -41.5 -142.5t-40.5 -141.5q-18 -63 -36.5 -131t-36 -133t-33 -123.5t-26 -103t-15.5 -71.5t-2 -29q7 -4 19.5 23t28 76.5t34 115.5t38.5 140t40.5 150.5t41 146.5t39.5 128.5t35 95.5t49.5 67t70.5 45
q82 20 138 -2t89 -70t42.5 -114t-3 -134.5t-46.5 -130.5t-87.5 -102.5t-126 -51t-163.5 25.5l-22 13v0z" />
    <glyph glyph-name="T" unicode="T" horiz-adv-x="502" 
d="M350 10q-8 2 -11 9.5t-2 15.5q1 18 11.5 63t26 107t35.5 135t40.5 148t40.5 146.5t37 129.5t28.5 96.5t14.5 48.5q1 4 -7.5 14t-20 16.5t-22.5 5.5t-15 -19q-5 -20 -18.5 -68t-32.5 -113t-40.5 -142t-41.5 -155t-37 -152.5t-27 -135t-10 -101t13 -51.5q7 -6 16.5 -7.5
t16 0t9 4.5t-3.5 5zM284 668q8 11 12 3t2 -23t-12.5 -31t-31.5 -20q-22 -4 -47.5 -1.5t-50 10t-46.5 18.5t-37 23q-33 27 -51.5 63.5t-20.5 79.5q-1 43 17 85t53 74q51 45 120 56t148.5 1.5t166 -31t171 -40t164 -27t145.5 8.5q29 7 45 28.5t22.5 47t5 50.5t-7.5 41
q-2 6 5.5 5.5t17.5 -7t19.5 -19t12 -30t-5.5 -40.5t-34 -50q-15 -16 -35 -26t-41 -15q-49 -13 -106.5 -11t-119 12t-126.5 25.5t-128.5 30t-124.5 25t-116.5 11t-103 -12.5t-83.5 -45q-31 -28 -50 -69q-8 -18 -12 -38t-3 -40q2 -39 19 -72t47 -58q21 -17 50 -25t58 -7
t54.5 11t38.5 29z" />
    <glyph glyph-name="Y" unicode="Y" horiz-adv-x="826" 
d="M875 966q2 -23 -6.5 -73t-23.5 -117.5t-36 -148t-43.5 -165t-45.5 -167.5t-44 -156t-37.5 -130.5t-25.5 -91.5q-23 -88 -60 -179.5t-90 -167.5q-24 -33 -53 -61.5t-63.5 -48t-73.5 -28t-82 -0.5q-50 9 -92.5 38.5t-68 70t-29.5 87.5t22 92t57 57.5t54.5 8t33.5 -17
t-6 -16.5q-48 -13 -75.5 -38.5t-38 -57t-4.5 -65.5t25 -63.5t50 -51t70 -28.5q41 -7 74 -0.5t60.5 24t49.5 44t41 59.5q21 37 41 81.5t38 92t33.5 96.5t28.5 95q20 75 45.5 161.5t52 178t53.5 184.5t50 182t41.5 171t29.5 151q0 1 0.5 6.5t-0.5 10t-3.5 6.5t-7.5 -2
q-4 -3 -10 -15.5t-14 -41.5q-36 -128 -67 -249t-65.5 -230t-78 -202.5t-103.5 -165.5q-28 -34 -61 -56t-66 -27.5t-64 9.5t-54 56q-15 25 -17.5 69t2.5 100t16.5 119.5t26 128.5t30 128t28.5 117q9 35 21.5 78.5t15 84t-12.5 73t-62 46.5q-23 7 -47.5 6t-47.5 -9
q-49 -18 -82 -60q-20 -25 -29.5 -53.5t-11.5 -59.5q-2 -17 2.5 -40.5t15.5 -43.5t30.5 -32t49.5 -7q11 2 3.5 -10t-23.5 -22t-36.5 -9t-36.5 28q-8 13 -12.5 30.5t-7 36t-2.5 37t1 33.5q2 33 13 64t31 57q35 48 90 66q25 9 51.5 10.5t52.5 -6.5q55 -16 82.5 -44t35.5 -68
t-0.5 -93t-24.5 -120q-13 -54 -27.5 -115t-28.5 -123t-25.5 -121.5t-17.5 -110.5t-6 -89.5t9 -58.5q14 -30 34 -43.5t43 -12t48.5 17.5t50.5 45q61 71 105 166t78.5 204.5t64.5 228t64 236.5q4 13 11.5 33t18.5 37q9 14 21.5 17t24 -2t20 -17t9.5 -28z" />
    <glyph glyph-name="yacute" unicode="&#xfd;" horiz-adv-x="572" 
d="M256 486q0 5 6.5 23.5t15 38.5t18 36.5t15.5 17.5q11 2 19 -3.5t11.5 -13.5t1.5 -15.5t-10 -9.5q-11 -3 -23 -16t-23 -27.5t-19.5 -25.5t-11.5 -8v3v0zM241 -122q-36 -18 -71.5 -37.5t-68 -42t-60.5 -47.5t-49 -53q-17 -23 -30.5 -56.5t-17 -68.5t6.5 -65.5t41 -46.5
q30 -16 57 -6.5t50.5 36.5t44 69.5t38 94t32.5 109t27 114.5zM106 477q6 13 20 13.5t26.5 -7t19 -21t-1.5 -27.5q-16 -28 -32 -65.5t-30 -78.5t-24.5 -82t-15 -76.5t-1.5 -62t16 -37.5q29 -25 62.5 -9t67 55.5t63.5 95t52 108.5q16 42 27 78q3 12 10 14t14.5 -1t15 -9.5
t13.5 -13.5q10 -14 9 -17q-5 -15 -13 -42t-17 -57.5t-17.5 -59t-12.5 -46.5q-2 -5 -2.5 -9t-1.5 -6l-2 -10q-10 -42 -18 -79.5t-13 -63.5q-2 -7 -3 -12.5t-2 -10.5l12 6t11 6q11 5 21 10l20 10q31 17 57.5 34.5t50.5 37t45.5 42.5t44.5 51q2 3 8 -5q4 -6 7 -9
q-29 -34 -53.5 -59.5t-50 -45.5t-52.5 -37.5t-60 -34.5q-15 -8 -31 -16t-34 -16q-18 -87 -37.5 -171.5t-46 -152t-64 -111.5t-92.5 -51q-46 -6 -77 5.5t-48.5 35t-22.5 55.5t-0.5 66.5t18.5 68t35 60.5q47 61 120.5 106.5t150.5 82.5q11 54 22.5 106t22.5 103l1 7
q3 16 6.5 36.5t7.5 36.5q-33 -67 -65 -108.5t-62.5 -62.5t-59.5 -24t-56 7q-30 10 -43.5 37t-15.5 65t6 84t22.5 95t33.5 97.5t39 91.5z" />
    <glyph glyph-name="zcaron" unicode="&#x17e;" horiz-adv-x="443" 
d="M137 454q5 -6 27 -20t45.5 -31.5t41.5 -38t14 -40.5q-6 -34 -21.5 -71t-39 -73.5t-54.5 -70t-69 -60.5q38 -21 57.5 -51t36.5 -68q3 -7 5.5 -13.5t4.5 -13.5q44 29 89 57.5t86 60.5q24 19 47 40.5t36 37.5q2 2 9.5 -0.5t10.5 -7.5q-11 -14 -36.5 -36.5t-49.5 -42.5
q-46 -32 -93 -62.5t-95 -61.5q16 -57 16.5 -121t-14.5 -124.5t-46 -113.5t-78 -88q-21 -16 -42.5 -19.5t-41 3t-36 22t-27.5 36.5q-20 41 -16.5 97t36.5 110q30 48 85 94.5t121 91.5q-13 51 -32 80t-38 44.5t-36.5 21t-26.5 9t-7.5 9t19.5 20.5q26 22 56 52.5t56 67.5
t45.5 78t24.5 83q-2 16 -8.5 28.5t-16.5 23t-23 21t-26 22.5q-12 -54 -30.5 -105t-41.5 -97t-49.5 -84.5t-54.5 -67.5q-1 1 -2 1q-5 5 -9.5 8.5t-3.5 3.5q6 8 11 13q24 28 48.5 65t47 80.5t40.5 92.5t29 102q-14 13 -27.5 28.5t-24.5 35.5t-18 45.5t-7 58.5q0 30 7 52
t18 35.5t24 17.5t25 -2q14 -8 22 -26.5t11 -43.5t2.5 -53.5t-2.5 -55.5t-5 -50t-6 -36zM312 779q-2 -6 -15 -25t-29.5 -39t-32 -36t-23.5 -16h-6q-8 0 -21.5 16t-27 36t-24.5 39t-12 25l-1 4q2 2 4.5 4t8.5 -4q7 -8 16.5 -20.5t20 -25t21.5 -23t20 -13.5q10 4 23 15t26 24
t24 25.5t19 18.5q4 4 6.5 2.5t3.5 -3.5zM150 -139q-63 -44 -114.5 -88.5t-77.5 -92.5q-26 -45 -31 -88.5t4.5 -75.5t31 -47t48.5 -3q48 21 79.5 65t48.5 99t19.5 115.5t-8.5 115.5zM122 471q6 34 9.5 70t2.5 74q-1 48 -9.5 69.5t-18.5 19t-17.5 -28.5t-6.5 -75
q2 -45 12.5 -76t27.5 -53z" />
    <glyph glyph-name="egrave" unicode="&#xe8;" horiz-adv-x="466" 
d="M343 487q-14 9 -35 11t-44.5 -2.5t-47.5 -15t-44 -25.5q-28 -21 -56 -54t-52.5 -73t-42.5 -84.5t-25.5 -88t-2 -84.5t28.5 -73q25 -36 59.5 -52.5t73.5 -17.5t80.5 11t82.5 33.5t78.5 50t68.5 60.5q5 5 11 13t10 14q-2 4 -6 6q-8 4 -14 -3l-8 -8t-8 -9
q-24 -28 -57.5 -55.5t-71 -49t-76 -34.5t-72.5 -12t-60.5 19t-39.5 58q-7 24 -6 58q61 26 113.5 61t93.5 73.5t68 78.5t37.5 76.5t2 67t-38.5 50.5zM289 517l1 -3q-3 -3 -10.5 9t-16.5 27.5t-19.5 30.5t-20.5 19q-8 3 -8.5 10.5t4 15t12.5 12t19 1.5q6 -2 13 -19.5t13 -38.5
t9.5 -40t3.5 -24zM70 102q6 45 26 99t48 104t62 89.5t67 55.5q34 16 56.5 7.5t29 -34t-5 -64.5t-46 -83t-92.5 -89.5t-145 -84.5z" />
    <glyph glyph-name="ydieresis" unicode="&#xff;" horiz-adv-x="572" 
d="M248 494q-6 -6 -12.5 -8t-13 -1t-11.5 5t-7 9q-4 9 -3.5 22.5t6.5 24t18 14.5t30 -5q10 -6 12 -14.5t-1 -17.5t-8.5 -17t-9.5 -12zM361 494q-11 -13 -25 -9.5t-19 14.5q-4 9 -3 22.5t7 24t18 14.5t30 -5q10 -6 12 -14.5t-1 -17.5t-9 -17t-10 -12zM241 -123
q-73 -36 -140 -79.5t-109 -100.5q-17 -23 -30.5 -56.5t-17 -68.5t6.5 -65.5t41 -46.5q30 -16 57 -6.5t50.5 36.5t44 69.5t38 94t32.5 109t27 114.5zM106 476q6 13 20 13.5t26.5 -7t19 -21t-1.5 -27.5q-16 -28 -32 -65.5t-30 -78.5t-24.5 -82t-15 -76.5t-1.5 -62t16 -37.5
q29 -25 62.5 -9t67 55.5t63.5 95t52 108.5q16 42 27 78q3 12 10 14t14.5 -1t15 -9.5t13.5 -13.5q10 -14 9 -17q-5 -15 -13 -42t-17 -57.5t-17.5 -59t-12.5 -46.5q-2 -5 -2.5 -9t-1.5 -6l-2 -10q-10 -42 -18 -79.5t-13 -63.5q-2 -7 -3 -12.5t-2 -10.5l12 6t11 6q11 5 21 10
t19 10q32 17 58.5 34.5t50.5 37t45.5 42.5t44.5 51q2 3 8 -5q4 -6 7 -9q-29 -34 -54 -59.5t-50 -45.5t-52 -37.5t-60 -34.5q-15 -8 -31 -16t-34 -16q-18 -87 -37.5 -171.5t-46 -152t-64 -111.5t-92.5 -51q-46 -6 -77 5.5t-48.5 35t-23 55.5t-0.5 66.5t18.5 68t34.5 60.5
q23 30 54 56.5t66.5 50t74 44t77.5 38.5q11 54 22 106t22 103l2 7q3 16 6.5 36.5t7.5 36.5q-33 -67 -65 -108.5t-62.5 -62.5t-59.5 -24t-56 7q-30 10 -43.5 37t-15.5 65t6 84t22.5 95t33.5 97.5t39 91.5z" />
    <glyph glyph-name="udieresis" unicode="&#xfc;" horiz-adv-x="580" 
d="M351 362q-11 -36 -28.5 -79.5t-40 -86.5t-48.5 -81.5t-53 -62.5t-53 -30.5t-49 13.5q-13 11 -16 37t1.5 61.5t15 76.5t24.5 82t30 78.5t32 65.5q8 14 1.5 27.5t-19 21t-26.5 7t-20 -13.5q-20 -43 -39.5 -91.5t-34 -97.5t-22.5 -95t-5.5 -84t16 -65t43.5 -37q27 -10 56 -7
t59.5 24t62.5 62.5t65 108.5q-5 -16 -8.5 -36.5t-6.5 -36.5q-5 -26 -7 -53t2.5 -51t17.5 -42.5t38 -27.5q27 -10 60 3t68 39t69.5 61t63.5 70q-5 7 -9 12t-6 3q-8 -11 -15.5 -19.5t-15.5 -17.5q-29 -35 -59 -62.5t-56.5 -44.5t-48.5 -21t-35 9t-15.5 45.5t9.5 88.5
q3 12 11 41.5t18 63.5t19.5 66t15.5 49q1 3 -6.5 14t-18.5 19.5t-21.5 9t-15.5 -15.5zM234 496q-11 -12 -25 -9t-19 14q-4 10 -3.5 23.5t6.5 24t18 14t30 -5.5q11 -5 12.5 -13.5t-1.5 -17.5t-8.5 -17t-9.5 -13zM347 496q-11 -12 -25 -9t-19 14q-4 10 -3 23.5t7 24t18 14
t30 -5.5q10 -5 12 -13.5t-1 -17.5t-9 -17t-10 -13z" />
    <glyph glyph-name="ugrave" unicode="&#xf9;" horiz-adv-x="580" 
d="M351 362q-11 -36 -28.5 -79.5t-40 -86.5t-48.5 -81t-53 -62.5t-53 -31t-49 13.5q-13 11 -16 37.5t1.5 62t15 76.5t24.5 82t30 78.5t32 65.5q8 14 1.5 27.5t-19 21t-26.5 7t-20 -13.5q-20 -43 -39.5 -91.5t-34 -97.5t-22.5 -95t-5.5 -84t16 -65t43.5 -38q27 -10 56 -6.5
t59.5 24.5t62.5 62.5t65 108.5q-5 -16 -8.5 -37t-6.5 -36q-5 -26 -7 -53t2.5 -51t17.5 -43t38 -28q27 -9 60 3.5t68 39t69.5 61.5t63.5 70q-5 7 -9 11.5t-6 2.5q-8 -10 -15.5 -18.5t-15.5 -18.5q-29 -34 -59 -61.5t-56.5 -44.5t-48.5 -21t-35 9t-15.5 45.5t9.5 88.5
q3 12 11 41.5t18 63.5t19.5 65.5t15.5 48.5q1 3 -6.5 14t-18.5 19.5t-21.5 9.5t-15.5 -16zM285 492v-3q-3 -3 -10.5 9t-16.5 27.5t-19.5 30.5t-20.5 19q-8 3 -8.5 10.5t4 15t13 12t18.5 1.5q7 -2 14 -19.5t13 -38.5t9.5 -40t3.5 -24z" />
    <glyph glyph-name="scaron" unicode="&#x161;" horiz-adv-x="376" 
d="M227 579q-17 -44 -41.5 -96.5t-48.5 -100.5q18 -76 38.5 -145t29.5 -120q34 15 65.5 34.5t58 40t46.5 40.5t29 36q3 5 7 4.5t7 -3t5 -5.5l2 -3q-17 -21 -37 -41.5t-45.5 -41t-58.5 -40.5t-77 -40q2 -24 2.5 -50.5t-2.5 -52t-11.5 -49.5t-24.5 -44q-25 -30 -54.5 -43
t-58 -12.5t-52 12.5t-37 32t-14 45.5t18 53.5t58.5 55.5t108 51.5q-4 25 -9.5 48t-11.5 46.5t-12.5 49t-13.5 56.5q-13 -23 -24 -46t-24 -46q-42 -74 -89 -123q-5 5 -10.5 9t-4.5 4q20 23 41.5 52t41.5 64q17 29 31.5 57.5t31.5 57.5q-9 45 -15 90t-4.5 88t12 83t32.5 75
q17 27 46 40.5t52 6t31.5 -38.5t-14.5 -91zM294 837q-2 -6 -14.5 -25t-29 -39.5t-32 -36.5t-23.5 -16h-6q-8 0 -22 16t-27.5 36.5t-24 39.5t-11.5 25l-2 3q2 2 5 4.5t9 -4.5q7 -8 16.5 -20.5t20 -24.5t21.5 -22.5t20 -13.5q10 4 23 15t25.5 23.5t23.5 25t19 19.5
q5 3 7.5 1.5t3.5 -3.5zM132 406q23 42 41 89.5t35 88.5q21 49 18.5 75.5t-17 33.5t-34 -2.5t-31.5 -31.5q-15 -27 -21.5 -57.5t-6.5 -62.5t4.5 -65.5t11.5 -67.5zM145 78q-65 -24 -102.5 -49.5t-53 -50t-13.5 -46t15.5 -36.5t35 -21.5t44 -1t43 24t31.5 54.5q3 10 4.5 25.5
t1 33t-2 35.5t-3.5 32z" />
    <glyph glyph-name="edieresis" unicode="&#xeb;" horiz-adv-x="466" 
d="M343 487q-14 9 -35 11t-44.5 -2.5t-47.5 -15t-44 -25.5q-28 -21 -56 -54t-52.5 -73t-42.5 -84.5t-25.5 -88t-2 -84.5t28.5 -73q25 -36 59.5 -52.5t73.5 -17.5t80.5 11t82.5 33.5t78.5 50t68.5 60.5q5 5 11 13t10 14q-2 4 -6 6q-8 4 -14 -3l-8 -8t-8 -9
q-24 -28 -57.5 -55.5t-71 -49t-76 -34.5t-72.5 -12t-60.5 19t-39.5 58q-7 24 -6 58q61 26 113.5 61t93.5 73.5t68 78.5t37.5 76.5t2 67t-38.5 50.5zM255 521q-11 -12 -25 -8.5t-19 14.5q-4 9 -3.5 22.5t6.5 24t18 14.5t30 -5q11 -6 12.5 -14.5t-1.5 -17.5t-8.5 -17t-9.5 -13
zM368 521q-11 -12 -25 -8.5t-19 14.5q-4 9 -3 22.5t7 24t18 14.5t30 -5q10 -6 12 -14.5t-1 -17.5t-9 -17t-10 -13zM70 102q6 45 26 99t48 104t62 89.5t67 55.5q34 16 56.5 7.5t29 -34t-5 -64.5t-46 -83t-92.5 -89.5t-145 -84.5z" />
    <glyph glyph-name="oslash" unicode="&#xf8;" horiz-adv-x="540" 
d="M569 288q1 1 4.5 -6t6.5 -12q-35 -34 -65 -55t-57.5 -32.5t-53 -14t-49.5 0.5q-12 -37 -29 -70t-40 -58.5t-51.5 -42t-61.5 -19.5q-37 -3 -75 13l-17 -40q-4 -8 -11 -4q-8 3 -5 12l18 40l-6 3q-42 27 -59.5 72.5t-16.5 99.5t17.5 110t42.5 104.5t58.5 82.5t65.5 44
q37 11 65 -2.5t42 -29.5l19 45q4 9 12 4q8 -4 4 -11l-48 -112q11 13 25 19t27 4t24 -13.5t17 -33.5t6.5 -50t-2 -56t-7.5 -53t-9 -40q37 -9 93 14.5t116 86.5zM229 462q-24 -11 -48.5 -40t-44.5 -67.5t-35 -83t-21 -88t-2.5 -81.5t21.5 -64l184 425q-14 2 -28.5 3t-25.5 -4z
M171 3q30 -1 55.5 12t46 36.5t36 55.5t26.5 68q-26 15 -43 36t-26.5 44.5t-12 48.5t1.5 49l-143 -330q12 -11 27 -15.5t32 -4.5zM340 194q3 11 7.5 32.5t7.5 47t3.5 51.5t-3.5 47q-5 24 -16.5 33.5t-24 6.5t-23 -18t-14.5 -39q-3 -21 -1.5 -44.5t9 -46t21.5 -41t34 -29.5z
" />
    <glyph glyph-name="ntilde" unicode="&#xf1;" horiz-adv-x="580" 
d="M66 423q-9 -33 -24 -83t-27.5 -104t-20 -103.5t-1.5 -80.5q3 -16 13 -29t23.5 -18.5t27.5 -2t25 20.5q14 22 34 66t43 95.5t48.5 105t51 95.5t49.5 67t45 19q10 -3 9 -25.5t-9 -57t-20 -78.5t-23 -90t-18 -92t-6 -84t13 -65.5t40 -37.5q27 -10 60 1.5t68 36.5t69.5 58.5
t63.5 68.5q-5 7 -7.5 13t-4.5 4q-5 -6 -9.5 -11t-9.5 -11q-6 -7 -20.5 -23.5t-34 -35.5t-41.5 -38t-43.5 -31t-39.5 -14t-30 12t-12.5 44.5t6.5 69.5t18.5 83.5t23.5 88t22 83t15 67.5q3 22 -2.5 42t-19.5 33.5t-34.5 18t-47.5 -4.5q-20 -7 -41.5 -33t-43.5 -63t-43.5 -81.5
t-41.5 -88.5t-37 -84t-30.5 -67.5t-23 -39t-12.5 0.5q-5 16 -2 47t10 68t17.5 77t20 74t17 58.5t9.5 31.5q1 3 -6.5 14t-18.5 19t-21.5 9t-15.5 -15zM184 562q17 3 33.5 -5t32 -15t31 -7.5t30.5 16.5q8 6 13 2q3 -2 4 -5.5t-1 -6.5q-8 -13 -19.5 -21t-27.5 -10
q-18 -2 -34.5 6t-31.5 15t-28.5 7.5t-25.5 -15.5q-5 -8 -13 -4q-8 6 -3 13q15 24 40 30z" />
    <glyph glyph-name="ucircumflex" unicode="&#xfb;" horiz-adv-x="580" 
d="M351 362q-11 -36 -28.5 -79.5t-40 -86.5t-48.5 -81.5t-53 -62.5t-53 -30.5t-49 13.5q-13 11 -16 37t1.5 61.5t15 76.5t24.5 82t30 78.5t32 65.5q8 14 1.5 27.5t-19 21t-26.5 7t-20 -13.5q-20 -43 -39.5 -91.5t-34 -97.5t-22.5 -95t-5.5 -84t16 -65t43.5 -37q27 -10 56 -7
t59.5 24t62.5 62.5t65 108.5q-5 -16 -8.5 -36.5t-6.5 -36.5q-5 -26 -7 -53t2.5 -51t17.5 -42.5t38 -27.5q27 -10 60 3t68 39t69.5 61t63.5 70q-5 7 -9 12t-6 3q-8 -11 -15.5 -19.5t-15.5 -17.5q-29 -35 -59 -62.5t-56.5 -44.5t-48.5 -21t-35 9t-15.5 45.5t9.5 88.5
q3 12 11 41.5t18 63.5t19.5 66t15.5 49q1 3 -6.5 14t-18.5 19.5t-21.5 9t-15.5 -15.5zM187 479q2 6 15 25t29 39.5t31.5 36.5t23.5 16h6q8 0 22 -16t27.5 -36.5t24 -39.5t11.5 -25l2 -3q-2 -2 -5 -4.5t-9 4.5q-7 8 -16.5 20.5t-20 24.5t-21.5 22.5t-20 13.5
q-11 -4 -23.5 -15t-25 -23.5t-24 -25t-18.5 -19.5q-5 -3 -7.5 -1.5t-3.5 3.5z" />
    <glyph glyph-name="ecircumflex" unicode="&#xea;" horiz-adv-x="466" 
d="M343 487q-14 9 -35 11t-44.5 -2.5t-47.5 -15t-44 -25.5q-28 -21 -56 -54t-52.5 -73t-42.5 -84.5t-25.5 -88t-2 -84.5t28.5 -73q25 -36 59.5 -52.5t73.5 -17.5t80.5 11t82.5 33.5t78.5 50t68.5 60.5q5 5 11 13t10 14q-2 4 -6 6q-8 4 -14 -3l-8 -8t-8 -9
q-24 -28 -57.5 -55.5t-71 -49t-76 -34.5t-72.5 -12t-60.5 19t-39.5 58q-7 24 -6 58q61 26 113.5 61t93.5 73.5t68 78.5t37.5 76.5t2 67t-38.5 50.5zM185 505q2 6 14.5 25t29 39t32 36t23.5 16h6q8 0 22 -16t27.5 -36t24 -39t11.5 -25l1 -4q-2 -2 -4.5 -4t-8.5 4
q-7 8 -16.5 20.5t-20 25t-21.5 23t-20 13.5q-11 -4 -23.5 -15t-25.5 -24t-24 -25.5t-18 -18.5q-5 -4 -7.5 -2t-3.5 3zM70 102q6 45 26 99t48 104t62 89.5t67 55.5q34 16 56.5 7.5t29 -34t-5 -64.5t-46 -83t-92.5 -89.5t-145 -84.5z" />
    <glyph glyph-name="otilde" unicode="&#xf5;" horiz-adv-x="540" 
d="M340 194q3 11 7.5 32.5t7.5 47t3.5 51.5t-3.5 47q-5 24 -16.5 33.5t-24 6.5t-23 -18t-14.5 -39q-3 -21 -1.5 -44.5t9 -46t21.5 -41t34 -29.5zM185 580q17 3 33.5 -4.5t32 -15t31 -8t30.5 16.5q7 7 13 3q7 -5 3 -13q-17 -27 -47 -31q-18 -2 -34.5 6t-31.5 15t-29 7.5
t-26 -15.5q-2 -3 -5.5 -4t-6.5 1t-4 5.5t1 6.5q14 26 40 30zM335 175q-27 16 -44.5 38t-27 47t-11 51t3.5 51q6 27 21.5 46t34 24t35.5 -5t25 -41q6 -22 6.5 -50t-2 -56t-7.5 -53t-9 -40q37 -9 93 14.5t116 86.5q1 2 4.5 -5.5t6.5 -12.5q-35 -34 -65 -55t-57.5 -32.5
t-53 -14t-49.5 0.5q-12 -37 -29 -70t-40 -58.5t-51.5 -42t-61.5 -19.5q-51 -3 -96 25q-42 26 -59.5 71.5t-16.5 99.5t17.5 110.5t42.5 104.5t58.5 82t65.5 44q30 9 54.5 1t40.5 -21t21 -25t-5 -10q-16 2 -34.5 4.5t-32.5 -3.5q-26 -12 -50.5 -42.5t-45.5 -71.5t-35.5 -88
t-19.5 -91.5t2 -82.5t30 -61q12 -12 28 -16.5t33 -5.5q30 -1 55.5 12t46 36.5t36 55.5t26.5 68z" />
    <glyph glyph-name="idieresis" unicode="&#xef;" horiz-adv-x="295" 
d="M63 424q-6 -28 -17 -66.5t-21.5 -82t-18 -87.5t-6.5 -82.5t13 -67t41 -40.5q27 -11 53.5 -8t51.5 16t48.5 33.5t44.5 43.5q18 20 33.5 41t29.5 40q-5 7 -8.5 11t-5.5 2q-18 -23 -32.5 -42t-31.5 -39q-31 -35 -56 -54t-45.5 -26t-35.5 -4t-26 12q-13 12 -15.5 41t1.5 67
t13.5 80.5t19.5 81t19.5 69t14.5 44.5q1 4 -7 14t-19.5 16.5t-22.5 5.5t-15 -19zM61 480q-11 -12 -25 -8.5t-19 14.5q-4 9 -3.5 22.5t6.5 24t18 14t30 -5.5q11 -5 12.5 -13.5t-1.5 -17.5t-8.5 -17t-9.5 -13zM174 480q-11 -12 -25 -8.5t-19 14.5q-4 9 -3 22.5t7 24t18 14
t30 -5.5q10 -5 12 -13.5t-1 -17.5t-9 -17t-10 -13z" />
    <glyph glyph-name="igrave" unicode="&#xec;" horiz-adv-x="295" 
d="M63 425q-6 -28 -17 -66.5t-21.5 -82t-18 -88t-6.5 -82.5t13 -66.5t41 -40.5q27 -11 53.5 -8t51.5 16t48.5 33.5t44.5 43.5q18 20 33.5 41t29.5 40q-5 7 -8.5 11t-5.5 2q-18 -23 -32.5 -42t-31.5 -39q-31 -35 -56 -54t-45.5 -26t-35.5 -4t-26 12q-13 12 -15.5 41t1.5 67
t13.5 80.5t19.5 81t19.5 69t14.5 44.5q1 4 -7 14t-19.5 16.5t-22.5 5.5t-15 -19zM133 454v-3q-3 -2 -10.5 9.5t-16.5 27.5t-19.5 30.5t-20.5 18.5q-8 3 -8.5 11t4 15.5t13 12t18.5 0.5q6 -2 13 -19.5t13 -38.5t10 -40t4 -24z" />
    <glyph glyph-name="odieresis" unicode="&#xf6;" horiz-adv-x="540" 
d="M340 194q3 11 7.5 32.5t7.5 47t3.5 51.5t-3.5 47q-5 24 -16.5 33.5t-24 6.5t-23 -18t-14.5 -39q-3 -21 -1.5 -44.5t9 -46t21.5 -41t34 -29.5zM189 546q-6 -6 -12.5 -8t-13 -1t-11.5 5t-7 9q-4 9 -3.5 22.5t6.5 24t18 14.5t30 -5q11 -6 12.5 -14t-1.5 -17t-8.5 -17
t-9.5 -13zM302 546q-11 -13 -25 -9.5t-19 14.5q-4 9 -3 22.5t7 24t18 14.5t30 -5q10 -6 12 -14t-1 -17t-9 -17t-10 -13zM335 175q-27 16 -44.5 38t-27 47t-11 51t3.5 51q6 27 21.5 46t34 24t35.5 -5t25 -41q6 -22 6.5 -50t-2 -56t-7.5 -53t-9 -40q37 -9 93 14.5t116 86.5
q1 2 4.5 -5.5t6.5 -12.5q-35 -34 -65 -55t-57.5 -32.5t-53 -14t-49.5 0.5q-12 -37 -29 -70t-40 -58.5t-51.5 -42t-61.5 -19.5q-51 -3 -96 25q-42 26 -59.5 71.5t-16.5 99.5t17.5 110.5t42.5 104.5t58.5 82t65.5 44q30 9 54.5 1t40.5 -21t21 -25t-5 -10q-16 2 -34.5 4.5
t-32.5 -3.5q-26 -12 -50.5 -42.5t-45.5 -71.5t-35.5 -88t-19.5 -91.5t2 -82.5t30 -61q12 -12 28 -16.5t33 -5.5q30 -1 55.5 12t46 36.5t36 55.5t26.5 68z" />
    <glyph glyph-name="eacute" unicode="&#xe9;" horiz-adv-x="466" 
d="M343 487q-14 9 -35 11t-44.5 -2.5t-47.5 -15t-44 -25.5q-28 -21 -56 -54t-52.5 -73t-42.5 -84.5t-25.5 -88t-2 -84.5t28.5 -73q25 -36 59.5 -52.5t73.5 -17.5t80.5 11t82.5 33.5t78.5 50t68.5 60.5q5 5 11 13t10 14q-2 4 -6 6q-8 4 -14 -3l-8 -8t-8 -9
q-24 -28 -57.5 -55.5t-71 -49t-76 -34.5t-72.5 -12t-60.5 19t-39.5 58q-7 24 -6 58q61 26 113.5 61t93.5 73.5t68 78.5t37.5 76.5t2 67t-38.5 50.5zM264 513q0 5 6.5 23.5t15 38.5t18 36.5t16.5 17.5q10 2 18 -3.5t11.5 -13.5t2 -15.5t-9.5 -9.5q-11 -3 -23 -16t-23.5 -27.5
t-20 -25.5t-11.5 -8v3zM70 102q6 45 26 99t48 104t62 89.5t67 55.5q34 16 56.5 7.5t29 -34t-5 -64.5t-46 -83t-92.5 -89.5t-145 -84.5z" />
    <glyph glyph-name="ograve" unicode="&#xf2;" horiz-adv-x="540" 
d="M340 194q3 11 7.5 32.5t7.5 47t3.5 51.5t-3.5 47q-5 24 -16.5 33.5t-24 6.5t-23 -18t-14.5 -39q-3 -21 -1.5 -44.5t9 -46t21.5 -41t34 -29.5zM257 538q-3 -2 -10.5 9.5t-16.5 27.5t-19.5 30.5t-20.5 18.5q-8 3 -8.5 10.5t4 15t12.5 12t19 1.5q6 -2 13 -19.5t13 -38.5
t10 -40t4 -24v-3zM335 175q-27 16 -44.5 38t-27 47t-11 51t3.5 51q6 27 21.5 46t34 24t35.5 -5t25 -41q6 -22 6.5 -50t-2 -56t-7.5 -53t-9 -40q37 -9 93 14.5t116 86.5q1 2 4.5 -5.5t6.5 -12.5q-35 -34 -65 -55t-57.5 -32.5t-53 -14t-49.5 0.5q-12 -37 -29 -70t-40 -58.5
t-51.5 -42t-61.5 -19.5q-51 -3 -96 25q-42 26 -59.5 71.5t-16.5 99.5t17.5 110.5t42.5 104.5t58.5 82t65.5 44q30 9 54.5 1t40.5 -21t21 -25t-5 -10q-16 2 -34.5 4.5t-32.5 -3.5q-26 -12 -50.5 -42.5t-45.5 -71.5t-35.5 -88t-19.5 -91.5t2 -82.5t30 -61q12 -12 28 -16.5
t33 -5.5q30 -1 55.5 12t46 36.5t36 55.5t26.5 68z" />
    <glyph glyph-name="uacute" unicode="&#xfa;" horiz-adv-x="580" 
d="M351 362q-11 -36 -28.5 -79.5t-40 -86.5t-48.5 -81.5t-53 -62.5t-53 -30.5t-49 13.5q-13 11 -16 37t1.5 61.5t15 76.5t24.5 82t30 78.5t32 65.5q8 14 1.5 27.5t-19 21t-26.5 7t-20 -13.5q-20 -43 -39.5 -91.5t-34 -97.5t-22.5 -95t-5.5 -84t16 -65t43.5 -37q27 -10 56 -7
t59.5 24t62.5 62.5t65 108.5q-5 -16 -8.5 -36.5t-6.5 -36.5q-5 -26 -7 -53t2.5 -51t17.5 -42.5t38 -27.5q27 -10 60 3t68 39t69.5 61t63.5 70q-5 7 -9 12t-6 3q-8 -11 -15.5 -19.5t-15.5 -17.5q-29 -35 -59 -62.5t-56.5 -44.5t-48.5 -21t-35 9t-15.5 45.5t9.5 88.5
q3 12 11 41.5t18 63.5t19.5 66t15.5 49q1 3 -6.5 14t-18.5 19.5t-21.5 9t-15.5 -15.5zM261 488q0 5 6.5 23t15 38.5t17.5 36.5t16 18q10 2 18 -4t11.5 -14t2 -15.5t-9.5 -9.5q-11 -2 -23 -15.5t-23.5 -28t-20 -25t-11.5 -7.5z" />
    <glyph glyph-name="ccedilla" unicode="&#xe7;" horiz-adv-x="490" 
d="M314 432q-31 11 -64 -7t-63 -54.5t-55 -84.5t-41.5 -97.5t-22 -94t4.5 -73.5q13 -39 42.5 -54.5t69 -13t85 20.5t89.5 48q44 29 75 60t61 73q2 2 6 -3t9 -13q-29 -38 -60.5 -70t-71.5 -60t-81 -45.5t-79 -25.5q-10 -11 -7 -22.5t9.5 -23.5t13.5 -25.5t6 -27.5t-7.5 -24
t-17.5 -18q-5 -5 -11 1q-3 6 2 11q14 15 12.5 28t-8.5 26.5t-14.5 27t-5.5 28.5q1 9 4 15q-55 -7 -100 8.5t-72 53.5q-23 32 -28.5 73t2 85t25.5 88.5t42.5 84.5t52.5 73t56 54q41 30 81 37t71 -7q33 -15 39.5 -40.5t-2.5 -52t-29 -49.5t-40 -34q-7 -4 -10.5 -3.5t-4.5 3
t-0.5 5t1.5 2.5q24 15 36.5 33.5t16 36t-1.5 30.5t-15 17z" />
    <glyph glyph-name="icircumflex" unicode="&#xee;" horiz-adv-x="295" 
d="M63 424q-6 -28 -17 -66.5t-21.5 -82t-18 -87.5t-6.5 -82.5t13 -67t41 -40.5q27 -11 53.5 -8t51.5 16t48.5 33.5t44.5 43.5q18 20 33.5 41t29.5 40q-5 7 -8.5 11t-5.5 2q-18 -23 -32.5 -42t-31.5 -39q-31 -35 -56 -54t-45.5 -26t-35.5 -4t-26 12q-13 12 -15.5 41t1.5 67
t13.5 80.5t19.5 81t19.5 69t14.5 44.5q1 4 -7 14t-19.5 16.5t-22.5 5.5t-15 -19zM17 464q2 6 15 25t29.5 39t32 36t23.5 16h6q5 0 13 -7.5t17.5 -19t18.5 -25.5t17 -27t13 -23t6 -14l1 -4q-2 -2 -4.5 -4t-8.5 4q-7 8 -16.5 20.5t-20 25t-21.5 22.5t-20 13q-11 -3 -23.5 -14
t-25.5 -24t-24.5 -25.5t-18.5 -18.5q-4 -4 -6.5 -2.5t-3.5 3.5z" />
    <glyph glyph-name="iacute" unicode="&#xed;" horiz-adv-x="295" 
d="M63 424q-6 -28 -17 -66.5t-21.5 -82t-18 -87.5t-6.5 -82.5t13 -67t41 -40.5q27 -11 53.5 -8t51.5 16t48.5 33.5t44.5 43.5q18 20 33.5 41t29.5 40q-5 7 -8.5 11t-5.5 2q-18 -23 -32.5 -42t-31.5 -39q-31 -35 -56 -54t-45.5 -26t-35.5 -4t-26 12q-13 12 -15.5 41t1.5 67
t13.5 80.5t19.5 81t19.5 69t14.5 44.5q1 4 -7 14t-19.5 16.5t-22.5 5.5t-15 -19zM84 472q0 5 6.5 23.5t15 38.5t17.5 36.5t16 17.5q11 2 18.5 -3.5t11 -13.5t2 -15.5t-9.5 -9.5q-11 -3 -23 -16t-23 -27.5t-19.5 -25.5t-11.5 -8v3z" />
    <glyph glyph-name="ocircumflex" unicode="&#xf4;" horiz-adv-x="540" 
d="M340 194q-20 11 -34 29.5t-21.5 41t-9 46t1.5 44.5q4 24 14.5 39t23 18t24 -6.5t16.5 -33.5q4 -21 3.5 -47t-3.5 -51.5t-7.5 -47t-7.5 -32.5zM144 529q2 6 15 25t29.5 39.5t32 36.5t23.5 16h6q8 0 21.5 -16t27 -36.5t24 -39.5t12.5 -25l1 -3q-2 -2 -5 -4.5t-8 4.5
q-7 8 -17 20.5t-20.5 24.5t-21 22.5t-19.5 13.5q-11 -4 -24 -15t-25.5 -24t-24 -25.5t-18.5 -18.5q-4 -3 -6.5 -1.5t-3.5 3.5zM335 175q-11 -36 -26.5 -68t-36 -55.5t-46 -36.5t-55.5 -12q-17 1 -33 5.5t-28 16.5q-23 23 -30 61t-2 82.5t19.5 91.5t35.5 88t45.5 71.5
t50.5 42.5q14 6 32.5 3.5t34.5 -4.5q10 -2 5 10t-21 25t-40.5 21t-54.5 -1q-33 -10 -65.5 -44t-58.5 -82t-42.5 -104.5t-17.5 -110.5t16.5 -99.5t59.5 -71.5q45 -28 96 -25q33 3 61.5 19.5t51.5 42t40 58.5t29 70q24 -3 49.5 -0.5t53 14t57.5 32.5t65 55q-3 5 -6.5 12.5
t-4.5 5.5q-60 -63 -116 -86.5t-93 -14.5q4 15 9 40t7.5 53t2 56t-6.5 50q-8 31 -25 41t-35.5 5t-34 -24t-21.5 -46q-5 -25 -3.5 -51t11 -51t27 -47t44.5 -38z" />
    <glyph glyph-name="oacute" unicode="&#xf3;" horiz-adv-x="540" 
d="M340 194q-20 11 -34 29.5t-21.5 41t-9 46t1.5 44.5q4 24 14.5 39t23 18t24 -6.5t16.5 -33.5q4 -21 3.5 -47t-3.5 -51.5t-7.5 -47t-7.5 -32.5zM224 538q0 5 6.5 23t15 38.5t18 36.5t16.5 18q10 2 18 -4t11.5 -14t2 -15.5t-9.5 -9.5q-11 -2 -23.5 -15.5t-23.5 -28
t-19.5 -25t-11.5 -7.5v3zM335 175q-11 -36 -26.5 -68t-36 -55.5t-46 -36.5t-55.5 -12q-17 1 -33 5.5t-28 16.5q-23 23 -30 61t-2 82.5t19.5 91.5t35.5 88t45.5 71.5t50.5 42.5q14 6 32.5 3.5t34.5 -4.5q10 -2 5 10t-21 25t-40.5 21t-54.5 -1q-33 -10 -65.5 -44t-58.5 -82
t-42.5 -104.5t-17.5 -110.5t16.5 -99.5t59.5 -71.5q45 -28 96 -25q33 3 61.5 19.5t51.5 42t40 58.5t29 70q24 -3 49.5 -0.5t53 14t57.5 32.5t65 55q-3 5 -6.5 12.5t-4.5 5.5q-60 -63 -116 -86.5t-93 -14.5q4 15 9 40t7.5 53t2 56t-6.5 50q-8 31 -25 41t-35.5 5t-34 -24
t-21.5 -46q-5 -25 -3.5 -51t11 -51t27 -47t44.5 -38z" />
    <glyph glyph-name="atilde" unicode="&#xe3;" 
d="M323 431q22 -8 33.5 -31t9.5 -63q0 -1 2 -4t5 -4.5t6 -0.5t5 9q13 56 -2 92.5t-45.5 51.5t-72 8.5t-82.5 -37.5q-31 -23 -59.5 -54.5t-52 -67.5t-41 -74t-24.5 -75t-2.5 -68.5t18.5 -56t35.5 -40t47.5 -20.5q27 -5 56 5.5t57.5 30t54.5 45.5t47.5 51.5t37.5 47t24 32.5
q-2 -10 -8.5 -31t-12 -47t-8.5 -55t0.5 -55t16.5 -47t39 -30q27 -10 60.5 3t68.5 39t69.5 61t63.5 70q-5 7 -7.5 13t-4.5 4q-8 -10 -16.5 -20t-16.5 -19q-34 -39 -68 -69.5t-63 -45.5t-51 -12t-30 30.5t0 82.5t37 144q3 7 -5.5 16t-20.5 16.5t-22.5 10.5t-12.5 -2
q-7 -16 -28 -47.5t-50.5 -66.5t-63 -68.5t-65.5 -52.5t-59 -17.5t-43 34.5q-13 27 -9 69.5t21 89t43.5 91.5t58 78.5t65 50t64.5 5.5zM218 559q18 3 34 -5t32 -15t31 -7.5t31 16.5q5 7 12 3q9 -5 3 -13q-17 -27 -47 -31q-17 -2 -33.5 6t-31.5 15t-29 7.5t-26 -15.5
q-6 -7 -13 -3t-3 12q7 11 16.5 19.5t23.5 10.5z" />
    <glyph glyph-name="aring" unicode="&#xe5;" 
d="M280 493q-26 0 -43.5 18.5t-15.5 44.5t22 44.5t46 18.5t43 -18.5t15 -44.5t-21.5 -44.5t-45.5 -18.5zM242 556q-2 -17 10 -29.5t29 -12.5t30.5 12.5t14.5 29.5q2 18 -9.5 30.5t-29.5 12.5q-17 0 -30 -12.5t-15 -30.5zM658 133q2 2 4.5 -4t7.5 -13q-29 -35 -63.5 -70
t-69.5 -61t-68.5 -39t-60.5 -3q-26 9 -39 30t-16.5 47t-0.5 55t8.5 55t12 47t8.5 31q-8 -11 -24 -32.5t-37.5 -47t-47.5 -51.5t-54.5 -45.5t-57.5 -30t-56 -5.5q-26 5 -47.5 20.5t-35.5 40t-18.5 56t2.5 68.5t24.5 75t41 74t52 67.5t59.5 54.5q41 31 82.5 37.5t72 -8.5
t45.5 -51.5t2 -92.5q-2 -8 -5 -9t-6 0.5t-5 4.5t-2 4q2 40 -9.5 63t-33.5 31q-31 11 -64.5 -5.5t-65 -50t-58 -78.5t-43.5 -91.5t-21 -89t9 -69.5q16 -33 43 -34.5t59 17.5t65.5 52.5t63 68.5t50.5 66.5t28 47.5q2 5 12.5 2t22.5 -10.5t20.5 -16.5t5.5 -16q-29 -89 -37 -144
t0 -82.5t30 -30.5t51 12t63 45.5t68 69.5q8 9 16.5 19t16.5 20z" />
    <glyph glyph-name="adieresis" unicode="&#xe4;" 
d="M323 431q22 -8 33.5 -31t9.5 -63q0 -1 2 -4t5 -4.5t6 -0.5t5 9q13 56 -2 92.5t-45.5 51.5t-72 8.5t-82.5 -37.5q-31 -23 -59.5 -54.5t-52 -67.5t-41 -74t-24.5 -75t-2.5 -68.5t18.5 -56t35.5 -40t47.5 -20.5q27 -5 56 5.5t57.5 30t54.5 45.5t47.5 51.5t37.5 47t24 32.5
q-2 -10 -8.5 -31t-12 -47t-8.5 -55t0.5 -55t16.5 -47t39 -30q27 -10 60.5 3t68.5 39t69.5 61t63.5 70q-5 7 -7.5 13t-4.5 4q-8 -10 -16.5 -20t-16.5 -19q-34 -39 -68 -69.5t-63 -45.5t-51 -12t-30 30.5t0 82.5t37 144q3 7 -5.5 16t-20.5 16.5t-22.5 10.5t-12.5 -2
q-7 -16 -28 -47.5t-50.5 -66.5t-63 -68.5t-65.5 -52.5t-59 -17.5t-43 34.5q-13 27 -9 69.5t21 89t43.5 91.5t58 78.5t65 50t64.5 5.5zM243 509q-11 -12 -25 -8.5t-19 13.5q-4 10 -3.5 23.5t6.5 24t18 14t30 -5.5q11 -5 12.5 -13.5t-1.5 -17.5t-8.5 -17t-9.5 -13zM356 509
q-11 -12 -25 -8.5t-19 13.5q-4 10 -3 23.5t7 24t18 14t30 -5.5q10 -5 12 -13.5t-1 -17.5t-9 -17t-10 -13z" />
    <glyph glyph-name="agrave" unicode="&#xe0;" 
d="M323 431q22 -8 33.5 -31t9.5 -63q0 -1 2 -4t5 -4.5t6 -0.5t5 9q13 56 -2 92.5t-45.5 51.5t-72 8.5t-82.5 -37.5q-31 -23 -59.5 -54.5t-52 -67.5t-41 -74t-24.5 -75t-2.5 -68.5t18.5 -56t35.5 -40t47.5 -20.5q27 -5 56 5.5t57.5 30t54.5 45.5t47.5 51.5t37.5 47t24 32.5
q-2 -10 -8.5 -31t-12 -47t-8.5 -55t0.5 -55t16.5 -47t39 -30q27 -10 60.5 3t68.5 39t69.5 61t63.5 70q-5 7 -7.5 13t-4.5 4q-8 -10 -16.5 -20t-16.5 -19q-34 -39 -68 -69.5t-63 -45.5t-51 -12t-30 30.5t0 82.5t37 144q3 7 -5.5 16t-20.5 16.5t-22.5 10.5t-12.5 -2
q-7 -16 -28 -47.5t-50.5 -66.5t-63 -68.5t-65.5 -52.5t-59 -17.5t-43 34.5q-13 27 -9 69.5t21 89t43.5 91.5t58 78.5t65 50t64.5 5.5zM299 513l1 -3q-3 -2 -10.5 9.5t-16.5 27.5t-20 30.5t-21 18.5q-8 3 -8.5 10.5t4 15t13 12t19.5 1.5q6 -2 13 -19.5t13 -38.5t9.5 -40
t3.5 -24z" />
    <glyph glyph-name="acircumflex" unicode="&#xe2;" 
d="M323 431q22 -8 33.5 -31t9.5 -63q0 -1 2 -4t5 -4.5t6 -0.5t5 9q13 56 -2 92.5t-45.5 51.5t-72 8.5t-82.5 -37.5q-31 -23 -59.5 -54.5t-52 -67.5t-41 -74t-24.5 -75t-2.5 -68.5t18.5 -56t35.5 -40t47.5 -20.5q27 -5 56 5.5t57.5 30t54.5 45.5t47.5 51.5t37.5 47t24 32.5
q-2 -10 -8.5 -31t-12 -47t-8.5 -55t0.5 -55t16.5 -47t39 -30q27 -10 60.5 3t68.5 39t69.5 61t63.5 70q-5 7 -7.5 13t-4.5 4q-8 -10 -16.5 -20t-16.5 -19q-34 -39 -68 -69.5t-63 -45.5t-51 -12t-30 30.5t0 82.5t37 144q3 7 -5.5 16t-20.5 16.5t-22.5 10.5t-12.5 -2
q-7 -16 -28 -47.5t-50.5 -66.5t-63 -68.5t-65.5 -52.5t-59 -17.5t-43 34.5q-13 27 -9 69.5t21 89t43.5 91.5t58 78.5t65 50t64.5 5.5zM178 516q2 6 14.5 25t29 39.5t32 36.5t23.5 16h6q8 0 22 -16t27.5 -36.5t24 -39.5t11.5 -25l1 -3l-4.5 -4.5t-8.5 4.5q-7 8 -16.5 20.5
t-20 24.5t-21.5 22.5t-20 13.5q-11 -4 -23.5 -15t-25.5 -24t-24 -25.5t-18 -18.5q-5 -3 -7.5 -1.5t-3.5 3.5z" />
    <glyph glyph-name="aacute" unicode="&#xe1;" 
d="M323 431q22 -8 33.5 -31t9.5 -63q0 -1 2 -4t5 -4.5t6 -0.5t5 9q13 56 -2 92.5t-45.5 51.5t-72 8.5t-82.5 -37.5q-31 -23 -59.5 -54.5t-52 -67.5t-41 -74t-24.5 -75t-2.5 -68.5t18.5 -56t35.5 -40t47.5 -20.5q27 -5 56 5.5t57.5 30t54.5 45.5t47.5 51.5t37.5 47t24 32.5
q-2 -10 -8.5 -31t-12 -47t-8.5 -55t0.5 -55t16.5 -47t39 -30q27 -10 60.5 3t68.5 39t69.5 61t63.5 70q-5 7 -7.5 13t-4.5 4q-8 -10 -16.5 -20t-16.5 -19q-34 -39 -68 -69.5t-63 -45.5t-51 -12t-30 30.5t0 82.5t37 144q3 7 -5.5 16t-20.5 16.5t-22.5 10.5t-12.5 -2
q-7 -16 -28 -47.5t-50.5 -66.5t-63 -68.5t-65.5 -52.5t-59 -17.5t-43 34.5q-13 27 -9 69.5t21 89t43.5 91.5t58 78.5t65 50t64.5 5.5zM285 509q0 5 6.5 23.5t15 38.5t17.5 36.5t16 17.5q11 2 18.5 -3.5t11 -13.5t2 -15.5t-9.5 -9.5q-11 -3 -23 -16t-23.5 -27.5t-20 -25.5
t-11.5 -8z" />
    <glyph glyph-name="Ydieresis" unicode="&#x178;" horiz-adv-x="826" 
d="M875 965q1 -23 -7 -73t-23.5 -117.5t-36 -148t-43 -164.5t-46 -167.5t-44 -156t-37 -130.5t-25.5 -92q-24 -87 -61 -179t-90 -167q-24 -33 -53 -62t-63.5 -48.5t-73.5 -28t-82 -0.5q-50 9 -92 39t-67.5 70.5t-30 87.5t21.5 91q17 30 37.5 45t39.5 19.5t35 1t26 -10
t11 -13.5t-9 -10q-48 -13 -76 -38.5t-38 -57t-4.5 -65.5t25 -63.5t50 -51t70.5 -28.5t73.5 -0.5t60.5 24t49.5 44t41.5 59.5q21 37 41 81.5t38 92.5t33.5 97t27.5 95q20 75 45.5 161.5t52 178t53.5 184.5t50 182t41.5 171t29.5 150q0 1 0.5 6.5t-0.5 10t-3.5 6.5t-7.5 -2
q-4 -3 -10 -15.5t-14 -41.5q-36 -128 -67 -249t-65.5 -230t-77.5 -202.5t-103 -165.5q-29 -33 -62 -55.5t-66 -27.5t-64 9.5t-54 55.5q-15 26 -17.5 70t2.5 99.5t16.5 119t26 128.5t30 128t28.5 117q6 23 14 50.5t14.5 56t8.5 56t-4 51t-23 41.5t-48 27q-23 7 -47 6t-47 -9
q-25 -8 -46 -24t-37 -36q-19 -25 -29 -53.5t-12 -59.5q-1 -17 3 -40.5t15 -43.5t30.5 -32t49.5 -7q11 2 3.5 -10t-23.5 -22t-36.5 -9t-36.5 28q-8 13 -12.5 30.5t-7 36t-2.5 37t1 33.5q2 33 13 64t31 58q36 47 90 65q53 19 104 4q55 -16 82.5 -43.5t35.5 -68t-0.5 -93.5
t-24.5 -120q-13 -54 -27.5 -114.5t-28.5 -122.5t-25.5 -122t-17.5 -110.5t-6 -89.5t9 -59q14 -30 34 -43.5t43 -11.5t48.5 18t50.5 45q61 71 105 166t78.5 204t64.5 227.5t64 236.5q4 13 11.5 33.5t18.5 37.5q9 14 22 16.5t24.5 -2.5t20 -17t9.5 -28zM550 1018
q-12 -13 -27 -9t-20 15q-4 10 -3.5 24.5t7 25.5t19 15.5t32.5 -5.5q11 -6 13 -15t-1 -18.5t-9.5 -18.5t-10.5 -14zM671 1018q-12 -13 -27 -9t-20 15q-4 10 -3.5 24.5t7 25.5t19 15.5t32.5 -5.5q11 -6 13 -15t-1 -18.5t-9.5 -18.5t-10.5 -14z" />
    <glyph glyph-name="Idieresis" unicode="&#xcf;" horiz-adv-x="310" 
d="M276 739q-17 -65 -35 -137t-34.5 -144.5t-31 -141t-25.5 -125.5q-2 -11 -8.5 -41.5t-17 -61.5t-25.5 -53t-34 -17q-11 3 -18.5 10.5t-12.5 16.5q-8 13 -11.5 27.5t-4.5 28.5q-2 21 4.5 42t18.5 38.5t28 29.5t34 15q6 4 -1 13.5t-21 12t-31 -7t-31 -43.5
q-10 -24 -15 -49.5t-3 -51.5q2 -17 6.5 -33t12.5 -30q7 -12 17 -21t24 -13q28 -8 49.5 3t37.5 31.5t25.5 45t14.5 44.5q13 56 32.5 133t40.5 160.5t42.5 165.5t38.5 147q5 20 11 45.5t9.5 53t3.5 55t-6 51.5t-20 43t-37 29q-14 6 -29 7t-29 -1q-17 -3 -33 -10t-30 -16
q-26 -16 -47.5 -40.5t-39 -53.5t-30.5 -60t-22 -59q-14 -43 -20.5 -89t-2.5 -91q2 -26 10 -48t21 -45q15 -27 32 -35.5t32.5 -6t28 12.5t19 20t5 16t-13.5 1q-26 -11 -47.5 -5.5t-36.5 20t-24 34.5t-10 38q-4 43 2.5 87.5t19.5 85.5q8 27 20.5 56.5t29.5 57t37.5 51.5
t45.5 40q43 27 67.5 25.5t35.5 -21t12 -52t-4 -68t-13 -68.5t-13 -54zM247 1046q-6 -7 -13 -9t-14 -0.5t-12.5 5.5t-7.5 9q-4 10 -3 24.5t7.5 25.5t19 15.5t31.5 -5.5q11 -6 13 -15t-1 -18.5t-9.5 -18t-10.5 -13.5zM368 1046q-6 -7 -13 -9t-14 -0.5t-12.5 5.5t-7.5 9
q-4 10 -3 24.5t7.5 25.5t19 15.5t31.5 -5.5q11 -6 13 -15t-1 -18.5t-9.5 -18t-10.5 -13.5z" />
    <glyph glyph-name="Ntilde" unicode="&#xd1;" horiz-adv-x="749" 
d="M727 992q24 -22 30.5 -71.5t-1.5 -117.5q-4 -31 -13 -76.5t-21.5 -100t-27 -116.5t-30 -126t-30.5 -128t-28 -123q-3 -15 -7.5 -35.5t-7 -42.5t-1.5 -42.5t8 -36.5t22 -24.5t40 -5.5q3 0 5.5 0.5t5.5 1.5q9 2 14 -3.5t0 -7.5q-43 -14 -85 -4q-49 12 -64.5 53t-4.5 103
q9 51 24 116t32 136t34.5 143t32 138t25.5 122t14 93q6 63 -9 100t-41 48.5t-59.5 -1.5t-65.5 -50q-41 -48 -73.5 -109t-59.5 -130.5t-49 -144t-41.5 -147t-37.5 -141.5t-36 -127q-11 -35 -22 -63t-19 -48q-9 -20 -24.5 -24.5t-30.5 7.5q-14 11 -13.5 52t10 101t26.5 134
t37 152q18 75 37 148.5t37 141.5q5 20 12.5 53.5t12.5 68.5t4.5 67.5t-12 52t-36 21t-67.5 -25.5q-25 -16 -45.5 -39.5t-37 -51t-29 -57t-21.5 -56.5q-12 -42 -18.5 -86.5t-3.5 -87.5q1 -18 10 -38t24.5 -34t36.5 -20t48 5q12 5 13.5 -1t-5 -16t-19.5 -20t-28.5 -12.5
t-32.5 6t-32 35.5q-13 23 -21 45.5t-10 48.5q-4 45 3 91t20 88q9 28 22 59t30.5 60t39 53.5t47.5 41.5q30 19 63 25q32 6 58 -5q35 -15 48.5 -49t14.5 -75t-7 -82.5t-16 -71.5q-20 -72 -41.5 -154t-41.5 -163q-20 -74 -38.5 -143.5t-31.5 -123t-19 -86.5t-3 -35
q8 -5 20.5 24t28.5 81q19 61 38 132t38.5 145.5t42 149.5t49 144.5t59 131t72.5 109.5q27 32 58.5 50.5t63 24.5t59.5 0t48 -24zM446 1095q18 3 35.5 -5t34 -16t32.5 -8.5t33 17.5q7 7 14 3q8 -6 3 -13q-9 -14 -21 -22.5t-29 -10.5q-19 -3 -36.5 5.5t-33.5 16t-30.5 8.5
t-27.5 -17q-6 -8 -14 -3q-8 6 -3 13q8 13 18 21.5t25 10.5z" />
    <glyph glyph-name="Oslash" unicode="&#xd8;" horiz-adv-x="755" 
d="M647 981q35 -38 55.5 -100t27.5 -138.5t0 -161.5t-26.5 -167.5t-51.5 -158t-75 -132.5t-97.5 -90.5t-118.5 -32.5q-12 1 -24 2.5t-24 4.5q-33 9 -59 28l-31 -84q-4 -9 -13 -9q-3 0 -5 2.5t0 6.5l35 94q-25 21 -46 51q-24 36 -37.5 78t-19 86t-5 89t4.5 87q-22 1 -43 3.5
t-43 7.5q-29 6 -40 19.5t-11 27t8 23.5t17 9q1 -5 3.5 -10.5t5.5 -10.5q9 -11 22.5 -20.5t28.5 -16.5t29 -11.5t24 -4.5q4 37 13 89.5t23.5 110t35 115.5t47 107.5t59.5 85.5t73 50q27 9 51 1q29 -11 41.5 -39t15.5 -55q6 -45 0 -97t-22 -104.5t-42.5 -101t-62 -87
t-79.5 -63t-96 -27.5q-2 -37 -3 -84.5t3 -97t17 -96.5t40 -83l346 922q-20 12 -45 15t-48 1q-3 -1 -5.5 1.5t-2.5 5.5q-2 7 7 9q56 6 100 -16l24 65q4 9 12 9q10 0 6 -9l-28 -74q16 -10 29 -24zM401 995q-28 -8 -53.5 -41.5t-47 -82t-38.5 -106t-30.5 -115t-22 -109
t-11.5 -86.5q49 4 90 28t74.5 60.5t58 83.5t40 96.5t20.5 99t0 92.5q-2 16 -7 33t-15 30t-24 18.5t-34 -1.5zM361 17q54 7 97.5 44.5t78 95.5t59.5 132.5t41 154t23 160t5.5 151.5t-11.5 127.5t-28 88.5q-6 9 -14 17l-348 -927q11 -11 24 -21t29 -17q22 -6 44 -6z" />
    <glyph glyph-name="Udieresis" unicode="&#xdc;" horiz-adv-x="801" 
d="M825 971q3 -36 -8.5 -104.5t-32 -154t-46.5 -180.5t-51 -184q-7 -30 -18 -72.5t-19.5 -86.5t-11 -82t7.5 -60t37 -20.5t77 37.5q5 3 10.5 3t8.5 -2.5t1.5 -7.5t-10.5 -11q-29 -20 -58 -34.5t-55 -12.5q-48 4 -65 39.5t-15.5 86.5t15 111t28.5 113q17 60 34.5 124
t34.5 126.5t32.5 120.5t27.5 107t20.5 86t11.5 57q0 2 0.5 7.5t-0.5 10t-3.5 6.5t-7.5 -2q-4 -4 -10 -16.5t-14 -41.5q-36 -128 -67 -249t-65.5 -230t-77.5 -202.5t-103 -165.5q-29 -33 -62 -55.5t-66 -27.5t-64 10t-54 56q-15 25 -17.5 69t2.5 99.5t16.5 119t26 128.5
t30 128t28.5 117q6 24 14 51.5t14.5 56t8.5 56t-4 51t-23 41.5t-48 27q-23 7 -47 5.5t-47 -9.5q-51 -17 -83 -60q-19 -25 -29 -53.5t-12 -59.5q-1 -17 3 -40.5t15 -43t30.5 -31.5t49.5 -7q11 2 4 -10t-23.5 -22t-37 -9.5t-36.5 27.5q-8 13 -12.5 30.5t-7 36t-2.5 37t1 33.5
q2 33 13 64.5t31 57.5q35 46 90 66q26 8 52.5 9.5t52.5 -6.5q54 -16 81.5 -43.5t35.5 -68t-0.5 -93.5t-24.5 -120q-13 -53 -27.5 -114t-28.5 -123t-25.5 -121.5t-17.5 -110.5t-6 -89.5t9 -58.5q14 -30 34 -43.5t43 -12t48.5 17.5t50.5 45q61 71 105 166t79 204.5t65 227.5
t64 236q3 13 10.5 33.5t18.5 37.5q9 14 21 17t22.5 -1.5t18 -16t9.5 -27.5zM488 1022q-11 -14 -26.5 -9.5t-20.5 15.5q-4 10 -3 24t7.5 25t19 15.5t31.5 -5.5q12 -6 13.5 -15t-1.5 -18.5t-9.5 -18t-10.5 -13.5zM609 1022q-11 -14 -26.5 -9.5t-20.5 15.5q-4 10 -3 24t7.5 25
t19 15.5t31.5 -5.5q12 -6 13.5 -15t-1.5 -18.5t-9.5 -18t-10.5 -13.5z" />
    <glyph glyph-name="Igrave" unicode="&#xcc;" horiz-adv-x="310" 
d="M276 739q-17 -65 -35 -137t-34.5 -144.5t-31 -141t-25.5 -125.5q-2 -11 -8.5 -41.5t-17 -61.5t-25.5 -53t-34 -17q-11 3 -18.5 10.5t-12.5 16.5q-8 13 -11.5 27.5t-4.5 28.5q-2 21 4.5 42t18.5 38.5t28 29.5t34 15q6 4 -1 13.5t-21 12t-31 -7t-31 -43.5
q-10 -24 -15 -49.5t-3 -51.5q2 -17 6.5 -33t12.5 -30q7 -12 17 -21t24 -13q28 -8 49.5 3t37.5 31.5t25.5 45t14.5 44.5q13 56 32.5 133t40.5 160.5t42.5 165.5t38.5 147q5 20 11 45.5t9.5 53t3.5 55t-6 51.5t-20 43t-37 29q-14 6 -29 7t-29 -1q-17 -3 -33 -10t-30 -16
q-26 -16 -47.5 -40.5t-39 -53.5t-30.5 -60t-22 -59q-14 -43 -20.5 -89t-2.5 -91q2 -26 10 -48t21 -45q15 -27 32 -35.5t32.5 -6t28 12.5t19 20t5 16t-13.5 1q-26 -11 -47.5 -5.5t-36.5 20t-24 34.5t-10 38q-4 43 2.5 87.5t19.5 85.5q8 27 20.5 56.5t29.5 57t37.5 51.5
t45.5 40q43 27 67.5 25.5t35.5 -21t12 -52t-4 -68t-13 -68.5t-13 -54zM305 1050l1 -4q-4 -2 -11.5 10.5t-17.5 29t-21 32.5t-22 20q-8 3 -8.5 11.5t4 16.5t13.5 13t20 1q7 -2 14.5 -21t14 -41.5t10 -42.5t3.5 -25z" />
    <glyph glyph-name="Ugrave" unicode="&#xd9;" horiz-adv-x="801" 
d="M825 971q3 -36 -8.5 -104.5t-32 -154t-46.5 -180.5t-51 -184q-7 -30 -18 -72.5t-19.5 -86.5t-11 -82t7.5 -60t37 -20.5t77 37.5q5 3 10.5 3t8.5 -2.5t1.5 -7.5t-10.5 -11q-29 -20 -58 -34.5t-55 -12.5q-48 4 -65 39.5t-15.5 86.5t15 111t28.5 113q17 60 34.5 124
t34.5 126.5t32.5 120.5t27.5 107t20.5 86t11.5 57q0 2 0.5 7.5t-0.5 10t-3.5 6.5t-7.5 -2q-4 -4 -10 -16.5t-14 -41.5q-36 -128 -67 -249t-65.5 -230t-77.5 -202.5t-103 -165.5q-29 -33 -62 -55.5t-66 -27.5t-64 10t-54 56q-15 25 -17.5 69t2.5 99.5t16.5 119t26 128.5
t30 128t28.5 117q6 24 14 51.5t14.5 56t8.5 56t-4 51t-23 41.5t-48 27q-23 7 -47 5.5t-47 -9.5q-51 -17 -83 -60q-19 -25 -29 -53.5t-12 -59.5q-1 -17 3 -40.5t15 -43t30.5 -31.5t49.5 -7q11 2 4 -10t-23.5 -22t-37 -9.5t-36.5 27.5q-8 13 -12.5 30.5t-7 36t-2.5 37t1 33.5
q2 33 13 64.5t31 57.5q35 46 90 66q26 8 52.5 9.5t52.5 -6.5q54 -16 81.5 -43.5t35.5 -68t-0.5 -93.5t-24.5 -120q-13 -53 -27.5 -114t-28.5 -123t-25.5 -121.5t-17.5 -110.5t-6 -89.5t9 -58.5q14 -30 34 -43.5t43 -12t48.5 17.5t50.5 45q61 71 105 166t79 204.5t65 227.5
t64 236q3 13 10.5 33.5t18.5 37.5q9 14 21 17t22.5 -1.5t18 -16t9.5 -27.5zM559 1022q-4 -2 -11.5 10.5t-17.5 29t-21 32.5t-22 20q-8 3 -8.5 11.5t4 16.5t13.5 13t20 1q7 -2 14.5 -21t14 -41.5t10 -42.5t3.5 -25z" />
    <glyph glyph-name="Otilde" unicode="&#xd5;" horiz-adv-x="755" 
d="M198 455q49 4 90 27.5t74.5 60.5t58 83.5t40 96.5t20.5 99t0 92q-2 16 -7 33t-15 30t-24 18.5t-34 -1.5q-28 -9 -53.5 -42t-47 -81.5t-38.5 -106t-30.5 -114.5t-22 -108.5t-11.5 -86.5zM447 1145q19 3 36.5 -5t34 -16t32.5 -8.5t33 17.5q7 7 13 3q9 -5 3 -13
q-8 -14 -20.5 -22.5t-29.5 -10.5q-18 -3 -35.5 5.5t-34 16t-31 8.5t-27.5 -17q-6 -7 -13 -3q-8 5 -4 13q15 26 43 32zM195 436q-1 -30 -2.5 -68t0.5 -78.5t8 -81t20 -76.5t37 -65t59 -45q22 -6 44 -6q54 7 97.5 44.5t78 95.5t59.5 132.5t41 154t23 160t5.5 151.5
t-11.5 127.5t-28 88.5q-9 15 -23 24.5t-30.5 14t-34 5.5t-33.5 -1q-8 0 -8 8q-2 8 7 8q42 5 78 -6.5t65 -42.5q35 -38 55.5 -100t27.5 -138t0 -161t-26.5 -168t-51.5 -158t-75 -132t-97.5 -90.5t-118.5 -32.5q-26 0 -48 7q-38 10 -67.5 33.5t-51.5 55.5q-24 36 -37.5 77.5
t-19 86t-5 89.5t4.5 87q-22 0 -43 3t-43 7q-29 6 -40 19.5t-11 27t8 23.5t17 9q1 -5 3.5 -10t5.5 -10q9 -11 22.5 -21t28.5 -17t29 -11t24 -4q4 37 13 89t23.5 109.5t35 116t47 108t59.5 85.5t73 50q13 4 25.5 5t25.5 -4q29 -11 41.5 -39t15.5 -56q6 -45 0 -97t-22 -104
t-42.5 -101t-62 -87.5t-79.5 -63t-96 -27.5z" />
    <glyph glyph-name="Odieresis" unicode="&#xd6;" horiz-adv-x="755" 
d="M198 455q49 4 90 27.5t74.5 60.5t58 83.5t40 96.5t20.5 99t0 92q-2 16 -7 33t-15 30t-24 18.5t-34 -1.5q-28 -9 -53.5 -42t-47 -81.5t-38.5 -106t-30.5 -114.5t-22 -108.5t-11.5 -86.5zM437 1069q-11 -13 -26.5 -9t-20.5 15q-4 10 -3 24t7.5 25t19 15.5t31.5 -5.5
q12 -6 13.5 -14.5t-1.5 -18t-9.5 -18.5t-10.5 -14zM558 1069q-11 -13 -26.5 -9t-20.5 15q-4 10 -3 24t7.5 25t19 15.5t31.5 -5.5q12 -6 13.5 -14.5t-1.5 -18t-9.5 -18.5t-10.5 -14zM195 436q-1 -30 -2.5 -68t0.5 -78.5t8 -81t20 -76.5t37 -65t59 -45q22 -6 44 -6
q54 7 97.5 44.5t78 95.5t59.5 132.5t41 154t23 160t5.5 151.5t-11.5 127.5t-28 88.5q-9 15 -23 24.5t-30.5 14t-34 5.5t-33.5 -1q-8 0 -8 8q-2 8 7 8q42 5 78 -6.5t65 -42.5q35 -38 55.5 -100t27.5 -138t0 -161t-26.5 -168t-51.5 -158t-75 -132t-97.5 -90.5t-118.5 -32.5
q-26 0 -48 7q-38 10 -67.5 33.5t-51.5 55.5q-24 36 -37.5 77.5t-19 86t-5 89.5t4.5 87q-22 0 -43 3t-43 7q-29 6 -40 19.5t-11 27t8 23.5t17 9q1 -5 3.5 -10t5.5 -10q9 -11 22.5 -21t28.5 -17t29 -11t24 -4q4 37 13 89t23.5 109.5t35 116t47 108t59.5 85.5t73 50
q13 4 25.5 5t25.5 -4q29 -11 41.5 -39t15.5 -56q6 -45 0 -97t-22 -104t-42.5 -101t-62 -87.5t-79.5 -63t-96 -27.5z" />
    <glyph glyph-name="Icircumflex" unicode="&#xce;" horiz-adv-x="310" 
d="M276 739q-17 -65 -35 -137t-34.5 -144.5t-31 -141t-25.5 -125.5q-2 -11 -8.5 -41.5t-17 -61.5t-25.5 -53t-34 -17q-11 3 -18.5 10.5t-12.5 16.5q-8 13 -11.5 27.5t-4.5 28.5q-2 21 4.5 42t18.5 38.5t28 29.5t34 15q6 4 -1 13.5t-21 12t-31 -7t-31 -43.5
q-10 -24 -15 -49.5t-3 -51.5q2 -17 6.5 -33t12.5 -30q7 -12 17 -21t24 -13q28 -8 49.5 3t37.5 31.5t25.5 45t14.5 44.5q13 56 32.5 133t40.5 160.5t42.5 165.5t38.5 147q5 20 11 45.5t9.5 53t3.5 55t-6 51.5t-20 43t-37 29q-14 6 -29 7t-29 -1q-17 -3 -33 -10t-30 -16
q-26 -16 -47.5 -40.5t-39 -53.5t-30.5 -60t-22 -59q-14 -43 -20.5 -89t-2.5 -91q2 -26 10 -48t21 -45q15 -27 32 -35.5t32.5 -6t28 12.5t19 20t5 16t-13.5 1q-26 -11 -47.5 -5.5t-36.5 20t-24 34.5t-10 38q-4 43 2.5 87.5t19.5 85.5q8 27 20.5 56.5t29.5 57t37.5 51.5
t45.5 40q43 27 67.5 25.5t35.5 -21t12 -52t-4 -68t-13 -68.5t-13 -54zM163 1037q2 6 16 26.5t31 42t34 38.5t25 17h6q8 0 23 -17t29.5 -38.5t25.5 -42t13 -26.5l1 -4q-2 -2 -5 -4.5t-9 4.5q-8 9 -18 22t-21.5 26.5t-22.5 24t-21 14.5q-11 -4 -25 -16t-27.5 -25.5
t-25.5 -26.5t-20 -20q-4 -4 -7 -2.5t-4 3.5z" />
    <glyph glyph-name="Ograve" unicode="&#xd2;" horiz-adv-x="755" 
d="M198 455q49 4 90 27.5t74.5 60.5t58 83.5t40 96.5t20.5 99t0 92q-2 16 -7 33t-15 30t-24 18.5t-34 -1.5q-28 -9 -53.5 -42t-47 -81.5t-38.5 -106t-30.5 -114.5t-22 -108.5t-11.5 -86.5zM506 1070q-3 -3 -10.5 9.5t-17.5 29.5t-21 33t-22 20q-8 3 -8.5 11t4 16t13.5 13
t20 1q7 -2 14.5 -20.5t14 -41t10 -42.5t3.5 -26v-3zM195 436q-1 -30 -2.5 -68t0.5 -78.5t8 -81t20 -76.5t37 -65t59 -45q22 -6 44 -6q54 7 97.5 44.5t78 95.5t59.5 132.5t41 154t23 160t5.5 151.5t-11.5 127.5t-28 88.5q-9 15 -23 24.5t-30.5 14t-34 5.5t-33.5 -1q-8 0 -8 8
q-2 8 7 8q42 5 78 -6.5t65 -42.5q35 -38 55.5 -100t27.5 -138t0 -161t-26.5 -168t-51.5 -158t-75 -132t-97.5 -90.5t-118.5 -32.5q-26 0 -48 7q-38 10 -67.5 33.5t-51.5 55.5q-24 36 -37.5 77.5t-19 86t-5 89.5t4.5 87q-22 0 -43 3t-43 7q-29 6 -40 19.5t-11 27t8 23.5t17 9
q1 -5 3.5 -10t5.5 -10q9 -11 22.5 -21t28.5 -17t29 -11t24 -4q4 37 13 89t23.5 109.5t35 116t47 108t59.5 85.5t73 50q13 4 25.5 5t25.5 -4q29 -11 41.5 -39t15.5 -56q6 -45 0 -97t-22 -104t-42.5 -101t-62 -87.5t-79.5 -63t-96 -27.5z" />
    <glyph glyph-name="Ocircumflex" unicode="&#xd4;" horiz-adv-x="755" 
d="M198 455q3 35 11.5 86.5t22 108.5t30.5 114.5t38.5 106t47 81.5t53.5 42q20 7 34 1.5t24 -18.5t15 -30t7 -33q5 -43 0 -92t-20.5 -99t-40 -96.5t-58 -83.5t-74.5 -60.5t-90 -27.5zM384 1065q2 6 15.5 26.5t31 42t34 38.5t25.5 17h6q8 0 23 -17t29.5 -38.5t25.5 -42
t13 -26.5l1 -4q-2 -2 -5 -4.5t-9 4.5q-8 8 -18 21.5t-21.5 26.5t-22.5 24t-21 14q-12 -4 -25.5 -15.5t-27 -25t-25.5 -26.5t-20 -20q-5 -4 -7.5 -2.5t-3.5 3.5zM195 436q52 3 96 27.5t79.5 63t62 87.5t42.5 101t22 104t0 97q-3 28 -15.5 56t-41.5 39q-13 5 -25.5 4t-25.5 -5
q-40 -14 -73 -50t-59.5 -85.5t-47 -108t-35 -116t-23.5 -109.5t-13 -89q-10 0 -24 4t-29 11t-28.5 17t-22.5 21q-3 5 -5.5 10t-3.5 10q-9 1 -17 -9t-8 -23.5t11 -27t40 -19.5q22 -4 43 -7t43 -3q-4 -42 -4.5 -87t5 -89.5t19 -86t37.5 -77.5q22 -32 51.5 -55.5t67.5 -33.5
q22 -7 48 -7q64 -1 118.5 32.5t97.5 90.5t75 132t51.5 158t26.5 168t0 161t-27.5 138t-55.5 100q-29 31 -65 42.5t-78 6.5q-9 0 -7 -8q0 -8 8 -8q16 2 33.5 1t34 -5.5t30.5 -14t23 -24.5q18 -32 28 -88.5t11.5 -127.5t-5.5 -151.5t-23 -160t-41 -154t-59.5 -132.5t-78 -95.5
t-97.5 -44.5q-22 0 -44 6q-36 16 -59 45t-37 65t-20 76.5t-8 81t-0.5 78.5t2.5 68z" />
    <glyph glyph-name="Oacute" unicode="&#xd3;" horiz-adv-x="755" 
d="M198 455q3 35 11.5 86.5t22 108.5t30.5 114.5t38.5 106t47 81.5t53.5 42q20 7 34 1.5t24 -18.5t15 -30t7 -33q5 -43 0 -92t-20.5 -99t-40 -96.5t-58 -83.5t-74.5 -60.5t-90 -27.5zM485 1069q0 6 7 25.5t16 41t19 38.5t17 19q12 2 20 -4t12 -14.5t2 -16.5t-10 -10
q-11 -3 -24.5 -17t-25.5 -29.5t-21 -27t-12 -8.5v3zM195 436q52 3 96 27.5t79.5 63t62 87.5t42.5 101t22 104t0 97q-3 28 -15.5 56t-41.5 39q-13 5 -25.5 4t-25.5 -5q-40 -14 -73 -50t-59.5 -85.5t-47 -108t-35 -116t-23.5 -109.5t-13 -89q-10 0 -24 4t-29 11t-28.5 17
t-22.5 21q-3 5 -5.5 10t-3.5 10q-9 1 -17 -9t-8 -23.5t11 -27t40 -19.5q22 -4 43 -7t43 -3q-4 -42 -4.5 -87t5 -89.5t19 -86t37.5 -77.5q22 -32 51.5 -55.5t67.5 -33.5q22 -7 48 -7q64 -1 118.5 32.5t97.5 90.5t75 132t51.5 158t26.5 168t0 161t-27.5 138t-55.5 100
q-29 31 -65 42.5t-78 6.5q-9 0 -7 -8q0 -8 8 -8q16 2 33.5 1t34 -5.5t30.5 -14t23 -24.5q18 -32 28 -88.5t11.5 -127.5t-5.5 -151.5t-23 -160t-41 -154t-59.5 -132.5t-78 -95.5t-97.5 -44.5q-22 0 -44 6q-36 16 -59 45t-37 65t-20 76.5t-8 81t-0.5 78.5t2.5 68z" />
    <glyph glyph-name="Atilde" unicode="&#xc3;" horiz-adv-x="867" 
d="M702 8q6 -2 4 -5t-9 -4.5t-16 0t-17 7.5q-11 9 -11.5 42.5t7 83.5t21 114t31.5 134q-41 3 -81 11t-75 16q-15 3 -30.5 6.5t-30.5 7.5q-20 -45 -39.5 -88t-39.5 -86q-12 -25 -24.5 -49t-26.5 -48q-12 -22 -24.5 -43.5t-26.5 -41.5q-17 -25 -39 -46t-50 -33q-46 -21 -95 -9
q-45 12 -74 40.5t-43 67.5t-12 84.5t18.5 90t48.5 84.5t78 68.5t106.5 41.5t134.5 3q21 -2 42.5 -6t42.5 -9q3 -1 6.5 -1.5t6.5 -1.5l14 31q22 50 43 98.5t44 97.5q10 22 25.5 56t36 72t45 76.5t51.5 70t56 51.5t60 22q7 0 23 -1t31.5 -6.5t25 -17t4.5 -31.5
q-3 -12 -19 -63.5t-38.5 -128t-49.5 -170t-53 -188.5q24 5 44.5 16t36.5 28q2 1 8 -5t6.5 -16t-7.5 -21t-35 -19q-30 -10 -61 -11q-17 -62 -32.5 -119t-27 -103t-19 -78.5t-8.5 -46.5q-1 -8 2 -15.5t11 -9.5zM827 1094q18 3 35.5 -5t34 -16t32.5 -8.5t33 17.5q7 7 14 3
q8 -6 3 -14q-9 -13 -21 -22t-29 -11q-19 -2 -36.5 6.5t-33.5 16t-30.5 8.5t-27.5 -17q-6 -8 -14 -3q-8 4 -3 13q8 12 18 20.5t25 11.5zM876 963q-31 8 -60 -5.5t-56.5 -40t-52 -62t-45 -72t-36.5 -69.5t-26 -55q-22 -48 -43.5 -97t-42.5 -98l-13 -28q15 -4 29.5 -7t29.5 -6
q33 -8 74.5 -14.5t83.5 -6.5q21 81 43 160t42 148.5t37 126t27 92.5q6 23 9 34zM468 426q-20 5 -41 9t-42 6q-73 11 -132 -13.5t-102 -69.5t-67.5 -102t-28 -110.5t15 -96t63.5 -56.5q43 -10 84 7q26 12 46.5 31.5t35.5 42.5q14 20 26.5 41t24.5 43q14 23 26 47.5t24 48.5
q20 42 39.5 84.5t38.5 85.5z" />
    <glyph glyph-name="Ucircumflex" unicode="&#xdb;" horiz-adv-x="801" 
d="M825 971q3 -36 -8.5 -104.5t-32 -154t-46.5 -180.5t-51 -184q-7 -30 -18 -72.5t-19.5 -86.5t-11 -82t7.5 -60t37 -20.5t77 37.5q5 3 10.5 3t8.5 -2.5t1.5 -7.5t-10.5 -11q-29 -20 -58 -34.5t-55 -12.5q-48 4 -65 39.5t-15.5 86.5t15 111t28.5 113q17 60 34.5 124
t34.5 126.5t32.5 120.5t27.5 107t20.5 86t11.5 57q0 2 0.5 7.5t-0.5 10t-3.5 6.5t-7.5 -2q-4 -4 -10 -16.5t-14 -41.5q-36 -128 -67 -249t-65.5 -230t-77.5 -202.5t-103 -165.5q-29 -33 -62 -55.5t-66 -27.5t-64 10t-54 56q-15 25 -17.5 69t2.5 99.5t16.5 119t26 128.5
t30 128t28.5 117q6 24 14 51.5t14.5 56t8.5 56t-4 51t-23 41.5t-48 27q-23 7 -47 5.5t-47 -9.5q-51 -17 -83 -60q-19 -25 -29 -53.5t-12 -59.5q-1 -17 3 -40.5t15 -43t30.5 -31.5t49.5 -7q11 2 4 -10t-23.5 -22t-37 -9.5t-36.5 27.5q-8 13 -12.5 30.5t-7 36t-2.5 37t1 33.5
q2 33 13 64.5t31 57.5q35 46 90 66q26 8 52.5 9.5t52.5 -6.5q54 -16 81.5 -43.5t35.5 -68t-0.5 -93.5t-24.5 -120q-13 -53 -27.5 -114t-28.5 -123t-25.5 -121.5t-17.5 -110.5t-6 -89.5t9 -58.5q14 -30 34 -43.5t43 -12t48.5 17.5t50.5 45q61 71 105 166t79 204.5t65 227.5
t64 236q3 13 10.5 33.5t18.5 37.5q9 14 21 17t22.5 -1.5t18 -16t9.5 -27.5zM447 1017q2 6 16 26.5t31 42.5t34 39t25 17q4 -1 6 0q9 0 23.5 -17t29 -39t25.5 -42.5t13 -26.5l1 -3l-4.5 -4.5t-9.5 4.5q-8 8 -18 21.5t-21.5 26.5t-22.5 24t-21 14q-11 -4 -24.5 -15.5
t-27 -25.5t-25.5 -27t-20 -20q-5 -4 -7.5 -2t-4.5 4z" />
    <glyph glyph-name="Iacute" unicode="&#xcd;" horiz-adv-x="310" 
d="M276 739q-17 -65 -35 -137t-34.5 -144.5t-31 -141t-25.5 -125.5q-2 -11 -8.5 -41.5t-17 -61.5t-25.5 -53t-34 -17q-11 3 -18.5 10.5t-12.5 16.5q-8 13 -11.5 27.5t-4.5 28.5q-2 21 4.5 42t18.5 38.5t28 29.5t34 15q6 4 -1 13.5t-21 12t-31 -7t-31 -43.5
q-10 -24 -15 -49.5t-3 -51.5q2 -17 6.5 -33t12.5 -30q7 -12 17 -21t24 -13q28 -8 49.5 3t37.5 31.5t25.5 45t14.5 44.5q13 56 32.5 133t40.5 160.5t42.5 165.5t38.5 147q5 20 11 45.5t9.5 53t3.5 55t-6 51.5t-20 43t-37 29q-14 6 -29 7t-29 -1q-17 -3 -33 -10t-30 -16
q-26 -16 -47.5 -40.5t-39 -53.5t-30.5 -60t-22 -59q-14 -43 -20.5 -89t-2.5 -91q2 -26 10 -48t21 -45q15 -27 32 -35.5t32.5 -6t28 12.5t19 20t5 16t-13.5 1q-26 -11 -47.5 -5.5t-36.5 20t-24 34.5t-10 38q-4 43 2.5 87.5t19.5 85.5q8 27 20.5 56.5t29.5 57t37.5 51.5
t45.5 40q43 27 67.5 25.5t35.5 -21t12 -52t-4 -68t-13 -68.5t-13 -54zM264 1046q0 6 7 25.5t16 41t19 38.5t17 19q11 2 19.5 -4t12 -14.5t2 -17t-10.5 -10.5q-11 -3 -24 -17t-25 -29t-21.5 -26.5t-12.5 -8.5z" />
    <glyph glyph-name="Edieresis" unicode="&#xcb;" horiz-adv-x="708" 
d="M709 797q-7 -21 -20 -29.5t-26 -7.5t-21.5 8t-6.5 17q42 31 54 63.5t0 61t-44.5 48.5t-79.5 26q-51 6 -103.5 -12.5t-96 -53.5t-72.5 -84t-32 -103.5t25.5 -112t99.5 -109.5q2 -2 2.5 -7t-0.5 -10.5t-3.5 -9.5t-5.5 -4q-68 9 -122.5 -11t-94 -58.5t-63 -90t-30 -106
t5 -106.5t41.5 -91t79.5 -59.5t120.5 -12.5q43 3 83 17.5t76 37.5q21 14 43 35t38.5 47t24 55.5t0.5 60.5q-3 11 4 15t16.5 2t18 -9t9.5 -17q3 -33 -10 -62.5t-34.5 -55t-48.5 -47t-52 -37.5q-77 -50 -167 -59q-83 -7 -144 15.5t-100 63.5t-57 96t-14.5 112.5t27.5 112.5
t68.5 97t109 65.5t148.5 17.5q-8 6 -14.5 12.5l-14.5 14.5q-70 70 -93 137.5t-13 126.5t47.5 107.5t87.5 80.5t107 44.5t107 0.5q30 -8 62 -27t54.5 -48.5t31 -69t-7.5 -88.5zM481 1069q-12 -14 -27.5 -10t-19.5 15q-5 10 -4 24.5t7.5 25.5t19 15.5t31.5 -5.5q12 -6 14 -15
t-1 -18.5t-9.5 -18t-10.5 -13.5zM601 1069q-6 -7 -13 -9t-13.5 -0.5t-12 5.5t-8.5 9q-4 10 -3 24.5t7.5 25.5t19 15.5t31.5 -5.5q12 -6 13.5 -15t-1.5 -18.5t-9.5 -18t-10.5 -13.5z" />
    <glyph glyph-name="Yacute" unicode="&#xdd;" horiz-adv-x="826" 
d="M875 965q2 -23 -6.5 -73t-23.5 -117.5t-36 -148t-43.5 -164.5t-45.5 -167t-44 -156t-37.5 -130.5t-25.5 -91.5q-12 -44 -27 -89.5t-33.5 -90.5t-41 -87.5t-48.5 -79.5q-24 -33 -53 -62t-63.5 -48.5t-73.5 -28t-82 -0.5q-50 9 -92.5 39t-68 70.5t-29.5 87.5t22 91
q17 30 37.5 45.5t39.5 20t35 1t25.5 -10t11 -14t-9.5 -10.5q-48 -13 -75.5 -38.5t-38 -57t-4.5 -65.5t25 -63.5t50 -51t70 -28.5q41 -7 74 -0.5t60.5 24t49.5 44t41 59.5q21 37 41 81.5t38 92.5t33.5 97t28.5 95q20 75 45.5 161.5t52 178t53.5 184.5t50 182t41.5 171
t29.5 150q0 1 0.5 6.5t-0.5 10t-3.5 7t-7.5 -1.5q-4 -4 -10 -16.5t-14 -41.5q-36 -128 -67 -249t-65.5 -230t-78 -202.5t-103.5 -165.5q-28 -33 -61 -55.5t-66 -27.5t-64 9.5t-54 55.5q-15 26 -17.5 70t2.5 99.5t16.5 119t26 128.5t30 128t28.5 117q9 35 21.5 78.5t15 84
t-12.5 73t-62 46.5q-48 14 -95 -3q-49 -16 -82 -60q-20 -25 -29.5 -53.5t-11.5 -59.5q-2 -17 2.5 -40.5t15.5 -43.5t30.5 -32t49.5 -7q11 2 3.5 -10t-23.5 -22t-36.5 -9t-36.5 28q-8 13 -12.5 30.5t-7 36t-2.5 37t1 33.5q2 33 13 64.5t31 57.5q36 47 90 65q25 9 51.5 10.5
t52.5 -6.5q55 -16 82.5 -43.5t35.5 -68t-0.5 -93.5t-24.5 -120q-13 -54 -27.5 -114.5t-28.5 -122.5t-25.5 -122t-17.5 -110.5t-6 -89.5t9 -59q14 -30 34 -43.5t43 -11.5t48.5 18t50.5 45q61 71 105 166t78.5 204t64.5 227.5t64 236.5q4 13 11.5 33.5t18.5 37.5
q9 14 21.5 16.5t24 -2.5t20 -17t9.5 -28zM562 1019q0 6 6.5 25.5t15.5 40.5t19 38.5t17 18.5q12 2 20 -4t12 -14t2 -16.5t-10 -10.5q-11 -3 -24 -17t-25 -29t-21.5 -26.5t-12.5 -8.5z" />
    <glyph glyph-name="Uacute" unicode="&#xda;" horiz-adv-x="801" 
d="M825 971q3 -36 -8.5 -104.5t-32 -154t-46.5 -180.5t-51 -184q-7 -30 -18 -72.5t-19.5 -86.5t-11 -82t7.5 -60t37 -20.5t77 37.5q5 3 10.5 3t8.5 -2.5t1.5 -7.5t-10.5 -11q-29 -20 -58 -34.5t-55 -12.5q-48 4 -65 39.5t-15.5 86.5t15 111t28.5 113q17 60 34.5 124
t34.5 126.5t32.5 120.5t27.5 107t20.5 86t11.5 57q0 2 0.5 7.5t-0.5 10t-3.5 6.5t-7.5 -2q-4 -4 -10 -16.5t-14 -41.5q-36 -128 -67 -249t-65.5 -230t-77.5 -202.5t-103 -165.5q-29 -33 -62 -55.5t-66 -27.5t-64 10t-54 56q-15 25 -17.5 69t2.5 99.5t16.5 119t26 128.5
t30 128t28.5 117q6 24 14 51.5t14.5 56t8.5 56t-4 51t-23 41.5t-48 27q-23 7 -47 5.5t-47 -9.5q-51 -17 -83 -60q-19 -25 -29 -53.5t-12 -59.5q-1 -17 3 -40.5t15 -43t30.5 -31.5t49.5 -7q11 2 4 -10t-23.5 -22t-37 -9.5t-36.5 27.5q-8 13 -12.5 30.5t-7 36t-2.5 37t1 33.5
q2 33 13 64.5t31 57.5q35 46 90 66q26 8 52.5 9.5t52.5 -6.5q54 -16 81.5 -43.5t35.5 -68t-0.5 -93.5t-24.5 -120q-13 -53 -27.5 -114t-28.5 -123t-25.5 -121.5t-17.5 -110.5t-6 -89.5t9 -58.5q14 -30 34 -43.5t43 -12t48.5 17.5t50.5 45q61 71 105 166t79 204.5t65 227.5
t64 236q3 13 10.5 33.5t18.5 37.5q9 14 21 17t22.5 -1.5t18 -16t9.5 -27.5zM529 1022q0 6 7 25.5t16 41t18.5 38.5t16.5 19q12 2 20 -4t12 -14.5t2 -16.5t-10 -10q-11 -3 -24 -17t-25 -29.5t-21.5 -27t-12.5 -8.5z" />
    <glyph glyph-name="Scaron" unicode="&#x160;" horiz-adv-x="520" 
d="M373 265q24 -65 14.5 -125.5t-39.5 -107.5t-74 -77t-90 -35t-87 19.5t-65 85.5q-14 34 -13 69t15.5 62t43 41.5t71.5 7.5q21 -3 22.5 7.5t-9 24t-29.5 24t-38 6.5q-28 -5 -50 -30t-33.5 -60.5t-11.5 -77t17 -80.5q28 -67 79 -98.5t108 -32.5t110.5 27t86.5 79.5
t35.5 124.5t-42.5 163q-19 39 -40 67t-43.5 52.5t-45.5 48.5t-46 55q-43 59 -60.5 121.5t-13.5 121.5t27.5 111t61.5 89t90 56.5t112 13.5q40 -4 77 -21.5t64 -47.5q19 -21 20 -50.5t-10.5 -57t-31.5 -47t-43 -21.5q-10 -1 -3 -7t22 -11t35 -5.5t37 9t27.5 32.5t6.5 65
q-6 57 -48 104q-29 32 -69 50t-82 24q-75 11 -139.5 -6t-113 -55t-77.5 -92.5t-32 -118.5t22.5 -133t85.5 -136q27 -30 54 -54t52 -49.5t46.5 -55t36.5 -69.5zM489 1171q-2 -6 -16 -26.5t-31 -42.5t-34 -39t-25 -17h-7q-8 0 -22.5 17t-29 39t-26 42.5t-12.5 26.5l-1 3
l4.5 4.5t9.5 -4.5q7 -8 17.5 -21.5t21.5 -26.5t22.5 -24t21.5 -14q11 4 24.5 15.5t27 25t25.5 27t20 20.5q5 4 7.5 2t4.5 -4z" />
    <glyph glyph-name="Egrave" unicode="&#xc8;" horiz-adv-x="708" 
d="M709 797q-7 -21 -20 -29.5t-26 -7.5t-21.5 8t-6.5 17q42 31 54 63.5t0 61t-44.5 48.5t-79.5 26q-51 6 -103.5 -12.5t-96 -53.5t-72.5 -84t-32 -103.5t25.5 -112t99.5 -109.5q2 -2 2.5 -7t-0.5 -10.5t-3.5 -9.5t-5.5 -4q-68 9 -122.5 -11t-94 -58.5t-63 -90t-30 -106
t5 -106.5t41.5 -91t79.5 -59.5t120.5 -12.5q43 3 83 17.5t76 37.5q21 14 43 35t38.5 47t24 55.5t0.5 60.5q-3 11 4 15t16.5 2t18 -9t9.5 -17q3 -33 -10 -62.5t-34.5 -55t-48.5 -47t-52 -37.5q-77 -50 -167 -59q-83 -7 -144 15.5t-100 63.5t-57 96t-14.5 112.5t27.5 112.5
t68.5 97t109 65.5t148.5 17.5q-8 6 -14.5 12.5l-14.5 14.5q-70 70 -93 137.5t-13 126.5t47.5 107.5t87.5 80.5t107 44.5t107 0.5q30 -8 62 -27t54.5 -48.5t31 -69t-7.5 -88.5zM549 1069q-4 -2 -11.5 10.5t-17.5 29t-21 32.5t-22 20q-8 3 -8.5 11.5t4.5 16.5t14 13t20 1
q7 -2 14.5 -21t13.5 -41.5t10 -42.5t4 -25v-4z" />
    <glyph glyph-name="Ecircumflex" unicode="&#xca;" horiz-adv-x="708" 
d="M709 797q-7 -21 -20 -29.5t-26 -7.5t-21.5 8t-6.5 17q42 31 54 63.5t0 61t-44.5 48.5t-79.5 26q-51 6 -103.5 -12.5t-96 -53.5t-72.5 -84t-32 -103.5t25.5 -112t99.5 -109.5q2 -2 2.5 -7t-0.5 -10.5t-3.5 -9.5t-5.5 -4q-68 9 -122.5 -11t-94 -58.5t-63 -90t-30 -106
t5 -106.5t41.5 -91t79.5 -59.5t120.5 -12.5q43 3 83 17.5t76 37.5q21 14 43 35t38.5 47t24 55.5t0.5 60.5q-3 11 4 15t16.5 2t18 -9t9.5 -17q3 -33 -10 -62.5t-34.5 -55t-48.5 -47t-52 -37.5q-77 -50 -167 -59q-83 -7 -144 15.5t-100 63.5t-57 96t-14.5 112.5t27.5 112.5
t68.5 97t109 65.5t148.5 17.5q-8 6 -14.5 12.5l-14.5 14.5q-70 70 -93 137.5t-13 126.5t47.5 107.5t87.5 80.5t107 44.5t107 0.5q30 -8 62 -27t54.5 -48.5t31 -69t-7.5 -88.5zM410 1064q2 6 16 26.5t31 42t34 38.5t25 17h7q8 0 22.5 -17t29 -38.5t25.5 -42t13 -26.5l2 -3
q-2 -2 -5 -4.5t-10 4.5q-8 8 -18 21.5t-21 26.5t-22.5 24t-21.5 14q-11 -4 -24.5 -15.5t-27 -25.5t-25.5 -27t-20 -20q-5 -4 -7.5 -2t-3.5 4z" />
    <glyph glyph-name="Eacute" unicode="&#xc9;" horiz-adv-x="708" 
d="M709 797q-7 -21 -20 -29.5t-26 -7.5t-21.5 8t-6.5 17q42 31 54 63.5t0 61t-44.5 48.5t-79.5 26q-51 6 -103.5 -12.5t-96 -53.5t-72.5 -84t-32 -103.5t25.5 -112t99.5 -109.5q2 -2 2.5 -7t-0.5 -10.5t-3.5 -9.5t-5.5 -4q-68 9 -122.5 -11t-94 -58.5t-63 -90t-30 -106
t5 -106.5t41.5 -91t79.5 -59.5t120.5 -12.5q43 3 83 17.5t76 37.5q21 14 43 35t38.5 47t24 55.5t0.5 60.5q-3 11 4 15t16.5 2t18 -9t9.5 -17q3 -33 -10 -62.5t-34.5 -55t-48.5 -47t-52 -37.5q-77 -50 -167 -59q-83 -7 -144 15.5t-100 63.5t-57 96t-14.5 112.5t27.5 112.5
t68.5 97t109 65.5t148.5 17.5q-8 6 -14.5 12.5l-14.5 14.5q-70 70 -93 137.5t-13 126.5t47.5 107.5t87.5 80.5t107 44.5t107 0.5q30 -8 62 -27t54.5 -48.5t31 -69t-7.5 -88.5zM514 1069q0 6 7 25.5t16 41t19 38.5t17 19q11 2 19 -4t12 -14.5t2 -17t-10 -10.5q-11 -3 -24 -17
t-25 -29t-21.5 -26.5t-12.5 -8.5z" />
    <glyph glyph-name="Zcaron" unicode="&#x17d;" horiz-adv-x="1013" 
d="M748 858q17 37 38 70.5t54 55.5q23 14 48 20.5t52 6.5q23 0 40 -10q15 -9 21 -25q5 -12 1.5 -24t-11.5 -22q-14 -17 -34.5 -28t-40.5 -18q-16 -5 -32.5 -8.5t-33.5 -6.5q-21 -4 -42 -6t-43 -4q-5 -1 -8 -1h-9zM775 1146q-2 -6 -16 -26.5t-31 -42t-34 -38.5t-25 -17h-7
q-8 0 -22.5 17t-29 38.5t-26 42t-12.5 26.5l-2 4q2 2 5 4.5t10 -4.5q7 -9 17.5 -22t21.5 -26.5t22.5 -24t21.5 -14.5q11 4 24.5 16t27 25.5t25.5 26.5t20 20q5 4 7.5 2.5t4.5 -3.5zM341 84q-31 16 -61.5 31.5t-62.5 29.5q-35 15 -76 23t-78 -5q-25 -9 -42 -27.5t-20 -45.5
q-5 -29 11 -55q8 -14 20 -24.5t27 -17.5q31 -15 75 -14t89 12t84 27.5t62 32.5q8 -5 12.5 -7t7.5 -3.5t7.5 -3t12.5 -5.5q57 -28 114 -46t121 -22q72 -5 141 9t135 40q16 6 22 19t5 27.5t-7 29t-12.5 23.5t-12 10.5t-6.5 -9.5q-2 -40 -31.5 -66.5t-70.5 -42t-86 -21
t-76 -3.5q-63 4 -118 22t-111 44q-8 4 -10.5 5t-4.5 2t-5 2t-10 5q77 53 127.5 118t83.5 134.5t52.5 142t33.5 141.5t27 131.5t33 113.5q7 1 11.5 1t11.5 1q22 2 43.5 4t43.5 6q17 3 34 7t34 9q23 8 45.5 20t37.5 31q10 14 14 29.5t-2 31.5q-8 21 -27 34q-22 13 -49 13
q-29 0 -56.5 -7t-52.5 -24q-18 -12 -37.5 -27.5t-36.5 -34t-31.5 -38.5t-23.5 -40q-20 -1 -36 -0.5t-31.5 1t-31.5 2.5t-35 4q-20 2 -49.5 6.5t-61 12.5t-61 20t-50 29.5t-27.5 41.5t7 55q3 6 -5.5 7t-20 -3.5t-22.5 -13.5t-14.5 -21.5t5.5 -29t37 -35.5t60.5 -33.5
t66 -24.5t67.5 -16.5t66 -10.5q37 -5 65 -7t66 0q-27 -67 -45.5 -136t-36 -137.5t-38 -135t-51 -128t-75 -117.5t-110.5 -103zM211 130q29 -13 57.5 -27.5t57.5 -28.5q-19 -13 -39 -24.5t-42 -21.5q-20 -9 -42.5 -17t-46 -12t-47 -2.5t-44.5 10.5q-26 13 -39 36
q-12 21 -9 45q3 22 17 37t34 23q34 12 72.5 4t70.5 -22z" />
    <glyph glyph-name="Ccedilla" unicode="&#xc7;" horiz-adv-x="673" 
d="M453 1025q33 9 69 8t68.5 -12.5t59 -33.5t42.5 -56q13 -27 12.5 -55.5t-7.5 -45.5q-9 -21 -22.5 -29t-26 -7.5t-20.5 7.5t-6 17q31 26 41.5 56t1.5 57t-30 44.5t-48 26t-56 9t-53 -7.5q-55 -18 -110 -70.5t-104.5 -126.5t-89.5 -162.5t-66.5 -179.5t-35.5 -177.5
t4.5 -156t52 -115.5t108.5 -56q33 -5 70 -2t72 13.5t66.5 28t54.5 43.5q16 18 27.5 39t17 41t5.5 37.5t-7 28.5q-6 10 0.5 14t17 2.5t20.5 -8t11 -16.5q1 -12 -1 -27.5t-9.5 -35t-22.5 -41.5t-42 -46q-53 -48 -115.5 -71t-133.5 -19q-1 0 -1 -0.5t-1 -0.5q-18 -17 -17.5 -33
t8.5 -33t16 -34.5t5 -35.5q-6 -26 -32 -43q-8 -4 -13 4q-5 7 3 13q18 13 17 27.5t-8.5 31t-16 34t-5.5 35.5q1 11 5.5 20t11.5 17q-5 1 -11 1.5t-11 2.5q-84 14 -133 64.5t-69 124t-14 163t32.5 183t70 183.5t98.5 164.5t119 127t131 69.5z" />
    <glyph glyph-name="Agrave" unicode="&#xc0;" horiz-adv-x="867" 
d="M702 8q6 -2 4 -5t-9 -4.5t-16 0t-17 7.5q-11 9 -11.5 42.5t7 83.5t21 114t31.5 134q-41 3 -81 11t-75 16q-15 3 -30.5 6.5t-30.5 7.5q-20 -45 -39.5 -88t-39.5 -86q-12 -25 -24.5 -49t-26.5 -48q-12 -22 -24.5 -43.5t-26.5 -41.5q-17 -25 -39 -46t-50 -33q-46 -21 -95 -9
q-45 12 -74 40.5t-43 67.5t-12 84.5t18.5 90t48.5 84.5t78 68.5t106.5 41.5t134.5 3q21 -2 42.5 -6t42.5 -9q3 -1 6.5 -1.5t6.5 -1.5l14 31q22 50 43 98.5t44 97.5q10 22 25.5 56t36 72t45 76.5t51.5 70t56 51.5t60 22q7 0 23 -1t31.5 -6.5t25 -17t4.5 -31.5
q-3 -12 -19 -63.5t-38.5 -128t-49.5 -170t-53 -188.5q24 5 44.5 16t36.5 28q2 1 8 -5t6.5 -16t-7.5 -21t-35 -19q-30 -10 -61 -11q-17 -62 -32.5 -119t-27 -103t-19 -78.5t-8.5 -46.5q-1 -8 2 -15.5t11 -9.5zM904 1041q-3 -2 -10.5 10.5t-17.5 29t-21 32.5t-22 20
q-8 3 -8.5 11.5t4 16.5t13.5 13t20 1q7 -2 14.5 -21t13.5 -41.5t10 -42.5t4 -25v-4zM876 963q-31 8 -60 -5.5t-56.5 -40t-52 -62t-45 -72t-36.5 -69.5t-26 -55q-22 -48 -43.5 -97t-42.5 -98l-13 -28q15 -4 29.5 -7t29.5 -6q33 -8 74.5 -14.5t83.5 -6.5q21 81 43 160
t42 148.5t37 126t27 92.5q6 23 9 34zM468 426q-20 5 -41 9t-42 6q-73 11 -132 -13.5t-102 -69.5t-67.5 -102t-28 -110.5t15 -96t63.5 -56.5q43 -10 84 7q26 12 46.5 31.5t35.5 42.5q14 20 26.5 41t24.5 43q14 23 26 47.5t24 48.5q20 42 39.5 84.5t38.5 85.5z" />
    <glyph glyph-name="Acircumflex" unicode="&#xc2;" horiz-adv-x="867" 
d="M702 8q-8 2 -11 9.5t-2 15.5q1 14 8.5 46.5t19 78.5t27 103t32.5 119q31 1 61 11q27 8 35 19t7.5 21t-6.5 16t-8 5q-16 -17 -36.5 -28t-44.5 -16q26 95 53 188.5t49.5 170t38.5 128t19 63.5q5 20 -4.5 31.5t-25 17t-31.5 6.5t-23 1q-31 -2 -60 -22t-56 -51.5t-51.5 -70
t-45 -76.5t-36 -72t-25.5 -56q-23 -49 -44 -97.5t-43 -98.5l-14 -31q-3 1 -6.5 1.5t-6.5 1.5q-21 5 -42.5 9t-42.5 6q-74 10 -134.5 -3t-106.5 -41.5t-78 -68.5t-48.5 -84.5t-18.5 -90t12 -84.5t43 -67.5t74 -40.5q49 -12 95 9q28 12 50 33t39 46q14 20 26.5 41.5t24.5 43.5
q14 24 26.5 48t24.5 49q20 43 39.5 86t39.5 88q15 -4 30.5 -7.5t30.5 -6.5q35 -8 75 -16t81 -11q-18 -70 -31.5 -134t-21 -114t-7 -83.5t11.5 -42.5q8 -6 17 -7.5t16 0t9 4.5t-4 5zM779 1036q3 6 16.5 26.5t31 42t34 38.5t25.5 17h6q8 0 23 -17t29.5 -38.5t25.5 -42
t13 -26.5l1 -3l-5 -5t-9 5q-8 8 -18 21.5t-21.5 26.5t-22.5 24t-21 14q-12 -4 -25.5 -15.5t-27 -25.5t-25.5 -27t-20 -20q-5 -4 -7.5 -2t-3.5 4zM876 963q-3 -11 -9 -34q-10 -36 -27 -92.5t-37 -126t-42 -148.5t-43 -160q-42 0 -83.5 6.5t-74.5 14.5q-15 3 -29.5 6t-29.5 7
l13 28q21 49 42.5 98t43.5 97q10 22 26 55t36.5 69.5t45 72t52 62t56.5 40t60 5.5zM468 426l11 -2q-19 -43 -38.5 -85.5t-39.5 -84.5q-12 -24 -24 -48.5t-26 -47.5q-12 -22 -24.5 -43t-26.5 -41q-15 -23 -35.5 -42.5t-46.5 -31.5q-41 -17 -84 -7q-45 14 -63.5 56.5t-15 96
t28 110.5t67.5 102t102 69.5t132 13.5q21 -2 42 -6t41 -9z" />
    <glyph glyph-name="Aacute" unicode="&#xc1;" horiz-adv-x="867" 
d="M702 8q-8 2 -11 9.5t-2 15.5q1 14 8.5 46.5t19 78.5t27 103t32.5 119q31 1 61 11q27 8 35 19t7.5 21t-6.5 16t-8 5q-16 -17 -36.5 -28t-44.5 -16q26 95 53 188.5t49.5 170t38.5 128t19 63.5q5 20 -4.5 31.5t-25 17t-31.5 6.5t-23 1q-31 -2 -60 -22t-56 -51.5t-51.5 -70
t-45 -76.5t-36 -72t-25.5 -56q-23 -49 -44 -97.5t-43 -98.5l-14 -31q-3 1 -6.5 1.5t-6.5 1.5q-21 5 -42.5 9t-42.5 6q-74 10 -134.5 -3t-106.5 -41.5t-78 -68.5t-48.5 -84.5t-18.5 -90t12 -84.5t43 -67.5t74 -40.5q49 -12 95 9q28 12 50 33t39 46q14 20 26.5 41.5t24.5 43.5
q14 24 26.5 48t24.5 49q20 43 39.5 86t39.5 88q15 -4 30.5 -7.5t30.5 -6.5q35 -8 75 -16t81 -11q-18 -70 -31.5 -134t-21 -114t-7 -83.5t11.5 -42.5q8 -6 17 -7.5t16 0t9 4.5t-4 5zM874 1041q0 6 7 25.5t16 40.5t19 38.5t17 18.5q11 2 19.5 -4t12 -14t2 -16.5t-9.5 -10.5
q-11 -3 -24.5 -17t-25.5 -29t-21 -26.5t-12 -8.5v3zM876 963q-3 -11 -9 -34q-10 -36 -27 -92.5t-37 -126t-42 -148.5t-43 -160q-42 0 -83.5 6.5t-74.5 14.5q-15 3 -29.5 6t-29.5 7l13 28q21 49 42.5 98t43.5 97q10 22 26 55t36.5 69.5t45 72t52 62t56.5 40t60 5.5zM468 426
l11 -2q-19 -43 -38.5 -85.5t-39.5 -84.5q-12 -24 -24 -48.5t-26 -47.5q-12 -22 -24.5 -43t-26.5 -41q-15 -23 -35.5 -42.5t-46.5 -31.5q-41 -17 -84 -7q-45 14 -63.5 56.5t-15 96t28 110.5t67.5 102t102 69.5t132 13.5q21 -2 42 -6t41 -9z" />
    <glyph glyph-name="Aring" unicode="&#xc5;" horiz-adv-x="867" 
d="M702 8q-8 2 -11 9.5t-2 15.5q1 14 8.5 46.5t19 78.5t27 103t32.5 119q31 1 61 11q27 8 35 19t7.5 21t-6.5 16t-8 5q-16 -17 -36.5 -28t-44.5 -16q26 95 53 188.5t49.5 170t38.5 128t19 63.5q5 20 -4.5 31.5t-25 17t-31.5 6.5t-23 1q-31 -2 -60 -22t-56 -51.5t-51.5 -70
t-45 -76.5t-36 -72t-25.5 -56q-23 -49 -44 -97.5t-43 -98.5l-14 -31q-3 1 -6.5 1.5t-6.5 1.5q-21 5 -42.5 9t-42.5 6q-74 10 -134.5 -3t-106.5 -41.5t-78 -68.5t-48.5 -84.5t-18.5 -90t12 -84.5t43 -67.5t74 -40.5q49 -12 95 9q28 12 50 33t39 46q14 20 26.5 41.5t24.5 43.5
q14 24 26.5 48t24.5 49q20 43 39.5 86t39.5 88q15 -4 30.5 -7.5t30.5 -6.5q35 -8 75 -16t81 -11q-18 -70 -31.5 -134t-21 -114t-7 -83.5t11.5 -42.5q8 -6 17 -7.5t16 0t9 4.5t-4 5zM891 1158q28 0 46 -19.5t16 -47.5t-23 -47.5t-49 -19.5t-46 19.5t-16 47.5t23 47.5t49 19.5
zM889 1136q-18 0 -32 -13t-16 -32t10.5 -32t31.5 -13t32.5 13t15.5 32t-10.5 32t-31.5 13zM876 963q-3 -11 -9 -34q-10 -36 -27 -92.5t-37 -126t-42 -148.5t-43 -160q-42 0 -83.5 6.5t-74.5 14.5q-15 3 -29.5 6t-29.5 7l13 28q21 49 42.5 98t43.5 97q10 22 26 55t36.5 69.5
t45 72t52 62t56.5 40t60 5.5zM468 426l11 -2q-19 -43 -38.5 -85.5t-39.5 -84.5q-12 -24 -24 -48.5t-26 -47.5q-12 -22 -24.5 -43t-26.5 -41q-15 -23 -35.5 -42.5t-46.5 -31.5q-41 -17 -84 -7q-45 14 -63.5 56.5t-15 96t28 110.5t67.5 102t102 69.5t132 13.5q21 -2 42 -6
t41 -9z" />
    <glyph glyph-name="Adieresis" unicode="&#xc4;" horiz-adv-x="867" 
d="M702 8q6 -2 4 -5t-9 -4.5t-16 0t-17 7.5q-11 9 -11.5 42.5t7 83.5t21 114t31.5 134q-41 3 -81 11t-75 16q-15 3 -30.5 6.5t-30.5 7.5q-20 -45 -39.5 -88t-39.5 -86q-12 -25 -24.5 -49t-26.5 -48q-12 -22 -24.5 -43.5t-26.5 -41.5q-17 -25 -39 -46t-50 -33q-46 -21 -95 -9
q-45 12 -74 40.5t-43 67.5t-12 84.5t18.5 90t48.5 84.5t78 68.5t106.5 41.5t134.5 3q21 -2 42.5 -6t42.5 -9q3 -1 6.5 -1.5t6.5 -1.5l14 31q22 50 43 98.5t44 97.5q10 22 25.5 56t36 72t45 76.5t51.5 70t56 51.5t60 22q7 0 23 -1t31.5 -6.5t25 -17t4.5 -31.5
q-3 -12 -19 -63.5t-38.5 -128t-49.5 -170t-53 -188.5q24 5 44.5 16t36.5 28q2 1 8 -5t6.5 -16t-7.5 -21t-35 -19q-30 -10 -61 -11q-17 -62 -32.5 -119t-27 -103t-19 -78.5t-8.5 -46.5q-1 -8 2 -15.5t11 -9.5zM841 1041q-6 -7 -13 -9t-14 -0.5t-12.5 5.5t-7.5 9
q-4 10 -3 24.5t7.5 25.5t19 15.5t31.5 -5.5q11 -6 13 -15t-1 -18.5t-9.5 -18t-10.5 -13.5zM962 1041q-6 -7 -13 -9t-14 -0.5t-12.5 5.5t-7.5 9q-4 10 -3 24.5t7.5 25.5t19 15.5t31.5 -5.5q11 -6 13 -15t-1 -18.5t-9.5 -18t-10.5 -13.5zM876 963q-31 8 -60 -5.5t-56.5 -40
t-52 -62t-45 -72t-36.5 -69.5t-26 -55q-22 -48 -43.5 -97t-42.5 -98l-13 -28q15 -4 29.5 -7t29.5 -6q33 -8 74.5 -14.5t83.5 -6.5q21 81 43 160t42 148.5t37 126t27 92.5q6 23 9 34zM468 426q-20 5 -41 9t-42 6q-73 11 -132 -13.5t-102 -69.5t-67.5 -102t-28 -110.5t15 -96
t63.5 -56.5q43 -10 84 7q26 12 46.5 31.5t35.5 42.5q14 20 26.5 41t24.5 43q14 23 26 47.5t24 48.5q20 42 39.5 84.5t38.5 85.5z" />
    <glyph glyph-name="a_start" 
d="M323 431q-30 11 -63.5 -5.5t-64.5 -49.5t-58 -77.5t-44 -89.5q27 -2 62 4.5t71 20.5t67.5 34t50.5 44t22 50t-19 52q-9 12 -24 17zM384 421q11 -37 2 -68.5t-32 -56.5t-55.5 -44.5t-69.5 -32.5t-74 -20t-68 -7q-14 -43 -17 -81t9 -64q16 -33 43 -34.5t59 17.5t66 52.5
t63 68.5t50 66.5t28 47.5q2 5 13 2t22.5 -10.5t20 -16.5t6.5 -16q-29 -89 -37 -144t0 -82.5t29.5 -30.5t51 12t63.5 45.5t67 69.5q8 9 16.5 19t16.5 20q2 2 5 -4t8 -13q-29 -35 -63.5 -70t-69.5 -61t-68.5 -39t-60.5 -3q-26 9 -39 30t-17 47t-1 55t9 55t12 47t8 31
q-8 -11 -23.5 -32.5t-37 -47t-47.5 -51.5t-54.5 -45.5t-57.5 -30t-56 -5.5q-26 5 -47.5 20.5t-35.5 40t-19 56t3 68.5q2 8 3.5 14.5t3.5 14.5q-56 20 -88 41t-46 41t-14 37.5t8 30.5q7 11 18 16t19.5 6t12.5 -3t-2 -11q-16 -18 -14 -39.5t17 -41.5t40 -36.5t55 -24.5
q11 31 28.5 63.5t39 62t46 55.5t50.5 46q32 24 64 33t60 4.5t48.5 -22t29.5 -47.5z" />
    <glyph glyph-name="b_start" horiz-adv-x="575" 
d="M101 309q-6 -25 -15.5 -62t-17.5 -77t-13.5 -77.5t-2.5 -62.5q39 145 96 243.5t115 149.5t109.5 54.5t80.5 -41.5q17 -27 17 -72t-12 -97t-33 -105t-45 -96q52 12 105.5 43.5t98.5 63.5q2 1 4 -3.5t7 -11.5q-48 -34 -107 -66t-119 -46q-22 -35 -48.5 -64.5t-55.5 -49.5
q-36 -24 -75.5 -31t-66.5 1t-32 30t28 55q7 7 22 15t35 15t43 13.5t46 11.5q64 107 95.5 185t37.5 127.5t-9 71t-43.5 17.5t-66 -34t-76 -83.5t-74.5 -130.5t-61 -176q-2 -11 -8 -15.5t-12.5 -5.5t-13.5 1t-10 4q-13 5 -18.5 26t-5.5 54t5 76t14 93q-24 -18 -54.5 -33.5
t-61.5 -24.5t-60 -9t-51 14q-19 12 -25 25.5t-4 26.5t9 23.5t14.5 16t12.5 4.5t3 -11q-3 -14 -1.5 -27t9 -23.5t22 -17t35.5 -5.5q32 2 73 18t84 51q11 59 25.5 122.5t31 127t33.5 123.5t32.5 111.5t29 92t22.5 63.5q13 32 29 63.5t37 55.5t46.5 38t57.5 13q34 -1 58.5 -33
t26.5 -86q2 -48 -15.5 -104.5t-48 -117t-69.5 -121.5t-78.5 -118.5t-77 -109t-63.5 -91.5zM199 6q-39 -13 -60 -28t-27 -28t0.5 -20.5t22.5 -5.5t38.5 16t48.5 44q7 8 13.5 17t13.5 18q-14 -3 -26.5 -6t-23.5 -7zM108 356q21 32 55 80.5t72 105t75.5 118t66 120.5t43 111
t7.5 90q-4 21 -14 32.5t-24 16.5q-25 7 -49 -13t-46.5 -59t-43.5 -92.5t-40 -113t-35 -120.5t-29 -114.5t-22.5 -96.5t-15.5 -65z" />
    <glyph glyph-name="d_start" horiz-adv-x="696" 
d="M79 48q15 -32 41 -34t57 15.5t64 49t62 65.5t51 66t31 50q12 45 28 108.5t34.5 135.5t38 147.5t37.5 144.5q6 24 15 55.5t22 64.5t30 65t38.5 57t48 39.5t59.5 13.5q25 -1 46 -21t31 -54.5t6 -81.5t-28 -104q-41 -93 -82.5 -168.5t-82.5 -137.5t-81.5 -114.5t-79.5 -99.5
q-3 -14 -10.5 -41t-15 -61t-13.5 -71t-7.5 -70t4.5 -58.5t22 -35.5q18 -12 45.5 -3t57.5 29t59.5 46.5t52.5 50.5q14 15 22.5 26.5t15.5 19.5q2 2 5.5 -3t8.5 -12q-8 -11 -16.5 -21.5t-19.5 -21.5q-26 -27 -56.5 -52.5t-61 -46t-58 -33t-48.5 -12.5q-30 -1 -49 11t-30 32.5
t-14.5 46.5t-3 53t4 53t7.5 46q0 3 2 13q-17 -23 -46 -59.5t-65.5 -69.5t-76.5 -54t-77 -14q-31 5 -54.5 25t-36.5 52q-14 34 -12.5 69t11.5 69q-56 20 -88 41t-46 41t-14 37.5t8 30.5q7 11 18 16t20 6t13 -3t-2 -11q-16 -18 -14.5 -39.5t16.5 -41.5t40 -36.5t55 -24.5
q12 31 29 63.5t38.5 62t46 55.5t50.5 45q32 24 64 33.5t60 5t48.5 -22t29.5 -47.5q11 -37 2 -68.5t-32 -56.5t-55.5 -44.5t-69.5 -32.5t-74 -20t-68 -7q-5 -15 -9.5 -34t-6.5 -39t-0.5 -39t8.5 -35zM93 212q27 -3 62 4t71 21t67.5 34t50.5 44t22 50t-19 52q-9 13 -24 17
q-30 11 -63.5 -5.5t-64.5 -49.5t-58 -77.5t-44 -89.5zM586 785q-20 -74 -35.5 -134.5t-28.5 -111.5t-24 -95l-21 -84q38 49 77.5 103.5t77.5 114.5t73 125.5t64 137.5q18 45 24 80t3 59.5t-13.5 37t-25.5 12.5q-23 0 -44 -13t-38.5 -34.5t-31.5 -48.5t-25.5 -54t-19.5 -52
t-12 -43z" />
    <glyph glyph-name="e_start" horiz-adv-x="466" 
d="M343 487q45 -30 42 -82t-43.5 -111t-112 -116.5t-162.5 -97.5q-1 -17 0 -31.5t6 -25.5q13 -40 39.5 -58.5t60.5 -19.5t72.5 12t75.5 35t70.5 49.5t57.5 55.5q4 4 8.5 9t7.5 8q5 5 8.5 4.5t6.5 -2.5q4 -3 6 -6q-4 -6 -10 -13.5t-11 -12.5q-31 -32 -68.5 -60.5t-78.5 -50
t-83 -34t-81 -11t-73 17.5t-59 52q-18 25 -26 60q-25 -11 -54.5 -17t-57.5 -3.5t-51 16t-35 41.5q-8 20 0.5 36t20.5 24.5t21.5 8.5t3.5 -12q-17 -32 -8 -54.5t33.5 -33t58 -7.5t64.5 21q-6 50 8.5 105.5t41.5 107.5t61.5 95.5t68.5 69.5q20 15 44 25t47.5 14.5t44.5 2.5
t35 -11zM69 102q87 39 145 84.5t92.5 90t46 83.5t5.5 64.5t-28.5 34t-56.5 -7.5q-33 -16 -67 -55.5t-62 -90t-48.5 -104.5t-26.5 -99z" />
    <glyph glyph-name="f_start" horiz-adv-x="361" 
d="M343 960q26 -2 46 -21.5t31 -53.5q22 -64 0 -134.5t-70.5 -144.5t-114.5 -149t-131 -148q0 -2 -6 -25t-12.5 -50t-12.5 -50t-6 -25q-14 -56 -26 -109.5t-22 -110.5q-11 -61 -19 -123.5t-12 -120t-3 -108t10 -87.5q10 -42 33.5 -46t48 21t45 75t25 116.5t-13 145
t-68.5 160.5q-5 8 -0.5 11.5t10.5 3.5q12 0 39.5 1t63.5 10.5t77.5 31.5t80.5 65q14 14 25 29q1 2 5.5 -5t7.5 -12q-41 -52 -85.5 -80t-85 -40.5t-72 -14t-46.5 -0.5q31 -44 50.5 -99.5t27 -113.5t2 -114.5t-24.5 -103t-52 -78t-81 -39.5q-30 -5 -48.5 14t-28.5 55.5
t-11.5 87.5t2 109.5t12 122t19.5 125.5q14 78 31 155t37 155q-24 -18 -54 -33t-61 -23t-59.5 -8t-49.5 14q-19 12 -25 25.5t-4 26.5t9.5 23t15 15.5t13 4.5t2.5 -11q-4 -14 -2.5 -27t9 -23.5t22 -16.5t35.5 -5q32 2 72.5 17.5t83.5 50.5q26 98 52 194.5t51 192.5
q6 24 15 55.5t22 64.5t29.5 65t38.5 57t48.5 39.5t59.5 13.5zM400 866q-11 33 -37 33q-23 0 -43.5 -13t-38 -34.5t-31.5 -48.5t-25.5 -54t-19.5 -52t-12 -43q-13 -50 -22 -83.5t-15 -57t-10.5 -40.5t-8.5 -33t-9 -35t-12 -46q17 20 48 53.5t67 76t71.5 91t61.5 98t37.5 98
t-1.5 90.5z" />
    <glyph glyph-name="g_start" horiz-adv-x="651" 
d="M32 48q-28 37 -29 81t11 86q-56 20 -88 41.5t-46 41.5t-14 37.5t8 29.5q7 11 18 16.5t20 6t13 -3t-2 -10.5q-16 -18 -14.5 -39.5t16.5 -42t40 -37t55 -24.5q11 32 28.5 64t39 62t46 55.5t50.5 45.5q32 24 64 33t60 4.5t48.5 -22t29.5 -47.5q11 -37 2 -68.5t-32 -56.5
t-55.5 -44.5t-69.5 -32.5t-74 -20t-68 -7q-5 -15 -9.5 -34t-6.5 -38.5t-0.5 -38.5t8.5 -34q16 -33 43 -34t59 18t66 52t63 68.5t50 66.5t28 47q2 5 12.5 2t21.5 -10t20 -16.5t8 -16.5q0 -3 -5 -25.5t-13 -60.5t-18 -90.5t-21 -113.5q46 22 82.5 42.5t67 43.5t57.5 49.5
t54 61.5q2 2 6 -2.5t9 -12.5q-35 -41 -64.5 -70t-61.5 -52t-69 -43t-86 -44q-18 -87 -37 -171t-45.5 -151.5t-64 -112t-92.5 -51.5q-46 -6 -77 6t-48.5 35.5t-23 55t-0.5 66t18.5 68.5t34.5 61q23 30 54 56.5t66.5 49.5t74 43.5t77.5 39.5q16 79 27 152.5t28 153.5
q-8 -11 -23.5 -32.5t-37 -46.5t-47.5 -51t-54.5 -46t-57.5 -30.5t-56 -5.5q-45 9 -74 47zM95 214q27 -2 62 5t71 21t67.5 34t50.5 43.5t22 49.5t-19 52q-9 12 -24 17q-30 11 -63.5 -5.5t-64.5 -49.5t-58 -77.5t-44 -89.5zM71 -301q-17 -23 -30 -57t-16.5 -69t6.5 -65.5
t40 -45.5q30 -16 57 -7t51 36.5t44.5 70t38 94t32.5 109t27 114.5q-36 -18 -72 -38t-68.5 -42t-60.5 -47t-49 -53z" />
    <glyph glyph-name="h_start" horiz-adv-x="586" 
d="M5 25q-8 33 -2 94t20 137q-24 -18 -54.5 -33.5t-61.5 -24.5t-60.5 -9t-51.5 14q-19 12 -25 25.5t-4 26.5t9.5 23.5t15 16t12.5 4.5t3 -11q-4 -14 -2.5 -27t9 -23.5t22 -17t35.5 -5.5q32 2 73.5 18.5t85.5 52.5q12 61 28 127.5t33.5 132t35.5 127t33.5 112t28.5 88.5
t20 56q13 32 29.5 62.5t37.5 53.5t47 36.5t58 12.5q35 -1 57 -33.5t23 -91.5q0 -93 -35 -183t-88.5 -174.5t-117 -162.5t-119.5 -147q-5 -23 -12.5 -63t-14.5 -81.5t-11 -75t-1 -43.5q4 -12 13 -0.5t22.5 39t31 67t37.5 83.5t41.5 88.5t43.5 81.5t43.5 63.5t41.5 33.5
q26 9 47 4.5t34.5 -18t19.5 -33.5t2 -42q-5 -29 -16 -70.5t-23.5 -87t-23.5 -92t-17 -85.5t-3.5 -68t17.5 -39q13 -9 32.5 -3.5t41.5 20t45 35t42.5 41t35 37.5t22.5 26q2 2 6 -3t9 -12q-30 -35 -64.5 -68.5t-69.5 -58.5t-68 -36.5t-60 -1.5q-28 10 -40 37.5t-13 65.5
t6.5 84t18.5 92t23 90t19.5 78.5t8.5 57t-9 25.5q-20 6 -44 -19t-48.5 -67t-50 -95.5t-48 -105t-42.5 -95.5t-34 -66q-9 -14 -22.5 -19t-27 -3.5t-24 8t-12.5 17.5zM111 348q50 64 106.5 136t105 150t81 161.5t34.5 170.5q1 34 -9 51t-28 17q-21 0 -40.5 -11.5t-36 -30
t-30.5 -42.5t-25 -49q-27 -61 -50 -130.5t-42.5 -141.5t-36 -143.5t-29.5 -137.5z" />
    <glyph glyph-name="k_start" horiz-adv-x="585" 
d="M99 300q-3 -15 -8 -38.5t-9.5 -50t-9 -54.5t-8 -51.5t-4.5 -41t1 -23.5q5 -16 19.5 8.5t36 72t48.5 108.5t55.5 117t58 97.5t56.5 51.5q28 10 50.5 5.5t35.5 -19.5t15.5 -37.5t-9.5 -47.5q-23 -50 -55.5 -75.5t-65 -41.5t-59.5 -30t-39 -39q-9 -18 -3.5 -49t21 -65
t40.5 -65t56 -49.5t67 -19t74 27.5q31 23 64.5 59t65.5 72q2 2 4.5 -3t7.5 -13q-29 -34 -62 -70.5t-67 -63.5q-41 -32 -84 -39.5t-81.5 3.5t-70 37.5t-50 63t-21 80t16.5 89.5q7 15 16 29.5t23 25.5q15 11 34 26.5t38.5 36.5t38 47.5t30.5 61.5q2 19 -1.5 28.5t-11 11
t-18 -4t-22.5 -16.5q-19 -19 -40 -53.5t-42 -76t-41 -86t-38 -86t-33.5 -75t-27.5 -51.5q-9 -14 -22.5 -19.5t-27 -4t-24 8t-12.5 17.5q-8 33 -2 93.5t20 136.5q-24 -18 -54.5 -33t-61.5 -23.5t-60 -8.5t-50 13q-19 12 -25 25.5t-4 26.5t9 23.5t14.5 16t12.5 4.5t3 -11
q-3 -14 -1.5 -27t9 -23.5t21.5 -16.5t35 -5q32 1 73 17t84 51q12 62 28.5 128.5t34 132t35 127t33.5 112.5t28.5 89t20.5 56q13 32 29.5 62.5t37.5 54t47 37t58 12.5q29 -2 48.5 -23.5t27.5 -60.5q11 -60 -1 -124.5t-40 -129t-67.5 -128t-83 -122.5t-87 -112t-78.5 -96z
M111 350q35 41 76 91.5t80.5 105.5t74.5 113t59 116t34.5 114t0.5 106q-8 39 -35 39q-22 0 -41 -11t-35.5 -29.5t-30.5 -42.5t-25 -49q-27 -61 -50.5 -130.5t-43 -141.5t-35.5 -143.5t-29 -137.5z" />
    <glyph glyph-name="l_start" horiz-adv-x="336" 
d="M423 985q-5 40 -24.5 49t-56.5 -15q-25 -16 -45.5 -46t-36 -63.5t-26 -66t-16.5 -54.5q-20 -74 -36.5 -136.5t-30.5 -116t-25.5 -99t-21.5 -85.5q25 32 60.5 76t73.5 95.5t74.5 109t63.5 117t40.5 119.5t6.5 116zM-214 203q-19 12 -25 25.5t-4 26.5t9.5 23t15 15.5
t12.5 4.5t3 -11q-4 -14 -2.5 -27t9 -23.5t22 -16.5t35.5 -5q33 2 75 19t87 54q12 47 28 108.5t33 129.5t35 138t35 135q9 36 25.5 87.5t42 98.5t61.5 79t85 30q50 -2 70 -63q19 -57 10 -122t-36.5 -132t-68 -134t-85.5 -128.5t-89 -115.5t-77 -95q0 -2 -5.5 -24t-12 -48.5
t-12 -49t-6.5 -26.5q-3 -16 -5 -35.5t-3 -40.5t1 -40.5t7 -35.5q12 -33 40 -33t63 19t71 50t64 60q17 17 26 30t16 22q2 2 6 -3t9 -12q-8 -11 -18 -23.5t-23 -26.5q-23 -24 -51.5 -49t-58.5 -46t-60 -34.5t-56 -14.5q-45 -2 -66 24.5t-27.5 65t-2.5 81t10 72.5q2 8 6.5 26.5
t11.5 44.5q-24 -18 -54.5 -34t-62 -25t-61.5 -9t-52 14z" />
    <glyph glyph-name="r_start" horiz-adv-x="444" 
d="M134 -23q-7 19 1 61t21.5 91t28 98.5t20.5 83.5q5 24 0.5 41t-15 30.5t-26 26t-31.5 27.5q-7 -32 -27.5 -72.5t-51.5 -81.5t-70.5 -78.5t-83.5 -62t-91 -32.5t-93 9q-31 12 -35.5 28t2 29t17 19.5t9.5 -1.5q-3 -28 14 -43.5t42 -19.5q40 -6 80 7.5t77 38.5t70 59.5
t59.5 72t44 74.5t23.5 67q-14 13 -28 28.5t-25 35.5t-17.5 45t-6.5 58q0 30 7 52t17.5 35.5t23.5 17.5t25 -2q14 -8 22 -26.5t11 -43.5t2.5 -53.5t-2.5 -55t-5.5 -49.5t-5.5 -37q5 -6 27 -21.5t46 -36t41.5 -43t14.5 -42.5q-6 -35 -20.5 -83t-28 -96t-21.5 -90.5t-3 -64.5
q6 -26 29.5 -25t55.5 17t67 42t62 51q11 10 20 19.5t16 17.5q2 2 9.5 -0.5t11.5 -6.5q-16 -17 -43 -41.5t-59.5 -49t-68 -44t-67 -26.5t-56 2.5t-36.5 43.5zM134 615q0 48 -9 70t-18.5 19.5t-17.5 -29t-6 -75.5q1 -45 11.5 -75.5t27.5 -53.5q6 35 9.5 70.5t2.5 73.5z" />
    <glyph glyph-name="s_start" horiz-adv-x="376" 
d="M86 326q-1 7 -2.5 16t-3.5 23q-7 40 -10 80t0 78t12.5 73t29.5 67q18 27 46.5 40.5t51.5 6t31.5 -38.5t-14.5 -91q-17 -44 -41.5 -96.5t-48.5 -100.5q18 -76 38.5 -145t29.5 -120q34 15 66 34.5t58.5 40t46 40.5t29.5 36q3 5 6.5 4.5t6.5 -3t5 -5.5l2 -3
q-17 -21 -36.5 -41.5t-45 -41t-59 -40.5t-77.5 -40q2 -24 3 -50.5t-2 -52t-11.5 -49.5t-25.5 -44q-34 -40 -74.5 -50.5t-74 0.5t-53 38.5t-11.5 62.5t50 73.5t133 70.5q-6 33 -13.5 63t-16.5 63q-9 36 -13.5 51.5t-6.5 25.5q-30 -46 -71 -90t-89 -74.5t-100 -42.5t-103 7
q-30 12 -34.5 28t2 29t17 19.5t9.5 -1.5q-4 -28 13.5 -43.5t41.5 -18.5q45 -6 89.5 10.5t85 47.5t75 71.5t59.5 82.5zM132 407q23 42 41.5 89.5t35.5 88.5q21 49 18 75.5t-17 33.5t-33.5 -2.5t-31.5 -31.5q-15 -27 -22 -57.5t-7 -62.5t4.5 -65.5t11.5 -67.5zM146 79
q-87 -31 -125.5 -66t-43.5 -65t15 -51t49 -24.5t59 14.5t46 66q3 10 4 25.5t1 33t-1.5 35.5t-3.5 32z" />
    <glyph glyph-name="x_start" horiz-adv-x="532" 
d="M414 527q-12 -14 -34 -42t-50 -65.5t-61 -81.5t-67 -89q12 -51 28 -101t35.5 -87.5t41.5 -57.5t48 -11q27 9 62 37t70 67q14 14 26 30t25 33q2 2 5.5 -3t8.5 -12q-12 -15 -24 -30.5t-26 -31.5q-33 -37 -71 -68t-85 -47q-38 -12 -68.5 1t-55 43.5t-44.5 73.5t-35 90
q-22 -29 -55 -59t-72 -57t-83 -47t-88 -28t-86 -2t-78 32q-27 19 -27 35.5t10 27.5t21.5 14.5t8.5 -3.5q-11 -26 1.5 -46t35.5 -29q50 -22 109 -11t115.5 40.5t104.5 71t77 81.5q-20 64 -33 123t-22 93q-6 23 -15 37.5t-10 17.5q-3 17 11 26t32.5 9t36.5 -10t22 -32
t13.5 -74t24.5 -115q31 42 61.5 82.5t57 76.5t48.5 64.5t36 45.5q6 7 12.5 0.5t1.5 -12.5z" />
    <glyph glyph-name="z_start" horiz-adv-x="444" 
d="M122 471q6 35 9.5 70.5t2.5 73.5q0 48 -9 70t-18.5 19.5t-17.5 -29t-7 -75.5q2 -45 12.5 -75.5t27.5 -53.5zM-283 118q-31 12 -35.5 28t2.5 29t17 19.5t9 -1.5q-3 -28 14.5 -43.5t41.5 -19.5q45 -6 90 11.5t86.5 49t76.5 73.5t59 84q15 26 24.5 49t15.5 52
q-14 13 -27.5 28.5t-24.5 35.5t-18 45t-7 58q0 30 7 52t18 35.5t24 17.5t25 -2q14 -8 22 -26.5t11 -43.5t2.5 -53.5t-2.5 -55t-5.5 -49.5t-5.5 -37q5 -6 27 -19.5t45.5 -31t41.5 -38t14 -40.5q-6 -35 -21.5 -72t-39 -73.5t-54.5 -70t-69 -60.5q38 -20 57.5 -50t36.5 -69
q5 -10 10 -27q44 29 89 58t86 61q24 19 47 40.5t36 36.5q2 2 9.5 -0.5t11.5 -6.5q-11 -14 -37 -37t-50 -43q-46 -32 -92.5 -64.5t-93.5 -64.5q16 -57 16.5 -119.5t-15 -122.5t-47 -112t-78.5 -87q-21 -16 -42.5 -19.5t-41 3t-36 22t-27.5 36.5q-20 41 -16.5 96.5t37.5 109.5
q29 48 84 96t121 93q-13 51 -32 80t-38 44t-36.5 20t-26.5 8t-7.5 8.5t19.5 20.5q26 22 56 53t56.5 67.5t45.5 77.5t24 84q-2 16 -8.5 28t-16.5 22.5t-23 21t-26 23.5q-6 -29 -15 -50t-25 -48q-28 -48 -70 -96t-92 -82.5t-105 -48.5t-109 6zM-42 -320q-26 -45 -31 -88
t4.5 -75t31 -47t48.5 -3q48 21 79.5 64.5t48.5 98t19.5 115t-8.5 114.5q-62 -44 -114 -88t-78 -91z" />
    <glyph glyph-name="a_end" horiz-adv-x="604" 
d="M450 225q-6 -20 -11 -37t-10 -33q-4 -16 -10 -52t-11 -79.5t-7 -88.5t4.5 -81t22.5 -56.5t47 -13.5q25 6 47.5 24t37.5 42.5t20.5 52.5t-1.5 55q-2 4 2 6t8.5 2t9 -2t4.5 -6q3 -44 -13 -83t-42 -66.5t-58 -40t-60 -3.5q-30 10 -48 31.5t-27.5 51t-12.5 63.5t-1.5 68
t6 65.5t8.5 55.5q5 36 14 66t12 43q-8 -11 -24 -32.5t-37.5 -47t-47.5 -51.5t-54.5 -45.5t-57.5 -30t-56 -5.5q-26 5 -47.5 20.5t-35.5 40t-18.5 56t2.5 68.5t24.5 75t41 74t52 67.5t59.5 54.5q41 31 82.5 37.5t72 -8.5t45.5 -51.5t2 -92.5q-2 -8 -5 -9t-6 0.5t-5 4.5t-2 4
q2 40 -9.5 63t-33.5 31q-31 11 -64.5 -5.5t-65 -50t-58 -79t-43.5 -92t-21 -88.5t9 -69q16 -33 43 -34.5t59 17.5t65.5 52t63 68.5t50.5 67t28 46.5q2 5 12.5 2t22.5 -10t20.5 -16t5.5 -16z" />
    <glyph glyph-name="b_end" horiz-adv-x="515" 
d="M69 172q-3 -14 -7 -32.5t-6.5 -38t-4 -38.5t0.5 -33q39 145 96 243.5t115 149.5t109.5 54.5t80.5 -41.5q17 -27 17 -72t-12 -97t-32.5 -105t-44.5 -96q50 11 80.5 29.5t32.5 46.5q0 3 6 0t10.5 -9.5t4 -15t-12.5 -16.5q-17 -12 -30 -19.5t-27 -13.5t-32 -11t-44 -11
q-22 -35 -48.5 -64.5t-55.5 -49.5q-36 -24 -75.5 -31t-66 1t-32 30t27.5 55q7 7 22.5 15t35 15t42.5 13.5t46 11.5q64 107 95.5 185t37.5 127.5t-9 71t-43.5 17.5t-66 -34t-76 -83.5t-74.5 -130.5t-61 -176q-2 -11 -8 -15.5t-12.5 -5.5t-13.5 1t-10 4q-18 7 -22 44.5
t1.5 94.5t19 129t31.5 149t38.5 154t40.5 144.5t37 120.5t28 81q13 32 29 63.5t37 55.5t47 38t58 13q25 -1 46 -20.5t31 -54t6 -82t-29 -103.5q-41 -93 -85 -183t-89 -173.5t-91 -159.5t-89 -142zM199 6q-39 -13 -60 -28t-27 -27.5t0.5 -20.5t22.5 -6t38.5 16t48.5 44
q7 8 13.5 17t13.5 18q-14 -3 -26.5 -6t-23.5 -7zM75 218q37 56 81.5 133.5t89.5 162t86 169.5t70 157q18 45 24 79t2.5 57t-14 36.5t-25.5 17.5q-25 7 -50 -19t-50 -74.5t-49 -114.5t-46 -138t-41 -145.5t-34.5 -137t-26.5 -112t-17 -71.5z" />
    <glyph glyph-name="d_end" horiz-adv-x="597" 
d="M465 310q-21 -88 -40.5 -174t-24.5 -177q-2 -36 -0.5 -69.5t9 -58.5t23 -37.5t40.5 -6.5t47.5 24t37.5 42.5t20.5 52.5t-1.5 55q-2 4 2 6t8.5 2t9 -2t4.5 -6q3 -44 -13 -83t-42 -66.5t-58 -40t-60 -3.5q-25 8 -42 25.5t-27.5 41t-15.5 52.5t-5 61q-1 57 8.5 117.5
t21.5 117.5l3 12q-11 -15 -28.5 -37t-38.5 -45.5t-45.5 -46t-50 -39.5t-52 -25.5t-51.5 -3.5q-26 5 -47.5 21t-35.5 40.5t-18.5 56t2.5 68.5t24.5 75t41 74t52 67.5t59.5 54.5q41 31 82.5 37.5t72 -8.5t45.5 -51.5t2 -92.5q-2 -8 -5 -9t-6 0.5t-5 4.5t-2 4q2 39 -9.5 62.5
t-33.5 31.5q-31 11 -64.5 -6t-65 -50.5t-58 -78.5t-43.5 -91.5t-21 -89t9 -69.5q15 -32 41 -34t57 15.5t63.5 49t61.5 65.5t51 66t32 50q11 45 27 108.5t34.5 135.5t38 147.5t37.5 144.5q6 24 15.5 55.5t22 64.5t29.5 65t38.5 57t48 39.5t59.5 13.5q26 -1 47 -21t31 -54.5
t5.5 -81.5t-28.5 -104q-41 -93 -82.5 -168.5t-82.5 -138t-81.5 -114.5t-79.5 -100zM477 361q38 49 77.5 103.5t78 114.5t73.5 125.5t64 137.5q18 45 24 80t3 59.5t-14 37t-26 12.5q-35 0 -63.5 -28.5t-50 -67.5t-36 -80.5t-21.5 -68.5q-20 -74 -35.5 -134.5t-28.5 -111.5
t-24 -95z" />
    <glyph glyph-name="f_end" horiz-adv-x="375" 
d="M346 960q25 -1 46 -20.5t31 -54t6 -82t-29 -103.5q-41 -93 -82 -168.5t-82.5 -138t-82 -115t-79.5 -99.5q-14 -61 -27.5 -119.5t-24.5 -120.5q-11 -60 -19 -122.5t-12 -120.5t-3 -108.5t10 -87.5q10 -42 33.5 -46t48 21t45 75.5t25 117t-13 145t-68.5 160.5q-5 8 1 15
t12 6q12 -3 34 -9.5t48.5 -12.5t55.5 -9t55 3t46.5 22.5t30.5 49.5q2 9 7.5 8t10 -7t6.5 -14t-2 -14q-26 -37 -61.5 -50.5t-73.5 -13.5t-77 8.5t-73 16.5q30 -42 49.5 -96.5t27 -113t2 -115.5t-24.5 -104t-51.5 -78.5t-80.5 -39.5q-30 -5 -48.5 14t-28.5 55.5t-11.5 87.5
t2 109.5t12 122t19.5 125.5q32 183 81.5 365t96.5 361q9 36 25 87.5t41.5 98.5t61.5 79t85 30zM379 710q18 45 24 80.5t3 60t-14 37t-26 12.5q-35 0 -63.5 -28.5t-50 -68t-35.5 -81t-21 -67.5q-20 -74 -35.5 -134.5t-28.5 -111.5t-24 -95t-21 -85q77 99 155 218t137 263z
" />
    <glyph glyph-name="g_end" horiz-adv-x="566" 
d="M453 229q-5 -56 -18 -133t-30 -161q20 11 42.5 25t42 29.5t32.5 31.5t15 33q1 8 8 6.5t13 -8t7.5 -16.5t-7.5 -18q-30 -28 -68 -54t-90 -51q-12 -57 -26.5 -113.5t-29.5 -107.5t-31.5 -94t-33.5 -73q-23 -42 -54 -68t-73 -31q-46 -6 -77 5.5t-48.5 35t-23 55.5t-0.5 66.5
t18.5 68t34.5 60.5q23 30 54 56.5t66.5 50t74 44t77.5 38.5q17 79 27.5 153t28.5 154q-8 -11 -24 -32.5t-37.5 -47t-47.5 -51.5t-54.5 -45.5t-57.5 -30t-56 -5.5q-26 5 -47.5 20.5t-35.5 40t-18.5 56t2.5 68.5t24.5 75t41 74t52 67.5t59.5 54.5q41 31 82.5 37.5t72 -8.5
t45.5 -51.5t2 -92.5q-2 -8 -5 -9t-6 0.5t-5 4.5t-2 4q2 40 -9.5 63t-33.5 31q-31 11 -64.5 -5.5t-65 -50t-58 -79t-43.5 -92t-21 -89t9 -69.5q16 -33 43 -34t59 18t65.5 52t63 68.5t50.5 66.5t28 47q2 5 12 2t21 -9.5t20 -16t8 -16.5zM73 -302q-17 -23 -30.5 -56.5
t-17 -68.5t6.5 -65.5t41 -46.5q30 -16 57 -6.5t50.5 36.5t44 69.5t38 94t32.5 109t27 114.5q-73 -36 -140 -79.5t-109 -100.5z" />
    <glyph glyph-name="h_end" horiz-adv-x="544" 
d="M439 406q-3 -16 -13 -53t-22.5 -85t-25.5 -104.5t-22.5 -111.5t-14 -105.5t1 -87t22 -55.5t48.5 -12q25 6 46.5 22t36 39t20.5 51.5t2 58.5q-1 4 3 6t8.5 2t9 -2t4.5 -6q3 -43 -13.5 -82t-42.5 -66.5t-58 -40t-60 -3.5q-40 13 -60 49t-26 84.5t-1.5 105.5t14 111.5
t21.5 102t20 78.5q9 33 16.5 62.5t11 52t2.5 36.5t-9 16q-20 6 -44 -18.5t-48.5 -66.5t-50 -95.5t-48 -105t-42.5 -95.5t-34 -66q-9 -14 -22.5 -19t-26.5 -3.5t-23.5 8t-13.5 17.5q-7 29 -3.5 78.5t14 112t27 134t35 144t38 142t37.5 128t32.5 102t22.5 63.5q13 32 30 62.5
t38 53.5t47 36.5t58 12.5q25 -1 44 -19.5t28 -51.5t6 -80t-22 -105q-36 -115 -82.5 -213.5t-95.5 -181t-96.5 -147.5t-86.5 -113q-11 -46 -15.5 -85t0.5 -59q4 -12 13 -0.5t22.5 39t31 67t37.5 83.5t41.5 88.5t43.5 81.5t43.5 63.5t41.5 33.5q27 9 48 4.5t35 -18t19.5 -33.5
t1.5 -42zM414 844q30 94 23.5 142t-36.5 48q-21 0 -40 -11.5t-35.5 -30t-30.5 -42.5t-25 -49q-18 -41 -36.5 -94t-35.5 -112.5t-33 -122.5t-30.5 -123.5t-26 -116t-20.5 -99.5q38 49 81.5 112.5t87 140t84 166.5t73.5 192z" />
    <glyph glyph-name="i_end" horiz-adv-x="239" 
d="M127 407q-31 -92 -54 -191.5t-34 -196.5q-6 -44 -7.5 -87t4.5 -76t22.5 -52t47.5 -14q25 3 47 20.5t37 42t21 52.5t0 54q-1 4 3 6t8.5 2t9 -2t4.5 -6q3 -43 -13.5 -82t-42.5 -66.5t-57.5 -40t-59.5 -3.5q-32 10 -51 34.5t-28 57t-10.5 70.5t1.5 76t9 73t11 61
q9 46 19.5 91.5t20.5 84.5t17 68t10 41q4 18 15.5 19t23 -5.5t19.5 -16.5t7 -14zM188 653q11 -13 9 -32.5t-10 -40.5t-19.5 -39.5t-18.5 -29.5q-10 -14 -19.5 -18.5t-17 -1.5t-12 11.5t-4.5 20.5q0 22 7 53t20 55.5t30 33.5t35 -12z" />
    <glyph glyph-name="j_end" horiz-adv-x="194" 
d="M-53 -94q-38 -19 -76.5 -39.5t-74 -43.5t-66.5 -49.5t-54 -56.5q-21 -27 -35 -61t-18.5 -68.5t0.5 -66t22.5 -55t48.5 -35t77 -5.5t80 38t59 83t43.5 116.5t34.5 137.5q6 27 11.5 54.5t11.5 53.5q54 26 93.5 53t69.5 56q9 8 7.5 17.5t-7 16.5t-12.5 8.5t-8 -6.5
q-2 -17 -16.5 -34t-34.5 -33t-43.5 -30t-44.5 -26q23 108 45.5 212.5t48.5 211.5q5 22 8.5 36t5.5 19q1 4 -7 13.5t-19.5 16.5t-22.5 5.5t-15 -19.5q-28 -131 -56 -257.5t-56 -262.5zM184 655q11 -13 9 -32.5t-10 -40t-19.5 -39.5t-18.5 -30q-10 -14 -19.5 -18.5t-17 -1.5
t-12 12t-4.5 21q0 14 3 33.5t9.5 38.5t15 35.5t18.5 26t22 9.5t24 -14zM-308 -302q21 28 49 53t60.5 47.5t68 42t71.5 37.5q-12 -57 -27 -114.5t-32.5 -109t-38 -94t-44 -69.5t-50.5 -36.5t-57 6.5q-31 15 -41 45.5t-6.5 65.5t17 69t30.5 57z" />
    <glyph glyph-name="k_end" horiz-adv-x="596" 
d="M76 184q-11 -46 -15.5 -85t0.5 -59q4 -12 13 -0.5t22.5 39t31 67t37.5 83.5t41.5 88.5t43.5 81.5t43.5 63.5t41.5 33.5q28 10 50.5 5.5t35.5 -19.5t15.5 -37.5t-8.5 -47.5q-23 -50 -55.5 -76t-65.5 -42t-60 -30t-39 -39q-4 -9 2 -45.5t23 -82.5t44.5 -91.5t67.5 -71.5
q38 -24 82.5 -22.5t80.5 20.5t54.5 52t3.5 72q-1 3 2 5t8 2t10 -3t7 -12q6 -22 -4 -47.5t-32 -48.5t-53 -41.5t-66.5 -26.5t-73 -3t-71.5 28q-37 25 -63.5 64t-41 82.5t-15 87t13.5 77.5q7 16 15.5 30t22.5 25q15 12 34 27t39 36t38.5 47.5t30.5 61.5q2 19 -1.5 28.5
t-11.5 11t-18.5 -4t-21.5 -16.5q-20 -20 -41 -54t-41.5 -75t-41 -86t-38.5 -86t-33.5 -74.5t-27.5 -52.5q-9 -14 -22.5 -19.5t-26.5 -4t-23.5 8t-13.5 17.5q-7 29 -3.5 78.5t14 112.5t27 134.5t35 144t38 142t37.5 128t32.5 102t22.5 63.5q13 32 30 62.5t38 53.5t47 36.5
t58 12.5q25 -1 44 -19.5t28 -51.5t6 -80t-22 -105q-36 -115 -82.5 -213.5t-95.5 -181t-96.5 -147.5t-86.5 -113zM87 234q39 49 82.5 112.5t87 140t84 166.5t73.5 192q30 94 23.5 142t-36.5 48q-21 0 -40 -11.5t-35.5 -30t-30.5 -42.5t-25 -49q-18 -41 -36.5 -94
t-35.5 -112.5t-33.5 -122.5t-30.5 -123.5t-26 -116t-21 -99.5z" />
    <glyph glyph-name="l_end" horiz-adv-x="237" 
d="M66 181q-3 -13 -10 -49t-14 -82t-10 -95.5t2 -89t21.5 -62.5t49.5 -15q25 6 47.5 24t38 42.5t21.5 53t-1 55.5q-2 4 2 6t8.5 2t9 -2t4.5 -6q3 -44 -13 -82.5t-42 -66.5t-58 -40.5t-60 -3.5q-27 9 -45 29.5t-27.5 49t-13 63t-1.5 71.5q2 57 11.5 116.5t23.5 115.5
l25.5 102t37 146t43 168t43.5 168q6 24 15.5 55.5t22 64.5t29.5 65t38.5 57t48 39.5t59.5 13.5q26 -1 45 -19.5t28 -51.5t6 -80t-22 -105q-37 -116 -83.5 -215t-96 -181.5t-97 -148t-86.5 -112.5zM78 231q38 49 82 112.5t87.5 140t84.5 167t74 193.5q29 94 23 142t-36 47
q-23 0 -43.5 -13t-38 -34.5t-32 -48.5t-25.5 -54t-19 -52t-13 -42q-20 -74 -41 -155.5t-40.5 -157t-36 -140t-26.5 -105.5z" />
    <glyph glyph-name="m_end" horiz-adv-x="838" 
d="M629 494q26 9 47 4.5t34.5 -18t19.5 -33.5t2 -42q-4 -23 -19 -79.5t-34 -131.5q-32 -127 -40.5 -208t-1 -126.5t27 -60.5t43.5 -9q25 6 47.5 23.5t37.5 41.5t21 52t-1 55q-2 4 2 6t8.5 2t9 -2t4.5 -6q3 -43 -13 -82t-42 -66.5t-58 -40t-60 -3.5q-36 12 -56 42t-27.5 70.5
t-6 87.5t8 93.5t16 89t16.5 72.5q12 50 21.5 93.5t15.5 76t6.5 52t-6.5 21.5q-20 6 -44 -18.5t-49.5 -66.5t-51 -95.5t-49 -105t-43.5 -95.5t-34 -66q-11 -17 -25 -21t-27 2t-23 19t-13 29q-5 23 -2 57t10.5 72.5t18 79t20.5 76.5q14 55 20.5 92t-7.5 41q-21 6 -45 -18.5
t-49.5 -66.5t-51 -95.5t-48.5 -105t-43 -95.5t-34 -66q-11 -17 -25 -21t-27.5 2t-23.5 19t-13 29q-6 31 1.5 80.5t20 103t27.5 104t24 82.5q5 17 15.5 16t21.5 -9.5t18.5 -19.5t6.5 -14q-2 -7 -9.5 -31t-17 -58t-20 -74t-17.5 -77t-10 -68t2 -47q3 -12 12.5 -0.5t23 39
t30.5 67t37 83.5t41.5 88.5t43.5 81.5t43.5 63.5t41.5 33.5q27 9 47.5 4.5t34.5 -18t19.5 -33.5t2.5 -42q-5 -30 -16 -71t-23.5 -86.5t-24 -91.5t-17.5 -85q0 -21 3 -33q4 -12 13 -0.5t22.5 39t31 67t37.5 83.5t41.5 88.5t43.5 81.5t43.5 63.5t41.5 33.5z" />
    <glyph glyph-name="n_end" horiz-adv-x="538" 
d="M433 407q-5 -26 -14 -61.5t-20 -75.5q-9 -31 -21.5 -81t-23.5 -106t-17 -111.5t-2.5 -98.5t20.5 -66.5t52 -15.5q25 6 47.5 23.5t38 42t21.5 52.5t-2 55q-1 4 2.5 6t8.5 2t9.5 -2t4.5 -6q3 -43 -13.5 -82t-42.5 -67t-58 -40.5t-60 -2.5q-40 13 -59.5 50t-25.5 87
t-1 107.5t14.5 112.5t21.5 102.5t20 77.5q8 33 15 61t10.5 49.5t2.5 35t-9 15.5q-20 6 -44 -18.5t-49.5 -66.5t-51 -95.5t-49 -105t-43.5 -95.5t-34 -66q-11 -17 -25 -21t-27 2t-23 19t-13 29q-6 31 1.5 80.5t20 103t27 104t23.5 82.5q5 16 15.5 15.5t21.5 -9t18.5 -19.5
t6.5 -14q-2 -7 -9.5 -31t-17 -58t-19.5 -74t-17.5 -77t-10.5 -68t2 -47q4 -12 13 -0.5t22.5 39t31 67t37.5 83.5t41.5 88.5t43.5 81.5t43.5 63.5t41.5 33.5q27 9 47.5 4.5t34.5 -18t19.5 -33.5t2.5 -42z" />
    <glyph glyph-name="o_end" horiz-adv-x="450" 
d="M340 194q3 11 7.5 32.5t7.5 47t3.5 51.5t-3.5 47q-5 24 -16.5 33.5t-24 6.5t-23 -18t-14.5 -39q-3 -21 -1.5 -44.5t9 -46t21.5 -41t34 -29.5zM335 175q-27 16 -44.5 38t-27 47t-11 51t3.5 51q6 27 21.5 46t34 24t35.5 -5t25 -41q6 -22 6.5 -50t-2 -56t-7.5 -53t-9 -40
q21 -11 44.5 -2t33.5 30q1 3 4.5 1t5.5 -6.5t2 -11t-5 -12.5q-10 -14 -36.5 -19.5t-53.5 2.5q-12 -37 -29 -70t-40 -58.5t-51.5 -42t-61.5 -19.5q-51 -3 -96 25q-42 26 -59.5 71.5t-16.5 99.5t17.5 110.5t42.5 104.5t58.5 82t65.5 44q30 9 54.5 1t40.5 -21t21 -25t-5 -10
q-16 2 -34.5 4.5t-32.5 -3.5q-26 -12 -50.5 -42.5t-45.5 -71.5t-35.5 -88t-19.5 -91.5t2 -82.5t30 -61q12 -12 28 -16.5t33 -5.5q30 -1 55.5 12t46 36.5t36 55.5t26.5 68z" />
    </font>
</defs>
</svg>
