<?xml version="1.0" encoding="utf-8"?>
<!-- Generator: Adobe Illustrator 16.0.1, SVG Export Plug-In . SVG Version: 6.00 Build 0)  -->
<!DOCTYPE svg PUBLIC "-//W3C//DTD SVG 1.1//EN" "http://www.w3.org/Graphics/SVG/1.1/DTD/svg11.dtd">
<svg version="1.1" id="Layer_1" xmlns="http://www.w3.org/2000/svg" xmlns:xlink="http://www.w3.org/1999/xlink" x="0px" y="0px"
	 width="70.866px" height="56.693px" viewBox="0 0 70.866 56.693" enable-background="new 0 0 70.866 56.693" xml:space="preserve">
<g>
	<path d="M28.338,28.001V7.642h13.945l-0.002,20.359l0.301,0.857l3.18,0.062l0.002-23.02c0-0.461-0.184-0.904-0.51-1.23
		s-0.77-0.508-1.23-0.508H26.598c-0.961,0-1.742,0.777-1.742,1.738v23.02l3.182-0.062L28.338,28.001z"/>
	<path d="M52.661,33.247c-0.137-0.424-0.529-0.713-0.975-0.723l-5.924-0.121l-3.48-0.07l-1.486-0.029l-0.697-0.014l-0.367-1.049
		l-3.436-9.779c-0.146-0.416-0.541-0.697-0.984-0.697s-0.84,0.281-0.986,0.697l-3.436,9.779l-0.367,1.049l-0.697,0.014l-1.486,0.029
		l-3.482,0.07l-5.922,0.121c-0.447,0.01-0.838,0.299-0.975,0.723c-0.137,0.426,0.012,0.889,0.367,1.156l9.229,6.924L24.202,52.29
		c-0.129,0.426,0.023,0.885,0.383,1.148c0.09,0.066,0.189,0.115,0.291,0.148c0.035,0.012,0.07,0.01,0.104,0.02
		c0.072,0.014,0.143,0.031,0.215,0.031c0.002,0,0.004,0.002,0.008,0.002c0.064,0,0.131-0.016,0.195-0.029
		c0.037-0.008,0.072-0.004,0.107-0.016c0.102-0.031,0.199-0.076,0.289-0.139l9.518-6.555l9.518,6.555
		c0.178,0.123,0.385,0.184,0.592,0.184c0.217,0,0.434-0.066,0.617-0.201c0.359-0.264,0.512-0.725,0.383-1.148l-3.355-10.963
		l9.229-6.924C52.649,34.136,52.797,33.673,52.661,33.247z"/>
</g>
</svg>
