<?xml version="1.0" encoding="utf-8"?>
<!-- Generator: Adobe Illustrator 16.0.3, SVG Export Plug-In . SVG Version: 6.00 Build 0)  -->
<!DOCTYPE svg PUBLIC "-//W3C//DTD SVG 1.1//EN" "http://www.w3.org/Graphics/SVG/1.1/DTD/svg11.dtd">
<svg version="1.1" id="Layer_1" xmlns="http://www.w3.org/2000/svg" xmlns:xlink="http://www.w3.org/1999/xlink" x="0px" y="0px"
	 width="56.693px" height="56.693px" viewBox="0 0 56.693 56.693" enable-background="new 0 0 56.693 56.693" xml:space="preserve">
<path d="M30.8,52.512c-0.969,0-1.809-0.672-2.02-1.621l-7.693-34.627l-4.621,18.049c-0.234,0.916-1.059,1.557-2.004,1.557H5.79
	c-1.145,0-2.07-0.926-2.07-2.07c0-1.143,0.926-2.068,2.07-2.068h7.064L19.224,6.85c0.236-0.928,1.076-1.6,2.037-1.557
	c0.959,0.016,1.779,0.688,1.988,1.621l7.443,33.496l3.799-19.035c0.174-0.873,0.889-1.537,1.771-1.648
	c0.887-0.115,1.736,0.352,2.123,1.154l4.562,9.475h7.955c1.145,0,2.07,0.926,2.07,2.07c0,1.143-0.926,2.068-2.07,2.068h-9.256
	c-0.795,0-1.52-0.455-1.863-1.172l-2.443-5.07l-4.51,22.594c-0.191,0.961-1.027,1.654-2.008,1.666
	C30.817,52.512,30.81,52.512,30.8,52.512L30.8,52.512z"/>
</svg>
