<?xml version="1.0" encoding="utf-8"?>
<!-- Generator: Adobe Illustrator 16.0.1, SVG Export Plug-In . SVG Version: 6.00 Build 0)  -->
<!DOCTYPE svg PUBLIC "-//W3C//DTD SVG 1.1//EN" "http://www.w3.org/Graphics/SVG/1.1/DTD/svg11.dtd">
<svg version="1.1" id="Layer_1" xmlns="http://www.w3.org/2000/svg" xmlns:xlink="http://www.w3.org/1999/xlink" x="0px" y="0px"
	 width="70.866px" height="56.693px" viewBox="0 0 70.866 56.693" enable-background="new 0 0 70.866 56.693" xml:space="preserve">
<g>
	<path d="M60.305,6.937H10.768c-1.02,0-1.846,0.829-1.846,1.849v41.347c0,1.022,0.827,1.85,1.846,1.85h49.538
		c1.023,0,1.85-0.827,1.85-1.85V8.785C62.155,7.765,61.329,6.937,60.305,6.937z M54.762,10.687c1.032,0,1.868,0.835,1.868,1.869
		c0,1.031-0.836,1.866-1.868,1.866c-1.029,0-1.867-0.834-1.867-1.866C52.895,11.522,53.733,10.687,54.762,10.687z M48.107,10.687
		c1.032,0,1.868,0.835,1.868,1.869c0,1.031-0.836,1.866-1.868,1.866c-1.029,0-1.865-0.834-1.865-1.866
		C46.242,11.522,47.078,10.687,48.107,10.687z M41.453,10.687c1.031,0,1.869,0.835,1.869,1.869c0,1.031-0.838,1.866-1.869,1.866
		c-1.032,0-1.866-0.834-1.866-1.866C39.586,11.522,40.42,10.687,41.453,10.687z M58.458,48.285h-45.84V17.782h45.84V48.285z"/>
	<path d="M32.397,40.075c0.127,0.047,0.269,0.02,0.373-0.067l3.348-2.914l3.019,5.598c0.051,0.092,0.137,0.159,0.237,0.187
		c0.029,0.006,0.059,0.01,0.09,0.01c0.073,0,0.146-0.021,0.204-0.067l3.008-2.021c0.083-0.06,0.144-0.148,0.161-0.248
		c0.014-0.101-0.012-0.205-0.076-0.285l-3.758-4.864l3.972-1.587c0.125-0.05,0.213-0.162,0.229-0.294
		c0.02-0.13-0.031-0.262-0.14-0.344l-12.492-9.634c-0.119-0.092-0.283-0.1-0.41-0.026c-0.132,0.074-0.203,0.219-0.182,0.368
		l2.18,15.893C32.178,39.912,32.269,40.026,32.397,40.075z"/>
</g>
</svg>
