<?xml version="1.0" encoding="utf-8"?>
<!-- Generator: Adobe Illustrator 16.0.3, SVG Export Plug-In . SVG Version: 6.00 Build 0)  -->
<!DOCTYPE svg PUBLIC "-//W3C//DTD SVG 1.1//EN" "http://www.w3.org/Graphics/SVG/1.1/DTD/svg11.dtd">
<svg version="1.1" id="Layer_1" xmlns="http://www.w3.org/2000/svg" xmlns:xlink="http://www.w3.org/1999/xlink" x="0px" y="0px"
	 width="56.693px" height="56.693px" viewBox="0 0 56.693 56.693" enable-background="new 0 0 56.693 56.693" xml:space="preserve">
<g>
	<path d="M29.632,4.802c-0.192-0.27-0.506-0.428-0.838-0.428c0,0,0,0-0.001,0c-0.33,0-0.642,0.157-0.837,0.428l-5.076,6.968
		c-0.227,0.315-0.261,0.731-0.085,1.078c0.174,0.348,0.53,0.566,0.918,0.569l2.325,0.012v40.977h5.53V13.458l2.313,0.015
		c0.003,0,0.003,0,0.004,0c0.005,0,0.006,0,0.007,0c0.581-0.015,1.046-0.463,1.046-1.037c0-0.281-0.114-0.54-0.295-0.726
		L29.632,4.802z"/>
	<path d="M51.275,24.275l-1.336-8.406c-0.05-0.326-0.256-0.609-0.551-0.762c-0.298-0.151-0.646-0.15-0.942,0l-7.68,3.917
		c-0.35,0.178-0.566,0.533-0.566,0.922c0,0.389,0.216,0.747,0.562,0.925l1.814,0.933l-6.459,10.594
		c-0.263,0.434-0.403,0.932-0.403,1.439v20.567h5.529V34.614l6.264-10.272l2.296,1.183c0.149,0.079,0.311,0.117,0.473,0.117
		c0.004,0,0.01,0,0.014,0c0.574,0,1.037-0.464,1.037-1.037C51.326,24.489,51.309,24.378,51.275,24.275z"/>
	<path d="M13.947,32.97l1.494-1.722c0.255-0.295,0.326-0.708,0.178-1.07c-0.147-0.361-0.485-0.611-0.877-0.643l-8.645-0.713
		c-0.333-0.031-0.656,0.104-0.872,0.355c-0.218,0.25-0.301,0.591-0.226,0.913l1.979,8.393c0.091,0.378,0.384,0.673,0.764,0.768
		c0.08,0.019,0.165,0.029,0.247,0.029c0.294,0,0.583-0.126,0.782-0.355l1.512-1.739l6.077,6.996v10.224h5.53V43.146
		c0-0.667-0.24-1.312-0.677-1.812L13.947,32.97z"/>
</g>
</svg>
