<?xml version="1.0" encoding="utf-8"?>
<!-- Generator: Adobe Illustrator 16.0.1, SVG Export Plug-In . SVG Version: 6.00 Build 0)  -->
<!DOCTYPE svg PUBLIC "-//W3C//DTD SVG 1.1//EN" "http://www.w3.org/Graphics/SVG/1.1/DTD/svg11.dtd">
<svg version="1.1" id="Layer_1" xmlns="http://www.w3.org/2000/svg" xmlns:xlink="http://www.w3.org/1999/xlink" x="0px" y="0px"
	 width="56.693px" height="56.693px" viewBox="0 0 56.693 56.693" enable-background="new 0 0 56.693 56.693" xml:space="preserve">
<path d="M47.989,18.161l-7.354-7.25c-0.319-0.314-0.749-0.491-1.197-0.491H28.85c0.008-0.071,0.021-0.145,0.021-0.22
	c0-3.337-2.814-6.051-6.276-6.051c-3.46,0-6.274,2.714-6.274,6.051v0.22h-5.993c-0.941,0-1.704,0.765-1.704,1.706v40.573
	c0,0.941,0.763,1.706,1.704,1.706h36.464c0.941,0,1.704-0.765,1.704-1.706V19.374C48.496,18.918,48.313,18.48,47.989,18.161z
	 M19.852,10.2c0-1.391,1.231-2.521,2.743-2.521c1.514,0,2.747,1.129,2.747,2.521c0,0.075,0.012,0.149,0.021,0.22h-5.511V10.2z
	 M45.086,50.995H12.034V13.833h4.287v12.301c0,3.335,2.814,6.05,6.274,6.05c3.462,0,6.276-2.715,6.276-6.05v-7.077
	c0-0.975-0.791-1.764-1.766-1.764s-1.764,0.789-1.764,1.764v7.077c0,1.389-1.233,2.519-2.747,2.519
	c-1.512,0-2.743-1.129-2.743-2.519V13.833h18.563v5.559c0,0.565,0.458,1.023,1.022,1.023h5.648V50.995z"/>
</svg>
