<?xml version="1.0" encoding="utf-8"?>
<!-- Generator: Adobe Illustrator 16.0.1, SVG Export Plug-In . SVG Version: 6.00 Build 0)  -->
<!DOCTYPE svg PUBLIC "-//W3C//DTD SVG 1.1//EN" "http://www.w3.org/Graphics/SVG/1.1/DTD/svg11.dtd">
<svg version="1.1" id="Layer_1" xmlns="http://www.w3.org/2000/svg" xmlns:xlink="http://www.w3.org/1999/xlink" x="0px" y="0px"
	 width="70.866px" height="56.693px" viewBox="0 0 70.866 56.693" enable-background="new 0 0 70.866 56.693" xml:space="preserve">
<path d="M62.04,45.206L40.556,7.358c-1.047-1.846-3.002-2.984-5.123-2.984s-4.076,1.139-5.123,2.984L8.827,45.206
	c-1.035,1.822-1.022,4.061,0.032,5.873c1.055,1.811,2.995,2.928,5.092,2.928h42.965c2.097,0,4.035-1.117,5.09-2.928
	C63.062,49.267,63.074,47.028,62.04,45.206z M38.369,47.052c-0.721,0.641-1.576,0.965-2.539,0.965c-0.976,0-1.839-0.32-2.568-0.951
	c-0.744-0.646-1.122-1.553-1.122-2.693c0-1.002,0.356-1.865,1.06-2.568c0.703-0.699,1.573-1.057,2.588-1.057
	c1.012,0,1.889,0.354,2.605,1.055c0.72,0.703,1.084,1.568,1.084,2.57C39.476,45.497,39.103,46.397,38.369,47.052z M39.322,22.681
	l-0.936,10.719c-0.105,1.334-0.331,2.34-0.689,3.07c-0.396,0.811-1.086,1.238-1.997,1.238c-0.929,0-1.614-0.42-1.98-1.215
	c-0.325-0.705-0.55-1.73-0.686-3.135l-0.698-10.432c-0.131-2.061-0.196-3.5-0.196-4.396c0-1.299,0.354-2.334,1.05-3.078
	c0.703-0.752,1.637-1.135,2.771-1.135c1.399,0,2.356,0.51,2.847,1.51c0.45,0.924,0.669,2.201,0.669,3.9
	C39.476,20.69,39.425,21.683,39.322,22.681z"/>
</svg>
