<?xml version="1.0" encoding="utf-8"?>
<!-- Generator: Adobe Illustrator 16.0.1, SVG Export Plug-In . SVG Version: 6.00 Build 0)  -->
<!DOCTYPE svg PUBLIC "-//W3C//DTD SVG 1.1//EN" "http://www.w3.org/Graphics/SVG/1.1/DTD/svg11.dtd">
<svg version="1.1" id="Layer_1" xmlns="http://www.w3.org/2000/svg" xmlns:xlink="http://www.w3.org/1999/xlink" x="0px" y="0px"
	 width="70.866px" height="56.693px" viewBox="0 0 70.866 56.693" enable-background="new 0 0 70.866 56.693" xml:space="preserve">
<path d="M35.173,4.532c-13.679,0-24.769,11.09-24.769,24.771c0,13.68,11.09,24.77,24.769,24.77c13.682,0,24.771-11.09,24.771-24.77
	C59.945,15.622,48.855,4.532,35.173,4.532z M40.208,45.712c-0.085,0.029-0.172,0.043-0.258,0.043c-0.301,0-0.584-0.178-0.705-0.471
	c-0.156-0.377,0.012-0.809,0.38-0.984c3.587-1.691,5.644-4.121,5.644-6.666c0-4.299-5.941-7.801-14.134-8.34l0.001,4.076
	c0,0.5-0.281,0.955-0.725,1.184c-0.09,0.045-0.186,0.076-0.283,0.098c-0.086,0.021-0.173,0.029-0.262,0.033h-0.001
	c-0.294,0.014-0.589-0.061-0.836-0.238l-10.116-8.873c-0.343-0.25-0.546-0.648-0.547-1.074c0-0.424,0.205-0.824,0.547-1.074
	l10.115-8.871c0.404-0.295,0.938-0.336,1.383-0.107c0.119,0.059,0.225,0.139,0.316,0.229c0.007,0.006,0.014,0.008,0.019,0.014
	c0.069,0.068,0.127,0.146,0.179,0.227c0.015,0.023,0.023,0.045,0.037,0.066c0.04,0.076,0.074,0.152,0.102,0.232
	c0.009,0.029,0.019,0.059,0.026,0.088c0.026,0.105,0.045,0.213,0.045,0.326v1.986l0.001,1.951c0.026,0,0.05-0.012,0.076-0.008
	c11.969,1.207,20.653,7.129,20.653,14.076C51.866,38.581,47.508,43.097,40.208,45.712z"/>
</svg>
