<?xml version="1.0" encoding="utf-8"?>
<!-- Generator: Adobe Illustrator 16.0.1, SVG Export Plug-In . SVG Version: 6.00 Build 0)  -->
<!DOCTYPE svg PUBLIC "-//W3C//DTD SVG 1.1//EN" "http://www.w3.org/Graphics/SVG/1.1/DTD/svg11.dtd">
<svg version="1.1" id="Layer_1" xmlns="http://www.w3.org/2000/svg" xmlns:xlink="http://www.w3.org/1999/xlink" x="0px" y="0px"
	 width="56.693px" height="56.693px" viewBox="0 0 56.693 56.693" enable-background="new 0 0 56.693 56.693" xml:space="preserve">
<g>
	<path d="M22.959,23.209H11.22c-0.386,0-0.696,0.312-0.696,0.697c0,0.383,0.311,0.693,0.696,0.693h11.739
		c0.383,0,0.694-0.311,0.694-0.693C23.653,23.521,23.342,23.209,22.959,23.209z"/>
	<path d="M22.959,28.932H11.22c-0.386,0-0.696,0.312-0.696,0.695c0,0.385,0.311,0.695,0.696,0.695h11.739
		c0.383,0,0.694-0.311,0.694-0.695C23.653,29.244,23.342,28.932,22.959,28.932z"/>
	<path d="M22.959,34.654H11.22c-0.386,0-0.696,0.312-0.696,0.697c0,0.383,0.311,0.695,0.696,0.695h11.739
		c0.383,0,0.694-0.312,0.694-0.695C23.653,34.967,23.342,34.654,22.959,34.654z"/>
	<path d="M33.988,23.906c0,0.383,0.311,0.693,0.694,0.693h11.739c0.385,0,0.695-0.311,0.695-0.693c0-0.385-0.311-0.697-0.695-0.697
		H34.683C34.299,23.209,33.988,23.521,33.988,23.906z"/>
	<path d="M46.422,28.932H34.683c-0.384,0-0.694,0.312-0.694,0.695c0,0.385,0.311,0.695,0.694,0.695h11.739
		c0.385,0,0.695-0.311,0.695-0.695C47.117,29.244,46.807,28.932,46.422,28.932z"/>
	<path d="M46.422,34.654H34.683c-0.384,0-0.694,0.312-0.694,0.697c0,0.383,0.311,0.695,0.694,0.695h11.739
		c0.385,0,0.695-0.312,0.695-0.695C47.117,34.967,46.807,34.654,46.422,34.654z"/>
	<path d="M40.471,11.438c-4.309,0-9.121,0.66-11.631,2.354c-2.51-1.693-7.321-2.354-11.631-2.354c-6.168,0-13.369,1.348-13.369,5.15
		v30.369c0,0.514,0.227,0.998,0.619,1.328s0.91,0.471,1.416,0.383c3.42-0.592,7.338-0.904,11.334-0.904s7.914,0.312,11.334,0.904
		c0.047,0.01,0.093,0.01,0.14,0.014c0.037,0.004,0.073,0.006,0.11,0.008c0.016,0.002,0.031,0.004,0.047,0.004
		c0.093,0,0.186-0.008,0.277-0.023c0.006-0.002,0.012,0,0.02-0.002c3.42-0.592,7.338-0.904,11.334-0.904s7.915,0.312,11.334,0.904
		c0.099,0.018,0.199,0.025,0.297,0.025c0.406,0,0.803-0.141,1.119-0.408c0.393-0.33,0.619-0.814,0.619-1.328V16.588
		C53.84,12.785,46.639,11.438,40.471,11.438z M7.316,44.93V16.807c0.703-0.688,4.176-1.893,9.893-1.893
		c5.716,0,9.189,1.205,9.893,1.893V44.93c-3.092-0.422-6.469-0.643-9.893-0.643S10.407,44.508,7.316,44.93z M50.363,44.93
		c-6.183-0.844-13.604-0.844-19.785,0V16.807c0.703-0.688,4.176-1.893,9.893-1.893s9.189,1.205,9.893,1.893V44.93z"/>
</g>
</svg>
