<?xml version="1.0" encoding="utf-8"?>
<!-- Generator: Adobe Illustrator 16.0.1, SVG Export Plug-In . SVG Version: 6.00 Build 0)  -->
<!DOCTYPE svg PUBLIC "-//W3C//DTD SVG 1.1//EN" "http://www.w3.org/Graphics/SVG/1.1/DTD/svg11.dtd">
<svg version="1.1" id="Layer_1" xmlns="http://www.w3.org/2000/svg" xmlns:xlink="http://www.w3.org/1999/xlink" x="0px" y="0px"
	 width="70.866px" height="56.693px" viewBox="0 0 70.866 56.693" enable-background="new 0 0 70.866 56.693" xml:space="preserve">
<path d="M49.309,4.951c-0.371-0.37-0.869-0.577-1.391-0.577H22.949c-1.083,0-1.965,0.88-1.965,1.964l0.002,45.974
	c-0.002,0.791,0.479,1.51,1.211,1.814c0.732,0.302,1.578,0.136,2.139-0.424l11.097-11.078l11.094,11.074
	c0.563,0.563,1.407,0.733,2.14,0.428c0.243-0.1,0.458-0.249,0.637-0.428c0.362-0.36,0.577-0.854,0.575-1.389l0.002-45.972
	C49.884,5.817,49.675,5.319,49.309,4.951z"/>
</svg>
