<?xml version="1.0" encoding="utf-8"?>
<!-- Generator: Adobe Illustrator 16.0.1, SVG Export Plug-In . SVG Version: 6.00 Build 0)  -->
<!DOCTYPE svg PUBLIC "-//W3C//DTD SVG 1.1//EN" "http://www.w3.org/Graphics/SVG/1.1/DTD/svg11.dtd">
<svg version="1.1" id="Layer_1" xmlns="http://www.w3.org/2000/svg" xmlns:xlink="http://www.w3.org/1999/xlink" x="0px" y="0px"
	 width="70.866px" height="56.693px" viewBox="0 0 70.866 56.693" enable-background="new 0 0 70.866 56.693" xml:space="preserve">
<g>
	<path d="M40.744,16.06c-1.027-0.527-2.289-0.122-2.817,0.907c-0.526,1.029-0.121,2.29,0.905,2.817
		c4.971,2.551,6.939,8.668,4.389,13.639c-0.525,1.026-0.123,2.287,0.906,2.815c1.029,0.529,2.289,0.122,2.817-0.905
		C50.547,28.31,47.766,19.663,40.744,16.06z"/>
	<path d="M45.626,6.545c-1.025-0.527-2.287-0.121-2.814,0.906c-0.529,1.029-0.123,2.29,0.905,2.819
		c10.218,5.242,14.261,17.82,9.02,28.036c-0.53,1.029-0.121,2.289,0.903,2.816c1.029,0.527,2.291,0.121,2.82-0.905
		C62.755,27.946,57.896,12.841,45.626,6.545z"/>
	<path d="M37.208,37.633c-0.168-0.523-0.723-0.817-1.255-0.665l-0.336,0.107c-0.915,0.289-3.54,1.119-3.792,1.19
		c-0.064,0.021-0.127,0.03-0.195,0.03l0,0c-1.643,0-4.607-5.096-5.598-10.824c-0.594-3.444-0.087-5.29,0.602-5.536l4.148-1.314
		c0.258-0.081,0.473-0.261,0.596-0.501c0.125-0.238,0.149-0.52,0.067-0.775L27.053,5.494c-0.082-0.256-0.262-0.471-0.502-0.596
		c-0.24-0.123-0.519-0.145-0.777-0.065l-0.647,0.207c-1.17,0.372-3.509,1.114-3.57,1.134l-0.147,0.051
		c-5.252,1.785-10.426,6.529-3.761,27.55c4.462,14.074,9.574,20.919,15.623,20.919h0.002c1.32,0,2.43-0.323,3.238-0.56l0.253-0.073
		c0.171-0.049,4.168-1.306,4.277-1.346c0.515-0.188,0.786-0.747,0.62-1.268L37.208,37.633z"/>
</g>
</svg>
