<?xml version="1.0" encoding="utf-8"?>
<!-- Generator: Adobe Illustrator 16.0.1, SVG Export Plug-In . SVG Version: 6.00 Build 0)  -->
<!DOCTYPE svg PUBLIC "-//W3C//DTD SVG 1.1//EN" "http://www.w3.org/Graphics/SVG/1.1/DTD/svg11.dtd">
<svg version="1.1" id="Layer_1" xmlns="http://www.w3.org/2000/svg" xmlns:xlink="http://www.w3.org/1999/xlink" x="0px" y="0px"
	 width="70.866px" height="56.693px" viewBox="0 0 70.866 56.693" enable-background="new 0 0 70.866 56.693" xml:space="preserve">
<path d="M59.536,26.782c-0.037-0.053-1.438-1.988-2.389-3.301l0.743-0.74c0.675-0.676,0.675-1.771,0-2.445L42.164,4.567
	c-0.649-0.648-1.798-0.648-2.446,0L11.178,33.108c-0.677,0.676-0.677,1.77,0,2.445l8.561,8.561v1.91c0,0,0,0.553,0,0.846
	c0,4.438,8.135,6.76,16.17,6.76s16.172-2.322,16.172-6.76c0-0.293,0-0.846,0-0.846v-5.088v-5.928v-0.693l7.07-5.117
	c0.371-0.268,0.621-0.676,0.691-1.129C59.917,27.618,59.807,27.153,59.536,26.782z M19.754,34.745
	c-0.006,0.088-0.016,0.174-0.016,0.264v4.217l-4.895-4.895L40.941,8.233l13.283,13.283l-8.131,8.133
	c-2.911-0.93-6.557-1.404-10.185-1.404C28.034,28.245,20.069,30.478,19.754,34.745z M35.909,50.864
	c-2.153,0-4.062-0.162-5.717-0.428c-2.68-0.43-4.682-1.129-5.974-1.844c-1.112-0.613-1.7-1.238-1.712-1.711
	c0-0.004-0.002-0.008-0.002-0.012c0-0.387,0.395-0.875,1.137-1.377c1.051,0.49,2.266,0.902,3.594,1.23
	c0.477,0.115,0.963,0.223,1.461,0.318c0.01,0.004,0.02,0.004,0.029,0.006c1.37,0.264,2.822,0.447,4.307,0.551
	c0.21,0.014,0.422,0.027,0.636,0.039c0.743,0.041,1.492,0.062,2.241,0.062c4.559,0,9.148-0.75,12.27-2.207
	c0.744,0.502,1.137,0.99,1.137,1.377C49.315,48.224,44.583,50.864,35.909,50.864z M48.178,42.312
	c-0.419,0.281-0.942,0.566-1.586,0.844c-0.621,0.264-1.357,0.518-2.186,0.746c-1.836,0.512-4.162,0.898-6.964,1.004
	c-0.495,0.018-1.007,0.029-1.534,0.029c-0.07,0-0.138-0.004-0.211-0.004c-1.404-0.008-2.699-0.086-3.891-0.213
	c-0.237-0.027-0.471-0.055-0.699-0.084c-1.396-0.182-2.631-0.436-3.697-0.732c-0.827-0.229-1.562-0.482-2.184-0.746
	c-0.646-0.277-1.169-0.562-1.588-0.844c-0.74-0.502-1.135-0.99-1.135-1.375s0.393-0.873,1.135-1.373
	c1.209,0.564,2.643,1.023,4.207,1.375c1.475,0.328,3.068,0.559,4.705,0.695c0.486,0.037,0.973,0.068,1.464,0.092
	c0.619,0.029,1.241,0.043,1.864,0.043c0.01,0,0.02,0,0.029,0c1.025,0,2.052-0.037,3.064-0.111c0.098-0.008,0.195-0.016,0.294-0.023
	c1.116-0.092,2.214-0.227,3.265-0.412c0.491-0.084,0.971-0.18,1.439-0.283c1.566-0.352,2.997-0.811,4.209-1.375
	c0.742,0.5,1.135,0.988,1.135,1.373S48.922,41.81,48.178,42.312z M50.029,31.532c-0.06-0.045-0.615-0.334-0.808-0.455
	c0,0,5.256-5.035,5.303-4.973c0,0,0.927,0.924,1.199,1.307L50.029,31.532z"/>
</svg>
