<?xml version="1.0" encoding="utf-8"?>
<!-- Generator: Adobe Illustrator 16.0.1, SVG Export Plug-In . SVG Version: 6.00 Build 0)  -->
<!DOCTYPE svg PUBLIC "-//W3C//DTD SVG 1.1//EN" "http://www.w3.org/Graphics/SVG/1.1/DTD/svg11.dtd">
<svg version="1.1" id="Layer_1" xmlns="http://www.w3.org/2000/svg" xmlns:xlink="http://www.w3.org/1999/xlink" x="0px" y="0px"
	 width="70.866px" height="56.693px" viewBox="0 0 70.866 56.693" enable-background="new 0 0 70.866 56.693" xml:space="preserve">
<g>
	<path d="M60.876,4.597H9.994c-1.054,0-1.91,0.855-1.91,1.908v45.732c0,1.055,0.856,1.908,1.91,1.908h50.882
		c1.055,0,1.906-0.854,1.906-1.908V6.505C62.783,5.452,61.931,4.597,60.876,4.597z M58.966,50.327H15.488V8.415h43.478V50.327z"/>
	<path d="M33.862,22.294l-4.909-4.908c-2.001,1.389-3.638,3.264-4.735,5.455l5.287,5.289C29.919,25.552,31.584,23.392,33.862,22.294
		z"/>
	<path d="M36.565,21.548l-5.418-5.422c-0.396,0.184-0.781,0.385-1.156,0.6l5.096,5.1C35.565,21.688,36.058,21.593,36.565,21.548z"/>
	<path d="M41.066,36.239l4.859,4.857c1.959-1.451,3.541-3.381,4.572-5.617l-5.418-5.422C44.847,32.72,43.287,35.001,41.066,36.239z"
		/>
	<path d="M38.498,37.12l5.289,5.293c0.389-0.195,0.764-0.406,1.129-0.631l-5.02-5.016C39.447,36.927,38.98,37.042,38.498,37.12z"/>
	<path d="M37.255,47.589c10.047,0,18.219-8.172,18.219-18.217s-8.172-18.219-18.219-18.219c-10.044,0-18.217,8.174-18.217,18.219
		S27.211,47.589,37.255,47.589z M28.211,16.64c0.331-0.236,0.669-0.461,1.022-0.672c0.367-0.223,0.75-0.426,1.133-0.617
		c2.082-1.029,4.42-1.605,6.889-1.605c8.619,0,15.627,7.008,15.627,15.627c0,2.471-0.578,4.807-1.604,6.885
		c-1.086,2.199-2.672,4.111-4.611,5.58c-0.326,0.244-0.66,0.475-1.002,0.697c-0.361,0.229-0.73,0.445-1.107,0.646
		c-2.182,1.158-4.666,1.818-7.303,1.818c-8.614,0-15.624-7.012-15.624-15.627c0-2.637,0.656-5.119,1.812-7.303
		C24.593,19.909,26.23,18.052,28.211,16.64z"/>
	<path d="M31.212,29.372c0,0.164,0.012,0.326,0.024,0.488c0.239,2.941,2.587,5.295,5.528,5.531c0.165,0.012,0.327,0.023,0.491,0.023
		c0.406,0,0.795-0.041,1.176-0.115c0.447-0.09,0.875-0.23,1.285-0.41c2.109-0.947,3.584-3.061,3.584-5.518
		c0-0.227-0.016-0.445-0.037-0.662c-0.307-2.775-2.49-4.984-5.25-5.33c-0.248-0.029-0.502-0.055-0.758-0.055
		c-0.211,0-0.422,0.014-0.631,0.035c-0.479,0.049-0.939,0.16-1.379,0.318C32.899,24.509,31.212,26.743,31.212,29.372z
		 M37.255,26.956c1.336,0,2.416,1.08,2.416,2.416c0,1.332-1.08,2.416-2.416,2.416c-1.331,0-2.417-1.084-2.417-2.416
		C34.838,28.036,35.925,26.956,37.255,26.956z"/>
</g>
</svg>
