<?xml version="1.0" encoding="utf-8"?>
<!-- Generator: Adobe Illustrator 16.0.1, SVG Export Plug-In . SVG Version: 6.00 Build 0)  -->
<!DOCTYPE svg PUBLIC "-//W3C//DTD SVG 1.1//EN" "http://www.w3.org/Graphics/SVG/1.1/DTD/svg11.dtd">
<svg version="1.1" id="Layer_1" xmlns="http://www.w3.org/2000/svg" xmlns:xlink="http://www.w3.org/1999/xlink" x="0px" y="0px"
	 width="70.866px" height="56.693px" viewBox="0 0 70.866 56.693" enable-background="new 0 0 70.866 56.693" xml:space="preserve">
<g>
	<path d="M52.935,23.216c-0.035,0.495-0.087,1.006-0.165,1.545c-1.287,8.911-8.351,15.379-16.797,15.379h-2.75l-0.506,0.525
		c1.897,3.52,5.424,5.819,9.389,5.819h2.732l5.413,5.648c0.35,0.365,0.823,0.56,1.307,0.56c0.227,0,0.455-0.044,0.675-0.133
		c0.687-0.273,1.135-0.938,1.135-1.676v-4.617c5.037-1.047,8.766-5.777,8.766-11.493C62.133,28.928,58.135,24.086,52.935,23.216z"/>
	<path d="M50.192,24.39c0.125-0.875,0.187-1.662,0.187-2.408c0-8.576-6.462-15.554-14.406-15.554H23.527
		c-7.944,0-14.406,6.978-14.406,15.554c0,7.696,5.086,14.049,11.905,15.32v6.556c0,0.859,0.524,1.636,1.323,1.955
		c0.256,0.102,0.521,0.154,0.784,0.154c0.566,0,1.118-0.229,1.524-0.652l7.452-7.78h3.863C43.112,37.535,49.091,32.008,50.192,24.39
		z M19.523,17.174H39.77c0.566,0,1.027,0.488,1.027,1.086c0,0.599-0.461,1.085-1.027,1.085H19.523c-0.567,0-1.028-0.486-1.028-1.085
		C18.495,17.662,18.956,17.174,19.523,17.174z M31.68,27.25H19.523c-0.567,0-1.028-0.486-1.028-1.086
		c0-0.599,0.461-1.086,1.028-1.086H31.68c0.566,0,1.027,0.487,1.027,1.086C32.707,26.763,32.246,27.25,31.68,27.25z"/>
</g>
</svg>
