<?xml version="1.0" encoding="utf-8"?>
<!-- Generator: Adobe Illustrator 16.0.1, SVG Export Plug-In . SVG Version: 6.00 Build 0)  -->
<!DOCTYPE svg PUBLIC "-//W3C//DTD SVG 1.1//EN" "http://www.w3.org/Graphics/SVG/1.1/DTD/svg11.dtd">
<svg version="1.1" id="Layer_1" xmlns="http://www.w3.org/2000/svg" xmlns:xlink="http://www.w3.org/1999/xlink" x="0px" y="0px"
	 width="70.866px" height="56.693px" viewBox="0 0 70.866 56.693" enable-background="new 0 0 70.866 56.693" xml:space="preserve">
<path d="M53.008,11.653c-9.709-9.707-25.443-9.705-35.15,0c-9.709,9.711-9.711,25.447-0.002,35.154
	c9.707,9.709,25.447,9.711,35.156,0.002C62.719,37.104,62.715,21.362,53.008,11.653z M45.368,39.171
	c-1.135,1.137-2.977,1.139-4.111,0.004l-5.83-5.83l-5.814,5.816c-1.139,1.139-2.975,1.146-4.115,0.006
	c-1.135-1.137-1.135-2.977,0.006-4.115l5.814-5.816L25.5,23.417c-1.141-1.139-1.133-2.977,0.002-4.111
	c1.137-1.139,2.971-1.141,4.109,0l5.818,5.816l5.822-5.822c1.139-1.139,2.975-1.135,4.109,0c1.141,1.141,1.139,2.973,0,4.109
	l-5.822,5.822l5.83,5.83C46.502,36.196,46.506,38.034,45.368,39.171z"/>
</svg>
