<?xml version="1.0" encoding="utf-8"?>
<!-- Generator: Adobe Illustrator 16.0.3, SVG Export Plug-In . SVG Version: 6.00 Build 0)  -->
<!DOCTYPE svg PUBLIC "-//W3C//DTD SVG 1.1//EN" "http://www.w3.org/Graphics/SVG/1.1/DTD/svg11.dtd">
<svg version="1.1" id="Layer_1" xmlns="http://www.w3.org/2000/svg" xmlns:xlink="http://www.w3.org/1999/xlink" x="0px" y="0px"
	 width="56.693px" height="56.693px" viewBox="0 0 56.693 56.693" enable-background="new 0 0 56.693 56.693" xml:space="preserve">
<g>
	<g>
		<path d="M8.043,25.668v26.736c0,0.726,0.59,1.315,1.315,1.315h1.377c0.726,0,1.315-0.59,1.315-1.315V25.668H8.043z"/>
		<path d="M12.051,8.313V6.556c0-0.724-0.59-1.313-1.315-1.313H9.358c-0.726,0-1.315,0.59-1.315,1.313v1.758H12.051z"/>
		<path d="M14.559,10.942H5.535c-0.544,0-0.984,0.371-0.984,0.827v10.442c0,0.456,0.44,0.827,0.984,0.827h9.023
			c0.544,0,0.986-0.372,0.986-0.827V11.77C15.545,11.313,15.103,10.942,14.559,10.942z"/>
	</g>
	<g>
		<path d="M26.455,46.258v6.146c0,0.726,0.588,1.315,1.315,1.315h1.376c0.728,0,1.315-0.59,1.315-1.315v-6.146H26.455z"/>
		<path d="M30.462,28.9V6.556c0-0.724-0.588-1.313-1.315-1.313H27.77c-0.728,0-1.315,0.59-1.315,1.313V28.9H30.462z"/>
		<path d="M32.97,31.53h-9.023c-0.543,0-0.986,0.37-0.986,0.827v10.443c0,0.457,0.442,0.827,0.986,0.827h9.023
			c0.544,0,0.986-0.37,0.986-0.827V32.357C33.956,31.9,33.514,31.53,32.97,31.53z"/>
	</g>
	<g>
		<path d="M48.873,15.587V6.556c0-0.724-0.589-1.313-1.315-1.313h-1.376c-0.728,0-1.315,0.59-1.315,1.313v9.031H48.873z"/>
		<path d="M44.866,32.945v19.459c0,0.726,0.588,1.315,1.315,1.315h1.376c0.727,0,1.315-0.59,1.315-1.315V32.945H44.866z"/>
		<path d="M51.25,18.218h-9.022c-0.546,0-0.986,0.37-0.986,0.829v10.44c0,0.458,0.44,0.827,0.986,0.827h9.022
			c0.545,0,0.985-0.369,0.985-0.827v-10.44C52.235,18.587,51.795,18.218,51.25,18.218z"/>
	</g>
</g>
</svg>
