<?xml version="1.0" encoding="utf-8"?>
<!-- Generator: Adobe Illustrator 16.0.3, SVG Export Plug-In . SVG Version: 6.00 Build 0)  -->
<!DOCTYPE svg PUBLIC "-//W3C//DTD SVG 1.1//EN" "http://www.w3.org/Graphics/SVG/1.1/DTD/svg11.dtd">
<svg version="1.1" id="Layer_1" xmlns="http://www.w3.org/2000/svg" xmlns:xlink="http://www.w3.org/1999/xlink" x="0px" y="0px"
	 width="56.693px" height="56.693px" viewBox="0 0 56.693 56.693" enable-background="new 0 0 56.693 56.693" xml:space="preserve">
<g>
	<path d="M44.238,36.729H30.862c-0.398,0-0.719,0.32-0.719,0.718s0.32,0.72,0.719,0.72h13.376c0.398,0,0.72-0.322,0.72-0.72
		S44.637,36.729,44.238,36.729z"/>
	<path d="M49.539,11.558H7.155c-2.499,0-4.533,2.033-4.533,4.532v27.299c0,2.497,2.034,4.531,4.533,4.531h42.384
		c2.499,0,4.531-2.034,4.531-4.531V16.09C54.07,13.591,52.038,11.558,49.539,11.558z M7.155,15.155h42.384
		c0.518,0,0.938,0.418,0.938,0.935v4.24H6.218v-4.24C6.218,15.573,6.638,15.155,7.155,15.155z M49.539,44.324H7.155
		c-0.518,0-0.938-0.421-0.938-0.936V28.156h44.259v15.232C50.477,43.903,50.057,44.324,49.539,44.324z"/>
</g>
</svg>
