<?xml version="1.0" encoding="utf-8"?>
<!-- Generator: Adobe Illustrator 16.0.1, SVG Export Plug-In . SVG Version: 6.00 Build 0)  -->
<!DOCTYPE svg PUBLIC "-//W3C//DTD SVG 1.1//EN" "http://www.w3.org/Graphics/SVG/1.1/DTD/svg11.dtd">
<svg version="1.1" id="Layer_1" xmlns="http://www.w3.org/2000/svg" xmlns:xlink="http://www.w3.org/1999/xlink" x="0px" y="0px"
	 width="70.866px" height="56.693px" viewBox="0 0 70.866 56.693" enable-background="new 0 0 70.866 56.693" xml:space="preserve">
<g>
	<path d="M35.322,5.241c-16.286,0-29.534,13.251-29.534,29.537c0,6.891,2.425,13.6,6.833,18.89c0.391,0.47,0.968,0.738,1.577,0.738
		h42.25c0.61,0,1.188-0.269,1.577-0.738c4.406-5.29,6.834-11.999,6.834-18.89C64.859,18.492,51.608,5.241,35.322,5.241z
		 M55.462,50.303H15.182c-3.416-4.433-5.289-9.909-5.289-15.525c0-14.022,11.408-25.429,25.429-25.429
		c14.023,0,25.433,11.407,25.433,25.429C60.754,40.394,58.881,45.87,55.462,50.303z"/>
	<path d="M37.578,38.175h0.002L24.277,27.171l-0.005,0.005c-0.377-0.319-0.858-0.517-1.39-0.517c-1.2,0-2.173,0.971-2.171,2.17
		c0,0.507,0.18,0.968,0.474,1.338l-0.004,0.002l10.987,13.251c0.14,0.219,0.295,0.424,0.475,0.607l0.033,0.04l0,0
		c0.698,0.703,1.665,1.145,2.737,1.145c2.126,0,3.852-1.726,3.852-3.853C39.264,40.036,38.595,38.867,37.578,38.175z"/>
	<path d="M15.882,33.867h-2.125c-0.681,0-1.231,0.551-1.231,1.231c0,0.68,0.55,1.231,1.231,1.231h2.125
		c0.682,0,1.234-0.552,1.234-1.231C17.116,34.418,16.564,33.867,15.882,33.867z"/>
	<path d="M22.004,22.338c0.481-0.481,0.481-1.261,0-1.742L20.4,18.994c-0.481-0.481-1.258-0.481-1.74,0
		c-0.481,0.481-0.481,1.262,0,1.743l1.603,1.602c0.24,0.241,0.552,0.361,0.872,0.361C21.447,22.699,21.763,22.579,22.004,22.338z"/>
	<path d="M35.59,16.357c0.68,0,1.23-0.551,1.23-1.232v-2.037c0-0.68-0.55-1.232-1.23-1.232c-0.682,0-1.233,0.552-1.233,1.232v2.037
		C34.357,15.807,34.908,16.357,35.59,16.357z"/>
	<path d="M50.574,19.022l-1.575,1.574c-0.479,0.482-0.479,1.261,0,1.742c0.239,0.241,0.557,0.361,0.872,0.361s0.63-0.12,0.871-0.361
		l1.574-1.576c0.48-0.481,0.48-1.261,0-1.741C51.833,18.54,51.054,18.539,50.574,19.022z"/>
	<path d="M56.843,33.868h-2.215c-0.682,0-1.231,0.553-1.231,1.231c0,0.681,0.55,1.232,1.231,1.232h2.215
		c0.684,0,1.234-0.552,1.234-1.232C58.078,34.421,57.527,33.868,56.843,33.868z"/>
</g>
</svg>
