<?xml version="1.0" encoding="utf-8"?>
<!-- Generator: Adobe Illustrator 16.0.3, SVG Export Plug-In . SVG Version: 6.00 Build 0)  -->
<!DOCTYPE svg PUBLIC "-//W3C//DTD SVG 1.1//EN" "http://www.w3.org/Graphics/SVG/1.1/DTD/svg11.dtd">
<svg version="1.1" id="Layer_1" xmlns="http://www.w3.org/2000/svg" xmlns:xlink="http://www.w3.org/1999/xlink" x="0px" y="0px"
	 width="56.693px" height="56.693px" viewBox="0 0 56.693 56.693" enable-background="new 0 0 56.693 56.693" xml:space="preserve">
<g>
	<path d="M39.99,38.562H22.718c-0.374,0-0.675,0.303-0.675,0.676s0.301,0.676,0.675,0.676H39.99c0.374,0,0.678-0.303,0.678-0.676
		S40.364,38.562,39.99,38.562z"/>
	<path d="M39.99,30.312H22.718c-0.374,0-0.675,0.303-0.675,0.676c0,0.375,0.301,0.676,0.675,0.676H39.99
		c0.374,0,0.678-0.301,0.678-0.676C40.668,30.614,40.364,30.312,39.99,30.312z"/>
	<path d="M39.99,22.063H22.718c-0.374,0-0.675,0.303-0.675,0.675c0,0.373,0.301,0.677,0.675,0.677H39.99
		c0.374,0,0.678-0.304,0.678-0.677C40.668,22.366,40.364,22.063,39.99,22.063z"/>
	<path d="M19.059,20.592h-2.94c-0.372,0-0.674,0.305-0.674,0.676v2.94c0,0.373,0.302,0.674,0.674,0.674h2.94
		c0.373,0,0.674-0.301,0.674-0.674v-2.94C19.733,20.897,19.431,20.592,19.059,20.592z"/>
	<path d="M19.059,28.845h-2.94c-0.372,0-0.674,0.3-0.674,0.671v2.941c0,0.373,0.302,0.676,0.674,0.676h2.94
		c0.373,0,0.674-0.303,0.674-0.676v-2.941C19.733,29.145,19.431,28.845,19.059,28.845z"/>
	<path d="M19.059,37.093h-2.94c-0.372,0-0.674,0.301-0.674,0.676v2.938c0,0.373,0.302,0.676,0.674,0.676h2.94
		c0.373,0,0.674-0.303,0.674-0.676v-2.938C19.733,37.394,19.431,37.093,19.059,37.093z"/>
	<path d="M47.579,12.036l-7.278-7.175c-0.317-0.313-0.742-0.487-1.186-0.487H10.297c-0.933,0-1.687,0.757-1.687,1.688v46.457
		c0,0.932,0.754,1.689,1.687,1.689h36.097c0.934,0,1.688-0.758,1.688-1.689V13.237C48.083,12.786,47.902,12.352,47.579,12.036z
		 M11.986,50.833V7.75h26.118v6.069c0,0.562,0.452,1.013,1.012,1.013h5.591v36H11.986z"/>
</g>
</svg>
