<?xml version="1.0" encoding="utf-8"?>
<!-- Generator: Adobe Illustrator 16.0.3, SVG Export Plug-In . SVG Version: 6.00 Build 0)  -->
<!DOCTYPE svg PUBLIC "-//W3C//DTD SVG 1.1//EN" "http://www.w3.org/Graphics/SVG/1.1/DTD/svg11.dtd">
<svg version="1.1" id="Layer_1" xmlns="http://www.w3.org/2000/svg" xmlns:xlink="http://www.w3.org/1999/xlink" x="0px" y="0px"
	 width="56.693px" height="56.693px" viewBox="0 0 56.693 56.693" enable-background="new 0 0 56.693 56.693" xml:space="preserve">
<path d="M38.411,13.91c4.24,0,7.689,3.448,7.689,7.687c0,1.788-0.627,3.528-1.77,4.904L28.468,44.779L12.71,26.15
	c-0.977-1.323-1.492-2.897-1.492-4.554c0-4.238,3.447-7.687,7.686-7.687c2.527,0,5.045,1.245,6.57,3.25l3.184,4.184l3.184-4.184
	C33.366,15.155,35.884,13.91,38.411,13.91 M38.411,9.91c-3.883,0-7.523,1.896-9.754,4.828c-2.232-2.933-5.867-4.828-9.754-4.828
	c-6.441,0-11.686,5.245-11.686,11.687c0,2.535,0.799,4.949,2.307,6.975c0.025,0.033,0.051,0.065,0.074,0.096L26.97,49.203
	c0.367,0.432,0.9,0.683,1.467,0.686c0.004,0,0.006,0,0.01,0c0.561,0,1.094-0.241,1.461-0.666l17.471-20.13
	c1.756-2.098,2.723-4.761,2.723-7.496C50.101,15.155,44.856,9.91,38.411,9.91L38.411,9.91z"/>
</svg>
