<?xml version="1.0" encoding="utf-8"?>
<!-- Generator: Adobe Illustrator 16.0.3, SVG Export Plug-In . SVG Version: 6.00 Build 0)  -->
<!DOCTYPE svg PUBLIC "-//W3C//DTD SVG 1.1//EN" "http://www.w3.org/Graphics/SVG/1.1/DTD/svg11.dtd">
<svg version="1.1" id="Layer_1" xmlns="http://www.w3.org/2000/svg" xmlns:xlink="http://www.w3.org/1999/xlink" x="0px" y="0px"
	 width="56.693px" height="56.693px" viewBox="0 0 56.693 56.693" enable-background="new 0 0 56.693 56.693" xml:space="preserve">
<g>
	<path d="M27.364,43.812c-0.152-0.352-0.297-0.718-0.438-1.116c-0.035-0.092-0.068-0.184-0.102-0.281
		c-0.18-0.544-0.32-1.038-0.43-1.508c-0.018-0.074-0.037-0.149-0.053-0.228c-0.094-0.423-0.168-0.866-0.24-1.419
		c-0.012-0.07-0.023-0.142-0.033-0.216l-0.008-0.063l-0.008-0.064c-0.062-0.609-0.096-1.21-0.096-1.784
		c0-9.239,7.518-16.756,16.758-16.756c0.471,0,0.9,0.03,1.326,0.065c-0.582-5.901-5.576-10.53-11.631-10.53
		c-3.883,0-7.523,1.896-9.754,4.828c-2.232-2.933-5.867-4.828-9.754-4.828c-6.441,0-11.686,5.245-11.686,11.687
		c0,2.535,0.799,4.949,2.307,6.975c0.025,0.033,0.051,0.065,0.074,0.096L20.97,49.204c0.367,0.432,0.9,0.683,1.467,0.686
		c0.004,0,0.006,0,0.01,0c0.561,0,1.094-0.241,1.461-0.666l3.865-4.453l-0.33-0.765C27.415,43.941,27.39,43.878,27.364,43.812z"/>
	<path d="M44.558,24.533c0,0,0-0.005,0-0.01c-0.268-0.037-0.541-0.069-0.814-0.094c-0.002,0-0.006-0.001-0.01-0.001
		c-0.338-0.027-0.674-0.053-1.018-0.053c-7.047,0-12.758,5.711-12.758,12.756c0,0.463,0.027,0.92,0.074,1.369
		c0.01,0.071,0.023,0.137,0.033,0.205c0.049,0.391,0.107,0.777,0.193,1.151c0.006,0.037,0.018,0.066,0.023,0.1
		c0.092,0.407,0.209,0.805,0.34,1.195c0.025,0.08,0.059,0.156,0.086,0.236c0,0.002,0,0.003,0.002,0.005
		c0.107,0.304,0.225,0.604,0.354,0.896c0.02,0.044,0.033,0.087,0.051,0.13l0.008-0.007c2.008,4.407,6.434,7.477,11.594,7.477
		c7.047,0,12.76-5.711,12.76-12.758C55.476,30.715,50.728,25.428,44.558,24.533z M48.438,38.629h-4.232v4.221
		c0,0.826-0.664,1.494-1.49,1.494c-0.824,0-1.492-0.668-1.492-1.494v-4.221h-4.223c-0.318,0-0.611-0.103-0.852-0.273
		c-0.387-0.268-0.641-0.715-0.641-1.222c0-0.825,0.664-1.493,1.492-1.493h1.902h2.32V32.79v-1.374c0-0.824,0.668-1.492,1.492-1.492
		c0.07,0,0.137,0.014,0.203,0.022c0.73,0.101,1.287,0.716,1.287,1.47v4.225h4.232c0.822,0,1.49,0.668,1.49,1.493
		C49.929,37.958,49.261,38.629,48.438,38.629z"/>
</g>
</svg>
