<?xml version="1.0" encoding="utf-8"?>
<!-- Generator: Adobe Illustrator 16.0.3, SVG Export Plug-In . SVG Version: 6.00 Build 0)  -->
<!DOCTYPE svg PUBLIC "-//W3C//DTD SVG 1.1//EN" "http://www.w3.org/Graphics/SVG/1.1/DTD/svg11.dtd">
<svg version="1.1" id="Layer_1" xmlns="http://www.w3.org/2000/svg" xmlns:xlink="http://www.w3.org/1999/xlink" x="0px" y="0px"
	 width="56.693px" height="56.693px" viewBox="0 0 56.693 56.693" enable-background="new 0 0 56.693 56.693" xml:space="preserve">
<g>
	<path d="M30.427,31.674l-12.647-1.335l-0.001-2.665v-2.096c0-0.118-0.021-0.232-0.048-0.343c-0.008-0.031-0.018-0.063-0.027-0.093
		c-0.028-0.086-0.064-0.168-0.107-0.245c-0.014-0.024-0.023-0.048-0.039-0.07c-0.054-0.086-0.115-0.168-0.188-0.239
		c-0.006-0.006-0.014-0.01-0.021-0.015c-0.097-0.095-0.209-0.18-0.334-0.243c-0.47-0.239-1.034-0.195-1.459,0.114L3.998,33.809
		c-0.361,0.264-0.577,0.684-0.577,1.134c0.001,0.448,0.216,0.87,0.577,1.132l11.559,9.365c0.26,0.189,0.572,0.266,0.881,0.253h0.002
		c0.094-0.005,0.186-0.013,0.277-0.036c0.102-0.021,0.202-0.055,0.299-0.103c0.468-0.239,0.764-0.722,0.764-1.249l-0.001-4.76
		l12.647-1.336c1.807,0.002,3.27-1.461,3.27-3.268C33.693,33.136,32.232,31.674,30.427,31.674z"/>
	<path d="M52.746,20.241l-11.559-9.364c-0.261-0.189-0.572-0.266-0.883-0.252h-0.002c-0.092,0.004-0.184,0.013-0.275,0.036
		c-0.103,0.021-0.203,0.053-0.299,0.103c-0.469,0.238-0.765,0.722-0.765,1.248l0.001,4.761l-12.646,1.333
		c-1.807,0-3.271,1.463-3.271,3.27c0.001,1.805,1.464,3.268,3.269,3.268l12.646,1.335l0.002,2.665v2.096
		c0,0.117,0.02,0.232,0.047,0.344c0.008,0.03,0.019,0.062,0.028,0.091c0.028,0.087,0.064,0.168,0.108,0.245
		c0.013,0.025,0.022,0.048,0.037,0.07c0.055,0.088,0.117,0.168,0.189,0.24c0.006,0.008,0.013,0.01,0.02,0.016
		c0.098,0.094,0.209,0.178,0.334,0.242c0.47,0.238,1.034,0.195,1.459-0.114l11.559-9.364c0.361-0.264,0.576-0.686,0.576-1.133
		C53.322,20.926,53.107,20.506,52.746,20.241z"/>
</g>
</svg>
