<?xml version="1.0" encoding="utf-8"?>
<!-- Generator: Adobe Illustrator 16.0.1, SVG Export Plug-In . SVG Version: 6.00 Build 0)  -->
<!DOCTYPE svg PUBLIC "-//W3C//DTD SVG 1.1//EN" "http://www.w3.org/Graphics/SVG/1.1/DTD/svg11.dtd">
<svg version="1.1" id="Layer_1" xmlns="http://www.w3.org/2000/svg" xmlns:xlink="http://www.w3.org/1999/xlink" x="0px" y="0px"
	 width="56.693px" height="56.693px" viewBox="0 0 56.693 56.693" enable-background="new 0 0 56.693 56.693" xml:space="preserve">
<g>
	<path d="M15.253,18.958H5.786c-0.795,0-1.44,0.643-1.44,1.438v31.622c0,0.796,0.645,1.44,1.44,1.44h9.468
		c0.792,0,1.438-0.645,1.438-1.44V20.396C16.691,19.6,16.045,18.958,15.253,18.958z"/>
	<path d="M33.46,29.949h-9.468c-0.793,0-1.434,0.643-1.434,1.438v20.63c0,0.796,0.641,1.44,1.434,1.44h9.468
		c0.794,0,1.44-0.645,1.44-1.44v-20.63C34.9,30.592,34.254,29.949,33.46,29.949z"/>
	<path d="M51.671,9.045h-9.468c-0.793,0-1.438,0.644-1.438,1.438v41.534c0,0.796,0.645,1.44,1.438,1.44h9.468
		c0.794,0,1.437-0.645,1.437-1.44V10.483C53.107,9.689,52.465,9.045,51.671,9.045z"/>
</g>
</svg>
