<?xml version="1.0" encoding="utf-8"?>
<!-- Generator: Adobe Illustrator 16.0.1, SVG Export Plug-In . SVG Version: 6.00 Build 0)  -->
<!DOCTYPE svg PUBLIC "-//W3C//DTD SVG 1.1//EN" "http://www.w3.org/Graphics/SVG/1.1/DTD/svg11.dtd">
<svg version="1.1" id="Layer_1" xmlns="http://www.w3.org/2000/svg" xmlns:xlink="http://www.w3.org/1999/xlink" x="0px" y="0px"
	 width="56.693px" height="56.693px" viewBox="0 0 56.693 56.693" enable-background="new 0 0 56.693 56.693" xml:space="preserve">
<path d="M52.37,27.078L30.071,8.199c-1.021-0.864-2.517-0.864-3.537,0L4.233,27.078c-1.153,0.975-1.295,2.702-0.319,3.857
	c0.975,1.152,2.703,1.296,3.856,0.32l0.356-0.305v21.746c0,0.942,0.765,1.708,1.71,1.708h12.588V35.634h11.757v18.771h12.585
	c0.945,0,1.71-0.766,1.71-1.708V30.951l0.359,0.305c0.513,0.433,1.142,0.646,1.766,0.646c0.776,0,1.547-0.329,2.09-0.967
	C53.669,29.78,53.524,28.053,52.37,27.078z"/>
</svg>
