<?xml version="1.0" encoding="utf-8"?>
<!-- Generator: Adobe Illustrator 16.0.1, SVG Export Plug-In . SVG Version: 6.00 Build 0)  -->
<!DOCTYPE svg PUBLIC "-//W3C//DTD SVG 1.1//EN" "http://www.w3.org/Graphics/SVG/1.1/DTD/svg11.dtd">
<svg version="1.1" id="Layer_1" xmlns="http://www.w3.org/2000/svg" xmlns:xlink="http://www.w3.org/1999/xlink" x="0px" y="0px"
	 width="70.866px" height="56.693px" viewBox="0 0 70.866 56.693" enable-background="new 0 0 70.866 56.693" xml:space="preserve">
<g>
	<rect x="25.335" y="32.731" width="5.589" height="5.57"/>
	<path d="M61.466,25.091L38.009,5.229c-1.075-0.909-2.647-0.909-3.723,0L10.83,25.091c-1.213,1.025-1.364,2.842-0.336,4.055
		c1.026,1.214,2.843,1.365,4.057,0.338l0.375-0.318v22.873c0,0.993,0.805,1.798,1.799,1.798h38.847c0.994,0,1.799-0.805,1.799-1.798
		V29.165l0.377,0.318c0.539,0.457,1.201,0.682,1.857,0.682c0.817,0,1.629-0.346,2.198-1.02
		C62.831,27.933,62.679,26.116,61.466,25.091z M53.773,50.239h-6.812V32.731h-9.902v17.508H18.523V26.12l17.625-14.922l17.625,14.92
		V50.239z"/>
</g>
</svg>
