<?xml version="1.0" encoding="utf-8"?>
<!-- Generator: Adobe Illustrator 16.0.1, SVG Export Plug-In . SVG Version: 6.00 Build 0)  -->
<!DOCTYPE svg PUBLIC "-//W3C//DTD SVG 1.1//EN" "http://www.w3.org/Graphics/SVG/1.1/DTD/svg11.dtd">
<svg version="1.1" id="Layer_1" xmlns="http://www.w3.org/2000/svg" xmlns:xlink="http://www.w3.org/1999/xlink" x="0px" y="0px"
	 width="70.866px" height="56.693px" viewBox="0 0 70.866 56.693" enable-background="new 0 0 70.866 56.693" xml:space="preserve">
<path d="M35.433,4.374c-13.74,0-24.916,11.177-24.916,24.916c0,13.74,11.176,24.917,24.916,24.917
	c13.738,0,24.916-11.178,24.916-24.917C60.349,15.55,49.171,4.374,35.433,4.374z M36.123,11.772c3.037,0,5.506,2.471,5.506,5.508
	c0,3.036-2.469,5.506-5.506,5.506s-5.508-2.47-5.508-5.506C30.615,14.243,33.085,11.772,36.123,11.772z M43.66,44.74
	c-0.434,0.463-0.9,0.562-1.215,0.562H29.798c-0.316,0-0.783-0.1-1.217-0.562c-0.336-0.361-0.508-0.83-0.508-1.398
	c0-0.574,0.166-1.057,0.494-1.43c0.436-0.494,0.908-0.598,1.23-0.598h1.436v-10.54h-1.436c-0.316,0-0.783-0.096-1.217-0.561
	c-0.336-0.361-0.508-0.832-0.508-1.398c0-0.575,0.166-1.056,0.494-1.429c0.436-0.496,0.908-0.599,1.23-0.599h10.594
	c0.34,0,0.617,0.275,0.617,0.616v13.91h1.436c0.318,0,0.793,0.104,1.227,0.598c0.33,0.373,0.496,0.855,0.496,1.43
	C44.167,43.912,43.998,44.379,43.66,44.74z"/>
</svg>
