<?xml version="1.0" encoding="utf-8"?>
<!-- Generator: Adobe Illustrator 16.0.3, SVG Export Plug-In . SVG Version: 6.00 Build 0)  -->
<!DOCTYPE svg PUBLIC "-//W3C//DTD SVG 1.1//EN" "http://www.w3.org/Graphics/SVG/1.1/DTD/svg11.dtd">
<svg version="1.1" id="Layer_1" xmlns="http://www.w3.org/2000/svg" xmlns:xlink="http://www.w3.org/1999/xlink" x="0px" y="0px"
	 width="56.693px" height="56.693px" viewBox="0 0 56.693 56.693" enable-background="new 0 0 56.693 56.693" xml:space="preserve">
<path d="M43.929,4.374h-30.69c-5.332,0-9.67,4.338-9.67,9.67v10.21v20.483c0,5.333,4.338,9.668,9.67,9.668h30.69
	c5.334,0,9.67-4.335,9.67-9.668V24.254v-10.21C53.599,8.712,49.263,4.374,43.929,4.374z M46.704,10.142l1.105-0.002v1.1v7.38
	l-8.452,0.026l-0.028-8.48L46.704,10.142z M21.443,24.254c1.603-2.217,4.201-3.668,7.142-3.668c2.938,0,5.537,1.451,7.138,3.668
	c1.043,1.45,1.668,3.219,1.668,5.136c0,4.854-3.954,8.804-8.806,8.804c-4.858,0-8.806-3.95-8.806-8.804
	C19.779,27.474,20.399,25.705,21.443,24.254z M48.725,44.737c0,2.645-2.15,4.794-4.796,4.794h-30.69
	c-2.647,0-4.795-2.149-4.795-4.794V24.254h7.468c-0.646,1.586-1.01,3.32-1.01,5.136c0,7.542,6.136,13.678,13.684,13.678
	c7.542,0,13.679-6.136,13.679-13.678c0-1.816-0.364-3.55-1.009-5.136h7.47V44.737z"/>
</svg>
