<?xml version="1.0" encoding="utf-8"?>
<!-- Generator: Adobe Illustrator 16.0.1, SVG Export Plug-In . SVG Version: 6.00 Build 0)  -->
<!DOCTYPE svg PUBLIC "-//W3C//DTD SVG 1.1//EN" "http://www.w3.org/Graphics/SVG/1.1/DTD/svg11.dtd">
<svg version="1.1" id="Layer_1" xmlns="http://www.w3.org/2000/svg" xmlns:xlink="http://www.w3.org/1999/xlink" x="0px" y="0px"
	 width="70.866px" height="56.693px" viewBox="0 0 70.866 56.693" enable-background="new 0 0 70.866 56.693" xml:space="preserve">
<path d="M66.855,37.889c-0.004-0.074-0.014-0.149-0.023-0.225c-0.006-0.064-0.016-0.132-0.032-0.195
	c-0.014-0.059-0.037-0.12-0.055-0.179c-0.025-0.077-0.048-0.15-0.083-0.219c-0.01-0.018-0.01-0.036-0.018-0.054L55.015,13.486
	c-0.012-0.023-0.031-0.041-0.041-0.064c-0.071-0.127-0.149-0.248-0.244-0.356c-0.025-0.028-0.046-0.061-0.071-0.086
	c-0.118-0.125-0.248-0.235-0.391-0.326c-0.029-0.02-0.061-0.031-0.088-0.047c-0.121-0.07-0.251-0.129-0.385-0.174
	c-0.045-0.015-0.087-0.028-0.134-0.041c-0.164-0.042-0.333-0.07-0.515-0.071c0,0-0.002,0-0.004,0h-0.004H37.827V9.943
	c0-1.156-0.935-2.093-2.094-2.093c-1.157,0-2.094,0.938-2.094,2.093v2.378H18.333h-0.004c-0.184,0-0.357,0.03-0.522,0.071
	c-0.045,0.013-0.085,0.026-0.13,0.041c-0.136,0.044-0.26,0.101-0.381,0.17c-0.031,0.018-0.067,0.031-0.096,0.049
	c-0.142,0.093-0.27,0.201-0.391,0.323c-0.023,0.028-0.045,0.06-0.069,0.089c-0.095,0.108-0.175,0.228-0.245,0.356
	c-0.012,0.021-0.031,0.04-0.043,0.061L4.756,37.014c-0.01,0.018-0.014,0.038-0.02,0.054c-0.036,0.07-0.059,0.146-0.087,0.221
	c-0.02,0.059-0.04,0.118-0.053,0.181c-0.016,0.062-0.025,0.127-0.031,0.191c-0.014,0.075-0.02,0.152-0.026,0.229
	c0,0.021-0.004,0.036-0.004,0.058c0,6.442,6.168,11.684,13.755,11.684s13.755-5.241,13.755-11.684c0-0.02-0.004-0.037-0.004-0.058
	c-0.004-0.074-0.012-0.149-0.025-0.225c-0.004-0.064-0.014-0.132-0.03-0.195c-0.014-0.059-0.036-0.12-0.053-0.179
	c-0.023-0.077-0.051-0.15-0.083-0.219c-0.01-0.018-0.014-0.036-0.02-0.054L21.695,16.506h11.944v5.178
	c0,1.154,0.937,2.092,2.094,2.092c1.159,0,2.094-0.938,2.094-2.092v-5.178H49.76L39.567,37.014c-0.01,0.018-0.012,0.038-0.021,0.054
	c-0.032,0.07-0.056,0.146-0.083,0.221c-0.02,0.059-0.039,0.118-0.058,0.181c-0.012,0.062-0.02,0.127-0.029,0.191
	c-0.01,0.075-0.021,0.152-0.021,0.229c0,0.021-0.008,0.036-0.008,0.058c0,6.442,6.172,11.684,13.757,11.684
	c7.586,0,13.756-5.241,13.756-11.684C66.859,37.927,66.855,37.909,66.855,37.889z M18.321,19.128l8.263,16.725H10.008L18.321,19.128
	z M18.291,45.443c-4.349,0-8.029-2.287-9.188-5.403h18.378C26.32,43.156,22.642,45.443,18.291,45.443z M61.397,35.853H44.82
	l8.315-16.725L61.397,35.853z M53.103,45.443c-4.346,0-8.028-2.287-9.189-5.403h18.378C61.134,43.156,57.452,45.443,53.103,45.443z"
	/>
</svg>
