<?xml version="1.0" encoding="utf-8"?>
<!-- Generator: Adobe Illustrator 16.0.1, SVG Export Plug-In . SVG Version: 6.00 Build 0)  -->
<!DOCTYPE svg PUBLIC "-//W3C//DTD SVG 1.1//EN" "http://www.w3.org/Graphics/SVG/1.1/DTD/svg11.dtd">
<svg version="1.1" id="Layer_1" xmlns="http://www.w3.org/2000/svg" xmlns:xlink="http://www.w3.org/1999/xlink" x="0px" y="0px"
	 width="70.866px" height="56.693px" viewBox="0 0 70.866 56.693" enable-background="new 0 0 70.866 56.693" xml:space="preserve">
<g>
	<path d="M59.089,25.681H22.261v-1.408c0.02-0.68,0.322-4.074,4.443-4.074h16.208c3.037-0.098,8.816-1.748,8.971-7.342V6.728
		c0-0.758-0.613-1.371-1.369-1.371c-0.758,0-1.369,0.613-1.369,1.371v6.091c-0.121,4.365-6.068,4.633-6.275,4.641H26.704
		c-5.602,0-7.146,4.424-7.182,6.785v1.436h-6.795c-0.945,0-1.711,0.768-1.711,1.711v24.312c0,0.945,0.766,1.711,1.711,1.711h46.362
		c0.945,0,1.711-0.766,1.711-1.711V27.392C60.8,26.448,60.035,25.681,59.089,25.681z M57.378,49.991h-42.94V29.104h42.94V49.991z"/>
	<path d="M24.937,41.575h0.551c0.945,0,1.711-0.766,1.711-1.713v-0.549c0-0.945-0.766-1.711-1.711-1.711h-0.551
		c-0.945,0-1.711,0.766-1.711,1.711v0.549C23.226,40.81,23.991,41.575,24.937,41.575z"/>
	<path d="M26.108,45.509v0.551c0,0.945,0.766,1.713,1.711,1.713h16.243c0.945,0,1.711-0.768,1.711-1.713v-0.551
		c0-0.943-0.766-1.709-1.711-1.709H27.819C26.874,43.8,26.108,44.565,26.108,45.509z"/>
	<path d="M30.321,41.575h0.551c0.945,0,1.711-0.766,1.711-1.713v-0.549c0-0.945-0.766-1.711-1.711-1.711h-0.551
		c-0.943,0-1.711,0.766-1.711,1.711v0.549C28.61,40.81,29.378,41.575,30.321,41.575z"/>
	<path d="M35.708,41.575h0.549c0.945,0,1.713-0.766,1.713-1.713v-0.549c0-0.945-0.768-1.711-1.713-1.711h-0.549
		c-0.945,0-1.713,0.766-1.713,1.711v0.549C33.996,40.81,34.763,41.575,35.708,41.575z"/>
	<path d="M41.093,41.575h0.551c0.945,0,1.711-0.766,1.711-1.713v-0.549c0-0.945-0.766-1.711-1.711-1.711h-0.551
		c-0.945,0-1.711,0.766-1.711,1.711v0.549C39.382,40.81,40.148,41.575,41.093,41.575z"/>
	<path d="M46.48,41.575h0.549c0.947,0,1.713-0.766,1.713-1.713v-0.549c0-0.945-0.766-1.711-1.713-1.711H46.48
		c-0.945,0-1.711,0.766-1.711,1.711v0.549C44.769,40.81,45.535,41.575,46.48,41.575z"/>
	<path d="M19.552,35.517h0.549c0.945,0,1.713-0.766,1.713-1.711v-0.551c0-0.945-0.768-1.711-1.713-1.711h-0.549
		c-0.945,0-1.713,0.766-1.713,1.711v0.551C17.839,34.751,18.606,35.517,19.552,35.517z"/>
	<path d="M24.937,35.517h0.551c0.945,0,1.711-0.766,1.711-1.711v-0.551c0-0.945-0.766-1.711-1.711-1.711h-0.551
		c-0.945,0-1.711,0.766-1.711,1.711v0.551C23.226,34.751,23.991,35.517,24.937,35.517z"/>
	<path d="M30.321,35.517h0.551c0.945,0,1.711-0.766,1.711-1.711v-0.551c0-0.945-0.766-1.711-1.711-1.711h-0.551
		c-0.943,0-1.711,0.766-1.711,1.711v0.551C28.61,34.751,29.378,35.517,30.321,35.517z"/>
	<path d="M35.708,35.517h0.549c0.945,0,1.713-0.766,1.713-1.711v-0.551c0-0.945-0.768-1.711-1.713-1.711h-0.549
		c-0.945,0-1.713,0.766-1.713,1.711v0.551C33.996,34.751,34.763,35.517,35.708,35.517z"/>
	<path d="M41.093,35.517h0.551c0.945,0,1.711-0.766,1.711-1.711v-0.551c0-0.945-0.766-1.711-1.711-1.711h-0.551
		c-0.945,0-1.711,0.766-1.711,1.711v0.551C39.382,34.751,40.148,35.517,41.093,35.517z"/>
	<path d="M46.48,35.517h0.549c0.947,0,1.713-0.766,1.713-1.711v-0.551c0-0.945-0.766-1.711-1.713-1.711H46.48
		c-0.945,0-1.711,0.766-1.711,1.711v0.551C44.769,34.751,45.535,35.517,46.48,35.517z"/>
	<path d="M51.865,35.517h0.549c0.945,0,1.711-0.766,1.711-1.711v-0.551c0-0.945-0.766-1.711-1.711-1.711h-0.549
		c-0.945,0-1.711,0.766-1.711,1.711v0.551C50.154,34.751,50.919,35.517,51.865,35.517z"/>
</g>
</svg>
