<?xml version="1.0" encoding="utf-8"?>
<!-- Generator: Adobe Illustrator 16.0.1, SVG Export Plug-In . SVG Version: 6.00 Build 0)  -->
<!DOCTYPE svg PUBLIC "-//W3C//DTD SVG 1.1//EN" "http://www.w3.org/Graphics/SVG/1.1/DTD/svg11.dtd">
<svg version="1.1" id="Layer_1" xmlns="http://www.w3.org/2000/svg" xmlns:xlink="http://www.w3.org/1999/xlink" x="0px" y="0px"
	 width="70.866px" height="56.693px" viewBox="0 0 70.866 56.693" enable-background="new 0 0 70.866 56.693" xml:space="preserve">
<path d="M54.767,29.091c-0.203-0.457-0.658-0.752-1.156-0.752h-4.039c-0.902,0-1.572-0.141-1.949-0.42
	c-0.285-0.207-0.918-0.848-2.312-2.736l-1.066-1.406c-1.352-1.801-2.088-2.75-2.576-3.318l-6.979-7.426l-1.732-7.67
	c-0.074-0.332-0.281-0.619-0.568-0.799c-0.291-0.18-0.639-0.232-0.969-0.152l-0.406,0.098c-4.287,1.008-6.461,3.594-6.461,7.688
	c0,1.477,0.67,3.477,2.072,6.156l0.594,1.033c0.967,1.891,1.623,3.857,1.955,5.855h-0.299c-3.822,0-6.957,0.664-9.324,1.982
	c-2.453,1.381-3.697,3.252-3.697,5.555c0,1.848,0.633,3.492,1.932,5.012c-0.469,0.844-0.707,1.668-0.707,2.457
	c0,1.111,0.311,2.045,0.916,2.766c0.508,0.627,1.229,1.105,2.143,1.432c-0.021,0.268-0.031,0.488-0.031,0.67
	c0,2.52,1.406,4.045,4.076,4.436c-0.006,0.072-0.008,0.139-0.008,0.201c0,2.096,1.076,4.592,6.207,4.592h1.477
	c0.199,0,0.396-0.045,0.574-0.137l1.029-0.521c1.637,0.438,3.111,0.658,4.387,0.658c0.465,0,1.141-0.037,2.068-0.111
	c0.15-0.014,0.293-0.051,0.43-0.113c3.018-1.4,5.861-3.596,8.447-6.523h4.988c0.523,0,0.994-0.322,1.184-0.807
	c1.146-2.949,1.727-5.926,1.727-8.844C56.691,34.937,56.046,31.958,54.767,29.091z M38.466,51.521l1.791-0.803
	c0.318-0.141,0.566-0.41,0.678-0.742c0.117-0.332,0.088-0.697-0.076-1.008c-0.621-1.17-1.379-2.162-2.26-2.961l0.865-0.408
	c0.326-0.152,0.57-0.441,0.672-0.787c0.104-0.346,0.055-0.719-0.137-1.025c-0.693-1.115-1.436-2.014-2.221-2.684
	c0.291-0.148,0.514-0.4,0.623-0.709c0.119-0.334,0.092-0.701-0.072-1.016c-0.715-1.348-1.627-2.406-2.727-3.156
	c0.182-0.15,0.32-0.35,0.398-0.576c0.109-0.326,0.08-0.684-0.08-0.99c-1.607-3.072-4.082-4.629-7.35-4.629
	c-0.66,0-1.389,0.098-2.156,0.287c-0.707,0.162-1.486,0.426-2.449,0.824l-1.412,0.02c-0.502,0.006-0.953,0.309-1.148,0.77
	c-0.197,0.463-0.102,0.996,0.24,1.361l0.496,0.529c0.252,0.27,0.611,0.42,0.98,0.4l1.363-0.062c0.146-0.006,0.289-0.035,0.422-0.094
	c0.982-0.4,1.734-0.674,2.359-0.859c0.678-0.184,1.221-0.279,1.607-0.279c1.363,0,2.467,0.521,3.354,1.586l-6.193,2.793
	l-2.229-0.025c-1.393,0-2.535-0.451-3.494-1.377c-0.955-0.92-1.422-2.014-1.422-3.344c0-0.887,0.283-2.178,2.715-3.139
	c1.973-0.771,4.988-1.164,8.957-1.164h0.66c0.002,0,0.004,0,0.006,0c0.721-0.023,1.275-0.564,1.275-1.266
	c0-0.08-0.01-0.162-0.023-0.24l-0.006-0.135c0-3.111-1.035-6.41-3.08-9.805c-0.002-0.006-0.006-0.014-0.014-0.02l-0.486-0.834
	c-0.811-1.344-1.223-2.609-1.223-3.758c0-1.068,0.285-1.973,0.842-2.688c0.469-0.596,1.148-1.09,2.027-1.473l1.352,6.271
	c0.047,0.225,0.158,0.432,0.314,0.6l7.543,8.029c1.385,1.734,2.316,2.93,2.922,3.756c2.553,3.588,3.58,4.062,3.912,4.213
	c0.324,0.15,1.297,0.605,5.885,0.629c0.76,2.227,1.143,4.521,1.143,6.828c0,1.957-0.346,4.01-1.031,6.109H48.05
	c-0.393,0-0.762,0.182-1.002,0.492c-2.008,2.592-4.426,4.662-7.602,6.514L38.466,51.521z M30.38,51.405
	c-1.125,0-1.959-0.182-2.48-0.539c-0.381-0.262-0.602-0.633-0.666-1.125h2.801c0.176,0,0.354-0.041,0.516-0.113l5.035-2.248
	c0.596,0.486,1.072,0.984,1.447,1.523c0.002,0.004,0.006,0.006,0.008,0.01l-5.529,2.492H30.38z M20.24,40.247
	c0-0.172,0.051-0.369,0.15-0.578c1.043,0.436,2.408,0.648,4.15,0.648h1.881c0.18,0,0.357-0.039,0.52-0.111l5.389-2.42
	c0.84,0.258,1.6,0.752,2.264,1.477l-6.299,2.787h-3.949c-1.465,0-2.557-0.176-3.238-0.52C20.515,41.216,20.24,40.81,20.24,40.247z
	 M28.599,45.067c0.164-0.008,0.357-0.037,0.52-0.109l5.494-2.436c0.602,0.322,1.145,0.738,1.602,1.223l-6.531,2.914h-2.758
	c-1.402,0-2.447-0.172-3.113-0.508c-0.535-0.271-0.787-0.619-0.809-1.121L28.599,45.067z"/>
</svg>
