<?xml version="1.0" encoding="utf-8"?>
<!-- Generator: Adobe Illustrator 16.0.1, SVG Export Plug-In . SVG Version: 6.00 Build 0)  -->
<!DOCTYPE svg PUBLIC "-//W3C//DTD SVG 1.1//EN" "http://www.w3.org/Graphics/SVG/1.1/DTD/svg11.dtd">
<svg version="1.1" id="Layer_1" xmlns="http://www.w3.org/2000/svg" xmlns:xlink="http://www.w3.org/1999/xlink" x="0px" y="0px"
	 width="70.866px" height="56.693px" viewBox="0 0 70.866 56.693" enable-background="new 0 0 70.866 56.693" xml:space="preserve">
<path d="M51.298,19.604c0-8.496-6.891-15.383-15.385-15.383c-8.497,0-15.387,6.887-15.387,15.383c0,2.805,0.766,5.428,2.072,7.691
	h-0.012L35.908,54.22l13.328-26.924H49.22C50.535,25.032,51.298,22.409,51.298,19.604z M35.912,24.171
	c-3.568,0-6.463-2.893-6.463-6.461c0-3.57,2.895-6.465,6.463-6.465c3.572,0,6.465,2.895,6.465,6.465
	C42.376,21.278,39.484,24.171,35.912,24.171z"/>
</svg>
