<?xml version="1.0" encoding="utf-8"?>
<!-- Generator: Adobe Illustrator 16.0.1, SVG Export Plug-In . SVG Version: 6.00 Build 0)  -->
<!DOCTYPE svg PUBLIC "-//W3C//DTD SVG 1.1//EN" "http://www.w3.org/Graphics/SVG/1.1/DTD/svg11.dtd">
<svg version="1.1" id="Layer_1" xmlns="http://www.w3.org/2000/svg" xmlns:xlink="http://www.w3.org/1999/xlink" x="0px" y="0px"
	 width="56.693px" height="56.693px" viewBox="0 0 56.693 56.693" enable-background="new 0 0 56.693 56.693" xml:space="preserve">
<path d="M53.884,23.524c0-0.567-0.271-1.1-0.728-1.434L29.394,4.716c-0.625-0.457-1.471-0.457-2.096,0L3.535,22.093
	c-0.458,0.332-0.727,0.866-0.727,1.432V52.39c0,0.98,0.794,1.775,1.773,1.775h47.528c0.471,0,0.922-0.188,1.255-0.521
	c0.334-0.331,0.521-0.784,0.521-1.255L53.884,23.524z M28.345,8.348l21.99,16.077v2.135L35.247,37.429l12.035,7.669
	c0.83,0.521,1.08,1.616,0.557,2.448c-0.334,0.535-0.912,0.828-1.502,0.828c-0.323,0-0.65-0.087-0.943-0.271L28.366,37.397
	L11.369,48.102c-0.292,0.186-0.62,0.272-0.943,0.272c-0.59,0-1.168-0.293-1.505-0.828c-0.521-0.83-0.272-1.925,0.558-2.448
	l12.006-7.667L6.357,26.556v-2.131L28.345,8.348z"/>
</svg>
