<?xml version="1.0" encoding="utf-8"?>
<!-- Generator: Adobe Illustrator 16.0.1, SVG Export Plug-In . SVG Version: 6.00 Build 0)  -->
<!DOCTYPE svg PUBLIC "-//W3C//DTD SVG 1.1//EN" "http://www.w3.org/Graphics/SVG/1.1/DTD/svg11.dtd">
<svg version="1.1" id="Layer_1" xmlns="http://www.w3.org/2000/svg" xmlns:xlink="http://www.w3.org/1999/xlink" x="0px" y="0px"
	 width="70.866px" height="56.693px" viewBox="0 0 70.866 56.693" enable-background="new 0 0 70.866 56.693" xml:space="preserve">
<g>
	<g>
		<path d="M43.021,50.14h-9.464V33.377L30.1,35.749V50.14h-9.075c-0.955,0-1.728,0.775-1.728,1.729c0,0.956,0.773,1.729,1.728,1.729
			h21.996c0.954,0,1.728-0.773,1.728-1.729C44.749,50.915,43.975,50.14,43.021,50.14z"/>
	</g>
	<g>
		<path d="M59.465,12.578L55.462,6.74c-1.443-2.103-4.314-2.639-6.418-1.197L36.181,14.36c-1.702,1.168-2.377,3.272-1.808,5.147
			c0.133,0.438,0.335,0.865,0.605,1.262L14.039,35.126c-0.587,0.4-0.738,1.204-0.333,1.791l2.553,3.727
			c0.192,0.281,0.491,0.476,0.827,0.539c0.08,0.014,0.16,0.021,0.237,0.021c0.034,0,0.069-0.002,0.106-0.006
			c0.222-0.018,0.439-0.095,0.622-0.222l20.94-14.353c0.274,0.397,0.6,0.737,0.96,1.019c1.544,1.207,3.75,1.338,5.453,0.171
			l12.865-8.819C60.37,17.553,60.906,14.681,59.465,12.578z"/>
	</g>
</g>
</svg>
