<?xml version="1.0" encoding="utf-8"?>
<!-- Generator: Adobe Illustrator 16.0.1, SVG Export Plug-In . SVG Version: 6.00 Build 0)  -->
<!DOCTYPE svg PUBLIC "-//W3C//DTD SVG 1.1//EN" "http://www.w3.org/Graphics/SVG/1.1/DTD/svg11.dtd">
<svg version="1.1" id="Layer_1" xmlns="http://www.w3.org/2000/svg" xmlns:xlink="http://www.w3.org/1999/xlink" x="0px" y="0px"
	 width="70.866px" height="56.693px" viewBox="0 0 70.866 56.693" enable-background="new 0 0 70.866 56.693" xml:space="preserve">
<path d="M45.382,4.396H25.993c-2.424,0-4.408,1.984-4.408,4.407V49.97c0,2.424,1.984,4.406,4.408,4.406h19.389
	c2.426,0,4.408-1.982,4.408-4.406V8.804C49.791,6.381,47.808,4.396,45.382,4.396z M35.689,51.886c-1.463,0-2.646-1.184-2.646-2.645
	c0-1.459,1.184-2.645,2.646-2.645s2.645,1.186,2.645,2.645C38.333,50.702,37.152,51.886,35.689,51.886z M24.583,44.369V11.502
	h22.209v32.867H24.583z"/>
</svg>
