<?xml version="1.0" encoding="utf-8"?>
<!-- Generator: Adobe Illustrator 16.0.3, SVG Export Plug-In . SVG Version: 6.00 Build 0)  -->
<!DOCTYPE svg PUBLIC "-//W3C//DTD SVG 1.1//EN" "http://www.w3.org/Graphics/SVG/1.1/DTD/svg11.dtd">
<svg version="1.1" id="Layer_1" xmlns="http://www.w3.org/2000/svg" xmlns:xlink="http://www.w3.org/1999/xlink" x="0px" y="0px"
	 width="56.693px" height="56.693px" viewBox="0 0 56.693 56.693" enable-background="new 0 0 56.693 56.693" xml:space="preserve">
<g>
	<path d="M35.159,23.232c-0.911,0.139-1.477,0.754-1.263,1.371l-0.005,0.002c0.491,1.4,0.735,2.846,0.73,4.289
		c0.005,1.455-0.253,2.914-0.746,4.338c-0.219,0.617,0.359,1.229,1.275,1.375c0.129,0.02,0.258,0.029,0.387,0.029
		c0.769,0,1.469-0.359,1.654-0.885c0.549-1.596,0.825-3.227,0.834-4.857c-0.006-1.619-0.281-3.232-0.826-4.812
		C36.98,23.465,36.071,23.086,35.159,23.232z"/>
	<path d="M47.386,13.484c-0.402-0.576-1.418-0.818-2.262-0.549c-0.848,0.266-1.209,0.949-0.812,1.52h-0.008
		c3.207,4.578,4.805,9.51,4.805,14.451c0,4.943-1.597,9.877-4.805,14.453c-0.401,0.572-0.037,1.254,0.819,1.523
		c0.234,0.072,0.478,0.107,0.715,0.105c0.641,0.002,1.254-0.242,1.547-0.656c3.416-4.883,5.135-10.152,5.135-15.426
		C52.521,23.637,50.8,18.369,47.386,13.484z"/>
	<path d="M42.898,19.711c-0.312-0.6-1.28-0.912-2.161-0.703c-0.883,0.201-1.354,0.854-1.046,1.449
		c1.396,2.705,2.091,5.564,2.091,8.43c-0.002,2.879-0.711,5.76-2.113,8.494c-0.307,0.594,0.164,1.25,1.053,1.453
		c0.183,0.041,0.369,0.061,0.552,0.061c0.709,0,1.371-0.295,1.617-0.771c1.516-2.975,2.291-6.102,2.29-9.236
		C45.182,25.775,44.431,22.662,42.898,19.711z"/>
	<path d="M27.287,10.691c-2.41,1.545-8.573,6.803-12.121,9.875H4.745c-0.695,0-1.261,0.564-1.261,1.262v14.5
		c0,0.697,0.565,1.262,1.261,1.262H15.4c3.578,3.096,9.529,8.16,11.887,9.672c3.005,1.926,3.39-1.328,3.39-1.328V29.361v-0.77V12.02
		C30.677,12.02,30.292,8.764,27.287,10.691z"/>
</g>
</svg>
