<?xml version="1.0" encoding="utf-8"?>
<!-- Generator: Adobe Illustrator 16.0.1, SVG Export Plug-In . SVG Version: 6.00 Build 0)  -->
<!DOCTYPE svg PUBLIC "-//W3C//DTD SVG 1.1//EN" "http://www.w3.org/Graphics/SVG/1.1/DTD/svg11.dtd">
<svg version="1.1" id="Layer_1" xmlns="http://www.w3.org/2000/svg" xmlns:xlink="http://www.w3.org/1999/xlink" x="0px" y="0px"
	 width="70.866px" height="56.693px" viewBox="0 0 70.866 56.693" enable-background="new 0 0 70.866 56.693" xml:space="preserve">
<g>
	<path d="M55.578,17.48H15.289c-2.662,0-4.818,2.157-4.818,4.819v14.031c0,2.662,2.156,4.818,4.818,4.818h40.289
		c2.66,0,4.818-2.156,4.818-4.818V22.3C60.396,19.638,58.238,17.48,55.578,17.48z M26.55,33.424c0,0.521-0.119,0.915-0.357,1.183
		c-0.238,0.266-0.547,0.398-0.93,0.398c-0.387,0.001-0.699-0.137-0.943-0.408c-0.24-0.274-0.359-0.664-0.361-1.173l0.002-4.333
		c-0.002-0.857-0.119-1.514-0.357-1.967s-0.713-0.68-1.426-0.68c-0.461,0-0.883,0.138-1.266,0.414
		c-0.381,0.275-0.658,0.654-0.836,1.139c-0.129,0.387-0.191,1.109-0.193,2.17l0.002,3.257c-0.002,0.528-0.123,0.924-0.367,1.186
		c-0.244,0.263-0.561,0.396-0.947,0.396c-0.377,0-0.682-0.137-0.924-0.408c-0.242-0.274-0.363-0.664-0.363-1.172V25.91
		c0-0.495,0.109-0.864,0.324-1.11c0.217-0.244,0.512-0.367,0.887-0.365c0.227-0.002,0.434,0.053,0.619,0.162
		c0.184,0.107,0.332,0.27,0.441,0.484c0.111,0.216,0.168,0.479,0.168,0.791v0.314c0.455-0.604,0.957-1.046,1.498-1.328
		c0.543-0.283,1.168-0.424,1.873-0.424c0.686,0,1.297,0.148,1.838,0.447c0.541,0.297,0.941,0.721,1.211,1.266
		c0.17,0.318,0.281,0.662,0.332,1.029s0.076,0.838,0.076,1.41V33.424z M31.669,31.919c0.23,0.451,0.539,0.791,0.926,1.02
		c0.381,0.229,0.805,0.344,1.27,0.343c0.311,0,0.594-0.037,0.852-0.109c0.258-0.073,0.506-0.188,0.748-0.343
		c0.24-0.156,0.463-0.323,0.666-0.5s0.467-0.419,0.791-0.725c0.135-0.114,0.324-0.17,0.574-0.171c0.264,0,0.48,0.073,0.645,0.219
		c0.166,0.147,0.248,0.354,0.248,0.62c0,0.234-0.092,0.51-0.277,0.824C37.929,33.41,37.65,33.712,37.279,34
		c-0.371,0.29-0.838,0.528-1.4,0.72c-0.561,0.189-1.209,0.285-1.938,0.286c-1.67-0.001-2.971-0.477-3.895-1.429
		c-0.928-0.953-1.391-2.244-1.391-3.877c0-0.769,0.113-1.48,0.342-2.138c0.23-0.657,0.562-1.221,1-1.69
		c0.439-0.469,0.979-0.83,1.619-1.08c0.641-0.251,1.352-0.377,2.135-0.377c1.014,0,1.885,0.215,2.613,0.643
		c0.727,0.428,1.271,0.982,1.633,1.662s0.543,1.371,0.541,2.076c0.002,0.654-0.184,1.078-0.559,1.272
		c-0.377,0.192-0.902,0.288-1.582,0.289l-5.086,0.001C31.318,30.948,31.437,31.468,31.669,31.919z M54.246,26.729l-2.125,6.229
		c-0.184,0.526-0.326,0.908-0.428,1.143s-0.262,0.445-0.482,0.629c-0.217,0.184-0.518,0.275-0.896,0.275
		c-0.396,0.001-0.707-0.098-0.93-0.295c-0.225-0.196-0.395-0.438-0.5-0.723c-0.107-0.287-0.227-0.658-0.354-1.115l-1.484-5.066
		l-1.439,5.066c-0.189,0.705-0.396,1.236-0.619,1.596c-0.223,0.357-0.611,0.538-1.172,0.537c-0.285,0-0.529-0.055-0.729-0.166
		s-0.367-0.271-0.5-0.477c-0.133-0.207-0.252-0.45-0.352-0.732c-0.102-0.282-0.182-0.507-0.24-0.672l-2.104-6.229
		c-0.209-0.584-0.314-0.988-0.314-1.211c0-0.277,0.111-0.529,0.334-0.752c0.223-0.222,0.496-0.332,0.82-0.334
		c0.43,0,0.723,0.125,0.875,0.367c0.152,0.246,0.312,0.663,0.486,1.253l1.697,5.81l1.541-5.399c0.164-0.565,0.287-0.952,0.367-1.157
		c0.078-0.206,0.227-0.404,0.445-0.591c0.221-0.188,0.521-0.28,0.902-0.28c0.385-0.002,0.689,0.092,0.908,0.28
		c0.221,0.187,0.371,0.39,0.463,0.609c0.088,0.219,0.213,0.599,0.369,1.139l1.545,5.399l1.713-5.809
		c0.115-0.42,0.207-0.723,0.277-0.91s0.188-0.354,0.354-0.496c0.164-0.143,0.402-0.215,0.713-0.215s0.582,0.109,0.811,0.324
		c0.227,0.217,0.342,0.471,0.342,0.764C54.541,25.786,54.443,26.188,54.246,26.729z"/>
	<path d="M33.664,26.224c-0.645,0-1.178,0.226-1.594,0.672c-0.416,0.448-0.668,1.111-0.758,1.986h4.715
		c-0.064-0.889-0.303-1.555-0.721-1.995C34.89,26.446,34.343,26.224,33.664,26.224z"/>
</g>
</svg>
