<?xml version="1.0" encoding="utf-8"?>
<!-- Generator: Adobe Illustrator 16.0.1, SVG Export Plug-In . SVG Version: 6.00 Build 0)  -->
<!DOCTYPE svg PUBLIC "-//W3C//DTD SVG 1.1//EN" "http://www.w3.org/Graphics/SVG/1.1/DTD/svg11.dtd">
<svg version="1.1" id="Layer_1" xmlns="http://www.w3.org/2000/svg" xmlns:xlink="http://www.w3.org/1999/xlink" x="0px" y="0px"
	 width="70.866px" height="56.693px" viewBox="0 0 70.866 56.693" enable-background="new 0 0 70.866 56.693" xml:space="preserve">
<g>
	<path d="M55.813,4.417H14.965c-2.734,0-4.963,2.227-4.963,4.963v39.764c0,2.736,2.229,4.963,4.963,4.963h40.848
		c2.736,0,4.963-2.227,4.963-4.963V9.38C60.776,6.644,58.549,4.417,55.813,4.417z M14.901,9.38c0-0.039,0.029-0.07,0.064-0.07
		l40.916,0.07l-0.068,39.832l-40.912-0.068V9.38z"/>
	<path d="M48.991,18.558c0-0.615-0.24-1.195-0.676-1.631c-0.871-0.871-2.391-0.871-3.264,0l-9.674,9.674l-9.674-9.674
		c-0.873-0.871-2.389-0.871-3.262,0c-0.438,0.436-0.678,1.016-0.678,1.633s0.24,1.195,0.678,1.631l9.672,9.674l-9.672,9.674
		c-0.438,0.434-0.678,1.014-0.678,1.631c0,0.615,0.24,1.195,0.678,1.633c0.877,0.875,2.387,0.873,3.262,0l9.674-9.676l9.674,9.676
		c0.438,0.438,1.018,0.678,1.633,0.678c0.613,0,1.193-0.24,1.631-0.678c0.436-0.436,0.676-1.018,0.676-1.631
		c0-0.617-0.24-1.197-0.676-1.633l-9.674-9.674l9.674-9.674C48.75,19.755,48.991,19.175,48.991,18.558z"/>
</g>
</svg>
