<?xml version="1.0" encoding="utf-8"?>
<!-- Generator: Adobe Illustrator 16.0.3, SVG Export Plug-In . SVG Version: 6.00 Build 0)  -->
<!DOCTYPE svg PUBLIC "-//W3C//DTD SVG 1.1//EN" "http://www.w3.org/Graphics/SVG/1.1/DTD/svg11.dtd">
<svg version="1.1" id="Layer_1" xmlns="http://www.w3.org/2000/svg" xmlns:xlink="http://www.w3.org/1999/xlink" x="0px" y="0px"
	 width="56.693px" height="56.693px" viewBox="0 0 56.693 56.693" enable-background="new 0 0 56.693 56.693" xml:space="preserve">
<g>
	<path d="M52.032,7.543c-0.148-0.117-0.354-0.138-0.518-0.051L4.699,31.434c-0.174,0.088-0.277,0.273-0.262,0.47
		c0.017,0.193,0.149,0.359,0.335,0.42l15.671,4.98c0.165,0.051,0.343,0.014,0.469-0.102l21.68-19.533L25.282,38.157
		c-0.104,0.125-0.14,0.293-0.094,0.449c0.046,0.154,0.167,0.277,0.322,0.324l17.389,5.297c0.045,0.014,0.092,0.021,0.139,0.021
		c0.084,0,0.166-0.023,0.24-0.064c0.114-0.065,0.199-0.175,0.229-0.305l8.694-35.843C52.246,7.853,52.181,7.66,52.032,7.543z"/>
	<path d="M30.599,42.735l-4.807-1.479c-0.145-0.048-0.305-0.02-0.427,0.072c-0.124,0.092-0.196,0.236-0.196,0.389v9.07
		c0,0.216,0.141,0.404,0.349,0.465c0.043,0.011,0.089,0.018,0.134,0.018c0.162,0,0.317-0.082,0.407-0.224l4.806-7.593
		c0.08-0.127,0.098-0.285,0.045-0.425C30.856,42.888,30.742,42.778,30.599,42.735z"/>
</g>
</svg>
