<?xml version="1.0" encoding="utf-8"?>
<!-- Generator: Adobe Illustrator 16.0.1, SVG Export Plug-In . SVG Version: 6.00 Build 0)  -->
<!DOCTYPE svg PUBLIC "-//W3C//DTD SVG 1.1//EN" "http://www.w3.org/Graphics/SVG/1.1/DTD/svg11.dtd">
<svg version="1.1" id="Layer_1" xmlns="http://www.w3.org/2000/svg" xmlns:xlink="http://www.w3.org/1999/xlink" x="0px" y="0px"
	 width="70.866px" height="56.693px" viewBox="0 0 70.866 56.693" enable-background="new 0 0 70.866 56.693" xml:space="preserve">
<path d="M52.096,5H19.413c-0.943,0-1.709,0.764-1.709,1.708v11.089h2.469c1.163,0,2.105,0.943,2.105,2.105
	c0,1.164-0.942,2.107-2.105,2.107h-2.469v5.359h2.469c1.163,0,2.105,0.941,2.105,2.105s-0.942,2.107-2.105,2.107h-2.469v5.358h2.469
	c1.163,0,2.105,0.941,2.105,2.105s-0.942,2.105-2.105,2.105h-2.469v11.154c0,0.943,0.766,1.707,1.709,1.707h32.684
	c0.944,0,1.709-0.764,1.709-1.707V6.708C53.805,5.764,53.041,5,52.096,5z M46.883,38.054c-2.012,1.266-4.008,1.797-5.931,1.574
	c-3.498-0.404-5.48-3.133-5.563-3.248l-6.119-7.716c-0.01-0.012-0.02-0.023-0.027-0.035c-1.561-2.332-2.064-4.514-1.498-6.479
	c0.838-2.908,3.717-4.223,3.84-4.275c0.242-0.109,0.526-0.023,0.671,0.197l3.708,5.691c0.139,0.211,0.111,0.49-0.064,0.672
	c-1.836,1.884-1.089,3.016-1.057,3.062c0.014,0.018,2.567,3.31,3.787,4.776c0.154,0.185,0.324,0.283,0.537,0.307
	c0.773,0.089,1.871-0.805,2.193-1.126c0.107-0.105,0.254-0.162,0.405-0.156c0.146,0.006,0.291,0.076,0.388,0.191l4.854,5.761
	c0.102,0.117,0.146,0.273,0.122,0.428C47.106,37.835,47.016,37.97,46.883,38.054z"/>
</svg>
