<?xml version="1.0" encoding="utf-8"?>
<!-- Generator: Adobe Illustrator 16.0.1, SVG Export Plug-In . SVG Version: 6.00 Build 0)  -->
<!DOCTYPE svg PUBLIC "-//W3C//DTD SVG 1.1//EN" "http://www.w3.org/Graphics/SVG/1.1/DTD/svg11.dtd">
<svg version="1.1" id="Layer_1" xmlns="http://www.w3.org/2000/svg" xmlns:xlink="http://www.w3.org/1999/xlink" x="0px" y="0px"
	 width="70.866px" height="56.693px" viewBox="0 0 70.866 56.693" enable-background="new 0 0 70.866 56.693" xml:space="preserve">
<path d="M59.285,17.201c-0.027-0.188-0.066-0.373-0.117-0.553c-0.023-0.084-0.049-0.17-0.076-0.252
	c-0.631-1.869-2.395-3.219-4.477-3.219h0.324c0,0-8.371-1.264-19.506-1.314c-11.135,0.051-19.506,1.314-19.506,1.314h0.324
	c-2.082,0-3.846,1.35-4.477,3.219c-0.027,0.082-0.053,0.168-0.078,0.252c-0.049,0.18-0.088,0.365-0.115,0.553
	c-0.303,2.172-0.805,6.506-0.85,11.699c0.045,5.195,0.547,9.525,0.85,11.699c0.027,0.188,0.066,0.371,0.115,0.551
	c0.025,0.088,0.051,0.17,0.078,0.254c0.631,1.871,2.395,3.219,4.477,3.219h-0.324c0,0,8.371,1.264,19.506,1.316
	c11.135-0.053,19.506-1.316,19.506-1.316h-0.324c2.082,0,3.846-1.348,4.477-3.219c0.027-0.084,0.053-0.166,0.076-0.254
	c0.051-0.18,0.09-0.363,0.117-0.551c0.303-2.174,0.805-6.504,0.85-11.699C60.089,23.707,59.587,19.373,59.285,17.201z M42.75,29.957
	l-9.975,7.246c-0.209,0.152-0.457,0.23-0.705,0.23c-0.186,0-0.373-0.045-0.545-0.131c-0.402-0.205-0.656-0.619-0.656-1.072V21.744
	c0-0.453,0.254-0.867,0.656-1.072c0.4-0.205,0.885-0.166,1.25,0.1l9.975,7.242c0.311,0.227,0.494,0.588,0.494,0.973
	S43.062,29.73,42.75,29.957z"/>
</svg>
