<?xml version="1.0" encoding="utf-8"?>
<!-- Generator: Adobe Illustrator 16.0.1, SVG Export Plug-In . SVG Version: 6.00 Build 0)  -->
<!DOCTYPE svg PUBLIC "-//W3C//DTD SVG 1.1//EN" "http://www.w3.org/Graphics/SVG/1.1/DTD/svg11.dtd">
<svg version="1.1" id="Layer_1" xmlns="http://www.w3.org/2000/svg" xmlns:xlink="http://www.w3.org/1999/xlink" x="0px" y="0px"
	 width="70.866px" height="56.693px" viewBox="0 0 70.866 56.693" enable-background="new 0 0 70.866 56.693" xml:space="preserve">
<g>
	<path d="M35.232,28.179c1.402,0,2.539-1.137,2.539-2.54V6.942c0-1.402-1.137-2.538-2.539-2.538c-1.4,0-2.537,1.135-2.537,2.538
		v18.696C32.695,27.042,33.832,28.179,35.232,28.179z"/>
	<path d="M46.531,13.001c-1.207-0.711-2.764-0.313-3.477,0.895c-0.713,1.205-0.312,2.762,0.895,3.475
		c5.205,3.078,8.441,8.74,8.441,14.781c0,9.461-7.697,17.156-17.158,17.156c-9.459,0-17.157-7.695-17.157-17.156
		c0-6.041,3.235-11.702,8.439-14.781c1.207-0.711,1.608-2.27,0.896-3.475c-0.715-1.207-2.271-1.605-3.478-0.894
		C17.19,16.987,13,24.327,13,32.151c0,12.26,9.974,22.232,22.232,22.232c12.26,0,22.232-9.973,22.232-22.232
		C57.464,24.325,53.275,16.987,46.531,13.001z"/>
</g>
</svg>
