<?xml version="1.0" encoding="utf-8"?>
<!-- Generator: Adobe Illustrator 16.0.1, SVG Export Plug-In . SVG Version: 6.00 Build 0)  -->
<!DOCTYPE svg PUBLIC "-//W3C//DTD SVG 1.1//EN" "http://www.w3.org/Graphics/SVG/1.1/DTD/svg11.dtd">
<svg version="1.1" id="Layer_1" xmlns="http://www.w3.org/2000/svg" xmlns:xlink="http://www.w3.org/1999/xlink" x="0px" y="0px"
	 width="56.693px" height="56.693px" viewBox="0 0 56.693 56.693" enable-background="new 0 0 56.693 56.693" xml:space="preserve">
<g>
	<path d="M39.712,52.298L16.93,52.265l0.02-15.709h-2.072L14.855,53.31c0,0.277,0.106,0.547,0.303,0.744
		c0.194,0.195,0.456,0.305,0.731,0.305l24.855,0.041l0,0c0.573,0,1.036-0.469,1.036-1.047l0.023-16.797h-2.072L39.712,52.298z"/>
	<path d="M48.814,9.646H41.82l0.004-0.939c0.002-0.273-0.103-0.538-0.289-0.735l-2.743-2.996c-0.194-0.205-0.464-0.32-0.745-0.32
		L15.95,4.633h-0.002c-0.571,0-1.034,0.468-1.038,1.043l-0.02,3.97H7.879c-2.364,0-4.289,1.948-4.289,4.344v15.174
		c0,2.396,1.925,4.344,4.289,4.344h40.936c2.364,0,4.289-1.947,4.289-4.344V13.991C53.104,11.594,51.179,9.646,48.814,9.646z
		 M39.75,18.299H16.978V6.734l20.629,0.021l2.144,2.37V18.299z"/>
	<path d="M20.953,47.015h14.811c0.38,0,0.69-0.314,0.69-0.701c0-0.385-0.311-0.699-0.69-0.699H20.953
		c-0.38,0-0.688,0.314-0.688,0.699C20.265,46.7,20.573,47.015,20.953,47.015z"/>
	<path d="M20.953,41.796h14.811c0.38,0,0.69-0.312,0.69-0.699s-0.311-0.701-0.69-0.701H20.953c-0.38,0-0.688,0.314-0.688,0.701
		S20.573,41.796,20.953,41.796z"/>
</g>
</svg>
