<?xml version="1.0" encoding="utf-8"?>
<!-- Generator: Adobe Illustrator 16.0.1, SVG Export Plug-In . SVG Version: 6.00 Build 0)  -->
<!DOCTYPE svg PUBLIC "-//W3C//DTD SVG 1.1//EN" "http://www.w3.org/Graphics/SVG/1.1/DTD/svg11.dtd">
<svg version="1.1" id="Layer_1" xmlns="http://www.w3.org/2000/svg" xmlns:xlink="http://www.w3.org/1999/xlink" x="0px" y="0px"
	 width="70.866px" height="56.693px" viewBox="0 0 70.866 56.693" enable-background="new 0 0 70.866 56.693" xml:space="preserve">
<g>
	<path d="M33.218,51.877c0,1.002,0.814,1.816,1.816,1.816c1.004,0,1.818-0.814,1.818-1.816V37.754l-3.635,0.461V51.877z"/>
	<path d="M53.037,11.549l-7.045-4.221c-0.191-0.115-0.416-0.164-0.641-0.139l-8.498,0.936V6.209c0-1.004-0.814-1.818-1.818-1.818
		c-1.002,0-1.816,0.814-1.816,1.818v2.316l-13.516,1.49c-0.564,0.062-0.971,0.57-0.908,1.135l1.074,9.754
		c0.031,0.271,0.166,0.518,0.379,0.688c0.184,0.148,0.41,0.229,0.645,0.229c0.037,0,0.074-0.004,0.111-0.008l25.646-2.826
		c0.221-0.023,0.426-0.117,0.588-0.268l5.971-5.535c0.238-0.219,0.357-0.537,0.324-0.859S53.316,11.715,53.037,11.549z"/>
	<path d="M49.027,21.66l-25.676,2.549c-0.219,0.023-0.426,0.113-0.588,0.26l-6.031,5.471c-0.24,0.217-0.363,0.535-0.334,0.857
		c0.029,0.32,0.211,0.609,0.486,0.781l7,4.295c0.162,0.1,0.35,0.152,0.537,0.152c0.035,0,0.068-0.002,0.102-0.006l25.676-2.549
		c0.271-0.025,0.521-0.16,0.695-0.371c0.172-0.211,0.254-0.482,0.229-0.754l-0.971-9.764C50.095,22.016,49.593,21.609,49.027,21.66z
		"/>
</g>
</svg>
