<?xml version="1.0" encoding="utf-8"?>
<!-- Generator: Adobe Illustrator 16.0.1, SVG Export Plug-In . SVG Version: 6.00 Build 0)  -->
<!DOCTYPE svg PUBLIC "-//W3C//DTD SVG 1.1//EN" "http://www.w3.org/Graphics/SVG/1.1/DTD/svg11.dtd">
<svg version="1.1" id="Layer_1" xmlns="http://www.w3.org/2000/svg" xmlns:xlink="http://www.w3.org/1999/xlink" x="0px" y="0px"
	 width="70.866px" height="56.693px" viewBox="0 0 70.866 56.693" enable-background="new 0 0 70.866 56.693" xml:space="preserve">
<g>
	<path d="M35.243,5.204c-13.578,0-24.623,11.047-24.623,24.623c0,13.578,11.045,24.625,24.623,24.625s24.623-11.047,24.623-24.625
		C59.866,16.251,48.821,5.204,35.243,5.204z M35.243,50.907c-11.623,0-21.08-9.455-21.08-21.08c0-11.623,9.457-21.078,21.08-21.078
		s21.078,9.455,21.078,21.078C56.321,41.452,46.866,50.907,35.243,50.907z"/>
	<circle cx="27.137" cy="23.839" r="4.457"/>
	<circle cx="43.348" cy="23.839" r="4.457"/>
	<path d="M45.829,35.019H24.657c-0.596,0-1.152,0.301-1.48,0.797c-0.326,0.498-0.383,1.125-0.148,1.672
		c2.094,4.9,6.889,8.066,12.215,8.066s10.121-3.166,12.217-8.066c0.234-0.547,0.178-1.174-0.15-1.672
		C46.981,35.319,46.424,35.019,45.829,35.019z M35.243,42.009c-2.914,0-5.613-1.293-7.434-3.445h14.867
		C40.856,40.716,38.159,42.009,35.243,42.009z"/>
</g>
</svg>
