<?xml version="1.0" encoding="utf-8"?>
<!-- Generator: Adobe Illustrator 16.0.1, SVG Export Plug-In . SVG Version: 6.00 Build 0)  -->
<!DOCTYPE svg PUBLIC "-//W3C//DTD SVG 1.1//EN" "http://www.w3.org/Graphics/SVG/1.1/DTD/svg11.dtd">
<svg version="1.1" id="Layer_1" xmlns="http://www.w3.org/2000/svg" xmlns:xlink="http://www.w3.org/1999/xlink" x="0px" y="0px"
	 width="70.866px" height="56.693px" viewBox="0 0 70.866 56.693" enable-background="new 0 0 70.866 56.693" xml:space="preserve">
<path d="M35.449,13.483l3.449,9.812c0.553,1.574,2.023,2.639,3.691,2.673l10.439,0.211l-8.287,6.218
	c-1.348,1.012-1.918,2.759-1.426,4.37l3.023,9.878l-8.621-5.936c-0.684-0.469-1.475-0.705-2.268-0.705s-1.586,0.236-2.27,0.705
	l-8.623,5.938l3.021-9.881c0.492-1.611-0.076-3.357-1.424-4.369l-8.286-6.218l10.439-0.211c1.668-0.034,3.141-1.099,3.693-2.673
	L35.449,13.483 M35.451,4.59c-0.67,0-1.266,0.422-1.486,1.054L28.228,21.97l-17.475,0.354c-0.67,0.014-1.261,0.451-1.466,1.09
	c-0.207,0.641,0.017,1.34,0.554,1.744l13.914,10.439L18.7,52.128c-0.197,0.643,0.034,1.336,0.574,1.73
	c0.277,0.203,0.604,0.306,0.933,0.306c0.312,0,0.623-0.093,0.892-0.278l14.352-9.881l14.352,9.881
	c0.27,0.187,0.582,0.279,0.893,0.279c0.326,0,0.654-0.104,0.932-0.307c0.539-0.395,0.771-1.09,0.574-1.73l-5.059-16.531
	l13.916-10.439c0.537-0.404,0.76-1.104,0.553-1.744c-0.205-0.639-0.795-1.076-1.465-1.09L42.671,21.97L36.935,5.644
	C36.714,5.012,36.119,4.59,35.451,4.59L35.451,4.59z"/>
</svg>
