<?xml version="1.0" encoding="utf-8"?>
<!-- Generator: Adobe Illustrator 16.0.1, SVG Export Plug-In . SVG Version: 6.00 Build 0)  -->
<!DOCTYPE svg PUBLIC "-//W3C//DTD SVG 1.1//EN" "http://www.w3.org/Graphics/SVG/1.1/DTD/svg11.dtd">
<svg version="1.1" id="Layer_1" xmlns="http://www.w3.org/2000/svg" xmlns:xlink="http://www.w3.org/1999/xlink" x="0px" y="0px"
	 width="70.866px" height="56.693px" viewBox="0 0 70.866 56.693" enable-background="new 0 0 70.866 56.693" xml:space="preserve">
<path d="M61.611,23.413c-0.205-0.639-0.795-1.076-1.465-1.09L42.671,21.97L36.935,5.644c-0.221-0.632-0.816-1.054-1.484-1.054
	c-0.67,0-1.266,0.422-1.486,1.054L28.228,21.97l-17.475,0.354c-0.67,0.014-1.261,0.451-1.466,1.09
	c-0.207,0.641,0.017,1.34,0.554,1.744l13.914,10.439L18.7,52.128c-0.197,0.643,0.034,1.336,0.574,1.73
	c0.541,0.396,1.273,0.408,1.824,0.027l14.352-9.881l14.352,9.881c0.27,0.187,0.582,0.279,0.893,0.279
	c0.326,0,0.654-0.104,0.932-0.307c0.539-0.395,0.771-1.09,0.574-1.73l-5.059-16.531l13.916-10.439
	C61.595,24.753,61.818,24.054,61.611,23.413z"/>
</svg>
