<?xml version="1.0" encoding="utf-8"?>
<!-- Generator: Adobe Illustrator 16.0.1, SVG Export Plug-In . SVG Version: 6.00 Build 0)  -->
<!DOCTYPE svg PUBLIC "-//W3C//DTD SVG 1.1//EN" "http://www.w3.org/Graphics/SVG/1.1/DTD/svg11.dtd">
<svg version="1.1" id="Layer_1" xmlns="http://www.w3.org/2000/svg" xmlns:xlink="http://www.w3.org/1999/xlink" x="0px" y="0px"
	 width="70.866px" height="56.693px" viewBox="0 0 70.866 56.693" enable-background="new 0 0 70.866 56.693" xml:space="preserve">
<path d="M35.432,4.374c-13.752,0-24.941,11.189-24.941,24.945c0,13.752,11.189,24.942,24.941,24.942
	c13.754,0,24.943-11.189,24.943-24.942C60.375,15.563,49.186,4.374,35.432,4.374z M55.581,20.181l-10.539,3.932
	c-1.01-1.859-2.545-3.394-4.404-4.403l3.934-10.54C49.438,11.386,53.366,15.313,55.581,20.181z M35.432,37.435
	c-4.477,0-8.117-3.641-8.117-8.116c0-4.479,3.641-8.119,8.117-8.119s8.119,3.641,8.119,8.119
	C43.551,33.794,39.909,37.435,35.432,37.435z M26.295,9.169l3.934,10.54c-1.859,1.01-3.395,2.544-4.406,4.403l-10.537-3.934
	C17.5,15.311,21.428,11.386,26.295,9.169z M15.286,38.456l10.537-3.934c1.012,1.859,2.547,3.395,4.404,4.406l-3.932,10.537
	C21.428,47.249,17.5,43.323,15.286,38.456z M44.571,49.466l-3.934-10.537c1.859-1.012,3.395-2.545,4.404-4.406l10.539,3.934
	C53.364,43.323,49.438,47.249,44.571,49.466z"/>
</svg>
