<?xml version="1.0" encoding="utf-8"?>
<!-- Generator: Adobe Illustrator 16.0.1, SVG Export Plug-In . SVG Version: 6.00 Build 0)  -->
<!DOCTYPE svg PUBLIC "-//W3C//DTD SVG 1.1//EN" "http://www.w3.org/Graphics/SVG/1.1/DTD/svg11.dtd">
<svg version="1.1" id="Layer_1" xmlns="http://www.w3.org/2000/svg" xmlns:xlink="http://www.w3.org/1999/xlink" x="0px" y="0px"
	 width="70.866px" height="56.693px" viewBox="0 0 70.866 56.693" enable-background="new 0 0 70.866 56.693" xml:space="preserve">
<g>
	<path d="M23.107,26.528c-0.564,0-0.966,0.136-1.205,0.405c-0.241,0.269-0.36,0.676-0.36,1.223v2.248
		c0,0.546,0.123,0.954,0.372,1.224c0.249,0.269,0.645,0.404,1.193,0.404c0.57,0,0.975-0.136,1.211-0.404
		c0.234-0.27,0.354-0.678,0.354-1.224v-2.248c0-0.547-0.119-0.955-0.354-1.223C24.082,26.665,23.678,26.528,23.107,26.528z"/>
	<path d="M54.522,15.424H16.18c-3.955,0-7.173,3.217-7.173,7.174V35.95c0,3.957,3.218,7.174,7.173,7.174h38.342
		c3.957,0,7.174-3.217,7.174-7.174V22.598C61.696,18.641,58.479,15.424,54.522,15.424z M26.126,30.269
		c0,0.447-0.069,0.861-0.206,1.241c-0.135,0.381-0.333,0.708-0.59,0.98c-0.257,0.275-0.57,0.489-0.944,0.647
		c-0.372,0.158-0.798,0.237-1.278,0.237c-0.473,0-0.896-0.079-1.268-0.237s-0.688-0.372-0.944-0.647
		c-0.257-0.272-0.451-0.6-0.584-0.98c-0.131-0.38-0.199-0.794-0.199-1.241v-1.988c0-0.373,0.051-0.743,0.15-1.112
		c0.099-0.369,0.267-0.7,0.503-0.994c0.235-0.293,0.544-0.534,0.924-0.72c0.382-0.187,0.854-0.28,1.417-0.28
		c0.562,0,1.038,0.093,1.421,0.28c0.386,0.186,0.696,0.427,0.932,0.72c0.237,0.294,0.407,0.625,0.51,0.994
		c0.103,0.369,0.155,0.739,0.155,1.112V30.269z M56.52,35.95c0,1.102-0.896,1.998-1.998,1.998h-19.17V20.601h19.17
		c1.102,0,1.998,0.896,1.998,1.998V35.95z"/>
	<path d="M46.527,25.299h-1.963c-0.214,0-0.386,0.06-0.516,0.18c-0.127,0.12-0.191,0.283-0.191,0.491
		c0,0.191,0.064,0.347,0.191,0.466c0.13,0.12,0.302,0.18,0.516,0.18h1.218v6.175c0,0.149,0.066,0.282,0.199,0.402
		c0.132,0.122,0.313,0.183,0.546,0.183c0.207,0,0.375-0.061,0.504-0.183c0.128-0.12,0.192-0.253,0.192-0.402v-6.907
		c0-0.149-0.064-0.284-0.192-0.404C46.902,25.359,46.734,25.299,46.527,25.299z"/>
</g>
</svg>
