<?xml version="1.0" encoding="utf-8"?>
<!-- Generator: Adobe Illustrator 16.0.1, SVG Export Plug-In . SVG Version: 6.00 Build 0)  -->
<!DOCTYPE svg PUBLIC "-//W3C//DTD SVG 1.1//EN" "http://www.w3.org/Graphics/SVG/1.1/DTD/svg11.dtd">
<svg version="1.1" id="Layer_1" xmlns="http://www.w3.org/2000/svg" xmlns:xlink="http://www.w3.org/1999/xlink" x="0px" y="0px"
	 width="70.866px" height="56.693px" viewBox="0 0 70.866 56.693" enable-background="new 0 0 70.866 56.693" xml:space="preserve">
<path d="M35.147,4.258c-13.629,0-24.719,11.088-24.719,24.717c0,13.631,11.09,24.719,24.719,24.719
	c13.631,0,24.719-11.088,24.719-24.719C59.866,15.346,48.778,4.258,35.147,4.258z M35.147,49.109c-4.41,0-8.49-1.43-11.811-3.842
	l27.859-28.436c2.562,3.379,4.086,7.584,4.086,12.143C55.282,40.076,46.25,49.109,35.147,49.109z M35.147,8.84
	c4.666,0,8.959,1.6,12.377,4.27L19.538,41.676c-2.826-3.469-4.525-7.889-4.525-12.701C15.012,17.873,24.045,8.84,35.147,8.84z"/>
</svg>
