<?xml version="1.0" encoding="utf-8"?>
<!-- Generator: Adobe Illustrator 16.0.1, SVG Export Plug-In . SVG Version: 6.00 Build 0)  -->
<!DOCTYPE svg PUBLIC "-//W3C//DTD SVG 1.1//EN" "http://www.w3.org/Graphics/SVG/1.1/DTD/svg11.dtd">
<svg version="1.1" id="Layer_1" xmlns="http://www.w3.org/2000/svg" xmlns:xlink="http://www.w3.org/1999/xlink" x="0px" y="0px"
	 width="70.866px" height="56.693px" viewBox="0 0 70.866 56.693" enable-background="new 0 0 70.866 56.693" xml:space="preserve">
<path d="M50.097,18.733L36.646,5.405c-0.672-0.666-1.758-0.666-2.428,0L20.769,18.733c-0.322,0.318-0.502,0.752-0.502,1.203v32.768
	c0,0.938,0.768,1.701,1.715,1.701h26.902c0.947,0,1.715-0.764,1.715-1.701V19.937C50.599,19.485,50.417,19.052,50.097,18.733z
	 M43.441,36.948h-5.912v5.848c0,1.146-0.928,2.074-2.086,2.074c-1.15,0-2.086-0.928-2.086-2.074v-5.848h-5.9
	c-1.156,0-2.086-0.926-2.086-2.068c0-1.145,0.93-2.066,2.086-2.066h5.9v-5.857c0-1.143,0.936-2.064,2.086-2.064
	c1.158,0,2.086,0.922,2.086,2.064v5.857h5.912c1.152,0,2.086,0.922,2.086,2.066C45.527,36.022,44.593,36.948,43.441,36.948z"/>
</svg>
