<?xml version="1.0" encoding="utf-8"?>
<!-- Generator: Adobe Illustrator 16.0.1, SVG Export Plug-In . SVG Version: 6.00 Build 0)  -->
<!DOCTYPE svg PUBLIC "-//W3C//DTD SVG 1.1//EN" "http://www.w3.org/Graphics/SVG/1.1/DTD/svg11.dtd">
<svg version="1.1" id="Layer_1" xmlns="http://www.w3.org/2000/svg" xmlns:xlink="http://www.w3.org/1999/xlink" x="0px" y="0px"
	 width="56.693px" height="56.693px" viewBox="0 0 56.693 56.693" enable-background="new 0 0 56.693 56.693" xml:space="preserve">
<path d="M44.877,25.206c-0.276-0.056-0.557-0.093-0.841-0.127c-0.054-0.006-0.105-0.018-0.159-0.024
	C43.529,25.019,43.175,25,42.819,25c-0.006,0-0.014,0-0.021,0c-0.019,0-0.032-0.002-0.048-0.002c-0.366,0-0.729,0.021-1.086,0.056
	c-1.278-4.169-5.155-7.134-9.655-7.134c-0.491,0-1.163,0.04-1.785,0.113c-2.211-2.966-5.734-4.897-9.719-4.897
	c-6.695,0-12.125,5.428-12.125,12.125c0,0.269,0.023,0.531,0.042,0.795c-3.259,2.012-5.438,5.605-5.438,9.719
	c0,6.301,5.102,11.41,11.403,11.423v0.002h27.525l-0.004-0.042c0.28,0.02,0.559,0.042,0.843,0.042
	c6.132,0,11.101-4.971,11.101-11.101C53.851,30.694,49.989,26.198,44.877,25.206z M33.357,33.307c-0.005,0-0.009,0-0.013,0h-3.244
	v7.283c0,0.465-0.378,0.843-0.841,0.843h-3.084c-0.465,0-0.841-0.378-0.841-0.843v-7.283h-3.247c-0.316,0-0.606-0.177-0.752-0.459
	c-0.143-0.283-0.115-0.621,0.068-0.877l5.633-7.751c0.159-0.219,0.412-0.348,0.682-0.348c0.268,0,0.521,0.129,0.68,0.348
	l5.561,7.655c0.149,0.151,0.241,0.36,0.241,0.591C34.2,32.929,33.822,33.307,33.357,33.307z"/>
</svg>
