<?xml version="1.0" encoding="utf-8"?>
<!-- Generator: Adobe Illustrator 16.0.1, SVG Export Plug-In . SVG Version: 6.00 Build 0)  -->
<!DOCTYPE svg PUBLIC "-//W3C//DTD SVG 1.1//EN" "http://www.w3.org/Graphics/SVG/1.1/DTD/svg11.dtd">
<svg version="1.1" id="Layer_1" xmlns="http://www.w3.org/2000/svg" xmlns:xlink="http://www.w3.org/1999/xlink" x="0px" y="0px"
	 width="70.866px" height="56.693px" viewBox="0 0 70.866 56.693" enable-background="new 0 0 70.866 56.693" xml:space="preserve">
<g>
	<path d="M23.509,27.795v3.166c0,0.985,0.803,1.789,1.789,1.789h19.74c0.986,0,1.788-0.804,1.786-1.789v-3.166
		c0-0.99-0.8-1.787-1.786-1.787h-19.74C24.312,26.008,23.509,26.805,23.509,27.795z M25.653,28.149h19.028v2.455H25.653V28.149z"/>
	<path d="M28.792,35.234H13.114V23.522H28.79l0,0h3.572v-1.136c0-1.344-1.092-2.436-2.438-2.436H11.98
		c-1.344,0-2.438,1.092-2.438,2.436V36.37c0,1.342,1.094,2.436,2.436,2.436h17.948c1.342,0,2.436-1.094,2.438-2.438v-1.136h-3.572
		V35.234z"/>
	<path d="M60.082,20.664c-0.462-0.461-1.074-0.713-1.727-0.713H40.41c-1.343,0-2.437,1.092-2.437,2.436v1.136h3.572l0,0h15.676
		v11.71l-12.922,0.002h-2.754h-3.572v1.134c0,1.344,1.094,2.438,2.437,2.439l17.947-0.002c0.65,0,1.265-0.256,1.725-0.716
		c0.459-0.462,0.713-1.073,0.711-1.72V22.39C60.794,21.739,60.541,21.127,60.082,20.664z"/>
</g>
</svg>
