<?xml version="1.0" encoding="utf-8"?>
<!-- Generator: Adobe Illustrator 16.0.1, SVG Export Plug-In . SVG Version: 6.00 Build 0)  -->
<!DOCTYPE svg PUBLIC "-//W3C//DTD SVG 1.1//EN" "http://www.w3.org/Graphics/SVG/1.1/DTD/svg11.dtd">
<svg version="1.1" id="Layer_1" xmlns="http://www.w3.org/2000/svg" xmlns:xlink="http://www.w3.org/1999/xlink" x="0px" y="0px"
	 width="56.693px" height="56.693px" viewBox="0 0 56.693 56.693" enable-background="new 0 0 56.693 56.693" xml:space="preserve">
<path d="M52.433,44.473c-7.979-3.085-16.837-7.911-17.581-10.296v-1.505c1.654-1.694,2.96-4.055,3.733-6.821
	c1.027-0.721,1.703-1.936,1.703-3.314c0-0.981-0.354-1.868-0.922-2.564v-5.604c0-5.784-3.221-9.744-10.585-9.744
	c-7.173,0-10.587,3.959-10.587,9.744v5.604c-0.565,0.696-0.922,1.583-0.922,2.563c0,1.379,0.677,2.592,1.703,3.314
	c0.771,2.766,2.079,5.127,3.734,6.821v1.505c-0.742,2.383-9.601,7.209-17.58,10.296C4.449,44.735,4,45.398,4,46.138v6.26
	c0,0.982,0.785,1.781,1.755,1.781h46.053c0.968,0,1.754-0.799,1.754-1.781v-6.26C53.562,45.398,53.112,44.735,52.433,44.473z"/>
</svg>
