<?xml version="1.0" encoding="utf-8"?>
<!-- Generator: Adobe Illustrator 16.0.1, SVG Export Plug-In . SVG Version: 6.00 Build 0)  -->
<!DOCTYPE svg PUBLIC "-//W3C//DTD SVG 1.1//EN" "http://www.w3.org/Graphics/SVG/1.1/DTD/svg11.dtd">
<svg version="1.1" id="Layer_1" xmlns="http://www.w3.org/2000/svg" xmlns:xlink="http://www.w3.org/1999/xlink" x="0px" y="0px"
	 width="70.866px" height="56.693px" viewBox="0 0 70.866 56.693" enable-background="new 0 0 70.866 56.693" xml:space="preserve">
<g>
	<path d="M59.88,17.989c-0.453-0.295-1.023-0.34-1.516-0.121l-13.273,5.885c-0.574,0.256-0.945,0.826-0.945,1.457v6.551
		c0,0.631,0.371,1.201,0.945,1.455l13.273,5.887c0.207,0.092,0.428,0.137,0.645,0.137c0.305,0,0.607-0.086,0.871-0.258
		c0.451-0.294,0.723-0.795,0.723-1.334V19.323C60.603,18.784,60.332,18.282,59.88,17.989z"/>
	<path d="M39.244,16.935H13.148c-1,0-1.811,0.811-1.811,1.811v19.48c0,0.999,0.811,1.811,1.811,1.811h26.096
		c0.998,0,1.811-0.812,1.811-1.811v-19.48C41.054,17.745,40.242,16.935,39.244,16.935z"/>
</g>
</svg>
