<?xml version="1.0" encoding="utf-8"?>
<!-- Generator: Adobe Illustrator 16.0.1, SVG Export Plug-In . SVG Version: 6.00 Build 0)  -->
<!DOCTYPE svg PUBLIC "-//W3C//DTD SVG 1.1//EN" "http://www.w3.org/Graphics/SVG/1.1/DTD/svg11.dtd">
<svg version="1.1" id="Layer_1" xmlns="http://www.w3.org/2000/svg" xmlns:xlink="http://www.w3.org/1999/xlink" x="0px" y="0px"
	 width="70.866px" height="56.693px" viewBox="0 0 70.866 56.693" enable-background="new 0 0 70.866 56.693" xml:space="preserve">
<g>
	<path d="M22.029,4.761H11.171c-0.854,0-1.547,0.695-1.547,1.549v10.856c0,0.856,0.693,1.548,1.547,1.548h10.857
		c0.855,0,1.547-0.691,1.547-1.548V6.31C23.576,5.456,22.884,4.761,22.029,4.761z M20.48,15.617h-7.758V7.859h7.758V15.617z"/>
	<path d="M22.029,22.422H11.171c-0.854,0-1.547,0.694-1.547,1.55v10.854c0,0.855,0.693,1.549,1.547,1.549h10.857
		c0.855,0,1.547-0.693,1.547-1.549V23.972C23.576,23.116,22.884,22.422,22.029,22.422z M20.48,33.276h-7.758v-7.756h7.758V33.276z"
		/>
	<path d="M22.029,40.083H11.171c-0.854,0-1.547,0.692-1.547,1.548v10.855c0,0.854,0.693,1.549,1.547,1.549h10.857
		c0.855,0,1.547-0.695,1.547-1.549V41.631C23.576,40.775,22.884,40.083,22.029,40.083z M20.48,50.938h-7.758V43.18h7.758V50.938z"/>
	<path d="M40.615,4.761H29.757c-0.854,0-1.547,0.695-1.547,1.549v10.856c0,0.856,0.693,1.548,1.547,1.548h10.857
		c0.855,0,1.549-0.691,1.549-1.548V6.31C42.164,5.456,41.47,4.761,40.615,4.761z M39.066,15.617h-7.758V7.859h7.758V15.617z"/>
	<path d="M40.615,22.422H29.757c-0.854,0-1.547,0.694-1.547,1.55v10.854c0,0.855,0.693,1.549,1.547,1.549h10.857
		c0.855,0,1.549-0.693,1.549-1.549V23.972C42.164,23.116,41.47,22.422,40.615,22.422z M39.066,33.276h-7.758v-7.756h7.758V33.276z"
		/>
	<path d="M40.615,40.083H29.757c-0.854,0-1.547,0.692-1.547,1.548v10.855c0,0.854,0.693,1.549,1.547,1.549h10.857
		c0.855,0,1.549-0.695,1.549-1.549V41.631C42.164,40.775,41.47,40.083,40.615,40.083z M39.066,50.938h-7.758V43.18h7.758V50.938z"/>
	<path d="M59.201,4.761H48.345c-0.855,0-1.549,0.695-1.549,1.549v10.856c0,0.856,0.693,1.548,1.549,1.548h10.855
		c0.855,0,1.549-0.691,1.549-1.548V6.31C60.75,5.456,60.056,4.761,59.201,4.761z M57.652,15.617h-7.758V7.859h7.758V15.617z"/>
	<path d="M59.201,22.422H48.345c-0.855,0-1.549,0.694-1.549,1.55v10.854c0,0.855,0.693,1.549,1.549,1.549h10.855
		c0.855,0,1.549-0.693,1.549-1.549V23.972C60.75,23.116,60.056,22.422,59.201,22.422z M57.652,33.276h-7.758v-7.756h7.758V33.276z"
		/>
	<path d="M59.201,40.083H48.345c-0.855,0-1.549,0.692-1.549,1.548v10.855c0,0.854,0.693,1.549,1.549,1.549h10.855
		c0.855,0,1.549-0.695,1.549-1.549V41.631C60.75,40.775,60.056,40.083,59.201,40.083z M57.652,50.938h-7.758V43.18h7.758V50.938z"/>
</g>
</svg>
