<?xml version="1.0" encoding="utf-8"?>
<!-- Generator: Adobe Illustrator 16.0.1, SVG Export Plug-In . SVG Version: 6.00 Build 0)  -->
<!DOCTYPE svg PUBLIC "-//W3C//DTD SVG 1.1//EN" "http://www.w3.org/Graphics/SVG/1.1/DTD/svg11.dtd">
<svg version="1.1" id="Layer_1" xmlns="http://www.w3.org/2000/svg" xmlns:xlink="http://www.w3.org/1999/xlink" x="0px" y="0px"
	 width="70.866px" height="56.693px" viewBox="0 0 70.866 56.693" enable-background="new 0 0 70.866 56.693" xml:space="preserve">
<g>
	<path d="M35.634,22.042c-3.59,0-6.5,2.91-6.5,6.502c0,3.59,2.91,6.502,6.5,6.502c3.594,0,6.504-2.912,6.504-6.502
		C42.138,24.952,39.228,22.042,35.634,22.042z"/>
	<path d="M60.115,27.598c-5.047-9.896-14.426-16.045-24.479-16.045s-19.434,6.148-24.479,16.045l-0.484,0.946l0.484,0.945
		c5.045,9.896,14.426,16.043,24.479,16.043s19.432-6.146,24.479-16.043l0.482-0.945L60.115,27.598z M35.636,41.368
		c-8.16,0-15.838-4.887-20.264-12.824c4.426-7.938,12.104-12.825,20.264-12.825S51.472,20.606,55.9,28.544
		C51.472,36.481,43.796,41.368,35.636,41.368z"/>
</g>
</svg>
