<?xml version="1.0" encoding="utf-8"?>
<!-- Generator: Adobe Illustrator 16.0.1, SVG Export Plug-In . SVG Version: 6.00 Build 0)  -->
<!DOCTYPE svg PUBLIC "-//W3C//DTD SVG 1.1//EN" "http://www.w3.org/Graphics/SVG/1.1/DTD/svg11.dtd">
<svg version="1.1" id="Layer_1" xmlns="http://www.w3.org/2000/svg" xmlns:xlink="http://www.w3.org/1999/xlink" x="0px" y="0px"
	 width="56.693px" height="56.693px" viewBox="0 0 56.693 56.693" enable-background="new 0 0 56.693 56.693" xml:space="preserve">
<path d="M28.468,5.377c-13.476,0-24.439,10.962-24.439,24.438c0,13.478,10.963,24.441,24.439,24.441
	c13.477,0,24.439-10.964,24.439-24.441C52.907,16.339,41.945,5.377,28.468,5.377z M28.468,50.78c-6.135,0-11.665-2.651-15.501-6.867
	c0.157-0.459,1.207-3.489,1.905-4.881c0.754-1.511,1.005-1.677,2.682-3.188c1.676-1.508-3.353-2.179-4.526-3.353
	c-1.174-1.173-1.762-1.173-3.102-2.236c-1.003-0.796-1.585,2.729-1.813,4.553c-0.395-1.601-0.607-3.271-0.607-4.994
	c0-4.448,1.398-8.572,3.77-11.972c-0.667,2.071-1.266,5.089,1.332,4.173c2.85-1.007,3.102-2.18,3.102-2.18l1.676-2.934
	c0,0,0.251,4.107,0.587,4.692c0.336,0.588,1.676,2.266,2.179-0.082c0.924-4.314,1.081-5.533,2.674-5.533
	c1.591,0,4.871-1.259,5.207,2.599c0.334,3.856-0.336,1.593-2.432,2.598c-2.094,1.005-2.599,4.526-0.671,4.946
	c1.93,0.419,6.288,2.179,6.288,2.179l2.179,2.433l0.673,2.599c0,0,0.418,2.933,0.418,3.184c0,0.252,0,2.685,0,2.685
	s0.085,5.28,2.013,4.023c1.927-1.258,7.208-9.473,6.119-12.575c-1.09-3.102-1.174-3.438,0.837-4.526
	c2.014-1.09,3.438-2.431,3.355-3.94c-0.061-1.058,0.048-1.704,0.06-2.397c1.632,2.981,2.561,6.399,2.561,10.03
	C49.432,41.375,40.028,50.78,28.468,50.78z"/>
</svg>
