<?xml version="1.0" encoding="utf-8"?>
<!-- Generator: Adobe Illustrator 16.0.1, SVG Export Plug-In . SVG Version: 6.00 Build 0)  -->
<!DOCTYPE svg PUBLIC "-//W3C//DTD SVG 1.1//EN" "http://www.w3.org/Graphics/SVG/1.1/DTD/svg11.dtd">
<svg version="1.1" id="Layer_1" xmlns="http://www.w3.org/2000/svg" xmlns:xlink="http://www.w3.org/1999/xlink" x="0px" y="0px"
	 width="70.866px" height="56.693px" viewBox="0 0 70.866 56.693" enable-background="new 0 0 70.866 56.693" xml:space="preserve">
<path d="M60.278,12.773l-7.516-7.512c-0.581-0.581-1.522-0.581-2.101,0l-1.048,1.05l-2.385,2.385l-0.141,0.139L16.562,39.358
	c-0.14,0.143-0.25,0.311-0.325,0.495l-5.086,12.599c-0.226,0.553-0.095,1.183,0.327,1.605c0.284,0.283,0.665,0.434,1.046,0.434
	c0.188,0,0.375-0.035,0.558-0.107l8.004-3.229l4.597-1.856c0.183-0.076,0.35-0.185,0.488-0.328l33.973-33.972l0.133-0.129
	c0.273-0.277,0.431-0.653,0.431-1.048C60.708,13.428,60.551,13.052,60.278,12.773z M24.292,46.659l-4.92,1.986l-2.485-2.481
	l1.99-4.918L51.71,8.407l2.495,2.493L22.962,42.143c-0.288,0.29-0.288,0.757,0,1.047c0.15,0.146,0.333,0.22,0.525,0.22
	c0.19,0,0.379-0.074,0.525-0.22l31.243-31.241l1.872,1.873L24.292,46.659z"/>
</svg>
