<?xml version="1.0" encoding="utf-8"?>
<!-- Generator: Adobe Illustrator 16.0.1, SVG Export Plug-In . SVG Version: 6.00 Build 0)  -->
<!DOCTYPE svg PUBLIC "-//W3C//DTD SVG 1.1//EN" "http://www.w3.org/Graphics/SVG/1.1/DTD/svg11.dtd">
<svg version="1.1" id="Layer_1" xmlns="http://www.w3.org/2000/svg" xmlns:xlink="http://www.w3.org/1999/xlink" x="0px" y="0px"
	 width="70.866px" height="56.693px" viewBox="0 0 70.866 56.693" enable-background="new 0 0 70.866 56.693" xml:space="preserve">
<g>
	<path d="M55.893,4.374H14.977c-2.744,0-4.975,2.23-4.975,4.971v39.832c0,2.744,2.23,4.975,4.975,4.975h40.916
		c2.74,0,4.971-2.23,4.971-4.975V9.345C60.864,6.604,58.633,4.374,55.893,4.374z M14.909,9.345c0-0.033,0.023-0.068,0.068-0.068
		l40.982,0.068l-0.066,39.9l-40.984-0.068V9.345z"/>
	<path d="M48.709,16.165c-0.986-0.752-2.488-0.551-3.24,0.434L30.374,36.37l-5.361-6.338c-0.789-0.934-2.318-1.066-3.258-0.271
		c-0.973,0.824-1.096,2.285-0.271,3.258l7.215,8.533c0.439,0.52,1.084,0.818,1.764,0.818h0.053h0.006
		c0.699-0.016,1.35-0.348,1.781-0.908l16.844-22.057C49.918,18.392,49.723,16.938,48.709,16.165z"/>
</g>
</svg>
