<?xml version="1.0" encoding="utf-8"?>
<!-- Generator: Adobe Illustrator 16.0.1, SVG Export Plug-In . SVG Version: 6.00 Build 0)  -->
<!DOCTYPE svg PUBLIC "-//W3C//DTD SVG 1.1//EN" "http://www.w3.org/Graphics/SVG/1.1/DTD/svg11.dtd">
<svg version="1.1" id="Layer_1" xmlns="http://www.w3.org/2000/svg" xmlns:xlink="http://www.w3.org/1999/xlink" x="0px" y="0px"
	 width="70.866px" height="56.693px" viewBox="0 0 70.866 56.693" enable-background="new 0 0 70.866 56.693" xml:space="preserve">
<g>
	<path d="M28.039,28.912l0.301-0.857l2.703-7.693c0.635-1.809,2.352-3.023,4.27-3.023s3.633,1.215,4.27,3.025l2.701,7.689
		l0.303,0.859l1.438,0.029l1.742,0.035V5.955c0-0.459-0.184-0.902-0.51-1.23c-0.328-0.326-0.77-0.508-1.23-0.508H26.599
		c-0.961,0-1.74,0.777-1.74,1.738v23.021l1.74-0.035L28.039,28.912z"/>
	<path d="M52.662,33.303c-0.137-0.424-0.527-0.715-0.975-0.725l-5.922-0.119l-1.742-0.035l-1.74-0.037l-1.486-0.027l-0.697-0.016
		l-0.367-1.049l-3.436-9.779c-0.146-0.416-0.541-0.697-0.984-0.697s-0.84,0.281-0.986,0.697l-3.434,9.779l-0.369,1.049l-0.697,0.016
		l-1.486,0.027l-1.74,0.037l-1.74,0.035l-5.924,0.119c-0.447,0.01-0.838,0.301-0.975,0.725s0.012,0.887,0.369,1.154l9.227,6.924
		l-3.354,10.963c-0.129,0.426,0.023,0.885,0.383,1.148c0.09,0.066,0.189,0.115,0.293,0.148c0.033,0.012,0.068,0.012,0.104,0.02
		c0.07,0.014,0.141,0.031,0.213,0.033c0.002,0,0.006,0,0.008,0c0.066,0,0.131-0.016,0.197-0.029c0.035-0.006,0.07-0.004,0.105-0.016
		c0.102-0.031,0.199-0.076,0.289-0.139l9.518-6.555l9.518,6.555c0.178,0.123,0.385,0.184,0.592,0.184
		c0.217,0,0.434-0.066,0.617-0.201c0.359-0.264,0.512-0.725,0.383-1.148l-3.355-10.963l9.229-6.924
		C52.65,34.189,52.798,33.727,52.662,33.303z"/>
</g>
</svg>
