<?xml version="1.0" encoding="utf-8"?>
<!-- Generator: Adobe Illustrator 16.0.1, SVG Export Plug-In . SVG Version: 6.00 Build 0)  -->
<!DOCTYPE svg PUBLIC "-//W3C//DTD SVG 1.1//EN" "http://www.w3.org/Graphics/SVG/1.1/DTD/svg11.dtd">
<svg version="1.1" id="Layer_1" xmlns="http://www.w3.org/2000/svg" xmlns:xlink="http://www.w3.org/1999/xlink" x="0px" y="0px"
	 width="56.693px" height="56.693px" viewBox="0 0 56.693 56.693" enable-background="new 0 0 56.693 56.693" xml:space="preserve">
<g>
	<path d="M46.016,6.489h-4.939v3.471h3.207v40.973H18.07V9.959h7.713V6.489h-9.447h-2.43c-0.037,0-0.07,0.009-0.105,0.012
		c-0.023-0.002-0.047-0.01-0.072-0.01c-0.02-0.002-0.107-0.003-0.129-0.003c-2.234,0-4.494,1.183-4.494,3.822v16.226v7.822v16.225
		c0,2.641,2.26,3.822,4.494,3.822c0.021,0,0.109-0.002,0.129-0.002c0.025-0.002,0.047-0.008,0.068-0.01
		c0.037,0.002,0.072,0.012,0.109,0.012h2.43h29.68c0.959,0,1.738-0.777,1.738-1.736V8.225C47.754,7.266,46.975,6.489,46.016,6.489z"
		/>
	<path d="M28.334,33.81c0.084,0.035,0.174,0.047,0.262,0.051c0.008,0,0.018,0.006,0.027,0.006c0.018,0,0.031-0.01,0.049-0.01
		c0.064-0.002,0.129-0.018,0.189-0.037c0.027-0.008,0.051-0.016,0.072-0.025c0.082-0.037,0.16-0.084,0.225-0.148l4.27-4.266
		l4.275,4.266c0.064,0.064,0.141,0.111,0.221,0.148c0.027,0.01,0.051,0.018,0.076,0.025c0.061,0.02,0.123,0.035,0.188,0.037
		c0.018,0,0.031,0.01,0.051,0.01c0.008,0,0.018-0.006,0.027-0.006c0.088-0.004,0.178-0.016,0.26-0.051
		c0.096-0.041,0.178-0.096,0.246-0.164c0.141-0.139,0.223-0.33,0.223-0.535V5.131c0-0.201-0.078-0.395-0.221-0.537
		s-0.334-0.221-0.533-0.221h-9.617c-0.072,0-0.139,0.023-0.207,0.041c-0.029,0.008-0.061,0.008-0.086,0.017
		c-0.271,0.114-0.463,0.384-0.463,0.698V33.11C27.867,33.415,28.053,33.69,28.334,33.81z"/>
</g>
</svg>
