<?xml version="1.0" encoding="utf-8"?>
<!-- Generator: Adobe Illustrator 16.0.1, SVG Export Plug-In . SVG Version: 6.00 Build 0)  -->
<!DOCTYPE svg PUBLIC "-//W3C//DTD SVG 1.1//EN" "http://www.w3.org/Graphics/SVG/1.1/DTD/svg11.dtd">
<svg version="1.1" id="Layer_1" xmlns="http://www.w3.org/2000/svg" xmlns:xlink="http://www.w3.org/1999/xlink" x="0px" y="0px"
	 width="56.693px" height="56.693px" viewBox="0 0 56.693 56.693" enable-background="new 0 0 56.693 56.693" xml:space="preserve">
<g>
	<path d="M15.206,42.948c1.004,0.659,3.024,1.427,5.416,1.427c5.352,0,7.788-3.398,7.788-6.557c0-2.189-1.17-4.044-3.047-5.042
		c1.49-1.056,2.314-2.591,2.314-4.395c0-2.682-1.946-5.385-6.295-5.385c-2.382,0-4.453,0.874-5.5,1.622
		c-0.31,0.222-0.434,0.624-0.3,0.981l0.705,1.877c0.092,0.246,0.292,0.434,0.542,0.508c0.251,0.077,0.524,0.032,0.736-0.12
		c0.71-0.508,2.008-1.104,3.32-1.104c1.611,0,2.499,0.721,2.499,2.03c0,1.747-2.038,2.38-3.408,2.38h-1.435
		c-0.465,0-0.842,0.377-0.842,0.842v1.936c0,0.464,0.377,0.843,0.842,0.843h1.435c0.677,0,4.05,0.144,4.083,2.982
		c0.012,0.726-0.255,1.423-0.736,1.912c-0.603,0.612-1.521,0.925-2.731,0.925c-1.605,0-3.135-0.664-3.787-1.055
		c-0.216-0.13-0.483-0.155-0.718-0.07c-0.237,0.084-0.425,0.271-0.509,0.51l-0.705,1.964C14.743,42.325,14.879,42.734,15.206,42.948
		z"/>
	<path d="M31.472,28.561c0.065,0.251,0.24,0.458,0.478,0.563c0.239,0.106,0.511,0.092,0.74-0.029l2.128-1.148v15.265
		c0,0.464,0.377,0.841,0.842,0.841h2.492c0.465,0,0.842-0.377,0.842-0.841V24.163c0-0.465-0.377-0.844-0.842-0.844h-2.199
		c-0.138,0-0.274,0.034-0.396,0.1l-4.162,2.227c-0.342,0.185-0.515,0.575-0.418,0.95L31.472,28.561z"/>
	<path d="M48.142,4.374H8.553c-2.855,0-5.178,2.321-5.178,5.177v39.678c0,2.854,2.323,5.177,5.178,5.177h39.589
		c2.854,0,5.177-2.322,5.177-5.177V9.551C53.318,6.695,50.996,4.374,48.142,4.374z M39.172,8.112c1.107,0,2.004,0.898,2.004,2.005
		c0,1.108-0.896,2.005-2.004,2.005s-2.005-0.897-2.005-2.005C37.167,9.01,38.064,8.112,39.172,8.112z M17.628,8.096
		c1.107,0,2.004,0.898,2.004,2.005c0,1.108-0.897,2.005-2.004,2.005c-1.107,0-2.005-0.897-2.005-2.005
		C15.623,8.995,16.521,8.096,17.628,8.096z M49.95,49.229c0,0.995-0.812,1.808-1.809,1.808H8.553c-0.998,0-1.807-0.812-1.807-1.808
		V15.167H49.95V49.229z"/>
</g>
</svg>
