<?xml version="1.0" encoding="utf-8"?>
<!-- Generator: Adobe Illustrator 16.0.1, SVG Export Plug-In . SVG Version: 6.00 Build 0)  -->
<!DOCTYPE svg PUBLIC "-//W3C//DTD SVG 1.1//EN" "http://www.w3.org/Graphics/SVG/1.1/DTD/svg11.dtd">
<svg version="1.1" id="Layer_1" xmlns="http://www.w3.org/2000/svg" xmlns:xlink="http://www.w3.org/1999/xlink" x="0px" y="0px"
	 width="56.693px" height="56.693px" viewBox="0 0 56.693 56.693" enable-background="new 0 0 56.693 56.693" xml:space="preserve">
<g>
	<path d="M28.131,24.006c-4.271,0-7.743,3.473-7.743,7.742s3.473,7.744,7.743,7.744s7.743-3.475,7.743-7.744
		S32.401,24.006,28.131,24.006z"/>
	<path d="M53.317,21.826c-0.123-1.699-1.328-4.91-5.004-4.91h-6.908c-0.303-3.35-1.799-7.732-5.991-7.732H21.778l-0.137,0.008
		c-0.447,0.047-4.176,0.648-4.589,7.732l-8.298,0.061c-1.859,0.08-5.374,1.318-5.374,5.428V42.43
		c-0.028,0.432-0.06,2.213,1.19,3.586c0.899,0.99,2.191,1.494,3.84,1.494h39.943l0.065-0.006c1.694-0.164,4.901-1.426,4.901-5.023
		V21.924L53.317,21.826z M28.131,43.492c-6.476,0-11.743-5.268-11.743-11.744c0-6.475,5.268-11.742,11.743-11.742
		s11.743,5.268,11.743,11.742C39.874,38.225,34.606,43.492,28.131,43.492z M44.442,27.371c-1.188,0-2.154-0.967-2.154-2.154
		s0.966-2.154,2.154-2.154c1.187,0,2.153,0.967,2.153,2.154S45.629,27.371,44.442,27.371z"/>
</g>
</svg>
