<?xml version="1.0" encoding="utf-8"?>
<!-- Generator: Adobe Illustrator 16.0.1, SVG Export Plug-In . SVG Version: 6.00 Build 0)  -->
<!DOCTYPE svg PUBLIC "-//W3C//DTD SVG 1.1//EN" "http://www.w3.org/Graphics/SVG/1.1/DTD/svg11.dtd">
<svg version="1.1" id="Layer_1" xmlns="http://www.w3.org/2000/svg" xmlns:xlink="http://www.w3.org/1999/xlink" x="0px" y="0px"
	 width="56.693px" height="56.693px" viewBox="0 0 56.693 56.693" enable-background="new 0 0 56.693 56.693" xml:space="preserve">
<g>
	<path d="M49.756,25.057h-4.181c-0.198,0-0.382,0.059-0.545,0.147l-1.886-7.502c-0.603-3.23-2.876-5.396-5.668-5.396H19.772
		c-3.206,0-5.152,2.701-5.669,5.393l-1.89,7.523c-0.172-0.101-0.367-0.164-0.579-0.164H7.453c-0.644,0-1.164,0.52-1.164,1.165v1.009
		c0,0.644,0.521,1.164,1.164,1.164l1.582,0.271c-0.499,0.977-0.784,2.095-0.784,3.395l-0.586,6.7c0,0.195,0.014,0.393,0.038,0.591
		C7.68,39.476,7.665,39.6,7.665,39.73v9.886c0,1.148,0.931,2.077,2.078,2.077h3.171c1.147,0,2.077-0.929,2.077-2.077V45.2h27.263
		v4.416c0,1.148,0.932,2.077,2.079,2.077h3.171c1.147,0,2.079-0.929,2.079-2.077V39.73c0-0.131-0.017-0.255-0.039-0.379
		c0.023-0.198,0.039-0.396,0.039-0.591l-0.588-6.7c0-1.304-0.285-2.422-0.788-3.401l1.549-0.265c0.643,0,1.164-0.521,1.164-1.164
		v-1.009C50.92,25.576,50.398,25.057,49.756,25.057z M15.5,23.863l1.385-5.51l0.018-0.086c0.139-0.746,0.446-1.487,0.9-2.062H39.47
		c0.459,0.591,0.745,1.351,0.871,2.055l1.405,5.604l0.516,2.053c-0.116,1.501-1.921,2.688-3.423,2.688h-20.43
		c-1.504,0-3.307-1.187-3.424-2.688L15.5,23.863z M16.471,41.381c-1.739,0-3.146-1.41-3.146-3.146c0-1.739,1.408-3.147,3.146-3.147
		c1.738,0,3.146,1.408,3.146,3.147C19.617,39.971,18.209,41.381,16.471,41.381z M34.04,39.059c0,0.519-0.417,0.937-0.935,0.937
		h-8.827c-0.517,0-0.935-0.418-0.935-0.937V36.43c0-0.515,0.418-0.935,0.935-0.935h8.827c0.518,0,0.935,0.42,0.935,0.935V39.059z
		 M40.776,41.381c-1.738,0-3.147-1.41-3.147-3.146c0-1.739,1.409-3.147,3.147-3.147c1.737,0,3.146,1.408,3.146,3.147
		C43.922,39.971,42.514,41.381,40.776,41.381z"/>
	<path d="M26.587,19.943h4.212c0.429,0,0.776-0.35,0.776-0.778l-0.064-0.66c0-0.428-0.349-0.776-0.776-0.776h-4.083
		c-0.428,0-0.776,0.348-0.776,0.776l-0.065,0.66C25.81,19.594,26.158,19.943,26.587,19.943z"/>
</g>
</svg>
