<?xml version="1.0" encoding="utf-8"?>
<!-- Generator: Adobe Illustrator 16.0.1, SVG Export Plug-In . SVG Version: 6.00 Build 0)  -->
<!DOCTYPE svg PUBLIC "-//W3C//DTD SVG 1.1//EN" "http://www.w3.org/Graphics/SVG/1.1/DTD/svg11.dtd">
<svg version="1.1" id="Layer_1" xmlns="http://www.w3.org/2000/svg" xmlns:xlink="http://www.w3.org/1999/xlink" x="0px" y="0px"
	 width="70.866px" height="56.693px" viewBox="0 0 70.866 56.693" enable-background="new 0 0 70.866 56.693" xml:space="preserve">
<g>
	<path d="M56.07,29.299c0.932,0,1.736-0.641,1.949-1.547l5.436-17.711c0.25-1.077-0.418-2.153-1.494-2.404s-2.15,0.417-2.402,1.491
		l-0.574,2.446H22.222l-1.062-4.99C20.964,5.66,20.148,5,19.203,5h-9.186C8.912,5,8.015,5.896,8.015,7
		c0,1.105,0.896,2.002,2.002,2.002h7.566l5.094,23.925c-0.004,0.019-0.014,0.035-0.018,0.055l-1.303,6.385
		c-0.1,0.488,0.025,0.996,0.342,1.383c0.314,0.385,0.787,0.609,1.285,0.609h33.584c0.918,0,1.66-0.744,1.66-1.66
		s-0.742-1.66-1.66-1.66H25.015l0.691-3.384L56.07,29.299z"/>
	<path d="M27.062,45.003c-2.598,0-4.703,2.104-4.703,4.699c0,2.6,2.105,4.701,4.703,4.701c2.596,0,4.699-2.102,4.699-4.701
		C31.761,47.106,29.658,45.003,27.062,45.003z"/>
	<path d="M51.894,45.003c-2.598,0-4.701,2.104-4.701,4.699c0,2.6,2.104,4.701,4.701,4.701c2.596,0,4.699-2.102,4.699-4.701
		C56.593,47.106,54.49,45.003,51.894,45.003z"/>
</g>
</svg>
