<?xml version="1.0" encoding="utf-8"?>
<!-- Generator: Adobe Illustrator 16.0.1, SVG Export Plug-In . SVG Version: 6.00 Build 0)  -->
<!DOCTYPE svg PUBLIC "-//W3C//DTD SVG 1.1//EN" "http://www.w3.org/Graphics/SVG/1.1/DTD/svg11.dtd">
<svg version="1.1" id="Layer_1" xmlns="http://www.w3.org/2000/svg" xmlns:xlink="http://www.w3.org/1999/xlink" x="0px" y="0px"
	 width="70.866px" height="56.693px" viewBox="0 0 70.866 56.693" enable-background="new 0 0 70.866 56.693" xml:space="preserve">
<g>
	<path d="M56.599,43.416H13.948c-1.663,0-3.012,1.351-3.012,3.012v4.985c0,1.666,1.349,3.014,3.012,3.014h42.651
		c1.663,0,3.012-1.348,3.012-3.014v-4.985C59.611,44.767,58.262,43.416,56.599,43.416z M35.274,50.775
		c-1.024,0-1.854-0.831-1.854-1.854c0-1.023,0.83-1.854,1.854-1.854s1.854,0.83,1.854,1.854
		C37.127,49.944,36.298,50.775,35.274,50.775z"/>
	<path d="M13.76,40.056h43.027c0.385,0,0.696-0.312,0.696-0.695v-7.304c0-4.361-3.033-7.797-7.351-8.707v-9.423
		c0-0.382-0.31-0.694-0.694-0.694h-1.604V6.8c0-0.236-0.123-0.444-0.309-0.571l-1.82-1.63c-0.264-0.236-0.665-0.236-0.929,0
		l-1.412,1.265l-1.415-1.265c-0.264-0.236-0.663-0.236-0.929,0L39.61,5.864l-1.414-1.265c-0.264-0.236-0.664-0.236-0.928,0
		l-1.785,1.602C35.278,6.32,35.139,6.542,35.139,6.8v6.433H21.224c-0.385,0-0.698,0.312-0.698,0.694v9.397
		c-4.375,0.873-7.464,4.334-7.464,8.733v7.304C13.062,39.743,13.375,40.056,13.76,40.056z M31.25,35.764
		c0,0.327-0.267,0.593-0.594,0.593h-1.818c-0.328,0-0.594-0.266-0.594-0.593v-1.817c0-0.327,0.266-0.593,0.594-0.593h1.818
		c0.327,0,0.594,0.266,0.594,0.593V35.764z M31.25,30.122c0,0.327-0.267,0.595-0.594,0.595h-1.818c-0.328,0-0.594-0.268-0.594-0.595
		v-1.816c0-0.327,0.266-0.593,0.594-0.593h1.818c0.327,0,0.594,0.266,0.594,0.593V30.122z M42.754,35.764
		c0,0.327-0.266,0.593-0.592,0.593h-1.817c-0.329,0-0.595-0.266-0.595-0.593v-1.817c0-0.327,0.266-0.593,0.595-0.593h1.817
		c0.326,0,0.592,0.266,0.592,0.593V35.764z M42.754,30.122c0,0.327-0.266,0.595-0.592,0.595h-1.817
		c-0.329,0-0.595-0.268-0.595-0.595v-1.816c0-0.327,0.266-0.593,0.595-0.593h1.817c0.326,0,0.592,0.266,0.592,0.593V30.122z
		 M48.622,35.764c0,0.327-0.267,0.593-0.593,0.593h-1.817c-0.326,0-0.593-0.266-0.593-0.593v-1.817c0-0.327,0.267-0.593,0.593-0.593
		h1.817c0.326,0,0.593,0.266,0.593,0.593V35.764z M48.029,27.713c0.326,0,0.593,0.266,0.593,0.593v1.816
		c0,0.327-0.267,0.595-0.593,0.595h-1.817c-0.326,0-0.593-0.268-0.593-0.595v-1.816c0-0.327,0.267-0.593,0.593-0.593H48.029z
		 M36.533,13.233V7.129l1.199-1.077l1.414,1.265c0.266,0.238,0.664,0.238,0.93,0l1.412-1.265l1.413,1.265
		c0.264,0.238,0.664,0.238,0.93,0l1.411-1.265l1.202,1.079v6.102v9.748h-9.911V13.233z M33.884,28.306
		c0-0.327,0.266-0.593,0.593-0.593h1.819c0.327,0,0.592,0.266,0.592,0.593v1.816c0,0.327-0.265,0.595-0.592,0.595h-1.819
		c-0.327,0-0.593-0.268-0.593-0.595V28.306z M33.884,33.946c0-0.327,0.266-0.593,0.593-0.593h1.819c0.327,0,0.592,0.266,0.592,0.593
		v1.817c0,0.327-0.265,0.593-0.592,0.593h-1.819c-0.327,0-0.593-0.266-0.593-0.593V33.946z M23.861,20.229h9.481v2.75h-9.481V20.229
		z M22.604,28.306c0-0.327,0.266-0.593,0.593-0.593h1.82c0.327,0,0.593,0.266,0.593,0.593v1.816c0,0.327-0.266,0.595-0.593,0.595
		h-1.82c-0.327,0-0.593-0.268-0.593-0.595V28.306z M22.604,33.946c0-0.327,0.266-0.593,0.593-0.593h1.82
		c0.327,0,0.593,0.266,0.593,0.593v1.817c0,0.327-0.266,0.593-0.593,0.593h-1.82c-0.327,0-0.593-0.266-0.593-0.593V33.946z"/>
	<path d="M38.947,12.971h2.541c0.385,0,0.696-0.311,0.696-0.696s-0.312-0.696-0.696-0.696h-2.541c-0.386,0-0.695,0.311-0.695,0.696
		S38.561,12.971,38.947,12.971z"/>
	<path d="M43.821,15.217h-4.874c-0.386,0-0.695,0.313-0.695,0.698c0,0.383,0.31,0.694,0.695,0.694h4.874
		c0.385,0,0.696-0.312,0.696-0.694C44.517,15.531,44.206,15.217,43.821,15.217z"/>
	<path d="M43.821,18.859h-4.874c-0.386,0-0.695,0.313-0.695,0.696c0,0.385,0.31,0.698,0.695,0.698h4.874
		c0.385,0,0.696-0.313,0.696-0.698C44.517,19.172,44.206,18.859,43.821,18.859z"/>
</g>
</svg>
