<?xml version="1.0" encoding="utf-8"?>
<!-- Generator: Adobe Illustrator 16.0.3, SVG Export Plug-In . SVG Version: 6.00 Build 0)  -->
<!DOCTYPE svg PUBLIC "-//W3C//DTD SVG 1.1//EN" "http://www.w3.org/Graphics/SVG/1.1/DTD/svg11.dtd">
<svg version="1.1" id="Layer_1" xmlns="http://www.w3.org/2000/svg" xmlns:xlink="http://www.w3.org/1999/xlink" x="0px" y="0px"
	 width="56.693px" height="56.693px" viewBox="0 0 56.693 56.693" enable-background="new 0 0 56.693 56.693" xml:space="preserve">
<g>
	<path d="M36.374,26.661c-0.729-0.529-1.826-0.382-2.38,0.309l-8.188,10.152l-2.691-3.017c-0.588-0.653-1.702-0.747-2.393-0.192
		c-0.361,0.288-0.58,0.696-0.619,1.146c-0.037,0.449,0.109,0.885,0.412,1.224l4.061,4.547c0.328,0.362,0.801,0.57,1.297,0.57
		c0.006,0,0.038,0,0.043,0c0.514-0.011,0.994-0.243,1.312-0.637L36.7,29.016c0.285-0.354,0.408-0.795,0.349-1.238
		C36.989,27.327,36.749,26.93,36.374,26.661z"/>
	<path d="M44.935,8.816H39.13c0.814,0.959,1.331,2.172,1.418,3.503h2.635v38.53H13.116v-38.53h2.634
		c0.088-1.331,0.604-2.544,1.418-3.503h-5.805c-0.965,0-1.749,0.785-1.749,1.754v42.027c0,0.971,0.784,1.754,1.749,1.754h33.572
		c0.967,0,1.752-0.783,1.752-1.754V10.57C46.687,9.602,45.901,8.816,44.935,8.816z"/>
	<path d="M21.772,16.869h12.752c2.174,0,3.942-1.768,3.942-3.939v-0.211c0-0.134-0.007-0.27-0.021-0.399
		c-0.184-1.812-1.6-3.261-3.395-3.503c-0.173-0.023-0.347-0.039-0.527-0.039h-1.707V8.463c0-2.175-1.768-3.945-3.941-3.945h-1.453
		c-2.172,0-3.939,1.771-3.939,3.945v0.314h-1.711c-0.178,0-0.352,0.016-0.525,0.039c-1.795,0.242-3.213,1.69-3.395,3.503
		c-0.013,0.13-0.02,0.266-0.02,0.399v0.211C17.832,15.102,19.6,16.869,21.772,16.869z M19.935,12.719
		c0-0.138,0.018-0.27,0.045-0.399c0.184-0.823,0.917-1.44,1.793-1.44h2.76c0.58,0,1.052-0.47,1.052-1.051V8.816V8.463
		c0-1.018,0.824-1.842,1.839-1.842h1.453c1.014,0,1.839,0.824,1.839,1.842v0.354v1.012c0,0.581,0.472,1.051,1.052,1.051h2.758
		c0.877,0,1.611,0.617,1.793,1.44c0.029,0.13,0.047,0.262,0.047,0.399v0.211c0,1.012-0.824,1.836-1.84,1.836H21.772
		c-1.014,0-1.838-0.824-1.838-1.836V12.719z"/>
	<path d="M27.685,9.695c0.136,0.097,0.289,0.161,0.465,0.161c0.177,0,0.33-0.064,0.465-0.161c0.214-0.146,0.363-0.382,0.363-0.664
		c0-0.077-0.025-0.146-0.044-0.215c-0.096-0.35-0.403-0.612-0.784-0.612s-0.688,0.263-0.785,0.612
		c-0.018,0.068-0.042,0.138-0.042,0.215C27.322,9.312,27.472,9.549,27.685,9.695z"/>
</g>
</svg>
