<?xml version="1.0" encoding="utf-8"?>
<!-- Generator: Adobe Illustrator 16.0.1, SVG Export Plug-In . SVG Version: 6.00 Build 0)  -->
<!DOCTYPE svg PUBLIC "-//W3C//DTD SVG 1.1//EN" "http://www.w3.org/Graphics/SVG/1.1/DTD/svg11.dtd">
<svg version="1.1" id="Layer_1" xmlns="http://www.w3.org/2000/svg" xmlns:xlink="http://www.w3.org/1999/xlink" x="0px" y="0px"
	 width="56.693px" height="56.693px" viewBox="0 0 56.693 56.693" enable-background="new 0 0 56.693 56.693" xml:space="preserve">
<path d="M52.656,41.645l-13.1-13.096l13.025-13.027c0.252-0.252,0.393-0.594,0.393-0.947c0-0.355-0.141-0.697-0.393-0.947
	l-9.414-9.416c-0.502-0.502-1.391-0.502-1.895,0L28.248,17.238L15.219,4.211c-0.504-0.502-1.393-0.502-1.896,0l-9.557,9.561
	c-0.521,0.523-0.521,1.371,0,1.896l13.027,13.025L3.84,41.648c-0.525,0.521-0.525,1.371,0,1.893l9.412,9.414
	c0.523,0.521,1.371,0.521,1.895,0l12.955-12.953l13.1,13.1c0.26,0.262,0.604,0.391,0.947,0.391s0.688-0.129,0.947-0.391l9.561-9.561
	c0.252-0.252,0.393-0.592,0.393-0.947S52.908,41.898,52.656,41.645z"/>
</svg>
