<?xml version="1.0" encoding="utf-8"?>
<!-- Generator: Adobe Illustrator 16.0.1, SVG Export Plug-In . SVG Version: 6.00 Build 0)  -->
<!DOCTYPE svg PUBLIC "-//W3C//DTD SVG 1.1//EN" "http://www.w3.org/Graphics/SVG/1.1/DTD/svg11.dtd">
<svg version="1.1" id="Layer_1" xmlns="http://www.w3.org/2000/svg" xmlns:xlink="http://www.w3.org/1999/xlink" x="0px" y="0px"
	 width="70.866px" height="56.693px" viewBox="0 0 70.866 56.693" enable-background="new 0 0 70.866 56.693" xml:space="preserve">
<path d="M43.113,5.85H27.753c-9.504,0-17.236,8.367-17.236,18.652c0,9.4,6.31,17.128,14.693,18.45v8.549
	c0,0.84,0.512,1.598,1.291,1.91c0.25,0.1,0.51,0.148,0.768,0.148c0.551,0,1.092-0.221,1.488-0.633l9.355-9.771h5
	c9.504,0,17.236-8.367,17.236-18.653C60.349,14.217,52.617,5.85,43.113,5.85z M33.632,23.999c0,3.526-0.684,6.048-2.035,7.493
	c-1.355,1.453-3.215,2.19-5.523,2.19c-0.189,0-0.34-0.152-0.34-0.341v-2.881c0-0.188,0.15-0.342,0.34-0.342
	c1.848,0,2.744-1.27,2.744-3.879v-1.172h-4.371c-0.188,0-0.342-0.153-0.342-0.342V16.71c0-0.188,0.154-0.341,0.342-0.341h8.844
	c0.189,0,0.342,0.152,0.342,0.341V23.999z M46.871,23.999c0,3.526-0.68,6.048-2.02,7.493c-1.348,1.453-3.211,2.19-5.539,2.19
	c-0.189,0-0.342-0.152-0.342-0.341v-2.881c0-0.188,0.152-0.342,0.342-0.342c1.846,0,2.744-1.27,2.744-3.879v-1.172h-4.371
	c-0.189,0-0.342-0.153-0.342-0.342V16.71c0-0.188,0.152-0.341,0.342-0.341h8.844c0.189,0,0.342,0.152,0.342,0.341V23.999z"/>
</svg>
