<?xml version="1.0" encoding="utf-8"?>
<!-- Generator: Adobe Illustrator 16.0.1, SVG Export Plug-In . SVG Version: 6.00 Build 0)  -->
<!DOCTYPE svg PUBLIC "-//W3C//DTD SVG 1.1//EN" "http://www.w3.org/Graphics/SVG/1.1/DTD/svg11.dtd">
<svg version="1.1" id="Layer_1" xmlns="http://www.w3.org/2000/svg" xmlns:xlink="http://www.w3.org/1999/xlink" x="0px" y="0px"
	 width="56.693px" height="56.693px" viewBox="0 0 56.693 56.693" enable-background="new 0 0 56.693 56.693" xml:space="preserve">
<g>
	<path d="M20.653,45.55c0.689,0,1.248-0.559,1.248-1.248V22.351c0-0.689-0.559-1.248-1.248-1.248c-0.688,0-1.244,0.559-1.244,1.248
		v21.951C19.409,44.991,19.965,45.55,20.653,45.55z"/>
	<path d="M28.411,45.55c0.688,0,1.248-0.559,1.248-1.248V22.351c0-0.689-0.561-1.248-1.248-1.248s-1.246,0.559-1.246,1.248v21.951
		C27.165,44.991,27.724,45.55,28.411,45.55z"/>
	<path d="M36.169,45.55c0.688,0,1.246-0.559,1.246-1.248V22.351c0-0.689-0.559-1.248-1.246-1.248c-0.689,0-1.246,0.559-1.246,1.248
		v21.951C34.923,44.991,35.479,45.55,36.169,45.55z"/>
	<path d="M46.933,10.866H37.95V8.204c0-2.035-1.654-3.688-3.688-3.688H22.56c-2.036,0-3.688,1.652-3.688,3.688v2.663H9.887
		c-1.377,0-2.492,1.115-2.492,2.492s1.115,2.492,2.492,2.492h1.566v36.336c0,1.146,0.93,2.076,2.076,2.076h29.762
		c1.146,0,2.076-0.93,2.076-2.076V15.851h1.564c1.377,0,2.492-1.115,2.492-2.492S48.31,10.866,46.933,10.866z M22.196,8.204
		c0-0.203,0.16-0.367,0.364-0.367h11.703c0.201,0,0.365,0.164,0.365,0.367v2.663H22.196V8.204z M41.214,50.108H15.608V15.851h25.606
		V50.108z"/>
</g>
</svg>
