<?xml version="1.0" encoding="utf-8"?>
<!-- Generator: Adobe Illustrator 16.0.3, SVG Export Plug-In . SVG Version: 6.00 Build 0)  -->
<!DOCTYPE svg PUBLIC "-//W3C//DTD SVG 1.1//EN" "http://www.w3.org/Graphics/SVG/1.1/DTD/svg11.dtd">
<svg version="1.1" id="Layer_1" xmlns="http://www.w3.org/2000/svg" xmlns:xlink="http://www.w3.org/1999/xlink" x="0px" y="0px"
	 width="56.693px" height="56.693px" viewBox="0 0 56.693 56.693" enable-background="new 0 0 56.693 56.693" xml:space="preserve">
<path d="M52.354,13.361H18.479c-0.465,0-0.914,0.185-1.243,0.514L3.455,27.657c-0.329,0.33-0.515,0.776-0.515,1.243
	s0.186,0.914,0.515,1.245l13.782,13.78c0.329,0.33,0.777,0.514,1.243,0.514h33.875c0.97,0,1.757-0.786,1.757-1.758V15.119
	C54.11,14.149,53.323,13.361,52.354,13.361z M40.129,33.076c0.817,0.818,0.822,2.135,0.005,2.954
	c-0.813,0.812-2.135,0.812-2.953-0.006l-4.17-4.171l-4.175,4.173c-0.816,0.818-2.136,0.812-2.95-0.001
	c-0.816-0.815-0.817-2.133,0-2.949l4.172-4.174l-4.176-4.176c-0.816-0.816-0.813-2.134,0-2.948c0.818-0.818,2.133-0.816,2.948-0.001
	l4.179,4.178l4.18-4.181c0.814-0.814,2.134-0.814,2.95,0c0.812,0.814,0.815,2.135,0.001,2.949l-4.182,4.184L40.129,33.076z"/>
</svg>
