<?xml version="1.0" encoding="utf-8"?>
<!-- Generator: Adobe Illustrator 16.0.1, SVG Export Plug-In . SVG Version: 6.00 Build 0)  -->
<!DOCTYPE svg PUBLIC "-//W3C//DTD SVG 1.1//EN" "http://www.w3.org/Graphics/SVG/1.1/DTD/svg11.dtd">
<svg version="1.1" id="Layer_1" xmlns="http://www.w3.org/2000/svg" xmlns:xlink="http://www.w3.org/1999/xlink" x="0px" y="0px"
	 width="70.866px" height="56.693px" viewBox="0 0 70.866 56.693" enable-background="new 0 0 70.866 56.693" xml:space="preserve">
<g>
	<path d="M57.627,36.568l-5.424-19.542c-0.15-0.554-0.727-0.876-1.277-0.724l-19.543,5.42c-0.266,0.075-0.49,0.252-0.627,0.491
		c-0.135,0.238-0.17,0.523-0.096,0.788l5.424,19.544c0.125,0.459,0.543,0.762,0.998,0.762c0.094,0,0.186-0.012,0.277-0.039
		l19.545-5.421c0.266-0.074,0.49-0.248,0.625-0.49C57.667,37.118,57.702,36.834,57.627,36.568z M44.094,26.773l1.236-3.336
		c0.057-0.157,0.186-0.276,0.346-0.319c0.162-0.046,0.332-0.013,0.463,0.092l2.789,2.21c0.154,0.12,0.225,0.316,0.188,0.508
		c-0.039,0.192-0.182,0.346-0.369,0.398l-1.348,0.377l1.471,5.252c0.104,0.368-0.111,0.75-0.479,0.853
		c-0.062,0.018-0.125,0.027-0.188,0.027c-0.303,0-0.58-0.2-0.666-0.506l-1.471-5.254l-1.348,0.377
		c-0.047,0.013-0.092,0.019-0.141,0.019c-0.143,0-0.281-0.058-0.381-0.166C44.065,27.161,44.024,26.955,44.094,26.773z
		 M38.696,29.14c-0.047,0.012-0.094,0.019-0.141,0.019c-0.143,0-0.283-0.059-0.383-0.167c-0.133-0.144-0.172-0.35-0.104-0.531
		l1.236-3.336c0.061-0.155,0.188-0.275,0.348-0.319s0.332-0.01,0.463,0.094l2.787,2.208c0.154,0.12,0.227,0.318,0.188,0.508
		c-0.037,0.192-0.18,0.346-0.369,0.398l-1.348,0.377l1.473,5.255c0.102,0.367-0.111,0.75-0.48,0.854
		c-0.062,0.018-0.127,0.025-0.188,0.025c-0.303,0-0.582-0.199-0.666-0.506l-1.471-5.256L38.696,29.14z M50.727,34.969l-9.236,2.587
		c-0.062,0.018-0.125,0.027-0.189,0.027c-0.301,0-0.58-0.201-0.664-0.508c-0.104-0.367,0.111-0.749,0.48-0.851l9.238-2.588
		c0.365-0.103,0.748,0.11,0.852,0.479C51.313,34.484,51.096,34.867,50.727,34.969z"/>
	<path d="M32.565,42.206L22.352,5.389c-0.205-0.737-0.967-1.169-1.705-0.964c-0.736,0.203-1.168,0.968-0.965,1.703l1.117,4.021
		h-7.271c-0.955,0-1.729,0.774-1.729,1.731c0,0.955,0.773,1.732,1.729,1.732h8.221c0.004,0,0.006-0.002,0.01-0.002l8.252,29.744
		C30.766,42.813,31.629,42.417,32.565,42.206z"/>
	<path d="M52.006,42.464L40.377,45.69c0.445,0.799,0.742,1.689,0.852,2.637l11.518-3.193c0.736-0.207,1.168-0.969,0.965-1.705
		C53.506,42.692,52.745,42.259,52.006,42.464z"/>
	<path d="M38.293,46.269c-0.914-1.311-2.43-2.168-4.146-2.168c-0.352,0-0.695,0.033-1.027,0.104
		c-0.963,0.197-1.824,0.674-2.504,1.334c-0.941,0.918-1.527,2.199-1.527,3.617c0,2.797,2.264,5.061,5.059,5.061
		c2.791,0,5.057-2.264,5.057-5.061c0-0.088-0.008-0.174-0.012-0.262C39.141,47.919,38.819,47.021,38.293,46.269z M35.952,49.79
		c-0.262,0.75-0.969,1.289-1.805,1.289c-0.535,0-1.02-0.219-1.367-0.572c-0.344-0.346-0.555-0.822-0.555-1.35
		c0-1,0.766-1.811,1.74-1.904c0.061-0.006,0.119-0.018,0.182-0.018c0.156,0,0.305,0.023,0.449,0.059
		c0.844,0.205,1.471,0.957,1.471,1.863C36.067,49.382,36.024,49.593,35.952,49.79z"/>
</g>
</svg>
