<?xml version="1.0" encoding="utf-8"?>
<!-- Generator: Adobe Illustrator 16.0.3, SVG Export Plug-In . SVG Version: 6.00 Build 0)  -->
<!DOCTYPE svg PUBLIC "-//W3C//DTD SVG 1.1//EN" "http://www.w3.org/Graphics/SVG/1.1/DTD/svg11.dtd">
<svg version="1.1" id="Layer_1" xmlns="http://www.w3.org/2000/svg" xmlns:xlink="http://www.w3.org/1999/xlink" x="0px" y="0px"
	 width="56.693px" height="56.693px" viewBox="0 0 56.693 56.693" enable-background="new 0 0 56.693 56.693" xml:space="preserve">
<g>
	<path d="M22.846,46.86l-1.977,6.027c0,0.441,0.438,0.797,0.977,0.797h13.002c0.539,0,0.977-0.355,0.977-0.797l-1.979-6.027H22.846z
		"/>
	<path d="M49.635,6.673H7.056c-1.959,0-3.547,1.588-3.547,3.547v30.643c0,1.959,1.588,3.547,3.547,3.547h42.579
		c1.961,0,3.549-1.588,3.549-3.547V10.22C53.184,8.261,51.596,6.673,49.635,6.673z M48.904,39.857H7.613V10.112h41.292V39.857z"/>
</g>
</svg>
