<?xml version="1.0" encoding="utf-8"?>
<!-- Generator: Adobe Illustrator 16.0.1, SVG Export Plug-In . SVG Version: 6.00 Build 0)  -->
<!DOCTYPE svg PUBLIC "-//W3C//DTD SVG 1.1//EN" "http://www.w3.org/Graphics/SVG/1.1/DTD/svg11.dtd">
<svg version="1.1" id="Layer_1" xmlns="http://www.w3.org/2000/svg" xmlns:xlink="http://www.w3.org/1999/xlink" x="0px" y="0px"
	 width="70.866px" height="56.693px" viewBox="0 0 70.866 56.693" enable-background="new 0 0 70.866 56.693" xml:space="preserve">
<path d="M55.003,11.931c-0.189-0.486-0.658-0.807-1.18-0.807h-4.99c-2.588-2.932-5.428-5.123-8.447-6.523
	c-0.137-0.064-0.283-0.102-0.432-0.113c-0.971-0.078-9.453-0.113-9.535-0.113c-5.602,0-6.205,3.719-6.205,5.316
	c0,0.061,0.002,0.127,0.008,0.201c-2.672,0.391-4.078,1.914-4.078,4.436c0,0.146,0.012,0.838,0.043,1.391
	c-0.92,0.326-1.645,0.807-2.148,1.43c-0.908,1.084-0.918,3.473-0.918,3.496c0,0.783,0.234,1.602,0.697,2.441
	c-0.176,0.174-0.334,0.32-0.477,0.455c-0.9,0.836-1.449,1.461-1.449,3.123c0,2.553,1.535,3.613,3.705,4.836
	c2.359,1.314,5.496,1.979,9.318,1.979h0.299c-0.334,1.998-0.986,3.957-1.926,5.799l-0.648,1.133
	c-1.377,2.637-2.047,4.637-2.047,6.111c0,4.092,2.172,6.68,6.447,7.684l0.418,0.102c0.1,0.027,0.199,0.037,0.303,0.037
	c0.232,0,0.463-0.064,0.666-0.189c0.291-0.178,0.494-0.465,0.57-0.797l1.732-7.672l7.018-7.469c0.447-0.523,1.205-1.5,2.533-3.27
	l1.078-1.424c1.385-1.875,2.018-2.518,2.314-2.732c0.365-0.27,1.035-0.412,1.938-0.412h4.039c0.5,0,0.953-0.295,1.158-0.75
	c1.275-2.867,1.924-5.846,1.924-8.854C56.732,17.853,56.15,14.878,55.003,11.931z M52.509,27.183
	c-4.59,0.023-5.561,0.479-5.879,0.625c-0.338,0.156-1.363,0.627-3.9,4.193c-0.006,0.006-0.01,0.014-0.014,0.018
	c-0.6,0.818-1.518,2-2.914,3.746l-7.555,8.045c-0.158,0.168-0.268,0.377-0.314,0.602l-1.352,6.268
	c-0.879-0.379-1.559-0.873-2.029-1.473c-0.557-0.713-0.84-1.615-0.84-2.686c0-1.148,0.41-2.412,1.234-3.775l0.488-0.836
	c2.041-3.393,3.08-6.693,3.08-9.758l0.014-0.375c0.012-0.344-0.117-0.678-0.355-0.926c-0.238-0.246-0.568-0.385-0.912-0.385h-0.658
	c-3.971,0-6.984-0.395-8.953-1.164c-2.484-0.98-2.717-1.443-2.717-2.416c0-1.131,0.285-1.529,1.422-2.621
	c0.389-0.377,0.826-0.541,1.42-0.609c0.359,0.031,0.857,0.049,1.58-0.047l0.523,0.002l1.047-0.027c0.002,0,0.004,0,0.006,0l0,0
	c0.002,0,0.002,0,0.002,0c0.133-0.002,0.26-0.027,0.377-0.07c0.002,0,0.002,0,0.002,0c0.191-0.066,0.361-0.178,0.498-0.322l0,0
	v-0.002c0,0,0,0,0.002,0l0,0v-0.002c0.133-0.139,0.236-0.311,0.293-0.5c0.033-0.117,0.055-0.244,0.053-0.375
	c0-0.002,0-0.002,0-0.002c0-0.004,0-0.008,0-0.01c-0.002-0.174-0.039-0.34-0.104-0.488l0,0V21.81l0,0c0,0,0,0-0.002-0.002
	c0,0.002,0.002,0,0-0.002c0,0,0,0-0.002,0c0-0.002,0-0.004,0-0.004c-0.053-0.113-0.119-0.221-0.201-0.312c0,0,0,0-0.002-0.004l0,0
	l0,0v-0.002h-0.002c0,0,0-0.002-0.002-0.002c-0.146-0.166-0.336-0.295-0.551-0.365c0,0-0.002,0-0.002-0.002
	c-0.002,0-0.002,0-0.002,0c-0.002,0-0.002,0-0.002,0c-0.131-0.043-0.271-0.07-0.416-0.062l-1.598,0.023
	c-0.498-0.004-0.998-0.008-1.498,0.035c-0.359-0.039-0.791-0.072-1.338,0.121c-0.102-0.215-0.158-0.414-0.158-0.588
	c0-0.506,0.213-1.66,0.857-2.002c0.307-0.156,0.691-0.275,1.152-0.361l4.906-0.166c0.141-0.004,0.279-0.031,0.404-0.078l0,0l0,0
	c0.178-0.066,0.334-0.17,0.465-0.303l0,0l0,0c0.131-0.135,0.23-0.297,0.291-0.48l0,0c0,0,0,0,0-0.002
	c0.049-0.133,0.068-0.275,0.066-0.422c-0.002-0.145-0.029-0.281-0.074-0.408c0-0.002,0-0.002,0-0.002
	c-0.072-0.199-0.191-0.375-0.348-0.516l0,0c-0.121-0.109-0.264-0.193-0.422-0.248l0,0l0,0c-0.135-0.049-0.262-0.086-0.428-0.072
	h-2.766c-0.436,0-0.848,0.014-1.238,0.043l-0.104-0.471c0.014-0.516,0.219-1.566,0.809-1.865c0.49-0.248,1.189-0.408,2.08-0.473
	l2.631-0.035c0.141-0.004,0.277-0.027,0.406-0.072h0.002c-0.002-0.002,0-0.002,0-0.002c0.182-0.064,0.344-0.17,0.479-0.303l0,0
	v-0.002c0.131-0.133,0.23-0.293,0.293-0.473l0,0c0.002-0.002,0-0.002,0.002-0.002c0.045-0.133,0.07-0.275,0.068-0.424v-0.002
	c0-0.141-0.025-0.275-0.068-0.402l0,0l-0.002-0.002c-0.066-0.193-0.18-0.363-0.326-0.504h-0.002c0,0,0-0.002-0.002-0.002l0,0
	c-0.125-0.119-0.275-0.213-0.441-0.271l0,0c-0.135-0.047-0.277-0.072-0.424-0.072c-0.002,0-0.004,0-0.004,0h-1.301l0.008-0.133
	c0.004-0.025,0.004-0.055,0.004-0.082c0-0.977,0.416-1.998,0.686-2.184c0.523-0.357,1.357-0.539,2.48-0.539
	c0.062,0,0.127-0.006,0.189-0.014c0.133,0.023,0.273,0.025,0.414,0.002c0.443-0.072,3.221-0.121,6.752-0.121h0.217l1.496,0.062
	c3.176,1.848,5.594,3.922,7.602,6.512c0.24,0.311,0.609,0.492,1,0.492h4.529c0.686,2.1,1.033,4.154,1.033,6.111
	C53.652,22.663,53.267,24.958,52.509,27.183z"/>
</svg>
