<?xml version="1.0" encoding="utf-8"?>
<!-- Generator: Adobe Illustrator 16.0.1, SVG Export Plug-In . SVG Version: 6.00 Build 0)  -->
<!DOCTYPE svg PUBLIC "-//W3C//DTD SVG 1.1//EN" "http://www.w3.org/Graphics/SVG/1.1/DTD/svg11.dtd">
<svg version="1.1" id="Layer_1" xmlns="http://www.w3.org/2000/svg" xmlns:xlink="http://www.w3.org/1999/xlink" x="0px" y="0px"
	 width="70.866px" height="56.693px" viewBox="0 0 70.866 56.693" enable-background="new 0 0 70.866 56.693" xml:space="preserve">
<g>
	<path d="M45.341,28.301H24.824c-0.384,0-0.695,0.312-0.695,0.695c0,0.383,0.312,0.693,0.695,0.693h20.517
		c0.385,0,0.695-0.311,0.695-0.693C46.037,28.612,45.726,28.301,45.341,28.301z"/>
	<path d="M45.341,41.839H24.824c-0.384,0-0.695,0.312-0.695,0.694s0.312,0.694,0.695,0.694h20.517c0.385,0,0.695-0.312,0.695-0.694
		S45.726,41.839,45.341,41.839z"/>
	<path d="M45.341,35.103H24.824c-0.384,0-0.695,0.312-0.695,0.694s0.312,0.694,0.695,0.694h20.517c0.385,0,0.695-0.312,0.695-0.694
		S45.726,35.103,45.341,35.103z"/>
	<path d="M24.824,22.854h8.208c0.385,0,0.695-0.311,0.695-0.694c0-0.383-0.311-0.694-0.695-0.694h-8.208
		c-0.384,0-0.695,0.312-0.695,0.694C24.129,22.544,24.44,22.854,24.824,22.854z"/>
	<path d="M54.41,12.191l-7.275-7.171c-0.324-0.319-0.762-0.499-1.217-0.499H17.119c-0.959,0-1.735,0.777-1.735,1.735v46.426
		c0,0.959,0.776,1.735,1.735,1.735h36.072c0.961,0,1.736-0.776,1.736-1.735V13.428C54.927,12.963,54.74,12.518,54.41,12.191z
		 M51.457,50.947H18.854V7.992h26.022v5.451c0,0.575,0.465,1.041,1.041,1.041h5.539V50.947z"/>
</g>
</svg>
