<?xml version="1.0" encoding="utf-8"?>
<!-- Generator: Adobe Illustrator 16.0.1, SVG Export Plug-In . SVG Version: 6.00 Build 0)  -->
<!DOCTYPE svg PUBLIC "-//W3C//DTD SVG 1.1//EN" "http://www.w3.org/Graphics/SVG/1.1/DTD/svg11.dtd">
<svg version="1.1" id="Layer_1" xmlns="http://www.w3.org/2000/svg" xmlns:xlink="http://www.w3.org/1999/xlink" x="0px" y="0px"
	 width="70.866px" height="56.693px" viewBox="0 0 70.866 56.693" enable-background="new 0 0 70.866 56.693" xml:space="preserve">
<g>
	<g>
		<path d="M26.827,19.034c-0.111,0-0.219,0.018-0.323,0.043c-0.03,0.008-0.058,0.018-0.085,0.027
			c-0.082,0.027-0.16,0.061-0.232,0.102c-0.023,0.012-0.045,0.021-0.064,0.035c-0.082,0.053-0.159,0.109-0.228,0.178
			c-0.005,0.006-0.009,0.012-0.014,0.02c-0.089,0.092-0.168,0.197-0.229,0.314c-0.226,0.441-0.185,0.973,0.108,1.373l8.815,10.881
			c0.248,0.342,0.645,0.543,1.066,0.543c0.424,0,0.818-0.201,1.066-0.543l8.816-10.881c0.18-0.244,0.252-0.539,0.238-0.83v-0.002
			c-0.004-0.088-0.012-0.176-0.033-0.26c-0.021-0.098-0.051-0.191-0.098-0.281c-0.225-0.443-0.68-0.721-1.174-0.721l-4.482,0.002
			L38.72,7.126c0-1.699-1.379-3.077-3.078-3.077c-1.699,0.001-3.076,1.378-3.076,3.077L31.31,19.032l-2.51,0.002H26.827z"/>
	</g>
	<g>
		<path d="M58.117,10.851H42.115l0.367,3.471h13.227c0.572,0,1.041,0.471,1.041,1.051V39.69H14.992V15.372
			c0-0.58,0.467-1.051,1.038-1.051h12.772l0.366-3.471H13.624c-1.211,0-2.197,1.016-2.197,2.264v30.699
			c0,1.25,0.986,2.266,2.197,2.266h15.377l-1.135,6.65c-0.074,0.434,0.047,0.877,0.33,1.213c0.284,0.336,0.701,0.531,1.142,0.531
			h12.613c0.008,0,0.014,0,0.02,0c0.826,0,1.494-0.67,1.494-1.494c0-0.172-0.029-0.336-0.082-0.488l-1.094-6.412h15.828
			c1.209,0,2.195-1.016,2.195-2.266V13.114C60.312,11.866,59.326,10.851,58.117,10.851z"/>
	</g>
</g>
</svg>
