<?xml version="1.0" encoding="utf-8"?>
<!-- Generator: Adobe Illustrator 16.0.3, SVG Export Plug-In . SVG Version: 6.00 Build 0)  -->
<!DOCTYPE svg PUBLIC "-//W3C//DTD SVG 1.1//EN" "http://www.w3.org/Graphics/SVG/1.1/DTD/svg11.dtd">
<svg version="1.1" id="Layer_1" xmlns="http://www.w3.org/2000/svg" xmlns:xlink="http://www.w3.org/1999/xlink" x="0px" y="0px"
	 width="56.693px" height="56.693px" viewBox="0 0 56.693 56.693" enable-background="new 0 0 56.693 56.693" xml:space="preserve">
<g>
	<path d="M26.371,40.813l-0.022-0.103c-0.103-0.474-0.187-0.973-0.25-1.483c-0.018-0.107-0.032-0.213-0.041-0.299
		c-0.064-0.608-0.098-1.212-0.098-1.793c0-9.241,7.516-16.76,16.756-16.76c0.428,0,0.871,0.021,1.326,0.062
		C43.458,14.538,38.466,9.91,32.411,9.91c-3.882,0-7.523,1.896-9.754,4.828c-2.231-2.933-5.867-4.828-9.753-4.828
		c-6.442,0-11.686,5.245-11.686,11.687c0,2.535,0.798,4.949,2.307,6.975c0.025,0.033,0.051,0.065,0.074,0.096L20.97,49.203
		c0.366,0.432,0.899,0.683,1.467,0.686c0.003,0,0.006,0,0.01,0c0.561,0,1.094-0.241,1.461-0.666l3.881-4.472
		c-0.613-1.213-1.093-2.514-1.406-3.894L26.371,40.813z"/>
	<path d="M44.558,24.521c-0.002,0-0.006,0-0.008,0c-0.266-0.036-0.533-0.071-0.805-0.094c-0.004,0-0.008-0.001-0.012-0.001
		c-0.338-0.03-0.676-0.05-1.018-0.05c-7.047,0-12.756,5.713-12.756,12.76c0,0.463,0.027,0.92,0.074,1.369
		c0.008,0.068,0.023,0.135,0.029,0.203c0.049,0.391,0.111,0.776,0.193,1.154c0.008,0.031,0.018,0.061,0.023,0.095
		c0.111,0.49,0.26,0.966,0.426,1.433c1.752,4.95,6.457,8.502,12.01,8.502c7.047,0,12.76-5.707,12.76-12.756
		C55.476,30.716,50.729,25.419,44.558,24.521z M48.438,38.628H37.001c-0.828,0-1.492-0.668-1.492-1.494
		c0-0.822,0.664-1.488,1.492-1.488h11.438c0.82,0,1.488,0.666,1.488,1.488C49.927,37.96,49.259,38.628,48.438,38.628z"/>
</g>
</svg>
