<?xml version="1.0" encoding="utf-8"?>
<!-- Generator: Adobe Illustrator 16.0.3, SVG Export Plug-In . SVG Version: 6.00 Build 0)  -->
<!DOCTYPE svg PUBLIC "-//W3C//DTD SVG 1.1//EN" "http://www.w3.org/Graphics/SVG/1.1/DTD/svg11.dtd">
<svg version="1.1" id="Layer_1" xmlns="http://www.w3.org/2000/svg" xmlns:xlink="http://www.w3.org/1999/xlink" x="0px" y="0px"
	 width="56.693px" height="56.693px" viewBox="0 0 56.693 56.693" enable-background="new 0 0 56.693 56.693" xml:space="preserve">
<path d="M38.413,9.913c-3.885,0-7.523,1.896-9.756,4.828c-2.232-2.933-5.867-4.828-9.752-4.828c-6.443,0-11.688,5.245-11.688,11.687
	c0,2.535,0.799,4.949,2.309,6.975c0.023,0.033,0.049,0.065,0.074,0.096l17.371,20.536c0.365,0.432,0.898,0.683,1.465,0.686
	c0.004,0,0.006,0,0.012,0c0.559,0,1.094-0.241,1.461-0.666l17.469-20.13c1.756-2.098,2.723-4.761,2.723-7.496
	C50.101,15.158,44.856,9.913,38.413,9.913z"/>
</svg>
