<?xml version="1.0" encoding="utf-8"?>
<!-- Generator: Adobe Illustrator 16.0.3, SVG Export Plug-In . SVG Version: 6.00 Build 0)  -->
<!DOCTYPE svg PUBLIC "-//W3C//DTD SVG 1.1//EN" "http://www.w3.org/Graphics/SVG/1.1/DTD/svg11.dtd">
<svg version="1.1" id="Layer_1" xmlns="http://www.w3.org/2000/svg" xmlns:xlink="http://www.w3.org/1999/xlink" x="0px" y="0px"
	 width="56.693px" height="56.693px" viewBox="0 0 56.693 56.693" enable-background="new 0 0 56.693 56.693" xml:space="preserve">
<g>
	<path d="M50.382,26.643l-3.869-6.727c-0.2-0.396-0.424-0.777-0.678-1.14c-0.037-0.052-0.07-0.105-0.114-0.151
		c-1.126-1.541-2.714-2.721-4.565-3.325c-0.224-2.615-2.422-4.676-5.094-4.676c-2.821,0-5.115,2.293-5.115,5.115
		c0,0.793,0.187,1.543,0.512,2.213c-0.7,0.789-1.265,1.694-1.66,2.688c-0.466-0.169-0.966-0.267-1.488-0.267
		c-0.524,0-1.021,0.098-1.488,0.267c-0.415-1.038-1.013-1.98-1.755-2.793c0.293-0.644,0.46-1.356,0.46-2.108
		c0-2.822-2.294-5.115-5.114-5.115c-2.691,0-4.898,2.091-5.096,4.731c-1.79,0.618-3.324,1.771-4.419,3.269
		c-0.042,0.045-0.076,0.099-0.112,0.151c-0.253,0.362-0.477,0.744-0.679,1.14l-3.866,6.727c-2.047,2.158-3.314,5.062-3.314,8.263
		c0,6.623,5.392,12.014,12.017,12.014c4.966,0,9.237-3.028,11.066-7.335c0.695,0.344,1.474,0.543,2.302,0.543
		c0.826,0,1.607-0.199,2.301-0.543c1.828,4.307,6.1,7.335,11.066,7.335c6.625,0,12.016-5.391,12.016-12.014
		C53.693,31.703,52.427,28.8,50.382,26.643z M14.942,42.695c-4.298,0-7.793-3.493-7.793-7.79c0-2.586,1.271-4.875,3.216-6.294
		c1.288-0.938,2.865-1.5,4.577-1.5c3.377,0,6.252,2.164,7.33,5.175c0.293,0.821,0.462,1.698,0.462,2.619
		C22.734,39.202,19.241,42.695,14.942,42.695z M29.711,35.87c-0.308,0.443-0.82,0.736-1.401,0.736c-0.581,0-1.093-0.293-1.4-0.736
		c-0.192-0.275-0.304-0.606-0.304-0.965c0-0.18,0.035-0.348,0.086-0.51c0.051-0.163,0.12-0.318,0.218-0.457
		c0.307-0.445,0.819-0.739,1.4-0.739c0.581,0,1.093,0.294,1.401,0.739c0.094,0.139,0.165,0.294,0.218,0.457
		c0.051,0.162,0.085,0.33,0.085,0.51C30.014,35.264,29.901,35.595,29.711,35.87z M41.678,42.695c-4.296,0-7.792-3.493-7.792-7.79
		c0-0.921,0.168-1.798,0.462-2.619c1.078-3.011,3.951-5.175,7.33-5.175c1.711,0,3.291,0.562,4.577,1.5
		c1.944,1.419,3.215,3.708,3.215,6.294C49.47,39.202,45.975,42.695,41.678,42.695z"/>
	<path d="M14.94,29.548c-1.148,0-2.211,0.369-3.085,0.988c-1.369,0.971-2.268,2.565-2.268,4.369c0,0.582,0.472,1.054,1.055,1.054
		s1.057-0.472,1.057-1.054c0-0.491,0.116-0.953,0.314-1.372c0.322-0.686,0.874-1.236,1.557-1.558
		c0.028-0.015,0.055-0.032,0.083-0.046c0.396-0.172,0.83-0.269,1.287-0.269c0.584,0,1.056-0.473,1.056-1.058
		C15.997,30.021,15.525,29.548,14.94,29.548z"/>
	<path d="M41.566,29.548c-2.291,0-4.247,1.451-5.008,3.479c-0.222,0.585-0.347,1.216-0.347,1.878c0,0.582,0.473,1.054,1.056,1.054
		c0.584,0,1.055-0.472,1.055-1.054c0-0.491,0.12-0.953,0.316-1.372c0.057-0.122,0.12-0.24,0.192-0.354
		c0.328-0.521,0.802-0.938,1.367-1.203c0.415-0.196,0.876-0.314,1.368-0.314c0.585,0,1.057-0.473,1.057-1.058
		C42.623,30.021,42.151,29.548,41.566,29.548z"/>
</g>
</svg>
