<?xml version="1.0" encoding="utf-8"?>
<!-- Generator: Adobe Illustrator 16.0.3, SVG Export Plug-In . SVG Version: 6.00 Build 0)  -->
<!DOCTYPE svg PUBLIC "-//W3C//DTD SVG 1.1//EN" "http://www.w3.org/Graphics/SVG/1.1/DTD/svg11.dtd">
<svg version="1.1" id="Layer_1" xmlns="http://www.w3.org/2000/svg" xmlns:xlink="http://www.w3.org/1999/xlink" x="0px" y="0px"
	 width="56.693px" height="56.693px" viewBox="0 0 56.693 56.693" enable-background="new 0 0 56.693 56.693" xml:space="preserve">
<path d="M42.851,25.132l-2.616-0.186L24.983,7.084C23.78,5.553,22.617,4.783,21.5,4.782l-2.119,0.001l9.667,20.65l-13.411,0.996
	l-5.24-5.863H6.339l5.372,8.219l-5.364,9.02l4.053,0.003l5.239-5.864l13.411,0.998l-9.667,20.752h2.116
	c1.12,0,2.281-0.768,3.483-2.302l15.25-17.859l2.618-0.186c0.619-0.083,1.191-0.156,1.71-0.219c0.518-0.062,1.191-0.197,2.02-0.404
	c0.833-0.207,1.65-0.644,2.46-1.307c0.809-0.662,1.217-1.391,1.216-2.18C50.255,26.918,47.783,25.547,42.851,25.132z"/>
</svg>
