<?xml version="1.0" encoding="utf-8"?>
<!-- Generator: Adobe Illustrator 16.0.1, SVG Export Plug-In . SVG Version: 6.00 Build 0)  -->
<!DOCTYPE svg PUBLIC "-//W3C//DTD SVG 1.1//EN" "http://www.w3.org/Graphics/SVG/1.1/DTD/svg11.dtd">
<svg version="1.1" id="Layer_1" xmlns="http://www.w3.org/2000/svg" xmlns:xlink="http://www.w3.org/1999/xlink" x="0px" y="0px"
	 width="70.866px" height="56.693px" viewBox="0 0 70.866 56.693" enable-background="new 0 0 70.866 56.693" xml:space="preserve">
<g>
	<path d="M58.506,17.251H18.647c-0.822,0-1.49,0.664-1.49,1.488v28.512c0,0.82,0.668,1.486,1.49,1.486h39.859
		c0.822,0,1.488-0.666,1.488-1.486V18.739C59.995,17.915,59.329,17.251,58.506,17.251z M57.02,45.763H20.133V20.226H57.02V45.763z"
		/>
	<circle cx="29.758" cy="28.625" r="3.503"/>
	<path d="M50.405,30.618l-2.797,3.883l-5.324-7.578l-6.574,10.189c0,0-10.959-2.676-12.764,4.967h31.328L50.405,30.618z"/>
	<path d="M13.247,13.339h36.887v1.582h2.975v-3.068c0-0.822-0.664-1.489-1.486-1.489H11.76c-0.822,0-1.488,0.667-1.488,1.489v28.512
		c0,0.822,0.666,1.488,1.488,1.488h3.068v-2.977h-1.582V13.339z"/>
</g>
</svg>
