<?xml version="1.0" encoding="utf-8"?>
<!-- Generator: Adobe Illustrator 16.0.1, SVG Export Plug-In . SVG Version: 6.00 Build 0)  -->
<!DOCTYPE svg PUBLIC "-//W3C//DTD SVG 1.1//EN" "http://www.w3.org/Graphics/SVG/1.1/DTD/svg11.dtd">
<svg version="1.1" id="Layer_1" xmlns="http://www.w3.org/2000/svg" xmlns:xlink="http://www.w3.org/1999/xlink" x="0px" y="0px"
	 width="70.866px" height="56.693px" viewBox="0 0 70.866 56.693" enable-background="new 0 0 70.866 56.693" xml:space="preserve">
<path d="M54.921,18.573H43.222c2.404-1.617,4.682-3.723,4.949-6.018c0.133-1.119-0.123-2.76-2.096-4.221
	c-1.096-0.811-2.205-1.221-3.299-1.221c-3.482,0-5.451,4.002-6.516,7.578c-1.273-4.559-3.729-10.421-7.947-10.421
	c-1.23,0-2.457,0.499-3.648,1.485c-2.35,1.949-2.58,3.974-2.359,5.328c0.49,3.031,3.744,5.637,6.877,7.488h-12.93
	c-0.947,0-1.715,0.768-1.715,1.716v9.38c0,0.947,0.768,1.715,1.715,1.715h0.445v20.514c0,0.947,0.768,1.715,1.715,1.715h34.344
	c0.949,0,1.717-0.768,1.717-1.715V31.384h0.447c0.947,0,1.715-0.768,1.715-1.715v-9.38C56.636,19.34,55.869,18.573,54.921,18.573z
	 M53.205,27.796H38.861v-5.791h14.344V27.796z M42.777,10.545c0.336,0,0.771,0.189,1.256,0.549c0.787,0.582,0.744,0.941,0.732,1.061
	c-0.146,1.251-2.65,3.219-5.57,4.842C40.052,13.536,41.455,10.545,42.777,10.545z M25.693,10.534
	c-0.045-0.281-0.166-1.031,1.164-2.136c0.385-0.317,0.949-0.696,1.457-0.696c1.889,0,3.83,4.648,4.963,9.168
	C29.71,15.088,26.021,12.561,25.693,10.534z M32.5,22.005v5.791H17.968v-5.791H32.5z M20.13,29.854H32.5v20.326H20.13V29.854z
	 M38.861,50.181V29.854h12.182v20.326H38.861z"/>
</svg>
