<?xml version="1.0" encoding="utf-8"?>
<!-- Generator: Adobe Illustrator 16.0.3, SVG Export Plug-In . SVG Version: 6.00 Build 0)  -->
<!DOCTYPE svg PUBLIC "-//W3C//DTD SVG 1.1//EN" "http://www.w3.org/Graphics/SVG/1.1/DTD/svg11.dtd">
<svg version="1.1" id="Layer_1" xmlns="http://www.w3.org/2000/svg" xmlns:xlink="http://www.w3.org/1999/xlink" x="0px" y="0px"
	 width="56.693px" height="56.693px" viewBox="0 0 56.693 56.693" enable-background="new 0 0 56.693 56.693" xml:space="preserve">
<g>
	<path d="M52.4,25.763h-7.299v-7.298c0-0.557-0.451-1.01-1.007-1.01h-2.079c-0.56,0-1.012,0.453-1.012,1.01v7.298h-7.299
		c-0.557,0-1.009,0.453-1.009,1.01v2.079c0,0.557,0.452,1.01,1.009,1.01h7.299v7.299c0,0.559,0.452,1.01,1.012,1.01h2.079
		c0.556,0,1.007-0.451,1.007-1.01v-7.299H52.4c0.557,0,1.009-0.453,1.009-1.01v-2.079C53.409,26.216,52.957,25.763,52.4,25.763z"/>
	<path d="M27.871,32.159c-1.534-1.084-2.93-2.678-2.954-3.167c0-0.895,0.079-1.319,2.08-2.876c2.587-2.028,4.012-4.691,4.012-7.504
		c0-2.551-0.779-4.815-2.106-6.405h1.028c0.213,0,0.422-0.066,0.593-0.191l2.871-2.081c0.356-0.255,0.506-0.712,0.369-1.127
		c-0.136-0.416-0.521-0.699-0.96-0.699h-12.84c-1.406,0-2.833,0.247-4.234,0.729c-4.679,1.612-7.951,5.6-7.951,9.693
		c0,5.801,4.492,10.196,10.499,10.335c-0.118,0.459-0.178,0.911-0.178,1.356c0,0.893,0.227,1.738,0.692,2.557
		c-0.055,0.004-0.107,0.004-0.164,0.004c-5.726,0-10.894,2.809-12.855,6.988c-0.51,1.086-0.77,2.184-0.77,3.27
		c0,1.055,0.271,2.072,0.803,3.025c1.231,2.205,3.88,3.916,7.458,4.82c1.848,0.467,3.833,0.705,5.895,0.705
		c1.852,0,3.616-0.24,5.248-0.713c5.089-1.477,8.381-5.221,8.381-9.549C32.787,37.179,31.453,34.694,27.871,32.159z M11.653,41.663
		c0-3.02,3.836-5.67,8.208-5.67l0.117,0.002c0.952,0.01,1.88,0.152,2.754,0.42c0.3,0.207,0.592,0.406,0.868,0.592
		c2.024,1.381,3.362,2.291,3.734,3.754c0.087,0.367,0.131,0.734,0.131,1.092c0,3.76-2.803,5.666-8.336,5.666
		C14.939,47.519,11.653,44.946,11.653,41.663z M15.631,13.137c0.684-0.779,1.579-1.191,2.583-1.191l0.114,0.002
		c2.839,0.084,5.555,3.245,6.054,7.051c0.281,2.128-0.194,4.131-1.265,5.353c-0.684,0.78-1.566,1.191-2.611,1.191c0,0,0,0-0.002,0
		h-0.047c-2.779-0.083-5.553-3.368-6.05-7.167C14.128,16.251,14.574,14.342,15.631,13.137z"/>
</g>
</svg>
