<?xml version="1.0" encoding="utf-8"?>
<!-- Generator: Adobe Illustrator 16.0.1, SVG Export Plug-In . SVG Version: 6.00 Build 0)  -->
<!DOCTYPE svg PUBLIC "-//W3C//DTD SVG 1.1//EN" "http://www.w3.org/Graphics/SVG/1.1/DTD/svg11.dtd">
<svg version="1.1" id="Layer_1" xmlns="http://www.w3.org/2000/svg" xmlns:xlink="http://www.w3.org/1999/xlink" x="0px" y="0px"
	 width="70.866px" height="56.693px" viewBox="0 0 70.866 56.693" enable-background="new 0 0 70.866 56.693" xml:space="preserve">
<path d="M35.691,4.374c-13.735,0-24.907,11.172-24.907,24.907c0,13.734,11.172,24.908,24.907,24.908
	c13.733,0,24.907-11.174,24.907-24.908C60.598,15.545,49.424,4.374,35.691,4.374z M38.729,42.999c0,0.708-0.307,1.351-0.908,1.908
	c-0.595,0.553-1.39,0.831-2.367,0.831c-1.005,0-1.833-0.276-2.461-0.824c-0.643-0.559-0.967-1.203-0.967-1.915v-1.225
	c0-0.712,0.326-1.356,0.967-1.914c0.627-0.547,1.456-0.823,2.461-0.823c0.977,0,1.772,0.281,2.367,0.831
	c0.602,0.558,0.908,1.2,0.908,1.906V42.999z M45.476,24.654c-0.394,0.771-0.898,1.45-1.497,2.02
	c-0.588,0.556-1.23,1.057-1.911,1.492c-0.65,0.413-1.264,0.862-1.819,1.331c-0.546,0.461-1.003,0.976-1.361,1.531
	c-0.34,0.53-0.512,1.192-0.512,1.968v0.77c0,0.511-0.252,1.044-0.746,1.592c-0.5,0.554-1.169,0.85-1.986,0.884l-0.168,0.004
	c-0.829,0-1.503-0.237-2.005-0.709c-0.54-0.503-0.811-1.068-0.811-1.68c0-1.428,0.198-2.645,0.591-3.617
	c0.39-0.966,0.871-1.802,1.434-2.491c0.56-0.687,1.193-1.286,1.877-1.784c0.653-0.473,1.258-0.941,1.796-1.389
	c0.519-0.433,0.966-0.896,1.327-1.373c0.333-0.439,0.497-0.973,0.497-1.628c0-1.08-0.293-1.854-0.898-2.364
	c-0.613-0.518-1.462-0.781-2.52-0.781c-0.704,0-1.31,0.043-1.798,0.13c-0.477,0.083-0.917,0.226-1.311,0.421
	c-0.388,0.194-0.754,0.463-1.088,0.797c-0.351,0.35-0.72,0.793-1.098,1.317c-0.34,0.479-0.847,0.84-1.499,1.074
	c-0.671,0.244-1.417,0.178-2.192-0.194c-0.698-0.348-1.125-0.803-1.27-1.354c-0.136-0.507-0.136-1.039-0.002-1.577
	c0.099-0.459,0.374-1.025,0.841-1.717c0.457-0.679,1.108-1.339,1.937-1.964c0.825-0.621,1.869-1.165,3.104-1.612
	c1.242-0.449,2.729-0.677,4.422-0.677c1.67,0,3.118,0.251,4.303,0.751c1.19,0.502,2.164,1.171,2.89,1.992
	c0.724,0.819,1.258,1.76,1.588,2.797c0.327,1.026,0.493,2.099,0.493,3.187C46.082,22.907,45.877,23.869,45.476,24.654z"/>
</svg>
