<?xml version="1.0" encoding="utf-8"?>
<!-- Generator: Adobe Illustrator 16.0.1, SVG Export Plug-In . SVG Version: 6.00 Build 0)  -->
<!DOCTYPE svg PUBLIC "-//W3C//DTD SVG 1.1//EN" "http://www.w3.org/Graphics/SVG/1.1/DTD/svg11.dtd">
<svg version="1.1" id="Layer_1" xmlns="http://www.w3.org/2000/svg" xmlns:xlink="http://www.w3.org/1999/xlink" x="0px" y="0px"
	 width="56.693px" height="56.693px" viewBox="0 0 56.693 56.693" enable-background="new 0 0 56.693 56.693" xml:space="preserve">
<path d="M29.51,36.394l6.11-6.111c4.674,2.109,10.36,1.26,14.201-2.583c4.956-4.955,4.956-12.993,0-17.95
	C44.862,4.791,36.826,4.792,31.87,9.749c-3.605,3.605-4.577,8.836-2.938,13.33L3.154,48.858l1.872,4.416l7.322-0.268l1.664-6.256
	l7.157-1.396l1.281-9.131L29.51,36.394z M46.583,17.216c-1.168,1.167-3.062,1.167-4.229,0c-1.168-1.168-1.168-3.062,0-4.228
	c1.168-1.168,3.062-1.168,4.229,0C47.749,14.155,47.749,16.048,46.583,17.216z"/>
</svg>
