<?xml version="1.0" encoding="utf-8"?>
<!-- Generator: Adobe Illustrator 16.0.1, SVG Export Plug-In . SVG Version: 6.00 Build 0)  -->
<!DOCTYPE svg PUBLIC "-//W3C//DTD SVG 1.1//EN" "http://www.w3.org/Graphics/SVG/1.1/DTD/svg11.dtd">
<svg version="1.1" id="Layer_1" xmlns="http://www.w3.org/2000/svg" xmlns:xlink="http://www.w3.org/1999/xlink" x="0px" y="0px"
	 width="70.866px" height="56.693px" viewBox="0 0 70.866 56.693" enable-background="new 0 0 70.866 56.693" xml:space="preserve">
<path d="M54.737,23.033H35.213v-4.113v-5.297c0-0.182-0.031-0.357-0.074-0.527c-0.014-0.049-0.029-0.098-0.043-0.143
	c-0.045-0.133-0.1-0.26-0.166-0.379c-0.021-0.037-0.037-0.074-0.061-0.109c-0.084-0.133-0.18-0.258-0.289-0.369
	c-0.01-0.01-0.021-0.014-0.031-0.023c-0.15-0.146-0.324-0.275-0.518-0.375c-0.723-0.369-1.594-0.303-2.252,0.176l-19.9,14.457
	c-0.559,0.406-0.891,1.057-0.891,1.748c0,0.695,0.332,1.343,0.891,1.75l19.902,14.455c0.402,0.293,0.883,0.412,1.361,0.393h0.004
	c0.143-0.008,0.285-0.021,0.426-0.057c0.158-0.033,0.312-0.084,0.461-0.16c0.725-0.367,1.18-1.113,1.18-1.926v-9.408h19.523
	c2.787,0,5.045-2.258,5.045-5.046C59.78,25.292,57.524,23.033,54.737,23.033z"/>
</svg>
