<?xml version="1.0" encoding="utf-8"?>
<!-- Generator: Adobe Illustrator 16.0.1, SVG Export Plug-In . SVG Version: 6.00 Build 0)  -->
<!DOCTYPE svg PUBLIC "-//W3C//DTD SVG 1.1//EN" "http://www.w3.org/Graphics/SVG/1.1/DTD/svg11.dtd">
<svg version="1.1" id="Layer_1" xmlns="http://www.w3.org/2000/svg" xmlns:xlink="http://www.w3.org/1999/xlink" x="0px" y="0px"
	 width="56.693px" height="56.693px" viewBox="0 0 56.693 56.693" enable-background="new 0 0 56.693 56.693" xml:space="preserve">
<path d="M41.94,24.42h-2.291v-8.758c0-6.232-5.07-11.302-11.303-11.302c-6.233,0-11.305,5.07-11.305,11.302v8.758h-2.289
	c-2.492,0-4.521,2.029-4.521,4.521l2,20.869c0,2.494,2.029,4.523,4.521,4.523H39.94c2.492,0,4.521-2.029,4.521-4.523l2-20.869
	C46.462,26.449,44.433,24.42,41.94,24.42z M30.714,47.016h-4.732l-0.891-7.527c0-1.795,1.459-3.254,3.254-3.254
	c1.797,0,3.256,1.459,3.256,3.254L30.714,47.016z M34.808,24.42H21.883v-8.758c0-3.562,2.899-6.462,6.463-6.462
	s6.461,2.9,6.461,6.462V24.42z"/>
</svg>
