<?xml version="1.0" encoding="utf-8"?>
<!-- Generator: Adobe Illustrator 16.0.1, SVG Export Plug-In . SVG Version: 6.00 Build 0)  -->
<!DOCTYPE svg PUBLIC "-//W3C//DTD SVG 1.1//EN" "http://www.w3.org/Graphics/SVG/1.1/DTD/svg11.dtd">
<svg version="1.1" id="Layer_1" xmlns="http://www.w3.org/2000/svg" xmlns:xlink="http://www.w3.org/1999/xlink" x="0px" y="0px"
	 width="56.693px" height="56.693px" viewBox="0 0 56.693 56.693" enable-background="new 0 0 56.693 56.693" xml:space="preserve">
<g>
	<path d="M4.758,4.235h31.061c0.971,0,1.758,0.786,1.758,1.757v14.242h-3.514V7.749H11.516l9.078,5.147
		c0.549,0.312,0.891,0.896,0.891,1.529V41.62h12.578v-9.68h3.514v11.438c0,0.971-0.787,1.756-1.758,1.756H21.484v6.676
		c0,0.625-0.332,1.203-0.873,1.518c-0.273,0.16-0.578,0.24-0.885,0.24c-0.301,0-0.598-0.076-0.867-0.229L4.244,45.05
		C3.525,44.829,3,44.169,3,43.378V5.992C3,5.021,3.787,4.235,4.758,4.235z"/>
	<path d="M31.832,28.552c-1.357,0-2.459-1.1-2.459-2.459c0-1.357,1.102-2.459,2.459-2.459h9.402v-4.586
		c0-0.396,0.223-0.76,0.576-0.939s0.775-0.146,1.096,0.088l9.701,7.043c0.273,0.199,0.436,0.516,0.436,0.854
		s-0.162,0.656-0.436,0.854l-9.699,7.047c-0.184,0.133-0.4,0.201-0.619,0.201c-0.164,0-0.328-0.037-0.479-0.115
		c-0.354-0.18-0.576-0.543-0.576-0.939v-4.588H31.832z"/>
</g>
</svg>
