<?xml version="1.0" encoding="utf-8"?>
<!-- Generator: Adobe Illustrator 16.0.1, SVG Export Plug-In . SVG Version: 6.00 Build 0)  -->
<!DOCTYPE svg PUBLIC "-//W3C//DTD SVG 1.1//EN" "http://www.w3.org/Graphics/SVG/1.1/DTD/svg11.dtd">
<svg version="1.1" id="Layer_1" xmlns="http://www.w3.org/2000/svg" xmlns:xlink="http://www.w3.org/1999/xlink" x="0px" y="0px"
	 width="70.866px" height="56.693px" viewBox="0 0 70.866 56.693" enable-background="new 0 0 70.866 56.693" xml:space="preserve">
<g>
	<path d="M58.871,12.108H11.389c-0.768,0-1.389,0.623-1.389,1.389V44.61c0,0.766,0.621,1.387,1.389,1.387h47.482
		c0.768,0,1.389-0.621,1.389-1.387V13.497C60.259,12.731,59.638,12.108,58.871,12.108z M57.482,43.222H12.777V14.886h44.705V43.222z
		"/>
	<path d="M44.492,30.427h8.453c0.383,0,0.693-0.312,0.693-0.695V18.974c0-0.383-0.311-0.695-0.693-0.695h-8.453
		c-0.383,0-0.693,0.312-0.693,0.695v10.758C43.798,30.114,44.109,30.427,44.492,30.427z"/>
	<path d="M17.955,27.269h5.299c0.574,0,1.041-0.465,1.041-1.041s-0.467-1.041-1.041-1.041h-5.299c-0.576,0-1.041,0.465-1.041,1.041
		S17.379,27.269,17.955,27.269z"/>
	<path d="M17.955,32.823h15.539c0.574,0,1.041-0.467,1.041-1.041c0-0.576-0.467-1.043-1.041-1.043H17.955
		c-0.576,0-1.041,0.467-1.041,1.043C16.914,32.356,17.379,32.823,17.955,32.823z"/>
	<path d="M17.955,38.376h15.539c0.574,0,1.041-0.467,1.041-1.041s-0.467-1.041-1.041-1.041H17.955c-0.576,0-1.041,0.467-1.041,1.041
		S17.379,38.376,17.955,38.376z"/>
</g>
</svg>
