<?xml version="1.0" encoding="utf-8"?>
<!-- Generator: Adobe Illustrator 16.0.1, SVG Export Plug-In . SVG Version: 6.00 Build 0)  -->
<!DOCTYPE svg PUBLIC "-//W3C//DTD SVG 1.1//EN" "http://www.w3.org/Graphics/SVG/1.1/DTD/svg11.dtd">
<svg version="1.1" id="Layer_1" xmlns="http://www.w3.org/2000/svg" xmlns:xlink="http://www.w3.org/1999/xlink" x="0px" y="0px"
	 width="70.866px" height="56.693px" viewBox="0 0 70.866 56.693" enable-background="new 0 0 70.866 56.693" xml:space="preserve">
<g>
	<path d="M58.865,11.73L48.746,9.398C48.382,9.312,48,9.354,47.66,9.508l-11.857,5.426l-10.91-4.549
		c-0.404-0.168-0.859-0.176-1.268-0.016l-11.74,4.574c-0.652,0.254-1.08,0.881-1.08,1.58v32.213c0,0.561,0.277,1.084,0.738,1.4
		c0.463,0.316,1.051,0.383,1.572,0.18l11.104-4.326l10.962,4.572c0.207,0.086,0.43,0.131,0.652,0.131
		c0.242,0,0.48-0.053,0.705-0.154l12.008-5.494l9.557,2.203c0.504,0.115,1.033-0.004,1.438-0.326
		c0.402-0.32,0.639-0.809,0.639-1.326V13.383C60.179,12.593,59.634,11.908,58.865,11.73z M56.789,43.465l-8.043-1.854
		c-0.363-0.085-0.746-0.046-1.086,0.111l-11.857,5.424l-10.91-4.549c-0.209-0.088-0.43-0.131-0.652-0.131
		c-0.209,0-0.418,0.037-0.615,0.115l-9.43,3.674V17.683l10.023-3.905l10.962,4.572c0.436,0.181,0.926,0.172,1.357-0.023
		l12.008-5.494l8.242,1.9V43.465z"/>
	<path d="M21.264,32.541c-0.492-0.27-1.111-0.088-1.381,0.404c-0.434,0.791-0.688,1.316-0.688,1.316
		c-0.244,0.506-0.033,1.113,0.473,1.36c0.143,0.067,0.295,0.101,0.443,0.101c0.377,0,0.74-0.212,0.916-0.575
		c0.006-0.012,0.24-0.497,0.641-1.226C21.936,33.43,21.756,32.812,21.264,32.541z"/>
	<path d="M23.066,28.151c-0.287,0.339-0.584,0.717-0.881,1.123c-0.332,0.454-0.232,1.091,0.221,1.423
		c0.182,0.131,0.393,0.195,0.6,0.195c0.314,0,0.623-0.145,0.822-0.416c0.27-0.367,0.535-0.709,0.791-1.012
		c0.363-0.43,0.311-1.07-0.119-1.434C24.072,27.668,23.43,27.723,23.066,28.151z"/>
	<path d="M29.863,26.818c-0.867-1.137-1.851-1.377-2.523-1.377c-0.188,0-0.379,0.019-0.572,0.055
		c-0.551,0.104-0.914,0.635-0.811,1.188c0.104,0.552,0.633,0.914,1.188,0.812c0.064-0.014,0.131-0.02,0.195-0.02
		c0.199,0,0.512,0.059,0.906,0.576l0.105,0.143c0.199,0.27,0.508,0.411,0.818,0.411c0.211,0,0.422-0.065,0.605-0.198
		c0.451-0.334,0.546-0.973,0.212-1.424L29.863,26.818z"/>
	<path d="M32.103,30.463c-0.275-0.49-0.896-0.664-1.385-0.39c-0.49,0.276-0.664,0.896-0.389,1.386
		c0.445,0.791,0.883,1.564,1.355,2.312c0.195,0.307,0.525,0.475,0.861,0.475c0.186,0,0.375-0.051,0.543-0.156
		c0.475-0.301,0.617-0.93,0.316-1.404C32.96,31.979,32.535,31.23,32.103,30.463z"/>
	<path d="M43.226,32.316c-0.447-0.34-1.086-0.252-1.426,0.196c-0.557,0.735-1.104,1.363-1.621,1.868
		c-0.402,0.393-0.41,1.036-0.018,1.439c0.199,0.203,0.465,0.307,0.729,0.307c0.256,0,0.512-0.097,0.711-0.289
		c0.59-0.576,1.201-1.279,1.82-2.096C43.761,33.295,43.673,32.656,43.226,32.316z"/>
	<path d="M37.423,35.984c-0.594,0.051-1.15-0.133-1.742-0.572c-0.451-0.336-1.09-0.242-1.424,0.21
		c-0.336,0.45-0.242,1.087,0.209,1.421c0.877,0.654,1.807,0.984,2.76,0.984c0.127,0,0.254-0.006,0.383-0.018
		c0.561-0.051,0.971-0.545,0.92-1.104C38.478,36.345,37.978,35.928,37.423,35.984z"/>
	<path d="M45.933,27.744c-0.49-0.276-1.109-0.102-1.385,0.387c-0.219,0.387-0.445,0.773-0.67,1.146
		c-0.289,0.482-0.133,1.107,0.348,1.396c0.164,0.1,0.346,0.145,0.523,0.145c0.346,0,0.682-0.174,0.873-0.492
		c0.234-0.391,0.471-0.794,0.697-1.196C46.595,28.64,46.421,28.02,45.933,27.744z"/>
	<path d="M47.634,20.699c-0.217-0.52-0.812-0.762-1.33-0.547c-0.52,0.217-0.764,0.812-0.547,1.33l0.678,1.623l-1.625,0.68
		c-0.518,0.217-0.762,0.812-0.545,1.332c0.162,0.389,0.541,0.625,0.938,0.625c0.131,0,0.266-0.025,0.393-0.08l1.625-0.68
		l0.678,1.625c0.164,0.391,0.541,0.625,0.939,0.625c0.131,0,0.264-0.025,0.391-0.078c0.518-0.217,0.764-0.812,0.547-1.332
		l-0.678-1.623l1.623-0.679c0.518-0.217,0.762-0.812,0.545-1.331c-0.217-0.518-0.812-0.763-1.33-0.546l-1.623,0.679L47.634,20.699z"
		/>
</g>
</svg>
