<?xml version="1.0" encoding="utf-8"?>
<!-- Generator: Adobe Illustrator 16.0.3, SVG Export Plug-In . SVG Version: 6.00 Build 0)  -->
<!DOCTYPE svg PUBLIC "-//W3C//DTD SVG 1.1//EN" "http://www.w3.org/Graphics/SVG/1.1/DTD/svg11.dtd">
<svg version="1.1" id="Layer_1" xmlns="http://www.w3.org/2000/svg" xmlns:xlink="http://www.w3.org/1999/xlink" x="0px" y="0px"
	 width="56.693px" height="56.693px" viewBox="0 0 56.693 56.693" enable-background="new 0 0 56.693 56.693" xml:space="preserve">
<g>
	<path d="M13.656,28.08c0.568,0,1.029-0.461,1.029-1.029v-2.713c0-0.568-0.461-1.029-1.029-1.029s-1.029,0.461-1.029,1.029v2.713
		C12.626,27.619,13.087,28.08,13.656,28.08z"/>
	<path d="M13.656,19.941c0.568,0,1.029-0.461,1.029-1.029v-2.713c0-0.568-0.461-1.029-1.029-1.029s-1.029,0.461-1.029,1.029v2.713
		C12.626,19.48,13.087,19.941,13.656,19.941z"/>
	<path d="M13.656,11.803c0.568,0,1.029-0.461,1.029-1.029V10.43h0.344c0.568,0,1.029-0.461,1.029-1.029s-0.461-1.029-1.029-1.029
		h-1.373c-0.568,0-1.029,0.461-1.029,1.029v1.373C12.626,11.342,13.087,11.803,13.656,11.803z"/>
	<path d="M27.575,10.43h2.51c0.568,0,1.029-0.461,1.029-1.029s-0.461-1.029-1.029-1.029h-2.51c-0.568,0-1.029,0.461-1.029,1.029
		S27.007,10.43,27.575,10.43z"/>
	<path d="M35.104,10.43h2.51c0.568,0,1.029-0.461,1.029-1.029s-0.461-1.029-1.029-1.029h-2.51c-0.568,0-1.029,0.461-1.029,1.029
		S34.536,10.43,35.104,10.43z"/>
	<path d="M20.047,10.43h2.51c0.568,0,1.029-0.461,1.029-1.029s-0.461-1.029-1.029-1.029h-2.51c-0.568,0-1.029,0.461-1.029,1.029
		S19.479,10.43,20.047,10.43z"/>
	<path d="M45.142,8.371h-2.51c-0.568,0-1.029,0.461-1.029,1.029s0.461,1.029,1.029,1.029h2.51c0.57,0,1.029-0.461,1.029-1.029
		S45.712,8.371,45.142,8.371z"/>
	<path d="M51.534,8.371h-1.373c-0.568,0-1.029,0.461-1.029,1.029s0.461,1.029,1.029,1.029h0.342v0.344
		c0,0.568,0.461,1.029,1.031,1.029c0.568,0,1.029-0.461,1.029-1.029V9.4C52.563,8.832,52.103,8.371,51.534,8.371z"/>
	<path d="M51.534,31.447c-0.57,0-1.031,0.461-1.031,1.029v2.713c0,0.568,0.461,1.029,1.031,1.029c0.568,0,1.029-0.461,1.029-1.029
		v-2.713C52.563,31.908,52.103,31.447,51.534,31.447z"/>
	<path d="M51.534,23.309c-0.57,0-1.031,0.461-1.031,1.029v2.713c0,0.568,0.461,1.029,1.031,1.029c0.568,0,1.029-0.461,1.029-1.029
		v-2.713C52.563,23.77,52.103,23.309,51.534,23.309z"/>
	<path d="M51.534,15.17c-0.57,0-1.031,0.461-1.031,1.029v2.713c0,0.568,0.461,1.029,1.031,1.029c0.568,0,1.029-0.461,1.029-1.029
		v-2.713C52.563,15.631,52.103,15.17,51.534,15.17z"/>
	<path d="M51.534,39.586c-0.57,0-1.031,0.461-1.031,1.031v0.342h-0.342c-0.568,0-1.029,0.461-1.029,1.029s0.461,1.029,1.029,1.029
		h1.373c0.568,0,1.029-0.461,1.029-1.029v-1.371C52.563,40.047,52.103,39.586,51.534,39.586z"/>
	<path d="M45.142,40.959h-2.51c-0.568,0-1.029,0.461-1.029,1.029s0.461,1.029,1.029,1.029h2.51c0.57,0,1.029-0.461,1.029-1.029
		S45.712,40.959,45.142,40.959z"/>
	<path d="M37.614,40.959h-2.51c-0.568,0-1.029,0.461-1.029,1.029s0.461,1.029,1.029,1.029h2.51c0.568,0,1.029-0.461,1.029-1.029
		S38.183,40.959,37.614,40.959z"/>
	<path d="M29.741,30.6H6.467c-0.948,0-1.717,0.77-1.717,1.717v16.82c0,0.947,0.769,1.717,1.717,1.717h23.274
		c0.947,0,1.715-0.77,1.715-1.717v-16.82C31.456,31.369,30.688,30.6,29.741,30.6z M28.024,47.422H8.183V34.033h19.841V47.422z"/>
	<path d="M43.444,25.943c0.057-0.008,0.113-0.021,0.168-0.041c0.268-0.098,0.459-0.336,0.494-0.621l1.061-8.572
		c0.029-0.24-0.059-0.482-0.236-0.646c-0.178-0.168-0.42-0.236-0.662-0.191l-8.479,1.643c-0.281,0.055-0.508,0.262-0.586,0.537
		c-0.08,0.273,0.002,0.568,0.211,0.764l2.6,2.428l-5.826,6.24c-0.572,0.613-0.539,1.574,0.072,2.146
		c0.342,0.318,0.791,0.449,1.221,0.398c0.344-0.043,0.674-0.199,0.928-0.473l5.826-6.238l2.6,2.428
		C43.001,25.898,43.224,25.969,43.444,25.943z"/>
</g>
</svg>
