<?xml version="1.0" encoding="utf-8"?>
<!-- Generator: Adobe Illustrator 16.0.3, SVG Export Plug-In . SVG Version: 6.00 Build 0)  -->
<!DOCTYPE svg PUBLIC "-//W3C//DTD SVG 1.1//EN" "http://www.w3.org/Graphics/SVG/1.1/DTD/svg11.dtd">
<svg version="1.1" id="Layer_1" xmlns="http://www.w3.org/2000/svg" xmlns:xlink="http://www.w3.org/1999/xlink" x="0px" y="0px"
	 width="56.693px" height="56.693px" viewBox="0 0 56.693 56.693" enable-background="new 0 0 56.693 56.693" xml:space="preserve">
<g>
	<path d="M6.697,49.062H6.354V48.72c0-0.568-0.461-1.031-1.03-1.031c-0.568,0-1.029,0.463-1.029,1.031v1.371
		c0,0.568,0.461,1.031,1.029,1.031h1.373c0.568,0,1.029-0.463,1.029-1.031S7.266,49.062,6.697,49.062z"/>
	<path d="M5.324,45.001c0.569,0,1.03-0.461,1.03-1.029v-2.373c0-0.568-0.461-1.031-1.03-1.031c-0.568,0-1.029,0.463-1.029,1.031
		v2.373C4.295,44.54,4.756,45.001,5.324,45.001z"/>
	<path d="M5.324,37.882c0.569,0,1.03-0.461,1.03-1.031v-2.373c0-0.568-0.461-1.029-1.03-1.029c-0.568,0-1.029,0.461-1.029,1.029
		v2.373C4.295,37.421,4.756,37.882,5.324,37.882z"/>
	<path d="M6.697,27.327H5.324c-0.568,0-1.029,0.461-1.029,1.031v1.371c0,0.57,0.461,1.031,1.029,1.031
		c0.569,0,1.03-0.461,1.03-1.031v-0.342h0.343c0.568,0,1.029-0.463,1.029-1.029C7.727,27.788,7.266,27.327,6.697,27.327z"/>
	<path d="M36.159,47.688c-0.568,0-1.029,0.463-1.029,1.031v0.342h-0.343c-0.569,0-1.03,0.461-1.03,1.029s0.461,1.031,1.03,1.031
		h1.372c0.569,0,1.03-0.463,1.03-1.031V48.72C37.189,48.151,36.729,47.688,36.159,47.688z"/>
	<path d="M22.019,49.062h-2.554c-0.568,0-1.029,0.461-1.029,1.029s0.461,1.031,1.029,1.031h2.554c0.569,0,1.03-0.463,1.03-1.031
		S22.588,49.062,22.019,49.062z"/>
	<path d="M14.358,49.062h-2.554c-0.568,0-1.029,0.461-1.029,1.029s0.461,1.031,1.029,1.031h2.554c0.569,0,1.029-0.463,1.029-1.031
		S14.928,49.062,14.358,49.062z"/>
	<path d="M29.68,49.062h-2.555c-0.568,0-1.028,0.461-1.028,1.029s0.46,1.031,1.028,1.031h2.555c0.568,0,1.029-0.463,1.029-1.031
		S30.248,49.062,29.68,49.062z"/>
	<path d="M51.764,6.786H14.571c-0.947,0-1.716,0.768-1.716,1.717v18.824h-1.051c-0.568,0-1.03,0.461-1.03,1.031
		c0,0.566,0.462,1.029,1.03,1.029h1.051v10.123c0,0.949,0.769,1.717,1.716,1.717h20.63c-0.045,0.115-0.071,0.24-0.071,0.371v2.373
		c0,0.568,0.461,1.029,1.029,1.029c0.569,0,1.03-0.461,1.03-1.029v-2.373c0-0.131-0.027-0.256-0.071-0.371h14.646
		c0.947,0,1.716-0.768,1.716-1.717V8.503C53.479,7.554,52.711,6.786,51.764,6.786z M50.047,37.796H16.288V10.218h33.759V37.796z"/>
	<path d="M21.878,33.222l8.552-1.213c0.284-0.039,0.52-0.234,0.613-0.504c0.092-0.271,0.025-0.57-0.173-0.775l-2.475-2.557
		l6.136-5.936c0.603-0.584,0.618-1.545,0.035-2.15c-0.324-0.334-0.766-0.488-1.197-0.457c-0.344,0.023-0.683,0.166-0.95,0.422
		l-6.136,5.938l-2.473-2.555c-0.157-0.164-0.378-0.246-0.598-0.23c-0.058,0.004-0.115,0.014-0.171,0.031
		c-0.272,0.084-0.476,0.312-0.525,0.594l-1.493,8.508c-0.041,0.24,0.033,0.484,0.203,0.66
		C21.395,33.171,21.635,33.253,21.878,33.222z"/>
</g>
</svg>
