<?xml version="1.0" encoding="utf-8"?>
<!-- Generator: Adobe Illustrator 16.0.3, SVG Export Plug-In . SVG Version: 6.00 Build 0)  -->
<!DOCTYPE svg PUBLIC "-//W3C//DTD SVG 1.1//EN" "http://www.w3.org/Graphics/SVG/1.1/DTD/svg11.dtd">
<svg version="1.1" id="Layer_1" xmlns="http://www.w3.org/2000/svg" xmlns:xlink="http://www.w3.org/1999/xlink" x="0px" y="0px"
	 width="56.693px" height="56.693px" viewBox="0 0 56.693 56.693" enable-background="new 0 0 56.693 56.693" xml:space="preserve">
<g>
	<path d="M30.858,44.542H8.964V12.148h5.701c1.931-3.408,5.051-5.963,8.743-7.003H10.353c-2.39,0-4.345,1.956-4.345,4.344v40.573
		c0,2.389,1.955,4.343,4.345,4.343h19.11c2.388,0,4.344-1.954,4.344-4.343V37.136l-2.948,2.785V44.542z M19.908,51.951
		c-1.442,0-2.607-1.166-2.607-2.605c0-1.44,1.165-2.609,2.607-2.609c1.44,0,2.607,1.169,2.607,2.609
		C22.515,50.785,21.348,51.951,19.908,51.951z"/>
	<path d="M37.904,7.371h-4.656h-6.141c-3.708,0-7.017,1.868-9.179,4.777c-1.632,2.194-2.614,4.979-2.614,8.012
		c0,6.545,4.455,11.909,10.329,12.688l-0.702,6.288c0,0.459,0.279,0.873,0.707,1.043c0.134,0.057,0.277,0.082,0.418,0.082
		c0.301,0,0.596-0.121,0.813-0.348l3.979-3.759l2.948-2.785l0.445-0.422h3.652c6.502,0,11.793-5.736,11.793-12.788
		C49.697,13.108,44.406,7.371,37.904,7.371z M33.807,24.475c-0.235,0.321-0.611,0.534-1.039,0.534h-1.909h-6.494
		c-0.71,0-1.289-0.578-1.289-1.289s0.578-1.288,1.289-1.288h6.494h1.909c0.428,0,0.804,0.212,1.039,0.534
		c0.152,0.211,0.248,0.471,0.248,0.754C34.055,24.003,33.959,24.262,33.807,24.475z M40.584,18.087h-6.777h-2.948h-6.494
		c-0.71,0-1.289-0.579-1.289-1.288c0-0.711,0.578-1.289,1.289-1.289h6.494h2.948h6.777c0.711,0,1.288,0.578,1.288,1.289
		C41.872,17.508,41.295,18.087,40.584,18.087z"/>
</g>
</svg>
