<?xml version="1.0" encoding="utf-8"?>
<!-- Generator: Adobe Illustrator 16.0.1, SVG Export Plug-In . SVG Version: 6.00 Build 0)  -->
<!DOCTYPE svg PUBLIC "-//W3C//DTD SVG 1.1//EN" "http://www.w3.org/Graphics/SVG/1.1/DTD/svg11.dtd">
<svg version="1.1" id="Layer_1" xmlns="http://www.w3.org/2000/svg" xmlns:xlink="http://www.w3.org/1999/xlink" x="0px" y="0px"
	 width="70.866px" height="56.693px" viewBox="0 0 70.866 56.693" enable-background="new 0 0 70.866 56.693" xml:space="preserve">
<path d="M42.292,16.326c-2.58-2.884-5.504-6.151-7.277-11.596c-0.16-0.497-0.656-0.797-1.175-0.718
	c-0.515,0.083-0.893,0.529-0.891,1.051c0.01,1.852,0.121,3.58,0.329,5.142v29.805c-2.296-0.245-5.136,0.955-7.349,3.106
	c-3.421,3.327-4.354,7.731-2.125,10.027c0.825,0.844,1.981,1.289,3.342,1.289c2.199,0,4.719-1.171,6.741-3.138
	c2.88-2.805,4.047-6.517,2.862-8.965V19.528c1.505,1.973,3.25,3.189,4.854,4.307c2.434,1.698,4.194,2.925,4.526,6.221
	c0.055,0.546,0.515,0.968,1.073,0.952c0.555-0.012,1.002-0.443,1.038-0.996C48.631,23.41,45.553,19.97,42.292,16.326z"/>
</svg>
