<?xml version="1.0" encoding="utf-8"?>
<!-- Generator: Adobe Illustrator 16.0.3, SVG Export Plug-In . SVG Version: 6.00 Build 0)  -->
<!DOCTYPE svg PUBLIC "-//W3C//DTD SVG 1.1//EN" "http://www.w3.org/Graphics/SVG/1.1/DTD/svg11.dtd">
<svg version="1.1" id="Layer_1" xmlns="http://www.w3.org/2000/svg" xmlns:xlink="http://www.w3.org/1999/xlink" x="0px" y="0px"
	 width="56.693px" height="56.693px" viewBox="0 0 56.693 56.693" enable-background="new 0 0 56.693 56.693" xml:space="preserve">
<g>
	<path d="M41.822,23.041c-0.913,0.139-1.479,0.754-1.265,1.373l-0.005,0.002c0.492,1.404,0.736,2.852,0.731,4.299
		c0.005,1.457-0.253,2.918-0.747,4.346c-0.22,0.617,0.359,1.23,1.277,1.377c0.13,0.021,0.259,0.029,0.388,0.029
		c0.771,0,1.472-0.359,1.657-0.887c0.551-1.598,0.827-3.232,0.836-4.865c-0.006-1.623-0.281-3.24-0.828-4.822
		C43.647,23.273,42.736,22.895,41.822,23.041z"/>
	<path d="M11.348,37.426h2.799l23.185-23.184v-2.438c0,0-0.386-3.262-3.396-1.33c-2.415,1.549-8.591,6.816-12.146,9.895H11.348
		c-0.697,0-1.264,0.566-1.264,1.264v14.529C10.084,36.861,10.65,37.426,11.348,37.426z"/>
	<path d="M33.935,47.117c3.011,1.932,3.396-1.33,3.396-1.33V29.182V28.41v-2.855L23.87,39.016
		C27.397,42.037,31.943,45.84,33.935,47.117z"/>
	<path d="M50.325,6.904c-0.586-0.586-1.535-0.586-2.121,0L37.331,17.777L17.682,37.426L7.439,47.668
		c-0.586,0.586-0.586,1.535,0,2.121c0.293,0.293,0.677,0.439,1.061,0.439s0.768-0.146,1.061-0.439l12.363-12.363L37.331,22.02
		L50.325,9.025C50.911,8.439,50.911,7.49,50.325,6.904z"/>
</g>
</svg>
