<?xml version="1.0" encoding="utf-8"?>
<!-- Generator: Adobe Illustrator 16.0.1, SVG Export Plug-In . SVG Version: 6.00 Build 0)  -->
<!DOCTYPE svg PUBLIC "-//W3C//DTD SVG 1.1//EN" "http://www.w3.org/Graphics/SVG/1.1/DTD/svg11.dtd">
<svg version="1.1" id="Layer_1" xmlns="http://www.w3.org/2000/svg" xmlns:xlink="http://www.w3.org/1999/xlink" x="0px" y="0px"
	 width="70.866px" height="56.693px" viewBox="0 0 70.866 56.693" enable-background="new 0 0 70.866 56.693" xml:space="preserve">
<g>
	<path d="M33.825,27.103c-0.587,0-1.069,0.201-1.445,0.607c-0.378,0.407-0.607,1.009-0.688,1.803h4.274
		c-0.057-0.809-0.274-1.41-0.652-1.811C34.939,27.302,34.442,27.103,33.825,27.103z"/>
	<path d="M60.322,26.928c-0.051-0.521-0.343-0.989-0.788-1.265l-3.888-2.391l1.903-4.146c0.22-0.476,0.201-1.028-0.045-1.49
		c-0.249-0.464-0.697-0.784-1.216-0.868l-4.505-0.72l0.172-4.56c0.021-0.524-0.206-1.027-0.611-1.362
		c-0.405-0.333-0.943-0.455-1.454-0.334l-4.438,1.059l-1.587-4.276c-0.183-0.492-0.585-0.871-1.086-1.024
		c-0.501-0.152-1.046-0.061-1.473,0.247l-3.695,2.675l-3.104-3.345c-0.356-0.386-0.871-0.581-1.394-0.53
		c-0.523,0.053-0.991,0.345-1.265,0.793l-2.391,3.887l-4.147-1.904c-0.476-0.218-1.028-0.201-1.49,0.045
		c-0.462,0.246-0.784,0.696-0.868,1.215l-0.721,4.503l-4.559-0.17c-0.519-0.027-1.028,0.206-1.361,0.613
		c-0.333,0.406-0.456,0.942-0.334,1.453l1.057,4.439l-4.277,1.586c-0.491,0.182-0.869,0.583-1.022,1.087
		c-0.15,0.501-0.06,1.045,0.247,1.471l2.675,3.695l-3.346,3.102c-0.384,0.357-0.579,0.872-0.529,1.396
		c0.051,0.521,0.345,0.989,0.792,1.266l3.887,2.391l-1.903,4.145c-0.219,0.478-0.202,1.028,0.045,1.49
		c0.247,0.464,0.697,0.785,1.214,0.867l4.503,0.723l-0.168,4.559c-0.02,0.524,0.206,1.028,0.611,1.36
		c0.407,0.331,0.944,0.457,1.455,0.333l4.437-1.055l1.586,4.276c0.182,0.491,0.583,0.869,1.087,1.021
		c0.501,0.15,1.047,0.061,1.471-0.246l3.695-2.675l3.104,3.344c0.318,0.345,0.766,0.539,1.229,0.539
		c0.055,0,0.109-0.004,0.165-0.008c0.522-0.053,0.99-0.345,1.265-0.791l2.393-3.888l4.146,1.901c0.476,0.223,1.027,0.204,1.49-0.042
		c0.463-0.247,0.783-0.697,0.867-1.216l0.72-4.504l4.561,0.172c0.021,0,0.044,0,0.063,0c0.006,0,0.01,0,0.013,0
		c0.927,0,1.679-0.75,1.679-1.678c0-0.21-0.038-0.41-0.108-0.593l-1.008-4.233l4.276-1.589c0.492-0.183,0.869-0.583,1.021-1.084
		c0.151-0.501,0.062-1.046-0.246-1.473l-2.675-3.695l3.346-3.102C60.179,27.968,60.375,27.451,60.322,26.928z M27.375,33.629
		c0,0.474-0.108,0.83-0.323,1.073c-0.216,0.24-0.498,0.362-0.842,0.362c-0.353,0-0.637-0.126-0.856-0.372
		c-0.219-0.247-0.327-0.602-0.327-1.063v-3.928c0-0.778-0.11-1.371-0.323-1.782c-0.217-0.411-0.648-0.619-1.292-0.619
		c-0.419,0-0.803,0.128-1.147,0.376c-0.346,0.25-0.599,0.593-0.76,1.03c-0.115,0.353-0.174,1.011-0.174,1.973v2.95
		c0,0.479-0.109,0.838-0.333,1.077c-0.221,0.236-0.505,0.358-0.857,0.358c-0.341,0-0.619-0.126-0.838-0.372
		c-0.219-0.247-0.327-0.602-0.327-1.063v-6.812c0-0.449,0.096-0.786,0.292-1.005c0.196-0.221,0.464-0.333,0.803-0.333
		c0.208,0,0.395,0.049,0.562,0.146c0.167,0.098,0.302,0.243,0.401,0.44c0.102,0.194,0.151,0.435,0.151,0.717v0.284
		c0.415-0.546,0.867-0.948,1.36-1.205c0.492-0.256,1.058-0.383,1.696-0.383c0.622,0,1.178,0.135,1.668,0.405
		c0.49,0.271,0.854,0.654,1.097,1.15c0.155,0.288,0.254,0.597,0.302,0.932c0.045,0.333,0.068,0.76,0.068,1.276V33.629z
		 M32.018,32.266c0.209,0.409,0.487,0.717,0.836,0.922c0.349,0.21,0.732,0.314,1.153,0.314c0.282,0,0.54-0.034,0.773-0.101
		s0.458-0.17,0.677-0.311c0.218-0.142,0.419-0.294,0.603-0.453c0.185-0.162,0.425-0.382,0.719-0.658
		c0.119-0.103,0.292-0.154,0.518-0.154c0.242,0,0.437,0.064,0.587,0.2c0.148,0.131,0.225,0.316,0.225,0.56
		c0,0.212-0.084,0.464-0.25,0.746c-0.167,0.285-0.419,0.56-0.756,0.82c-0.337,0.263-0.76,0.48-1.269,0.654
		c-0.511,0.171-1.097,0.259-1.759,0.259c-1.514,0-2.69-0.433-3.532-1.297c-0.84-0.863-1.259-2.034-1.259-3.515
		c0-0.695,0.104-1.341,0.309-1.938c0.208-0.595,0.511-1.106,0.908-1.531c0.396-0.425,0.886-0.752,1.467-0.981
		c0.582-0.229,1.226-0.341,1.935-0.341c0.92,0,1.712,0.194,2.369,0.584c0.661,0.388,1.154,0.889,1.482,1.505
		c0.328,0.615,0.492,1.244,0.492,1.882c0,0.593-0.17,0.979-0.509,1.153c-0.339,0.177-0.819,0.265-1.434,0.265h-4.611
		C31.699,31.385,31.807,31.856,32.018,32.266z M52.486,27.561l-1.925,5.647c-0.166,0.478-0.298,0.822-0.39,1.033
		c-0.093,0.214-0.237,0.405-0.435,0.572c-0.199,0.167-0.472,0.251-0.816,0.251c-0.358,0-0.639-0.09-0.842-0.269
		c-0.204-0.178-0.354-0.398-0.454-0.658c-0.097-0.259-0.204-0.594-0.319-1.009l-1.348-4.593l-1.303,4.593
		c-0.174,0.639-0.36,1.122-0.562,1.445c-0.202,0.325-0.557,0.49-1.063,0.49c-0.258,0-0.478-0.052-0.659-0.151
		c-0.183-0.102-0.331-0.245-0.455-0.433c-0.119-0.188-0.225-0.409-0.316-0.666c-0.094-0.254-0.164-0.458-0.218-0.606l-1.909-5.647
		c-0.189-0.53-0.283-0.897-0.283-1.096c0-0.255,0.1-0.482,0.301-0.684c0.202-0.202,0.45-0.301,0.742-0.301
		c0.392,0,0.658,0.111,0.795,0.333c0.14,0.219,0.286,0.599,0.44,1.136l1.537,5.265l1.4-4.897c0.149-0.511,0.26-0.86,0.332-1.048
		c0.072-0.186,0.206-0.364,0.406-0.534c0.197-0.17,0.47-0.254,0.814-0.254c0.353,0,0.627,0.084,0.825,0.254s0.338,0.354,0.421,0.552
		c0.08,0.198,0.19,0.542,0.334,1.03l1.4,4.897l1.555-5.265c0.102-0.382,0.186-0.656,0.249-0.826c0.064-0.17,0.17-0.319,0.32-0.449
		c0.148-0.129,0.365-0.193,0.646-0.193c0.282,0,0.526,0.096,0.734,0.293c0.207,0.195,0.311,0.425,0.311,0.691
		C52.753,26.703,52.664,27.071,52.486,27.561z"/>
</g>
</svg>
