<?xml version="1.0" encoding="utf-8"?>
<!-- Generator: Adobe Illustrator 16.0.1, SVG Export Plug-In . SVG Version: 6.00 Build 0)  -->
<!DOCTYPE svg PUBLIC "-//W3C//DTD SVG 1.1//EN" "http://www.w3.org/Graphics/SVG/1.1/DTD/svg11.dtd">
<svg version="1.1" id="Layer_1" xmlns="http://www.w3.org/2000/svg" xmlns:xlink="http://www.w3.org/1999/xlink" x="0px" y="0px"
	 width="56.693px" height="56.693px" viewBox="0 0 56.693 56.693" enable-background="new 0 0 56.693 56.693" xml:space="preserve">
<path d="M52.742,21.147c-0.783-0.816-1.899-1.283-3.062-1.283h-2.152l-1.556-7.674c-0.057-0.273-0.219-0.514-0.453-0.669
	c-0.233-0.156-0.52-0.21-0.793-0.156l-22.828,4.628c-0.736-0.658-1.705-1.062-2.767-1.062H8.865c-2.295,0-4.161,1.866-4.161,4.161
	v1.465c-1.135,0.754-1.854,2.035-1.854,3.467v23.218c0,0.007,0.001,0.013,0.001,0.019l-0.001,0.01c0,2.279,1.867,4.135,4.16,4.135
	h38.668c0.144,0,0.283-0.01,0.423-0.021c0.024-0.004,0.05-0.008,0.074-0.012c0.113-0.015,0.227-0.031,0.337-0.053
	c0.018-0.002,0.033-0.009,0.052-0.013c0.117-0.025,0.234-0.055,0.35-0.09c0.005-0.001,0.013-0.005,0.018-0.007
	c1.429-0.449,2.523-1.645,2.822-3.125c0.001-0.004,0.001-0.008,0.003-0.014c0.024-0.119,0.043-0.24,0.056-0.363
	c0.003-0.035,0.007-0.068,0.01-0.103c0.004-0.056,0.012-0.108,0.015-0.163l3.979-23.148l0.023-0.225
	C53.885,22.972,53.495,21.933,52.742,21.147z M44.109,13.647l1.26,6.217H23.292v-0.771c0-0.414-0.064-0.812-0.177-1.189
	L44.109,13.647z M46.344,46.974l-0.025,0.297c0,0.338-0.286,0.611-0.64,0.611H7.011c-0.315,0-0.58-0.221-0.629-0.51l3.966-23.081
	c0.053-0.316,0.153-0.905,1.264-0.905H49.68c0.206,0,0.401,0.075,0.521,0.201c0.07,0.072,0.109,0.157,0.118,0.26L46.344,46.974z"/>
</svg>
