<?xml version="1.0" encoding="utf-8"?>
<!-- Generator: Adobe Illustrator 16.0.1, SVG Export Plug-In . SVG Version: 6.00 Build 0)  -->
<!DOCTYPE svg PUBLIC "-//W3C//DTD SVG 1.1//EN" "http://www.w3.org/Graphics/SVG/1.1/DTD/svg11.dtd">
<svg version="1.1" id="Layer_1" xmlns="http://www.w3.org/2000/svg" xmlns:xlink="http://www.w3.org/1999/xlink" x="0px" y="0px"
	 width="70.866px" height="56.693px" viewBox="0 0 70.866 56.693" enable-background="new 0 0 70.866 56.693" xml:space="preserve">
<path d="M59.076,20.164L44.783,5.872c-0.275-0.274-0.662-0.406-1.049-0.355c-0.385,0.052-0.725,0.278-0.92,0.616
	c-1.227,2.137-1.449,4.855-0.639,7.562l-9.547,9.547c-2.471-1.244-5.085-1.897-7.621-1.897c-3.383,0-6.449,1.202-8.633,3.385
	c-0.234,0.234-0.367,0.552-0.367,0.884s0.133,0.649,0.367,0.884l9.033,9.034L11.045,52.14c-0.428,0.496-0.402,1.238,0.062,1.702
	c0.242,0.242,0.562,0.365,0.883,0.365c0.291,0,0.582-0.101,0.818-0.305l16.607-14.363l9.035,9.035c0.488,0.486,1.279,0.488,1.768,0
	c3.906-3.906,4.465-10.344,1.484-16.256l9.547-9.547c2.674,0.802,5.451,0.574,7.564-0.641c0.338-0.193,0.566-0.533,0.617-0.92
	C59.482,20.826,59.351,20.438,59.076,20.164z"/>
</svg>
