<?xml version="1.0" encoding="utf-8"?>
<!-- Generator: Adobe Illustrator 16.0.1, SVG Export Plug-In . SVG Version: 6.00 Build 0)  -->
<!DOCTYPE svg PUBLIC "-//W3C//DTD SVG 1.1//EN" "http://www.w3.org/Graphics/SVG/1.1/DTD/svg11.dtd">
<svg version="1.1" id="Layer_1" xmlns="http://www.w3.org/2000/svg" xmlns:xlink="http://www.w3.org/1999/xlink" x="0px" y="0px"
	 width="70.866px" height="56.693px" viewBox="0 0 70.866 56.693" enable-background="new 0 0 70.866 56.693" xml:space="preserve">
<path d="M35.43,4.374c-13.654,0-24.72,11.063-24.72,24.717c0,13.658,11.066,24.725,24.72,24.725
	c13.653,0,24.727-11.066,24.727-24.725C60.157,15.437,49.083,4.374,35.43,4.374z M46.519,31.99H38.32v8.18
	c0,1.602-1.286,2.897-2.89,2.897c-1.596,0-2.891-1.296-2.891-2.897v-8.18h-8.182c-1.602,0-2.89-1.3-2.89-2.894
	c0-1.603,1.288-2.892,2.89-2.892h8.182v-8.191c0-1.598,1.295-2.889,2.891-2.889c1.604,0,2.89,1.291,2.89,2.889v8.191h8.199
	c1.594,0,2.89,1.289,2.89,2.892C49.409,30.69,48.113,31.99,46.519,31.99z"/>
</svg>
