<?xml version="1.0" encoding="utf-8"?>
<!-- Generator: Adobe Illustrator 16.0.1, SVG Export Plug-In . SVG Version: 6.00 Build 0)  -->
<!DOCTYPE svg PUBLIC "-//W3C//DTD SVG 1.1//EN" "http://www.w3.org/Graphics/SVG/1.1/DTD/svg11.dtd">
<svg version="1.1" id="Layer_1" xmlns="http://www.w3.org/2000/svg" xmlns:xlink="http://www.w3.org/1999/xlink" x="0px" y="0px"
	 width="70.866px" height="56.693px" viewBox="0 0 70.866 56.693" enable-background="new 0 0 70.866 56.693" xml:space="preserve">
<g>
	<path d="M53.32,27.99v19.444H13.709V13.402h25.208c-0.686-1.09-0.938-2.391-0.691-3.666H11.874c-1.01,0-1.831,0.82-1.831,1.833
		v37.697c0,1.012,0.821,1.834,1.831,1.834h43.278c1.014,0,1.832-0.822,1.832-1.834V29.381c-0.055,0.002-0.104,0.013-0.158,0.013
		C55.509,29.394,54.273,28.895,53.32,27.99z"/>
	<path d="M60.402,7.123c-0.326-0.326-0.787-0.476-1.24-0.402L43.009,9.279C42.681,9.33,42.402,9.5,42.185,9.736l0,0h-0.002
		c-0.064,0.07-0.125,0.146-0.174,0.229c-0.061,0.09-0.109,0.186-0.143,0.289c-0.168,0.515-0.033,1.079,0.35,1.463l4.424,4.421
		L34.235,28.545c-1.311,1.311-1.311,3.436,0,4.744c1.311,1.311,3.434,1.311,4.745,0l12.404-12.404l1.936,1.932l0,0l2.49,2.492
		c0.084,0.084,0.184,0.152,0.283,0.213c0.027,0.018,0.057,0.033,0.088,0.047c0.082,0.041,0.166,0.074,0.256,0.099
		c0.025,0.009,0.053,0.019,0.078,0.024c0.1,0.021,0.205,0.036,0.311,0.036c0.008,0,0.016-0.001,0.025-0.003
		c0.141-0.003,0.281-0.021,0.418-0.067c0.514-0.165,0.893-0.607,0.977-1.142l2.561-16.15C60.876,7.91,60.726,7.448,60.402,7.123z"/>
</g>
</svg>
