<?xml version="1.0" encoding="utf-8"?>
<!-- Generator: Adobe Illustrator 16.0.1, SVG Export Plug-In . SVG Version: 6.00 Build 0)  -->
<!DOCTYPE svg PUBLIC "-//W3C//DTD SVG 1.1//EN" "http://www.w3.org/Graphics/SVG/1.1/DTD/svg11.dtd">
<svg version="1.1" id="Layer_1" xmlns="http://www.w3.org/2000/svg" xmlns:xlink="http://www.w3.org/1999/xlink" x="0px" y="0px"
	 width="70.866px" height="56.693px" viewBox="0 0 70.866 56.693" enable-background="new 0 0 70.866 56.693" xml:space="preserve">
<g>
	<path d="M60.495,36.416l-7.146-9.839c-0.289-0.396-0.749-0.632-1.238-0.632c-0.49,0-0.95,0.235-1.239,0.632l-7.272,10.01
		c-0.338,0.467-0.387,1.082-0.125,1.594c0.261,0.514,0.787,0.837,1.362,0.837h3.137c-2.966,4.432-8.182,7.093-13.719,6.616
		c-3.468-0.297-6.74-1.797-9.213-4.228c-1.207-1.185-3.145-1.167-4.33,0.04c-1.184,1.206-1.167,3.143,0.039,4.329
		c3.487,3.423,8.098,5.54,12.983,5.957c0.599,0.054,1.193,0.077,1.785,0.077c8.435,0,16.083-5.091,19.384-12.792h4.479
		c0.008,0,0.014-0.002,0.021,0c0.846,0,1.53-0.685,1.53-1.529C60.931,37.069,60.764,36.693,60.495,36.416z"/>
	<path d="M20.193,32.803l7.271-10.011c0.338-0.464,0.388-1.081,0.126-1.594c-0.262-0.512-0.789-0.835-1.364-0.835h-3.17
		c2.948-4.442,8.138-7.084,13.737-6.614c3.49,0.296,6.782,1.817,9.27,4.28c1.201,1.19,3.139,1.182,4.327-0.022
		c1.191-1.2,1.181-3.138-0.02-4.328c-3.505-3.47-8.142-5.612-13.059-6.03c-9.216-0.785-17.654,4.442-21.173,12.714h-4.456
		c-0.576,0-1.103,0.323-1.364,0.835c-0.262,0.514-0.213,1.13,0.125,1.594l7.271,10.011c0.29,0.397,0.749,0.632,1.24,0.632
		C19.444,33.435,19.905,33.2,20.193,32.803z"/>
</g>
</svg>
