<?xml version="1.0" encoding="utf-8"?>
<!-- Generator: Adobe Illustrator 16.0.1, SVG Export Plug-In . SVG Version: 6.00 Build 0)  -->
<!DOCTYPE svg PUBLIC "-//W3C//DTD SVG 1.1//EN" "http://www.w3.org/Graphics/SVG/1.1/DTD/svg11.dtd">
<svg version="1.1" id="Layer_1" xmlns="http://www.w3.org/2000/svg" xmlns:xlink="http://www.w3.org/1999/xlink" x="0px" y="0px"
	 width="70.866px" height="56.693px" viewBox="0 0 70.866 56.693" enable-background="new 0 0 70.866 56.693" xml:space="preserve">
<path d="M58.726,26.384L38.824,11.929c-0.4-0.293-0.883-0.412-1.359-0.391H37.46c-0.143,0.006-0.287,0.018-0.426,0.055
	c-0.158,0.033-0.312,0.084-0.463,0.158c-0.723,0.371-1.18,1.115-1.18,1.928v9.408H15.869c-2.787,0-5.045,2.258-5.045,5.047
	c0.002,2.785,2.258,5.044,5.045,5.044h19.523v4.113v5.297c0,0.18,0.033,0.357,0.076,0.527c0.01,0.049,0.025,0.096,0.041,0.143
	c0.045,0.133,0.1,0.258,0.166,0.379c0.02,0.037,0.037,0.074,0.059,0.107c0.086,0.133,0.18,0.26,0.291,0.371
	c0.01,0.01,0.021,0.014,0.031,0.023c0.15,0.146,0.324,0.275,0.516,0.373c0.727,0.371,1.596,0.303,2.254-0.176l19.9-14.453
	c0.557-0.41,0.891-1.058,0.891-1.75C59.615,27.439,59.283,26.791,58.726,26.384z"/>
</svg>
