<?xml version="1.0" encoding="utf-8"?>
<!-- Generator: Adobe Illustrator 16.0.1, SVG Export Plug-In . SVG Version: 6.00 Build 0)  -->
<!DOCTYPE svg PUBLIC "-//W3C//DTD SVG 1.1//EN" "http://www.w3.org/Graphics/SVG/1.1/DTD/svg11.dtd">
<svg version="1.1" id="Layer_1" xmlns="http://www.w3.org/2000/svg" xmlns:xlink="http://www.w3.org/1999/xlink" x="0px" y="0px"
	 width="56.693px" height="56.693px" viewBox="0 0 56.693 56.693" enable-background="new 0 0 56.693 56.693" xml:space="preserve">
<path d="M49.697,48.449L37.798,32.599h-0.859l-0.864,0.863l-1.271-1.754c2.822-2.861,4.568-6.783,4.568-11.111
	c0-8.732-7.104-15.838-15.839-15.838S7.694,11.864,7.694,20.597c0,8.734,7.104,15.84,15.839,15.84c2.587,0,5.025-0.637,7.186-1.74
	l1.584,1.807l-0.952,0.955v0.455c0,0,11.718,14.712,12.444,15.439c0.726,0.727,2.36,0.453,2.36,0.453s2.363-1.363,3.542-2.543
	C50.878,50.081,49.697,48.449,49.697,48.449z M23.533,30.843c-5.65,0-10.245-4.595-10.245-10.246
	c0-5.646,4.595-10.243,10.245-10.243c5.649,0,10.243,4.598,10.243,10.243C33.776,26.248,29.183,30.843,23.533,30.843z"/>
</svg>
