<?xml version="1.0" encoding="utf-8"?>
<!-- Generator: Adobe Illustrator 16.0.1, SVG Export Plug-In . SVG Version: 6.00 Build 0)  -->
<!DOCTYPE svg PUBLIC "-//W3C//DTD SVG 1.1//EN" "http://www.w3.org/Graphics/SVG/1.1/DTD/svg11.dtd">
<svg version="1.1" id="Layer_1" xmlns="http://www.w3.org/2000/svg" xmlns:xlink="http://www.w3.org/1999/xlink" x="0px" y="0px"
	 width="70.866px" height="56.693px" viewBox="0 0 70.866 56.693" enable-background="new 0 0 70.866 56.693" xml:space="preserve">
<g>
	<polygon points="52.769,16.638 55.681,15.467 58.31,11.932 54.802,8.426 51.261,11.061 50.099,13.965 41.361,22.706 44.214,25.193 
			"/>
	<path d="M57.902,40.426L42.078,26.644l-0.561-0.49l-4.512-3.93c0.547-2.678,1.537-9.859-2.461-13.854
		c-2.627-2.631-6.125-4.08-9.846-4.08c-0.91,0-1.824,0.091-2.715,0.267c-0.248,0.05-0.447,0.23-0.521,0.472
		c-0.074,0.24-0.008,0.503,0.17,0.68l5.961,5.963l1.195,5.767l-4.871,4.868l-5.766-1.193l-5.961-5.96
		c-0.18-0.179-0.441-0.244-0.682-0.171c-0.24,0.072-0.422,0.271-0.471,0.521c-0.906,4.574,0.52,9.269,3.812,12.563
		c1.959,1.958,5.012,2.993,8.834,2.993l0,0c1.604,0,3.332-0.184,5.021-0.534l18.17,20.86c1.5,1.502,3.451,2.31,5.527,2.31
		s4.029-0.808,5.498-2.277C60.931,48.387,60.931,43.456,57.902,40.426z M53.775,47.293c-0.758,0.759-1.984,0.759-2.742,0.001
		l-0.002-0.001c-0.756-0.758-0.756-1.987,0-2.744c0.758-0.756,1.986-0.756,2.744,0.002h0.002
		C54.533,45.309,54.533,46.535,53.775,47.293z"/>
	<path d="M27.73,34.3c-0.691-0.692-1.814-0.692-2.506,0L13.603,45.923c-0.693,0.691-0.693,1.813,0,2.507l4.533,4.536
		c0.693,0.691,1.814,0.691,2.508,0l11.279-11.277c0.691-0.692,0.691-1.815,0-2.508L27.73,34.3z"/>
</g>
</svg>
