<?xml version="1.0" encoding="utf-8"?>
<!-- Generator: Adobe Illustrator 16.0.1, SVG Export Plug-In . SVG Version: 6.00 Build 0)  -->
<!DOCTYPE svg PUBLIC "-//W3C//DTD SVG 1.1//EN" "http://www.w3.org/Graphics/SVG/1.1/DTD/svg11.dtd">
<svg version="1.1" id="Layer_1" xmlns="http://www.w3.org/2000/svg" xmlns:xlink="http://www.w3.org/1999/xlink" x="0px" y="0px"
	 width="70.866px" height="56.693px" viewBox="0 0 70.866 56.693" enable-background="new 0 0 70.866 56.693" xml:space="preserve">
<g>
	<path d="M35.243,5.204c-13.578,0-24.623,11.047-24.623,24.623c0,13.578,11.045,24.625,24.623,24.625s24.625-11.047,24.625-24.625
		C59.868,16.251,48.821,5.204,35.243,5.204z M35.243,50.907c-11.623,0-21.078-9.455-21.078-21.08
		c0-11.623,9.455-21.078,21.078-21.078s21.08,9.455,21.08,21.078C56.323,41.452,46.866,50.907,35.243,50.907z"/>
	<circle cx="27.137" cy="26.675" r="4.457"/>
	<circle cx="43.35" cy="26.674" r="4.456"/>
	<path d="M41.325,37.159h-12.16c-0.98,0-1.773,0.793-1.773,1.771c0,0.98,0.793,1.773,1.773,1.773h12.16
		c0.979,0,1.771-0.793,1.771-1.773C43.096,37.952,42.303,37.159,41.325,37.159z"/>
</g>
</svg>
