<?xml version="1.0" encoding="utf-8"?>
<!-- Generator: Adobe Illustrator 16.0.1, SVG Export Plug-In . SVG Version: 6.00 Build 0)  -->
<!DOCTYPE svg PUBLIC "-//W3C//DTD SVG 1.1//EN" "http://www.w3.org/Graphics/SVG/1.1/DTD/svg11.dtd">
<svg version="1.1" id="Layer_1" xmlns="http://www.w3.org/2000/svg" xmlns:xlink="http://www.w3.org/1999/xlink" x="0px" y="0px"
	 width="70.866px" height="56.693px" viewBox="0 0 70.866 56.693" enable-background="new 0 0 70.866 56.693" xml:space="preserve">
<g>
	<path d="M35.243,5.204c-13.578,0-24.625,11.047-24.625,24.623c0,13.578,11.047,24.625,24.625,24.625
		c13.576,0,24.623-11.047,24.623-24.625C59.866,16.251,48.819,5.204,35.243,5.204z M35.243,50.907
		c-11.623,0-21.08-9.455-21.08-21.08c0-11.623,9.457-21.078,21.08-21.078s21.078,9.455,21.078,21.078
		C56.321,41.452,46.866,50.907,35.243,50.907z"/>
	<circle cx="27.136" cy="23.839" r="4.456"/>
	<circle cx="43.348" cy="23.839" r="4.457"/>
	<path d="M35.243,33.243c-4.158,0-7.902,2.473-9.537,6.297c-0.385,0.898,0.031,1.941,0.932,2.326
		c0.902,0.385,1.941-0.033,2.326-0.934c1.078-2.518,3.541-4.145,6.279-4.145c2.736,0,5.199,1.627,6.277,4.145
		c0.287,0.674,0.941,1.076,1.629,1.076c0.232,0,0.469-0.045,0.697-0.143c0.898-0.385,1.316-1.426,0.932-2.326
		C43.143,35.716,39.401,33.243,35.243,33.243z"/>
</g>
</svg>
