<?xml version="1.0" encoding="utf-8"?>
<!-- Generator: Adobe Illustrator 16.0.1, SVG Export Plug-In . SVG Version: 6.00 Build 0)  -->
<!DOCTYPE svg PUBLIC "-//W3C//DTD SVG 1.1//EN" "http://www.w3.org/Graphics/SVG/1.1/DTD/svg11.dtd">
<svg version="1.1" id="Layer_1" xmlns="http://www.w3.org/2000/svg" xmlns:xlink="http://www.w3.org/1999/xlink" x="0px" y="0px"
	 width="70.866px" height="56.693px" viewBox="0 0 70.866 56.693" enable-background="new 0 0 70.866 56.693" xml:space="preserve">
<g>
	<path d="M33.16,15.161c-0.39-0.389-0.937-0.568-1.484-0.479c-0.54,0.091-1.008,0.436-1.253,0.928L17.943,40.85l-2.327,2.323
		l-3.297,2.188c-0.428,0.284-0.705,0.744-0.756,1.253s0.13,1.015,0.491,1.377l5.338,5.338c0.323,0.321,0.758,0.499,1.208,0.499
		c0.058,0,0.114-0.002,0.17-0.007c0.51-0.053,0.969-0.329,1.252-0.755l2.22-3.347l2.11-2.11c0.062,0.09,0.132,0.177,0.211,0.257
		l5.491,5.492c0.321,0.318,0.744,0.495,1.196,0.495c0.453,0,0.879-0.175,1.196-0.493l0.791-0.791
		c0.659-0.661,0.657-1.734-0.002-2.391l-4.718-4.718l21.246-10.509c0.492-0.244,0.838-0.709,0.928-1.252
		c0.09-0.544-0.09-1.095-0.478-1.484L33.16,15.161z M18.552,50.709l-3.835-3.836l3.127-1.763l2.469,2.471L18.552,50.709z"/>
	<path d="M59.793,23.609c-0.891-5.043-3.047-9.292-6.254-12.499c-3.202-3.205-7.449-5.36-12.494-6.253
		c-0.597-0.105-1.36,0.367-1.71,1.042c-0.354,0.676-0.16,1.313,0.432,1.416L39.761,7.32c4.733,0.835,8.7,2.862,11.703,5.863
		c3.005,3.007,5.034,6.975,5.866,11.706c0.104,0.591,0.739,0.786,1.425,0.43c0.186-0.101,0.354-0.228,0.499-0.371
		C59.644,24.56,59.867,24.039,59.793,23.609z"/>
	<path d="M47.754,16.871c-1.89-1.891-4.237-3.326-6.964-4.19c-0.551-0.174-1.332,0.225-1.741,0.889
		c-0.415,0.657-0.304,1.341,0.247,1.516c2.491,0.793,4.652,2.111,6.395,3.852c1.747,1.75,3.067,3.932,3.877,6.449
		c0.176,0.548,0.859,0.658,1.522,0.242c0.138-0.085,0.264-0.186,0.374-0.297c0.43-0.432,0.653-1.015,0.515-1.453
		C51.09,21.151,49.658,18.775,47.754,16.871z"/>
</g>
</svg>
