<?xml version="1.0" encoding="utf-8"?>
<!-- Generator: Adobe Illustrator 16.0.1, SVG Export Plug-In . SVG Version: 6.00 Build 0)  -->
<!DOCTYPE svg PUBLIC "-//W3C//DTD SVG 1.1//EN" "http://www.w3.org/Graphics/SVG/1.1/DTD/svg11.dtd">
<svg version="1.1" id="Layer_1" xmlns="http://www.w3.org/2000/svg" xmlns:xlink="http://www.w3.org/1999/xlink" x="0px" y="0px"
	 width="70.866px" height="56.693px" viewBox="0 0 70.866 56.693" enable-background="new 0 0 70.866 56.693" xml:space="preserve">
<g>
	<path d="M52.989,39.34h-34.91V26.666c-1.089,0.912-2.422,1.532-3.888,1.763v23.799c0,1.076,0.872,1.945,1.943,1.945h38.801
		c1.071,0,1.943-0.869,1.943-1.945V28.416c-1.473-0.249-2.808-0.898-3.889-1.835V39.34z"/>
	<path d="M56.081,8.278c0.275,0,0.541,0.059,0.797,0.152V6.245c0-1.074-0.872-1.944-1.943-1.944H16.133
		c-1.071,0-1.943,0.871-1.943,1.944v2.211c0.279-0.114,0.58-0.178,0.889-0.178H56.081z"/>
	<path d="M56.081,10.61h-3.092h-34.91H15.08l-7.787,8.362c0,3.122,2.534,5.656,5.66,5.656c0.646,0,1.266-0.114,1.846-0.316
		c0.022-0.007,0.045-0.018,0.069-0.024c0.178-0.065,0.349-0.137,0.519-0.218c0.022-0.011,0.047-0.022,0.071-0.036
		c0.176-0.087,0.347-0.181,0.515-0.286c0.006-0.006,0.016-0.012,0.021-0.016c0.719-0.46,1.328-1.08,1.775-1.808
		c0.002-0.004,0.004-0.009,0.008-0.016c0.111-0.18,0.212-0.367,0.301-0.561v-0.001c0.337-0.723,0.531-1.526,0.531-2.376
		c0,3.122,2.531,5.656,5.655,5.656s5.656-2.535,5.656-5.656c0,3.122,2.533,5.656,5.659,5.656c3.125,0,5.656-2.535,5.656-5.656
		c0,3.122,2.533,5.656,5.659,5.656c3.122,0,5.655-2.535,5.655-5.656c0,0.998,0.262,1.936,0.718,2.752
		c0.021,0.036,0.043,0.071,0.065,0.108c0.085,0.142,0.174,0.281,0.27,0.416c0.029,0.042,0.064,0.085,0.097,0.128
		c0.095,0.129,0.198,0.252,0.307,0.371c0.028,0.036,0.06,0.067,0.092,0.103c0.133,0.139,0.271,0.272,0.416,0.398
		c0.008,0.007,0.016,0.015,0.023,0.021c0.493,0.424,1.065,0.759,1.688,0.995c0.006,0.002,0.012,0.003,0.018,0.007
		c0.206,0.075,0.416,0.14,0.633,0.192h0.002c0.428,0.103,0.873,0.166,1.329,0.166c3.122,0,5.659-2.535,5.659-5.656L56.081,10.61z"/>
</g>
</svg>
