<?xml version="1.0" encoding="utf-8"?>
<!-- Generator: Adobe Illustrator 16.0.1, SVG Export Plug-In . SVG Version: 6.00 Build 0)  -->
<!DOCTYPE svg PUBLIC "-//W3C//DTD SVG 1.1//EN" "http://www.w3.org/Graphics/SVG/1.1/DTD/svg11.dtd">
<svg version="1.1" id="Layer_1" xmlns="http://www.w3.org/2000/svg" xmlns:xlink="http://www.w3.org/1999/xlink" x="0px" y="0px"
	 width="70.866px" height="56.693px" viewBox="0 0 70.866 56.693" enable-background="new 0 0 70.866 56.693" xml:space="preserve">
<g>
	<path d="M54.522,15.424H16.18c-3.956,0-7.173,3.217-7.173,7.174V35.95c0,3.957,3.218,7.174,7.173,7.174h38.342
		c3.956,0,7.174-3.217,7.174-7.174V22.598C61.696,18.641,58.478,15.424,54.522,15.424z M35.351,37.948H16.18
		c-1.102,0-1.997-0.896-1.997-1.998V22.598c0-1.102,0.896-1.998,1.997-1.998h19.171V37.948z M49.293,32.79
		c0,0.149-0.065,0.282-0.192,0.402c-0.129,0.122-0.297,0.183-0.503,0.183c-0.232,0-0.415-0.061-0.548-0.183
		c-0.132-0.12-0.199-0.253-0.199-0.402v-6.175h-1.217c-0.216,0-0.386-0.06-0.516-0.18c-0.127-0.119-0.191-0.275-0.191-0.466
		c0-0.208,0.064-0.371,0.191-0.491c0.13-0.12,0.3-0.18,0.516-0.18h1.964c0.206,0,0.374,0.06,0.503,0.18
		c0.127,0.12,0.192,0.255,0.192,0.404V32.79z"/>
	<path d="M22.966,32.49c0.257,0.275,0.571,0.489,0.944,0.647c0.372,0.158,0.794,0.237,1.267,0.237c0.48,0,0.907-0.079,1.279-0.237
		c0.374-0.158,0.688-0.372,0.944-0.647c0.257-0.272,0.454-0.6,0.591-0.98c0.137-0.38,0.205-0.794,0.205-1.241v-1.988
		c0-0.373-0.052-0.743-0.155-1.112c-0.104-0.369-0.274-0.7-0.51-0.994c-0.236-0.293-0.547-0.534-0.932-0.72
		c-0.386-0.187-0.859-0.28-1.423-0.28c-0.563,0-1.035,0.093-1.417,0.28c-0.38,0.186-0.689,0.427-0.925,0.72
		c-0.235,0.294-0.403,0.625-0.503,0.994c-0.099,0.369-0.148,0.739-0.148,1.112v1.988c0,0.447,0.065,0.861,0.198,1.241
		C22.514,31.891,22.709,32.218,22.966,32.49z M23.612,28.156c0-0.547,0.121-0.955,0.36-1.223c0.24-0.269,0.642-0.405,1.205-0.405
		c0.571,0,0.976,0.136,1.211,0.405c0.235,0.269,0.354,0.676,0.354,1.223v2.248c0,0.546-0.119,0.954-0.354,1.224
		c-0.236,0.269-0.64,0.404-1.211,0.404c-0.547,0-0.944-0.136-1.192-0.404c-0.249-0.27-0.373-0.678-0.373-1.224V28.156z"/>
</g>
</svg>
