<?xml version="1.0" encoding="utf-8"?>
<!-- Generator: Adobe Illustrator 16.0.1, SVG Export Plug-In . SVG Version: 6.00 Build 0)  -->
<!DOCTYPE svg PUBLIC "-//W3C//DTD SVG 1.1//EN" "http://www.w3.org/Graphics/SVG/1.1/DTD/svg11.dtd">
<svg version="1.1" id="Layer_1" xmlns="http://www.w3.org/2000/svg" xmlns:xlink="http://www.w3.org/1999/xlink" x="0px" y="0px"
	 width="70.866px" height="56.693px" viewBox="0 0 70.866 56.693" enable-background="new 0 0 70.866 56.693" xml:space="preserve">
<path d="M60.883,30.458L43.934,13.673l-8.567-8.485c-0.349-0.349-0.822-0.542-1.317-0.54l-1.356,0.006L13.388,4.746
	c-0.169,0.002-0.335,0.025-0.495,0.071c-0.051,0.014-0.094,0.041-0.144,0.06c-0.049,0.019-0.095,0.038-0.14,0.06
	C12.412,5.03,12.227,5.142,12.071,5.3c-0.347,0.349-0.542,0.825-0.541,1.321l0.101,20.661c0.002,0.492,0.203,0.965,0.552,1.316
	l25.515,25.269c0.163,0.159,0.354,0.273,0.552,0.362c0.05,0.021,0.101,0.04,0.15,0.06c0.19,0.067,0.388,0.11,0.589,0.112
	c0.012,0,0.021,0.004,0.036,0.004c0.165-0.002,0.329-0.023,0.488-0.067c0.046-0.014,0.087-0.041,0.133-0.059
	c0.049-0.018,0.095-0.036,0.138-0.056c0.197-0.091,0.387-0.205,0.55-0.37l4.78-4.823l6.794-6.861l8.985-9.072
	C61.621,32.363,61.615,31.182,60.883,30.458z M25.737,18.832c-0.27,0.272-0.57,0.491-0.879,0.686
	c-0.097,0.058-0.195,0.105-0.294,0.157c-0.23,0.119-0.467,0.221-0.708,0.297c-0.11,0.037-0.217,0.074-0.326,0.099
	c-0.317,0.079-0.639,0.127-0.964,0.139c-0.04,0.002-0.081,0.014-0.121,0.012c-0.359,0.004-0.72-0.047-1.074-0.125
	c-0.101-0.023-0.195-0.055-0.298-0.086c-0.262-0.078-0.519-0.179-0.767-0.304c-0.099-0.048-0.197-0.095-0.296-0.153
	c-0.321-0.193-0.633-0.412-0.915-0.688c-1.842-1.825-1.855-4.796-0.03-6.638c0.268-0.272,0.57-0.491,0.883-0.686
	c0.091-0.058,0.189-0.101,0.286-0.154c0.232-0.118,0.469-0.222,0.713-0.3c0.108-0.037,0.215-0.071,0.324-0.099
	c0.315-0.078,0.639-0.126,0.962-0.137c0.04-0.001,0.081-0.012,0.119-0.013c0.363-0.003,0.724,0.045,1.078,0.125
	c0.101,0.024,0.197,0.058,0.294,0.087c0.266,0.079,0.522,0.178,0.773,0.304c0.097,0.049,0.195,0.094,0.29,0.152
	c0.321,0.192,0.637,0.411,0.917,0.69C27.545,14.021,27.562,16.995,25.737,18.832z"/>
</svg>
