<?xml version="1.0" encoding="utf-8"?>
<!-- Generator: Adobe Illustrator 16.0.3, SVG Export Plug-In . SVG Version: 6.00 Build 0)  -->
<!DOCTYPE svg PUBLIC "-//W3C//DTD SVG 1.1//EN" "http://www.w3.org/Graphics/SVG/1.1/DTD/svg11.dtd">
<svg version="1.1" id="Layer_1" xmlns="http://www.w3.org/2000/svg" xmlns:xlink="http://www.w3.org/1999/xlink" x="0px" y="0px"
	 width="56.693px" height="56.693px" viewBox="0 0 56.693 56.693" enable-background="new 0 0 56.693 56.693" xml:space="preserve">
<g>
	<path d="M52.396,20.106C50.803,5.519,38.967,5.099,37.623,5.099c-0.152,0-0.252,0.002-0.264,0.004H19.375
		c0,0-0.108-0.004-0.306-0.004c-1.345,0-13.181,0.42-14.773,15.008c-0.032,0.301,0.066,0.6,0.272,0.822
		c0.205,0.221,0.502,0.346,0.799,0.332l12.457-0.422c0.552-0.02,0.992-0.465,1.008-1.016c0.041-1.568,0.643-6.053,2.8-6.104
		c0.852-0.02,1.939,0.016,3.1,0.057c1.008,0.033,2.049,0.068,3.066,0.072c0.027,0.002,0.064,0.004,0.088,0.004h0.92
		c0.033-0.002,0.059-0.002,0.088-0.004c1.016-0.004,2.057-0.039,3.064-0.072c1.162-0.039,2.248-0.076,3.102-0.057
		c2.156,0.051,2.758,4.535,2.799,6.104c0.016,0.551,0.457,0.996,1.008,1.016l12.457,0.422c0.012,0,0.023,0,0.035,0
		c0.291,0,0.566-0.119,0.764-0.332C52.33,20.706,52.43,20.407,52.396,20.106z"/>
	<path d="M49.584,39.685c-0.014-0.088-0.037-0.172-0.072-0.25c-0.006-0.012-0.014-0.025-0.02-0.037
		c-0.035-0.07-0.078-0.135-0.125-0.193c-0.01-0.01-0.014-0.023-0.021-0.031l-14.35-16.42h-0.004v-2.676
		c0-0.961-0.777-1.738-1.738-1.738c-0.959,0-1.736,0.777-1.736,1.738v2.676h-6.346v-2.676c0-0.961-0.779-1.738-1.738-1.738
		s-1.738,0.777-1.738,1.738v2.676L7.348,39.173c-0.009,0.008-0.013,0.021-0.021,0.031c-0.047,0.059-0.09,0.123-0.123,0.193
		c-0.008,0.012-0.015,0.025-0.021,0.037c-0.034,0.078-0.06,0.162-0.073,0.248c-0.004,0.023-0.005,0.045-0.007,0.068
		c-0.003,0.035-0.011,0.07-0.011,0.105v9.094c0,0.576,0.467,1.041,1.043,1.041h2.513v2.676c0,0.959,0.777,1.738,1.737,1.738
		c0.959,0,1.737-0.779,1.737-1.738v-2.676h28.451v2.676c0,0.959,0.777,1.738,1.738,1.738c0.959,0,1.736-0.779,1.736-1.738v-2.676
		h2.514c0.576,0,1.043-0.465,1.043-1.041v-9.094c0-0.035-0.008-0.07-0.012-0.105C49.59,39.728,49.588,39.706,49.584,39.685z
		 M19.772,37.216c0-0.824,0.667-1.49,1.49-1.49s1.488,0.666,1.488,1.49c0,0.822-0.666,1.488-1.488,1.488
		S19.772,38.038,19.772,37.216z M24.391,43.278c-0.582,0.582-1.525,0.582-2.107,0s-0.582-1.525,0-2.105
		c0.582-0.582,1.525-0.582,2.105-0.002C24.971,41.753,24.971,42.696,24.391,43.278z M24.389,33.259
		c-0.58,0.58-1.523,0.582-2.105-0.002c-0.582-0.58-0.582-1.523,0-2.105s1.525-0.582,2.107,0
		C24.971,31.733,24.971,32.677,24.389,33.259z M28.346,28.64c0.824,0,1.49,0.666,1.49,1.488c0,0.824-0.666,1.49-1.49,1.49
		c-0.82,0-1.488-0.666-1.488-1.49C26.857,29.306,27.525,28.64,28.346,28.64z M28.346,45.79c-0.82,0-1.488-0.666-1.488-1.49
		c0-0.822,0.668-1.488,1.488-1.488c0.824,0,1.49,0.666,1.49,1.488C29.836,45.124,29.17,45.79,28.346,45.79z M28.346,40.222
		c-1.598,0-2.895-1.295-2.895-2.896c0-1.6,1.297-2.896,2.895-2.896c1.602,0,2.896,1.297,2.896,2.896
		C31.242,38.927,29.947,40.222,28.346,40.222z M32.305,31.151c0.582-0.582,1.525-0.582,2.105-0.002c0.582,0.584,0.582,1.527,0,2.107
		c-0.58,0.582-1.523,0.582-2.105,0C31.723,32.677,31.723,31.733,32.305,31.151z M34.41,43.28c-0.58,0.58-1.523,0.58-2.105-0.002
		c-0.582-0.58-0.582-1.525,0-2.104c0.582-0.584,1.525-0.584,2.105-0.002C34.992,41.753,34.992,42.696,34.41,43.28z M35.434,38.704
		c-0.822,0-1.49-0.666-1.49-1.488c0-0.824,0.668-1.49,1.49-1.49s1.488,0.666,1.488,1.49C36.922,38.038,36.256,38.704,35.434,38.704z
		"/>
</g>
</svg>
