<?xml version="1.0" encoding="utf-8"?>
<!-- Generator: Adobe Illustrator 16.0.1, SVG Export Plug-In . SVG Version: 6.00 Build 0)  -->
<!DOCTYPE svg PUBLIC "-//W3C//DTD SVG 1.1//EN" "http://www.w3.org/Graphics/SVG/1.1/DTD/svg11.dtd">
<svg version="1.1" id="Layer_1" xmlns="http://www.w3.org/2000/svg" xmlns:xlink="http://www.w3.org/1999/xlink" x="0px" y="0px"
	 width="70.866px" height="56.693px" viewBox="0 0 70.866 56.693" enable-background="new 0 0 70.866 56.693" xml:space="preserve">
<g>
	<path d="M35.772,5.054c-13.63,0-24.719,11.088-24.719,24.719c0,13.629,11.089,24.72,24.719,24.72
		c13.629,0,24.718-11.091,24.718-24.72C60.49,16.142,49.401,5.054,35.772,5.054z M35.772,49.243
		c-10.737,0-19.473-8.735-19.473-19.471c0-10.736,8.736-19.47,19.473-19.47c10.735,0,19.47,8.734,19.47,19.47
		C55.242,40.508,46.507,49.243,35.772,49.243z"/>
	<path d="M45.488,28.796h-9.372V15.459c0-0.809-0.654-1.465-1.463-1.465c-0.806,0-1.464,0.656-1.464,1.465v15.29
		c0,0.309,0.098,0.593,0.262,0.83c0.312,0.662,0.98,1.12,1.759,1.12h10.278c1.078,0,1.95-0.873,1.95-1.95
		C47.438,29.671,46.566,28.796,45.488,28.796z"/>
</g>
</svg>
