<?xml version="1.0" encoding="utf-8"?>
<!-- Generator: Adobe Illustrator 16.0.3, SVG Export Plug-In . SVG Version: 6.00 Build 0)  -->
<!DOCTYPE svg PUBLIC "-//W3C//DTD SVG 1.1//EN" "http://www.w3.org/Graphics/SVG/1.1/DTD/svg11.dtd">
<svg version="1.1" id="Layer_1" xmlns="http://www.w3.org/2000/svg" xmlns:xlink="http://www.w3.org/1999/xlink" x="0px" y="0px"
	 width="56.693px" height="56.693px" viewBox="0 0 56.693 56.693" enable-background="new 0 0 56.693 56.693" xml:space="preserve">
<path d="M48.935,16.995h-17.53l6.914-8.297c0.111,0.018,0.206,0.062,0.321,0.062c1.138,0,2.058-0.92,2.058-2.06
	c0-1.133-0.92-2.059-2.058-2.059c-1.133,0-2.059,0.926-2.059,2.059c0,0.246,0.062,0.479,0.141,0.697l-7.998,9.597h-0.755
	l-7.996-9.597c0.081-0.219,0.14-0.451,0.14-0.697c0-1.133-0.922-2.059-2.059-2.059c-1.135,0-2.06,0.926-2.06,2.059
	c0,1.14,0.925,2.06,2.06,2.06c0.114,0,0.213-0.045,0.32-0.062l6.915,8.297H7.759c-2.272,0-4.116,1.844-4.116,4.115v28.821
	c0,2.275,1.844,4.119,4.116,4.119h41.176c2.273,0,4.116-1.844,4.116-4.119V21.11C53.051,18.839,51.208,16.995,48.935,16.995z
	 M40.697,45.816c0,2.273-1.84,4.115-4.116,4.115H11.878c-2.273,0-4.119-1.842-4.119-4.115V25.229c0-2.274,1.846-4.119,4.119-4.119
	h24.703c2.276,0,4.116,1.845,4.116,4.119V45.816z M46.766,27.418c-1.623,0-2.943-1.321-2.943-2.942c0-1.624,1.32-2.939,2.943-2.939
	c1.62,0,2.938,1.315,2.938,2.939C49.704,26.097,48.386,27.418,46.766,27.418z"/>
</svg>
