<?xml version="1.0" encoding="utf-8"?>
<!-- Generator: Adobe Illustrator 16.0.1, SVG Export Plug-In . SVG Version: 6.00 Build 0)  -->
<!DOCTYPE svg PUBLIC "-//W3C//DTD SVG 1.1//EN" "http://www.w3.org/Graphics/SVG/1.1/DTD/svg11.dtd">
<svg version="1.1" id="Layer_1" xmlns="http://www.w3.org/2000/svg" xmlns:xlink="http://www.w3.org/1999/xlink" x="0px" y="0px"
	 width="70.866px" height="56.693px" viewBox="0 0 70.866 56.693" enable-background="new 0 0 70.866 56.693" xml:space="preserve">
<g>
	<g>
		<path d="M50.55,44.611c-2.884-1.097-5.878-2.419-8.565-3.771c-4.758-2.39-8.551-4.874-9.027-6.377v-1.483
			c1.657-1.669,2.963-3.993,3.735-6.721c1.028-0.71,1.707-1.908,1.707-3.266c0-0.968-0.357-1.841-0.924-2.526v-5.522
			c0-5.703-3.224-9.605-10.592-9.605c-7.177,0-10.594,3.902-10.594,9.605v5.522c-0.566,0.686-0.923,1.56-0.923,2.526
			c0,1.358,0.678,2.555,1.704,3.266c0.774,2.726,2.082,5.052,3.739,6.721v1.483c-0.744,2.351-9.608,7.108-17.595,10.148
			c-0.678,0.26-1.128,0.913-1.128,1.643v6.169c0,0.969,0.785,1.756,1.757,1.756h46.083c0.968,0,1.755-0.787,1.755-1.756v-6.169
			C51.681,45.524,51.231,44.871,50.55,44.611z"/>
	</g>
	<g>
		<path d="M67.922,46.592c-6.331-2.408-13.36-6.182-13.949-8.045V37.37c1.314-1.324,2.348-3.168,2.961-5.328
			c0.816-0.565,1.354-1.516,1.354-2.592c0-0.767-0.283-1.461-0.733-2.004v-4.379c0-4.521-2.556-7.616-8.396-7.616
			c-0.642,0-1.23,0.052-1.793,0.129c-0.171,0.023-0.334,0.055-0.496,0.084c-0.395,0.071-0.768,0.16-1.124,0.269
			c-0.149,0.046-0.307,0.089-0.448,0.141c-0.452,0.165-0.877,0.351-1.256,0.576c-0.086,0.049-0.156,0.114-0.236,0.167
			c-0.292,0.188-0.563,0.393-0.812,0.616c-0.13,0.118-0.246,0.241-0.365,0.368c-0.178,0.19-0.341,0.391-0.493,0.601
			c-0.103,0.14-0.208,0.277-0.3,0.426c-0.201,0.333-0.379,0.682-0.527,1.058c-0.363,0.948-0.55,2.012-0.55,3.18v4.092v0.288
			c-0.45,0.542-0.732,1.236-0.732,2.003c0,1.076,0.535,2.026,1.352,2.591c0.611,2.159,1.649,4.005,2.961,5.329v0.058
			c2.1,1.343,4.587,2.711,7.497,3.817c2.062,0.788,3.449,2.799,3.449,5.009v6.169c0,0.617-0.126,1.203-0.318,1.756h12.46
			c0.77,0,1.393-0.625,1.393-1.393v-4.893C68.819,47.315,68.461,46.798,67.922,46.592z"/>
	</g>
</g>
</svg>
