<?xml version="1.0" encoding="utf-8"?>
<!-- Generator: Adobe Illustrator 16.0.1, SVG Export Plug-In . SVG Version: 6.00 Build 0)  -->
<!DOCTYPE svg PUBLIC "-//W3C//DTD SVG 1.1//EN" "http://www.w3.org/Graphics/SVG/1.1/DTD/svg11.dtd">
<svg version="1.1" id="Layer_1" xmlns="http://www.w3.org/2000/svg" xmlns:xlink="http://www.w3.org/1999/xlink" x="0px" y="0px"
	 width="70.866px" height="56.693px" viewBox="0 0 70.866 56.693" enable-background="new 0 0 70.866 56.693" xml:space="preserve">
<g>
	<path d="M48.733,29.436c-6.699,0-12.129,5.428-12.129,12.127c0,6.701,5.43,12.131,12.129,12.131s12.133-5.43,12.133-12.131
		C60.866,34.863,55.432,29.436,48.733,29.436z M54.174,42.984h-4.023v4.014c0,0.787-0.631,1.422-1.418,1.422
		c-0.783,0-1.418-0.635-1.418-1.422v-4.014h-4.014c-0.787,0-1.418-0.637-1.418-1.418c0-0.787,0.631-1.42,1.418-1.42h4.014v-4.018
		c0-0.785,0.635-1.418,1.418-1.418c0.787,0,1.418,0.633,1.418,1.418v4.018h4.023c0.781,0,1.416,0.633,1.416,1.42
		C55.59,42.348,54.956,42.984,54.174,42.984z"/>
	<path d="M39.471,29.066c1.004-1.357,1.807-3.023,2.332-4.904c0.918-0.645,1.521-1.73,1.521-2.965c0-0.877-0.316-1.67-0.824-2.293
		v-5.01c0-5.174-2.879-8.713-9.465-8.713c-6.414,0-9.467,3.539-9.467,8.713v5.012c-0.506,0.623-0.824,1.414-0.824,2.291
		c0,1.232,0.605,2.318,1.523,2.965c0.689,2.473,1.859,4.584,3.338,6.1v1.344c-0.662,2.133-8.584,6.449-15.721,9.207
		c-0.605,0.236-1.01,0.828-1.01,1.49V47.9c0,0.877,0.703,1.592,1.57,1.592h23.133c-1.48-2.355-2.35-5.133-2.35-8.115
		C33.229,36.33,35.694,31.857,39.471,29.066z"/>
</g>
</svg>
