<?xml version="1.0" encoding="utf-8"?>
<!-- Generator: Adobe Illustrator 16.0.3, SVG Export Plug-In . SVG Version: 6.00 Build 0)  -->
<!DOCTYPE svg PUBLIC "-//W3C//DTD SVG 1.1//EN" "http://www.w3.org/Graphics/SVG/1.1/DTD/svg11.dtd">
<svg version="1.1" id="Layer_1" xmlns="http://www.w3.org/2000/svg" xmlns:xlink="http://www.w3.org/1999/xlink" x="0px" y="0px"
	 width="56.693px" height="56.693px" viewBox="0 0 56.693 56.693" enable-background="new 0 0 56.693 56.693" xml:space="preserve">
<g>
	<path d="M13.984,34.97c0.191,0.257,0.448,0.457,0.77,0.601c0.322,0.144,0.722,0.216,1.201,0.216c0.496,0,0.903-0.09,1.221-0.268
		c0.317-0.18,0.572-0.421,0.764-0.725c0.183,0.304,0.431,0.545,0.745,0.725c0.313,0.178,0.726,0.268,1.24,0.268
		c0.479,0,0.877-0.072,1.195-0.216c0.316-0.144,0.572-0.344,0.764-0.601c0.19-0.258,0.326-0.562,0.404-0.914
		s0.117-0.733,0.117-1.143V29.61c0-0.158-0.07-0.299-0.209-0.426c-0.139-0.125-0.33-0.188-0.574-0.188
		c-0.218,0-0.395,0.063-0.528,0.188c-0.136,0.127-0.202,0.268-0.202,0.426v3.355c0,0.479-0.088,0.83-0.262,1.057
		c-0.174,0.227-0.453,0.34-0.836,0.34c-0.392,0-0.67-0.113-0.835-0.34c-0.166-0.227-0.249-0.578-0.249-1.057v-3.369
		c0-0.191-0.082-0.34-0.248-0.443c-0.166-0.105-0.335-0.157-0.509-0.157c-0.079,0-0.164,0.015-0.255,0.046
		c-0.091,0.03-0.176,0.069-0.254,0.117c-0.078,0.049-0.144,0.106-0.196,0.176c-0.052,0.07-0.078,0.145-0.078,0.223v3.408
		c0,0.479-0.083,0.83-0.249,1.057c-0.165,0.227-0.444,0.34-0.835,0.34c-0.393,0-0.673-0.113-0.843-0.34
		c-0.169-0.227-0.255-0.578-0.255-1.057V29.61c0-0.158-0.067-0.299-0.202-0.426c-0.135-0.125-0.315-0.188-0.542-0.188
		c-0.234,0-0.424,0.063-0.568,0.188c-0.143,0.127-0.215,0.268-0.215,0.426v3.303c0,0.409,0.039,0.79,0.118,1.143
		C13.657,34.408,13.792,34.712,13.984,34.97z"/>
	<path d="M24.507,34.97c0.191,0.257,0.449,0.457,0.771,0.601c0.322,0.144,0.723,0.216,1.201,0.216c0.497,0,0.903-0.09,1.221-0.268
		c0.317-0.18,0.573-0.421,0.765-0.725c0.182,0.304,0.431,0.545,0.744,0.725c0.312,0.178,0.727,0.268,1.24,0.268
		c0.479,0,0.877-0.072,1.194-0.216c0.318-0.144,0.572-0.344,0.765-0.601c0.19-0.258,0.326-0.562,0.404-0.914
		s0.117-0.733,0.117-1.143V29.61c0-0.158-0.07-0.299-0.209-0.426c-0.139-0.125-0.33-0.188-0.574-0.188
		c-0.218,0-0.395,0.063-0.529,0.188c-0.135,0.127-0.201,0.268-0.201,0.426v3.355c0,0.479-0.088,0.83-0.262,1.057
		s-0.453,0.34-0.836,0.34c-0.392,0-0.67-0.113-0.836-0.34c-0.165-0.227-0.248-0.578-0.248-1.057v-3.369
		c0-0.191-0.082-0.34-0.248-0.443c-0.164-0.105-0.335-0.157-0.509-0.157c-0.079,0-0.163,0.015-0.255,0.046
		c-0.091,0.03-0.176,0.069-0.254,0.117c-0.078,0.049-0.145,0.106-0.196,0.176c-0.053,0.07-0.079,0.145-0.079,0.223v3.408
		c0,0.479-0.082,0.83-0.248,1.057c-0.165,0.227-0.443,0.34-0.835,0.34s-0.673-0.113-0.843-0.34
		c-0.169-0.227-0.254-0.578-0.254-1.057V29.61c0-0.158-0.067-0.299-0.203-0.426c-0.135-0.125-0.314-0.188-0.541-0.188
		c-0.235,0-0.424,0.063-0.568,0.188c-0.143,0.127-0.215,0.268-0.215,0.426v3.303c0,0.409,0.039,0.79,0.117,1.143
		S24.315,34.712,24.507,34.97z"/>
	<path d="M35.031,34.97c0.191,0.257,0.448,0.457,0.771,0.601s0.723,0.216,1.201,0.216c0.496,0,0.902-0.09,1.221-0.268
		c0.316-0.18,0.572-0.421,0.764-0.725c0.183,0.304,0.432,0.545,0.744,0.725c0.313,0.178,0.727,0.268,1.24,0.268
		c0.479,0,0.877-0.072,1.195-0.216c0.317-0.144,0.572-0.344,0.764-0.601c0.191-0.258,0.326-0.562,0.404-0.914
		s0.118-0.733,0.118-1.143V29.61c0-0.158-0.07-0.299-0.21-0.426c-0.139-0.125-0.33-0.188-0.574-0.188
		c-0.217,0-0.394,0.063-0.528,0.188c-0.136,0.127-0.202,0.268-0.202,0.426v3.355c0,0.479-0.088,0.83-0.262,1.057
		s-0.453,0.34-0.836,0.34c-0.391,0-0.67-0.113-0.835-0.34s-0.248-0.578-0.248-1.057v-3.369c0-0.191-0.083-0.34-0.248-0.443
		c-0.165-0.105-0.336-0.157-0.509-0.157c-0.078,0-0.164,0.015-0.256,0.046c-0.091,0.03-0.176,0.069-0.254,0.117
		c-0.078,0.049-0.144,0.106-0.195,0.176c-0.053,0.07-0.078,0.145-0.078,0.223v3.408c0,0.479-0.084,0.83-0.249,1.057
		s-0.444,0.34-0.835,0.34c-0.393,0-0.673-0.113-0.843-0.34c-0.169-0.227-0.255-0.578-0.255-1.057V29.61
		c0-0.158-0.067-0.299-0.202-0.426c-0.135-0.125-0.315-0.188-0.542-0.188c-0.234,0-0.424,0.063-0.568,0.188
		c-0.143,0.127-0.215,0.268-0.215,0.426v3.303c0,0.409,0.039,0.79,0.117,1.143S34.839,34.712,35.031,34.97z"/>
	<path d="M45.646,35.786c0.235,0,0.43-0.066,0.582-0.196c0.151-0.131,0.229-0.278,0.229-0.444v-0.326
		c0-0.166-0.077-0.313-0.229-0.444c-0.152-0.13-0.347-0.195-0.582-0.195c-0.261,0-0.467,0.065-0.619,0.195
		c-0.152,0.131-0.229,0.278-0.229,0.444v0.326c0,0.166,0.076,0.313,0.229,0.444C45.179,35.72,45.385,35.786,45.646,35.786z"/>
	<path d="M52.128,8.017H5.622c-0.959,0-1.735,0.777-1.735,1.736v40.205c0,0.959,0.776,1.735,1.735,1.735h46.506
		c0.959,0,1.735-0.776,1.735-1.735V9.753C53.863,8.794,53.087,8.017,52.128,8.017z M46.925,11.538c0.967,0,1.754,0.786,1.754,1.754
		s-0.787,1.753-1.754,1.753c-0.968,0-1.754-0.785-1.754-1.753S45.957,11.538,46.925,11.538z M7.408,12.233
		c0-0.385,0.312-0.695,0.695-0.695h32.09c0.385,0,0.695,0.311,0.695,0.695v1.752c0,0.384-0.311,0.694-0.695,0.694H8.103
		c-0.383,0-0.695-0.311-0.695-0.694V12.233z M50.392,48.223H7.357V18.199h43.034V48.223z"/>
</g>
</svg>
