<?xml version="1.0" encoding="utf-8"?>
<!-- Generator: Adobe Illustrator 16.0.1, SVG Export Plug-In . SVG Version: 6.00 Build 0)  -->
<!DOCTYPE svg PUBLIC "-//W3C//DTD SVG 1.1//EN" "http://www.w3.org/Graphics/SVG/1.1/DTD/svg11.dtd">
<svg version="1.1" id="Layer_1" xmlns="http://www.w3.org/2000/svg" xmlns:xlink="http://www.w3.org/1999/xlink" x="0px" y="0px"
	 width="70.866px" height="56.693px" viewBox="0 0 70.866 56.693" enable-background="new 0 0 70.866 56.693" xml:space="preserve">
<path d="M53.008,11.653c-9.709-9.707-25.443-9.705-35.15,0c-9.709,9.711-9.711,25.447-0.002,35.154
	c9.707,9.709,25.447,9.711,35.156,0.002C62.719,37.104,62.715,21.362,53.008,11.653z M47.497,21.634L33.403,40.087
	c-0.453,0.592-1.137,0.939-1.879,0.957H31.52h-0.053c-0.721,0-1.398-0.314-1.857-0.863l-6.039-7.139
	c-0.418-0.494-0.619-1.125-0.564-1.773s0.357-1.238,0.852-1.656c0.957-0.811,2.625-0.67,3.432,0.285l4.084,4.828l12.252-16.047
	c0.762-0.996,2.412-1.221,3.412-0.459c0.518,0.395,0.85,0.967,0.936,1.611C48.059,20.478,47.891,21.116,47.497,21.634z"/>
</svg>
